<svg version="1.1" id="Layer_1" xmlns="http://www.w3.org/2000/svg" x="0" y="0" viewBox="0 0 108 108" xml:space="preserve"><style>.st2{fill:#eb3d7d}.st6{fill:#f90}.st13{fill:#c299d6}.st14{fill:#8533ad}</style><path d="M33.71 86.08H6.45c-1.63 0-2.94-1.32-2.94-2.94V37.92c0-1.63 1.32-2.94 2.94-2.94H33.7c1.63 0 2.94 1.32 2.94 2.94v45.22a2.93 2.93 0 0 1-2.93 2.94z" fill="#f7b1cb"/><path d="M101.55 86.08H74.29c-1.63 0-2.94-1.32-2.94-2.94V37.92c0-1.63 1.32-2.94 2.94-2.94h27.25c1.63 0 2.94 1.32 2.94 2.94v45.22a2.93 2.93 0 0 1-2.93 2.94z" fill="#ffd699"/><path class="st2" d="M47.69 91.42H16.67c-1.63 0-2.94-1.32-2.94-2.94V35c0-1.63 1.32-2.94 2.94-2.94h31.01c1.63 0 2.94 1.32 2.94 2.94v53.48a2.93 2.93 0 0 1-2.93 2.94z"/><path fill="#d83582" d="M25.51 32.06h9.31v59.36h-9.31z"/><path d="M47.69 89.21H16.67c-1.63 0-2.94-1.32-2.94-2.94V32.79c0-1.63 1.32-2.94 2.94-2.94h31.01c1.63 0 2.94 1.32 2.94 2.94v53.48a2.93 2.93 0 0 1-2.93 2.94z" fill="#ef6497"/><path fill="#de5897" d="M25.51 29.85h9.31v59.36h-9.31z"/><path class="st6" d="M60.31 91.42h31.01c1.63 0 2.94-1.32 2.94-2.94V35c0-1.63-1.32-2.94-2.94-2.94H60.31c-1.63 0-2.94 1.32-2.94 2.94v53.48c0 1.62 1.32 2.94 2.94 2.94z"/><path transform="rotate(-180 77.84 61.739)" fill="#f18b0e" d="M73.19 32.06h9.31v59.36h-9.31z"/><path d="M60.31 89.21h31.01c1.63 0 2.94-1.32 2.94-2.94V32.79c0-1.63-1.32-2.94-2.94-2.94H60.31c-1.63 0-2.94 1.32-2.94 2.94v53.48c0 1.62 1.32 2.94 2.94 2.94z" fill="#ffad33"/><path transform="rotate(-180 77.84 59.527)" fill="#ef9b3d" d="M73.19 29.85h9.31v59.36h-9.31z"/><path d="M77.37 101.12H30.63c-1.63 0-2.94-1.32-2.94-2.94v-71.6c0-1.63 1.32-2.94 2.94-2.94h46.73c1.63 0 2.94 1.32 2.94 2.94v71.6a2.93 2.93 0 0 1-2.93 2.94z" fill="#321a4c"/><path d="M77.37 98.24H30.63c-1.63 0-2.94-1.32-2.94-2.94V23.7c0-1.63 1.32-2.94 2.94-2.94h46.73c1.63 0 2.94 1.32 2.94 2.94v71.6a2.93 2.93 0 0 1-2.93 2.94z" fill="#609"/><circle cx="54" cy="62.43" r="13.08" fill="#55057f"/><g><circle class="st6" cx="54" cy="60.03" r="13.08"/></g><g><path class="st2" d="M50.8 56.73v7.2c0 .69.74 1.11 1.34.77l6.22-3.6c.59-.34.59-1.2 0-1.54l-6.22-3.6a.888.888 0 0 0-1.34.77z"/></g><g><path class="st13" d="M59.47 33.28H37.52c-.55 0-1-.45-1-1s.45-1 1-1h21.95c.55 0 1 .45 1 1s-.45 1-1 1z"/></g><g><path class="st14" d="M70.11 82H37.52c-.28 0-.5-.22-.5-.5s.22-.5.5-.5h32.59c.28 0 .5.22.5.5s-.22.5-.5.5z"/></g><g><path class="st14" d="M70.11 85.93H37.52c-.28 0-.5-.22-.5-.5s.22-.5.5-.5h32.59c.28 0 .5.22.5.5s-.22.5-.5.5z"/></g><g><path class="st14" d="M63.91 89.87H37.52c-.28 0-.5-.22-.5-.5s.22-.5.5-.5H63.9c.28 0 .5.22.5.5s-.22.5-.49.5z"/></g><g><path class="st13" d="M52.38 37.94H37.52c-.55 0-1-.45-1-1s.45-1 1-1h14.85c.55 0 1 .45 1 1s-.44 1-.99 1z"/></g><g><path class="st14" d="M69.74 30.81l.76 1.54a.5.5 0 0 0 .39.28l1.69.25c.42.06.59.58.28.87l-1.23 1.19c-.12.12-.18.29-.15.45l.29 1.69c.07.42-.37.74-.74.54l-1.52-.8a.51.51 0 0 0-.48 0l-1.52.8c-.38.2-.81-.12-.74-.54l.29-1.69a.495.495 0 0 0-.15-.45l-1.23-1.19a.51.51 0 0 1 .28-.87l1.69-.25c.17-.02.31-.13.39-.28l.76-1.54c.21-.39.75-.39.94 0z"/></g></svg>