<svg version="1.1" id="Layer_1" xmlns="http://www.w3.org/2000/svg" x="0" y="0" viewBox="0 0 320 320" xml:space="preserve"><style>.st2{fill:#916666}.st5{fill:#fadb4f}.st6{fill:#a178b5}</style><path d="M103.13 217.15a9.42 9.42 0 0 1 3.79-1.93c4.97-1.24 20.32-5.06 25.45-6.26 6.17-1.44 14.57-7.2 10.91-22.28-3.66-15.08-18.62-12.21-18.62-12.21s-24.8 5.87-29.91 7.05c-5.12 1.17-6.29-3.16-6.29-3.16s-1.57-4.45 3.29-6.94c8.57-4.38 19.69-16.11 19.71-33.68.01-17.57-15.97-34.49-38.01-34.52-22.04-.02-38.98 18.45-36.9 39.17 2.07 20.71 17.81 28.33 20.3 29.39 2.49 1.06 3.54 3.02 2.75 6.82-.39 1.9-2 2.72-3.51 3.06-1.37.31-2.79.24-4.16-.1-3.15-.79-12.25-3.05-26.3-6.41-17.71-4.21-20.34 9.56-20.34 9.56l-1.59 6.03c-2.15 9.19 4.85 14.81 8.05 16.85.86.55 1.8.94 2.79 1.18 4.7 1.15 21.04 5.16 25.74 6.4 5.51 1.45 8.13 4.07 8.65 9.97.52 5.89-2.95 10.07-2.95 10.07-3.82 4.69-24.1 29.17-27.53 33.03-3.44 3.87-4.4 6.22-4.78 10.73-.39 4.5 1.77 7.24 3.04 9.15 1.27 1.91 4.89 4.77 7.74 6.86 2.85 2.1 7.3 2.92 11.37 2.36 4.07-.56 7.75-3.48 9.09-5.07 1.33-1.58 21.04-25.85 22.39-27.52 1.35-1.66 2.52-3.83 6.5-4.07 3.25-.2 5.15 2.3 5.75 3.23.19.3.39.58.62.86 2.39 2.94 14.55 17.91 21.03 25.46 7.21 8.4 14.03 10.5 26.11 1.34S131 272.3 131 272.3s-24.37-28.87-28.3-34.51c-3.93-5.64-3.93-8.79-3.79-12.59.13-3.86 2.41-6.53 4.22-8.05z" fill="#eb3d7d"/><path d="M102.71 288.75c0-72.8 41.22-78.64 86.83-79.81 41.51-1.17 59.64-2.92 82.44 4.97 42.68 14.62 44.15 43.56 42.68 83.03-.88 24.27-64.32 21.63-115.19 21.93-50.86.28-96.76-6.15-96.76-30.12z" fill="#609"/><path class="st2" d="M183.69 137.02c-.29-1.75 54.67-22.22 53.79-5.85-1.17 17.25-1.46 37.71.58 55.25 1.17 8.77 5.55 23.1 5.55 23.1 2.63 10.52-23.65 41.48-38.56 44.99-6.52 1.15-17.37-18.51-22.05-24.35-2.92-3.51-2.24-13.04-1.66-15.38 1.46-5.85 4.39-16.96 3.8-39.18-.28-18.41.3-19.58-1.45-38.58z"/><path d="M183.69 137.02c.58 5.85.88 9.94.88 13.45.58 9.94.88 20.17.58 30.11 0 13.16-1.17 22.22-2.34 28.07 3.8-2.05 11.11-9.94 13.16-12.86 14.03-18.13 32.74-43.85 40.05-68.12-7.6-9.07-52.62 7.59-52.33 9.35z" fill="#875d67"/><path class="st2" d="M249.18 69.48c-14.62-38.88-54.09-48.24-83.32-36.25-43.86 17.84-27.49 38.01-35.38 69.87-3.51 16.96-11.4 23.39-4.97 26.9 3.22 1.75 7.31-.29 9.94 1.75 1.75 1.46 9.94 38.59 13.16 41.81 5.85 5.85 19.3 5.26 26.6 4.39 15.79-1.75 31.57-6.14 44.73-14.33 19-11.69 30.11-30.99 33.04-52.33 1.75-14.03 1.17-28.36-3.8-41.81z"/><path d="M134.87 22.42c-6.14 4.97-10.52 11.4-11.99 19.88-2.05 13.16 8.19 24.85 17.54 32.74 5.85 4.97 27.77 11.99 16.37-3.51 9.65 1.75 19.3 2.34 28.94 1.46 1.75 0 2.92 1.17 3.51 2.63 5.85 16.66 6.72 19.3 6.43 28.65-.29 5.55-.88 7.31 1.17 9.94 1.17 1.46 2.92 2.05 4.97 2.05 1.75 0 3.51-.58 5.26-1.17.58-5.26.58-11.99 4.39-15.79 3.8-2.92 9.36-3.22 13.45-.88 6.14 3.8 7.31 13.16 6.43 19.59-.88 5.55-2.05 10.82-2.05 16.37 0 2.92 1.17 7.31 2.63 9.94.29.58.58 1.46.88 2.34 1.17 2.92 4.39 4.97 7.6 4.09 1.17-.29 2.63-.58 3.22-.58 6.14.29 11.11-11.11 14.03-15.49 4.68-7.02 8.77-14.91 11.69-22.8 6.43-15.79 9.65-33.04 9.36-49.99-.29-12.57-3.22-26.31-18.13-28.07-.58 0-1.46 0-2.05-.29-1.17-.58-1.75-2.34-2.05-3.8-2.92-11.4-15.2-16.37-25.73-19-23.97-6.14-49.41-5.85-73.38.58-7.58 2.34-15.77 5.55-22.49 11.11z" fill="#461e5f"/><path class="st5" d="M190.67 255.11h28.47s.76 12.96-9.15 26.44c-3.26 4.43-4.23 9.95-10.11 2.3-12.71-16.52-9.21-28.74-9.21-28.74z"/><path class="st5" d="M210.74 271.58l-12.81 1.15-5.71 46.13c2.41.02 4.83.02 7.26.01 4.87-.03 9.86-.03 14.9-.03l-3.64-47.26z"/><path class="st6" d="M205.41 254.51c.45-.45 25.53-24.86 25.53-24.86 4.07-3.84 7.46-9.49 9.26-14.69 1.81-4.97 2.49-10.85.45-15.82 4.29 3.84 8.81 7.68 13.11 11.75 5.65 4.97 9.26 8.59 6.55 16.95-1.36 3.62-3.39 7-5.65 10.17-3.38 4.89-14.43 19.78-20.52 27.25a5.08 5.08 0 0 1-6.63 1.09c-7.03-4.42-21.19-12.75-22.1-11.84z"/><path class="st6" d="M187.79 263.77c-1.36.68-2.94 1.81-4.52 2.26-3.39.9-15.79-20.91-18.86-30.5-2.5-7.8-2.54-19.54 2.49-23.01 5.56-3.83 16.65-8.04 16.87-9.4l-1.05 5.99c-1.81 7.23-.35 14.66 4.17 20.54l18.53 24.86c-5.88 2.93-11.76 5.87-17.63 9.26z"/></svg>