<svg width="320" height="320" viewBox="0 0 320 320" fill="none" xmlns="http://www.w3.org/2000/svg">
<path d="M146.1 6H32.5C21.4 6 12.3 15.1 12.3 26.2V296.4C12.3 307.5 21.4 316.6 32.5 316.6H146.1C157.2 316.6 166.3 307.5 166.3 296.4V26.2C166.3 15.1 157.2 6 146.1 6Z" fill="#321A4C"/>
<path d="M153.4 6H39.9C28.8 6 19.7 15.1 19.7 26.2V296.4C19.7 307.5 28.8 316.6 39.9 316.6H153.5C164.6 316.6 173.7 307.5 173.7 296.4V26.2C173.6 15.1 164.6 6 153.4 6Z" fill="#660097"/>
<path d="M151.4 14.2H130.6C128.3 14.2 126.2 16.2 126.2 18.6V22.4C126.2 24.7 124.2 26.8 121.8 26.8H70.9C68.6 26.8 66.5 24.8 66.5 22.4V18.9C66.5 16.6 64.4999 14.5 62.0999 14.5H42.2C33.4 14.2 26.7 20.9 26.7 28.8V294.6C26.7 302.5 33.4 308.9 41.9 308.9H151.4C159.6 308.9 166.6 302.5 166.6 294.6V28.9C166.3 21 159.6 14.2 151.4 14.2Z" fill="#8333AB"/>
<path d="M223.8 282.8H71.5C68.3 282.8 65.8 280.2 65.8 277.1V56.5999C65.8 53.3999 68.4 50.8999 71.5 50.8999H223.9C227.1 50.8999 229.6 53.4999 229.6 56.5999V277.2C229.6 280.4 227 282.8 223.8 282.8Z" fill="#8100A8"/>
<path d="M229.8 282.8H77.5C74.3 282.8 71.8 280.2 71.8 277.1V56.5999C71.8 53.3999 74.4 50.8999 77.5 50.8999H229.9C233.1 50.8999 235.6 53.4999 235.6 56.5999V277.2C235.6 280.4 233 282.8 229.8 282.8Z" fill="#99CC33"/>
<path d="M219.3 237.1H89.6C86.7 237.1 84.3 234.7 84.3 231.8V218.8C84.3 215.9 86.7 213.5 89.6 213.5H216.5C220.9 213.5 224.5 217.1 224.5 221.6V231.8C224.3 234.9 222 237.1 219.3 237.1ZM91 230.4H217.8V221.6C217.8 220.8 217.2 220.2 216.5 220.2H91V230.4Z" fill="#32A04B"/>
<path d="M88.5 75.7998H163.6C164.4 75.7998 165.1 75.0998 165.1 74.2998V65.8998C165.1 63.5998 163.3 61.7998 161.2 61.7998H88.5C87.7 61.7998 87 62.4998 87 63.3998V74.2998C87 75.0998 87.7 75.7998 88.5 75.7998Z" fill="#32A04B"/>
<path d="M167.4 119.8H107.7C107.2 119.8 106.8 119.4 106.8 118.9V107.6C106.8 107.1 107.2 106.7 107.7 106.7H167.4C167.9 106.7 168.3 107.1 168.3 107.6V118.9C168.3 119.4 167.9 119.8 167.4 119.8Z" fill="#32A04B"/>
<path d="M99.9001 120H88.1001C87.6001 120 87.1001 119.6 87.1001 119V90C87.1001 89.5 87.5001 89 88.1001 89H99.9001C100.4 89 100.9 89.4 100.9 90V119C100.9 119.6 100.4 120 99.9001 120Z" fill="#32A04B"/>
<path d="M183.7 134.7H177V201.7H183.7V134.7Z" fill="#32A04B"/>
<path d="M218.3 206H90C87.1 206 84.8 203.6 84.8 200.7V135.6C84.8 132.6 87.1 130.3 90 130.3H218.3C221.2 130.3 223.5 132.7 223.5 135.6V200.7C223.6 203.6 221.2 206 218.3 206ZM91.5 199.3H216.9V137.1H91.5V199.3Z" fill="#32A04B"/>
<path d="M185.7 109.7C183.9 108.7 183.3 107.1 184.1 105.4L185.3 102.8C186.1 101.2 187.5 100.8 189.8 101.8C193.1 103 196.5 104 200 104C202.8 104 205.7 103.2 205.7 100.7C205.7 99.2999 204.9 98.6999 203.5 98.0999C202.3 97.4999 199.8 96.8999 197 96.2999C190.7 94.6999 185 91.5999 185 84.0999C185 77.1999 190.1 73.4999 196.4 72.2999V68.3999C196.4 66.7999 197.8 65.5999 199.7 65.5999H202.8C204.4 65.5999 206.1 66.7999 206.1 68.3999V72.2999C208.7 72.6999 211.4 73.2999 213.4 74.2999C215.2 74.8999 216 76.2999 215.4 78.3999L214.6 80.9999C214 82.7999 212.4 83.5999 210.1 82.7999C206.8 81.5999 203.6 80.7999 200.5 80.7999C197 80.7999 195 81.5999 195 83.5999C195 86.3999 198.3 87.2999 204.4 88.6999C210.9 90.2999 216.4 92.7999 216.4 100.1C216.4 107.6 211.7 111.1 205 112.3V116C205 117.6 203.4 118.8 201.7 118.8H198.6C197 118.8 195.3 117.6 195.3 116V112.5C192 111.9 188.7 111.1 185.7 109.7Z" fill="white"/>
<path d="M221.5 266.6H87.4C86.9 266.6 86.5 266.2 86.5 265.7V245.8C86.5 245.3 86.9 244.9 87.4 244.9H221.6C222.1 244.9 222.5 245.3 222.5 245.8V265.7C222.4 266.2 222 266.6 221.5 266.6Z" fill="#32A04B"/>
</svg>
