<?xml version="1.0" encoding="utf-8"?>
<!-- Generator: Adobe Illustrator 24.3.0, SVG Export Plug-In . SVG Version: 6.00 Build 0)  -->
<svg version="1.1" id="Layer_1" xmlns="http://www.w3.org/2000/svg" xmlns:xlink="http://www.w3.org/1999/xlink" x="0px" y="0px"
	 viewBox="0 0 320 320" style="enable-background:new 0 0 320 320;" xml:space="preserve">
<style type="text/css">
	.st0{fill:#F7B1CB;}
	.st1{fill:#8533AD;}
	.st2{fill:#EB3D7D;}
	.st3{fill:#660099;}
	.st4{fill:#C299D6;}
	.st5{fill:#461E5F;}
	.st6{fill:#CC1F59;}
</style>
<g>
	<g>
		
			<rect x="136.8" y="101.1" transform="matrix(0.6398 -0.7685 0.7685 0.6398 -3.7444 198.139)" class="st0" width="145.5" height="4"/>
	</g>
	<g>
		
			<rect x="226.5" y="111.6" transform="matrix(0.3042 -0.9526 0.9526 0.3042 -12.8987 343.2668)" class="st0" width="4" height="137.6"/>
	</g>
	<g>
		
			<rect x="105.3" y="219.6" transform="matrix(2.441399e-03 -1 1 2.441399e-03 -52.857 390.129)" class="st0" width="127.6" height="4"/>
	</g>
	<g>
		
			<rect x="26.9" y="181.3" transform="matrix(0.9398 -0.3417 0.3417 0.9398 -56.8346 44.0157)" class="st0" width="139.1" height="4"/>
	</g>
	<g>
		
			<rect x="117.2" y="23.4" transform="matrix(0.8223 -0.569 0.569 0.8223 -34.8057 85.2963)" class="st0" width="4" height="150.1"/>
	</g>
	<g>
		<circle class="st1" cx="255" cy="46.2" r="27.9"/>
	</g>
	<g>
		<circle class="st2" cx="75.9" cy="36.7" r="34.1"/>
	</g>
	<g>
		<circle class="st3" cx="30.4" cy="205.1" r="27.9"/>
	</g>
	<g>
		<circle class="st0" cx="168.6" cy="285" r="24.4"/>
	</g>
	<g>
		<circle class="st4" cx="292.4" cy="200.3" r="20.5"/>
	</g>
</g>
<g>
	<g>
		<path class="st2" d="M155.1,67.6l-74.8,63.5c-1.5,1.2-0.6,3.6,1.3,3.6h156.8c1.9,0,2.8-2.4,1.3-3.6l-74.8-63.5
			C162.1,65.2,157.9,65.2,155.1,67.6z"/>
	</g>
	<g>
		<path class="st3" d="M156.9,74.6l-73.5,60.1h153.2l-73.5-60.1C161.3,73.2,158.7,73.2,156.9,74.6z"/>
	</g>
	<g>
		<path class="st1" d="M234,134.2l-71-57.3c-1.8-1.4-4.3-1.4-6.1,0l-71,57.3l-0.8,0.6v96.3h149.3v-96.3L234,134.2z"/>
	</g>
	<g>
		<g>
			<path class="st0" d="M199.4,150.5c-8.3,0-15.1,6.7-15.1,15.1v20.2c0,2.5,2,4.5,4.5,4.5H210c2.5,0,4.5-2,4.5-4.5v-20.2
				C214.5,157.2,207.7,150.5,199.4,150.5z"/>
		</g>
		<g>
			
				<rect x="197.1" y="153.7" transform="matrix(-1.836970e-16 1 -1 -1.836970e-16 370.3856 -28.3956)" class="st5" width="4.6" height="34.6"/>
		</g>
		<g>
			
				<rect x="197.4" y="148.4" transform="matrix(-1 -1.224647e-16 1.224647e-16 -1 399.295 338.9309)" class="st5" width="4.6" height="42.1"/>
		</g>
	</g>
	<g>
		<g>
			<path class="st2" d="M164.1,232.7H112v-78.6c0-4.4,3.6-8,8-8h36.1c4.4,0,8,3.6,8,8V232.7z"/>
		</g>
		<g>
			<g>
				<path class="st5" d="M165.7,232.7h-3.6V152c0-2.3-1.9-4.2-4.2-4.2h-40.3c-2.3,0-4.2,1.9-4.2,4.2v80.6h-3.6V152
					c0-4.3,3.5-7.7,7.7-7.7h40.3c4.3,0,7.7,3.5,7.7,7.7V232.7z"/>
			</g>
		</g>
		<g>
			<circle class="st6" cx="120.1" cy="189" r="3.4"/>
		</g>
	</g>
	<g>
		<path class="st5" d="M112.5,234.2H85.9c-1.3,0-2.4-1.1-2.4-2.4v-0.3c0-1.3,1.1-2.4,2.4-2.4h26.6c1.3,0,2.4,1.1,2.4,2.4v0.3
			C114.9,233.1,113.8,234.2,112.5,234.2z"/>
	</g>
	<g>
		<path class="st5" d="M234.7,234.2h-71.4c-1.3,0-2.4-1.1-2.4-2.4v-0.3c0-1.3,1.1-2.4,2.4-2.4h71.4c1.3,0,2.4,1.1,2.4,2.4v0.3
			C237.1,233.1,236,234.2,234.7,234.2z"/>
	</g>
</g>
<g>
	<path class="st5" d="M199.4,150.5c8.3,0,15.1,6.7,15.1,15.1v20.2c0,2.5-2,4.5-4.5,4.5h-21.2c-2.5,0-4.5-2-4.5-4.5v-20.2
		C184.3,157.2,191.1,150.5,199.4,150.5 M199.4,147.5c-10,0-18.1,8.1-18.1,18.1v20.2c0,4.1,3.4,7.5,7.5,7.5H210
		c4.1,0,7.5-3.4,7.5-7.5v-20.2C217.5,155.6,209.4,147.5,199.4,147.5L199.4,147.5z"/>
</g>
</svg>
