<svg version="1.1" id="Camada_1" xmlns="http://www.w3.org/2000/svg" x="0" y="0" viewBox="0 0 320 320" xml:space="preserve"><style>.st1{fill:#edccb8}.st2{fill:#fa6324}.st3{fill:#ffad33}.st7{fill:#d83582}.st8{fill:#eb3d7d}</style><path d="M13.1 162.8c-14.1-15.9 12.2-20.9 34.4 1.9 14.4 15 31.2 39 39.4 50.9.9 1.2 2.5 1.6 3.7.6.6-.3.9-1.2.9-1.9.3-30.6 1.6-135.3 4.4-168.4 2.2-24.7 20.6-21.9 21.2-4.1.3 13.4 4.1 60.9 5.6 85.3 0 .6.6 1.2 1.2 1.2s1.2-.6 1.2-1.2c1.2-33.7 3.4-95.9 5.9-107.5 4-18 19.9-19.3 20.8.4.6 14.1 5.6 72.5 7.2 104.3.3.6.9 1.2 1.6.9.6 0 .9-.6.9-.9 2.2-30.9 6.6-85 8.4-98.1 2.8-18.7 20.3-13.1 20.3 2.5 0 15 1.9 74.7 3.1 101.5.3.6.9 1.2 1.6.9.6 0 .9-.6.9-.9 2.5-21.2 6.9-57.8 8.1-69.7 1.9-17.2 20-22.8 20.6 6.6s4.4 136.2 2.8 182.7c-2.8 73.7-101.8 84.3-140.9 27.8-14.8-21.7-54.5-93.3-73.3-114.8z" fill="#f4d7ba"/><path class="st1" d="M141.5 255c-.2 0-.4-.1-.6-.3-12-15.4-28.2-26.3-47.1-31.6-.4-.1-.6-.5-.5-.9.1-.4.5-.6.9-.5 19.2 5.3 35.7 16.4 47.9 32.1.3.3.2.8-.1 1.1-.2.1-.3.1-.5.1z"/><path class="st1" d="M116.3 199h87.8c4.1 0 7.5 3.4 7.5 7.5v34c0 4.1-3.4 7.5-7.5 7.5h-87.8c-4.1 0-7.5-3.4-7.5-7.5v-34c0-4.1 3.4-7.5 7.5-7.5z"/><path class="st2" d="M115.3 209.9c1.3 0 2.6-.4 3.5-1.3l44.5-31.7-44.5 31.7c-.9.9-2.2 1.3-3.5 1.3z"/><path class="st3" d="M216.2 208.6c-.9.9-1.8 1.3-3.1 1.8.9-.5 2.2-1.4 3.1-1.8zm-2.2-62.2c1.3 1.3 2.6 2.6 3.1 4.4-.9-1.3-1.8-3-3.1-4.4z"/><path d="M115.3 209.9h-1.8c.4.4 1.3.4 1.8 0zm-1.8 0c-1.3-.4-2.2-.9-3.1-1.3.9.4 1.8.9 3.1 1.3zm-5.3-53.3c0-4 1.8-7.5 4.4-9.7-2.6 2.2-4.4 5.7-4.4 9.7zm55.1-52v72.3-72.3zm50.7 41.8l-22.5-19.8 22.5 19.8z" fill="none"/><path d="M109.5 139.4H210v94.8c0 3.5-3.1 6.6-6.6 6.6h-87.3c-3.5 0-6.6-3.1-6.6-6.6v-94.8z" fill="#8533ad"/><path d="M191.5 106.8l-26.4-23.4c-1.8-1.3-3.5-2.2-5.7-2.2s-4 .9-5.7 2.2l-44.1 38.8v77.6l49.8-35.7 50.7 36.6v-77.6l-18.6-16.3z" fill="#791fa5"/><path class="st7" d="M154 68.2L102 114c-3.5 2.6-5.3 7.1-5.3 11v53.8c0 2.2.9 4 2.6 5.7.9.9 2.2 1.3 3.5 1.8h1.8c1.3 0 2.6-.4 4-1.3l50.7-36.6V66c-1.8 0-3.6.9-5.3 2.2z"/><path class="st8" d="M220.3 119.4c-.9-1.8-2.2-3.5-3.5-5.3l-25.6-22.5-26.4-23.4c-1.8-1.3-3.5-2.2-5.7-2.2v83l51.1 36.6c1.3.9 3.5 1.3 5.7.9 1.3-.4 2.6-.9 3.5-1.8 1.8-1.3 2.6-3.5 2.6-5.7v-53.3c-.4-2.3-.8-4.5-1.7-6.3z"/><path class="st3" d="M147.4 199.3h26.4c2.6 0 4.8 2.2 4.8 4.8v36.6H143v-36.6c-.4-2.6 1.8-4.3 4.4-4.8z"/><circle class="st2" cx="170.4" cy="220.5" r="4.8"/><path class="st2" d="M199 135.4l-17.6-14.1c-.9-.4-.9-1.3-1.3-2.2V98.4c0-1.8 1.3-3.1 3.1-3.1h17.6c1.8 0 3.1 1.3 3.1 3.1v34.4c0 1.8-1.3 3.1-3.1 2.6-.5.5-1.4.5-1.8 0z"/><path d="M179.6 93.5h24.7c1.8 0 3.5 1.3 3.5 3.5v15.9c0 1.8-1.3 3.5-3.5 3.5h-24.7c-1.8 0-3.5-1.3-3.5-3.5V97.1c.4-2.2 1.7-3.6 3.5-3.6z" fill="#f18b0e"/><path class="st3" d="M179.6 87.4h24.7c1.8 0 3.5 1.3 3.5 3.5v15.9c0 1.8-1.3 3.5-3.5 3.5h-24.7c-1.8 0-3.5-1.3-3.5-3.5V90.9c.4-2.2 1.7-3.5 3.5-3.5z"/><path class="st7" d="M182.7 91.8h18.5c.9 0 1.8.9 1.8 1.8v9.3c0 .9-.9 1.8-1.8 1.8h-18.5c-.9 0-1.8-.9-1.8-1.8v-9.3c0-.9.9-1.8 1.8-1.8z"/><g><path class="st8" d="M252.1 173.8c-.5 0-1-.2-1.4-.6l-12.5-12.5c-.8-.8-.8-2 0-2.8.8-.8 2-.8 2.8 0l12.5 12.5c.8.8.8 2 0 2.8-.4.4-.9.6-1.4.6zm-183 0c-.5 0-1-.2-1.4-.6-.8-.8-.8-2 0-2.8l12.5-12.5c.8-.8 2-.8 2.8 0 .8.8.8 2 0 2.8l-12.5 12.5c-.4.4-.9.6-1.4.6zm195.8-34h-17.5c-1.1 0-2-.9-2-2s.9-2 2-2h17.5c1.1 0 2 .9 2 2s-.9 2-2 2zm-191.2 0H55.9c-1.1 0-2-.9-2-2s.9-2 2-2h17.8c1.1 0 2 .9 2 2s-.9 2-2 2zm7.9-20c-.5 0-1-.2-1.4-.6l-12.5-12.5c-.8-.8-.8-2 0-2.8.8-.8 2-.8 2.8 0L83 116.4c.8.8.8 2 0 2.8-.4.4-.9.6-1.4.6zm158 0c-.5 0-1-.2-1.4-.6-.8-.8-.8-2 0-2.8l12.5-12.5c.8-.8 2-.8 2.8 0 .8.8.8 2 0 2.8L241 119.2c-.4.4-.9.6-1.4.6z"/></g></svg>