<svg width="20" height="20" viewBox="0 0 20 20" fill="none" xmlns="http://www.w3.org/2000/svg">
<rect width="1.11236" height="12.0517" transform="matrix(0.46082 -0.887493 0.424165 0.905585 0 8.15503)" fill="#CD7352"/>
<rect width="1.11236" height="12.0517" transform="matrix(0.46082 -0.887493 0.424165 0.905585 9.5437 8.87158)" fill="#CD7352"/>
<rect width="1.11706" height="12.0036" transform="matrix(-0.455923 -0.890019 0.428884 -0.903359 5.30811 19.2834)" fill="#CD7352"/>
<rect width="1.11706" height="12.0036" transform="matrix(-0.455923 -0.890019 0.428884 -0.903359 14.8518 20.0002)" fill="#CD7352"/>
<rect width="1.11236" height="12.0517" transform="matrix(0.46082 -0.887493 0.424165 0.905585 0 0.987305)" fill="#CD7352"/>
<rect width="1.11236" height="12.0517" transform="matrix(0.46082 -0.887493 0.424165 0.905585 9.5437 1.7041)" fill="#CD7352"/>
<rect width="1.11706" height="12.0036" transform="matrix(-0.455923 -0.890019 0.428884 -0.903359 5.30811 12.1157)" fill="#CD7352"/>
<rect width="1.11706" height="12.0036" transform="matrix(-0.455923 -0.890019 0.428884 -0.903359 14.8518 12.8325)" fill="#CD7352"/>
</svg>
