<svg width="20" height="20" viewBox="0 0 20 20" fill="none" xmlns="http://www.w3.org/2000/svg">
<path d="M17.443 11.3418C17.67 10.9108 17.8001 10.4208 17.8001 9.8998C17.8001 8.5756 16.9683 7.4484 15.7999 7.0042C15.7999 7.0028 15.8001 7.0014 15.8001 6.9998C15.8001 4.6802 13.9196 2.7998 11.6 2.7998C9.64325 2.7998 8.00385 4.14 7.53745 5.9512C7.24225 5.8542 6.92765 5.7998 6.60005 5.7998C5.06165 5.7998 3.79545 6.9584 3.62205 8.4502C2.58125 8.6704 1.80005 9.5936 1.80005 10.6998C1.80005 11.97 2.82985 12.9998 4.10005 12.9998C4.13545 12.9998 4.17045 12.9974 4.20525 12.9954C4.20445 13.0304 4.20005 13.0646 4.20005 13.0998C4.20005 15.3642 6.03565 17.1998 8.30005 17.1998C9.58745 17.1998 10.735 16.6054 11.4868 15.677C11.9224 16.122 12.528 16.3998 13.2 16.3998C14.13 16.3998 14.9349 15.8698 15.3333 15.0962C15.5437 15.1632 15.7675 15.1998 16.0001 15.1998C17.2151 15.1998 18.2001 14.2148 18.2001 12.9998C18.2001 12.3376 17.906 11.7452 17.443 11.3418Z" fill="#C7EDE6"/>
<path d="M14.5 8.6998V8.7998H13.9V8.6998C13.9 8.6998 13.0516 8.6998 12.8 8.6998C12.303 8.6998 11.9 8.2968 11.9 7.7998C11.9 7.3332 12.2564 6.954 12.711 6.9088C12.7066 6.8726 12.7 6.8372 12.7 6.7998C12.7 6.3028 13.103 5.8998 13.6 5.8998C13.8876 5.8998 14.1406 6.037 14.3054 6.247C14.3334 5.7198 14.7658 5.2998 15.3 5.2998C15.8522 5.2998 16.3 5.7476 16.3 6.2998C16.3 6.389 16.2846 6.4738 16.2626 6.5562C16.391 6.4008 16.5826 6.2998 16.8 6.2998C17.1562 6.2998 17.4468 6.5668 17.491 6.9108C17.5272 6.9064 17.5626 6.8998 17.6 6.8998C18.097 6.8998 18.5 7.3028 18.5 7.7998C18.5 8.2968 18.097 8.6998 17.6 8.6998C17.103 8.6998 15.7 8.6998 15.7 8.6998H14.5Z" fill="#FDFCEF"/>
<path d="M15.3 5.2002C15.9066 5.2002 16.4 5.6936 16.4 6.3002C16.4 6.3034 16.4 6.3064 16.4 6.3096C16.5204 6.2386 16.658 6.2002 16.8 6.2002C17.1662 6.2002 17.4822 6.4524 17.5716 6.8012C17.581 6.8006 17.5904 6.8002 17.6 6.8002C18.1514 6.8002 18.6 7.2488 18.6 7.8002C18.6 8.3516 18.1514 8.8002 17.6 8.8002H14.5C14.4448 8.8002 14.4 8.7554 14.4 8.7002C14.4 8.645 14.4448 8.6002 14.5 8.6002H17.6C18.0412 8.6002 18.4 8.2414 18.4 7.8002C18.4 7.359 18.0412 7.0002 17.6 7.0002C17.5766 7.0002 17.554 7.0036 17.5314 7.0066L17.5032 7.0104C17.499 7.011 17.495 7.0112 17.4908 7.0112C17.4416 7.0112 17.3984 6.9742 17.3918 6.9238C17.3536 6.6252 17.0992 6.4002 16.8 6.4002C16.623 6.4002 16.4554 6.4804 16.3398 6.6202C16.3202 6.6438 16.2916 6.6566 16.2626 6.6566C16.247 6.6566 16.2314 6.653 16.217 6.6454C16.1752 6.624 16.1542 6.5762 16.1662 6.5308C16.1892 6.4438 16.2 6.3706 16.2 6.3002C16.2 5.804 15.7962 5.4002 15.3 5.4002C14.8238 5.4002 14.4306 5.7746 14.4052 6.2528C14.403 6.2944 14.3752 6.3302 14.3354 6.3428C14.3254 6.346 14.3152 6.3476 14.305 6.3476C14.275 6.3476 14.2458 6.3338 14.2266 6.3092C14.0724 6.1128 13.8442 6.0002 13.6 6.0002C13.1588 6.0002 12.8 6.359 12.8 6.8002C12.8 6.8236 12.8034 6.8462 12.8064 6.8688L12.8102 6.897C12.8134 6.9238 12.8058 6.9506 12.789 6.9716C12.7722 6.9926 12.7476 7.006 12.721 7.0086C12.3098 7.0496 12 7.39 12 7.8002C12 8.2414 12.3588 8.6002 12.8 8.6002H13.9C13.9552 8.6002 14 8.645 14 8.7002C14 8.7554 13.9552 8.8002 13.9 8.8002H12.8C12.2486 8.8002 11.8 8.3516 11.8 7.8002C11.8 7.3208 12.1378 6.9176 12.6006 6.8248C12.6002 6.8166 12.6 6.8084 12.6 6.8002C12.6 6.2488 13.0486 5.8002 13.6 5.8002C13.8352 5.8002 14.0586 5.8834 14.2366 6.033C14.3562 5.5522 14.789 5.2002 15.3 5.2002Z" fill="#472B29"/>
<path d="M15.6 6.59961C15.8806 6.59961 16.1218 6.79941 16.1826 7.06781C16.256 7.02341 16.3398 6.99961 16.425 6.99961C16.6654 6.99961 16.8646 7.17901 16.8956 7.41321C16.9362 7.40401 16.9748 7.39961 17.0126 7.39961C17.3184 7.39961 17.5748 7.63961 17.5962 7.94601C17.598 7.97361 17.5772 7.99761 17.5498 7.99961C17.5486 7.99961 17.5474 7.99961 17.5462 7.99961C17.5202 7.99961 17.4982 7.97941 17.4964 7.95321C17.4786 7.69901 17.2662 7.49961 17.0126 7.49961C16.9668 7.49961 16.9186 7.50801 16.865 7.52501C16.8606 7.52641 16.856 7.52701 16.8516 7.52701C16.8406 7.52701 16.8296 7.52301 16.8204 7.51621C16.8076 7.50701 16.8 7.49061 16.8 7.47461C16.8 7.26781 16.6318 7.09961 16.425 7.09961C16.3356 7.09961 16.248 7.13321 16.1788 7.19421C16.1694 7.20241 16.1576 7.20681 16.1458 7.20681C16.1394 7.20681 16.1332 7.20561 16.1272 7.20301C16.1096 7.19601 16.0976 7.17961 16.0962 7.16061C16.0754 6.90201 15.8576 6.69961 15.6 6.69961C15.5584 6.69961 15.515 6.70641 15.4636 6.72101C15.459 6.72241 15.4542 6.72301 15.4496 6.72301C15.4278 6.72301 15.4082 6.70841 15.4018 6.68661C15.3942 6.66001 15.4096 6.63241 15.4362 6.62481C15.4966 6.60761 15.5488 6.59961 15.6 6.59961ZM12.8234 6.89961C13.0886 6.89961 13.325 7.07901 13.3982 7.33601C13.4058 7.36261 13.3904 7.39021 13.3638 7.39781C13.359 7.39901 13.3544 7.39961 13.35 7.39961C13.3282 7.39961 13.3082 7.38521 13.302 7.36321C13.241 7.14921 13.0442 6.99961 12.8234 6.99961C12.8 6.99961 12.7774 7.00241 12.755 7.00541C12.7526 7.00581 12.7504 7.00601 12.748 7.00601C12.7238 7.00601 12.7022 6.98761 12.6988 6.96261C12.695 6.93521 12.7142 6.91001 12.7416 6.90641C12.7684 6.90281 12.7956 6.89961 12.8234 6.89961Z" fill="#472B29"/>
<path d="M17.3 13.5996H15.3C15.2448 13.5996 15.2 13.5548 15.2 13.4996C15.2 13.4444 15.2448 13.3996 15.3 13.3996H17.3C17.3552 13.3996 17.4 13.4444 17.4 13.4996C17.4 13.5548 17.3554 13.5996 17.3 13.5996ZM17.9 13.5996H17.7C17.6448 13.5996 17.6 13.5548 17.6 13.4996C17.6 13.4444 17.6448 13.3996 17.7 13.3996H17.9C17.9552 13.3996 18 13.4444 18 13.4996C18 13.5548 17.9554 13.5996 17.9 13.5996ZM18.8982 13.9996H17.1C17.0448 13.9996 17 13.9548 17 13.8996C17 13.8444 17.0448 13.7996 17.1 13.7996H18.8982C18.9534 13.7996 18.9982 13.8444 18.9982 13.8996C18.9982 13.9548 18.9534 13.9996 18.8982 13.9996ZM16.7 13.9996H16.5C16.4448 13.9996 16.4 13.9548 16.4 13.8996C16.4 13.8444 16.4448 13.7996 16.5 13.7996H16.7C16.7552 13.7996 16.8 13.8444 16.8 13.8996C16.8 13.9548 16.7554 13.9996 16.7 13.9996ZM16.1 13.9996H15.7C15.6448 13.9996 15.6 13.9548 15.6 13.8996C15.6 13.8444 15.6448 13.7996 15.7 13.7996H16.1C16.1552 13.7996 16.2 13.8444 16.2 13.8996C16.2 13.9548 16.1554 13.9996 16.1 13.9996ZM17.3 14.3996H16.9C16.8448 14.3996 16.8 14.3548 16.8 14.2996C16.8 14.2444 16.8448 14.1996 16.9 14.1996H17.3C17.3552 14.1996 17.4 14.2444 17.4 14.2996C17.4 14.3548 17.3552 14.3996 17.3 14.3996ZM17.9 12.5996C17.8646 12.5996 17.7354 12.5996 17.7 12.5996C17.6448 12.5996 17.6 12.6444 17.6 12.6996C17.6 12.7548 17.6448 12.7996 17.7 12.7996C17.7354 12.7996 17.8646 12.7996 17.9 12.7996C17.9552 12.7996 18 12.7548 18 12.6996C18 12.6444 17.9552 12.5996 17.9 12.5996ZM17.9 12.9996C17.8646 12.9996 16.9354 12.9996 16.9 12.9996C16.8448 12.9996 16.8 13.0444 16.8 13.0996C16.8 13.1548 16.8448 13.1996 16.9 13.1996C16.9354 13.1996 17.8646 13.1996 17.9 13.1996C17.9552 13.1996 18 13.1548 18 13.0996C18 13.0444 17.9552 12.9996 17.9 12.9996ZM18.9 13.3996C18.8646 13.3996 18.3354 13.3996 18.3 13.3996C18.2448 13.3996 18.2 13.4444 18.2 13.4996C18.2 13.5548 18.2448 13.5996 18.3 13.5996C18.3354 13.5996 18.8646 13.5996 18.9 13.5996C18.9552 13.5996 19 13.5548 19 13.4996C19 13.4444 18.9552 13.3996 18.9 13.3996Z" fill="white"/>
<path d="M9.69998 4.00039H7.69998C7.64478 4.00039 7.59998 3.95559 7.59998 3.90039C7.59998 3.84519 7.64478 3.80039 7.69998 3.80039H9.69998C9.75518 3.80039 9.79998 3.84519 9.79998 3.90039C9.79998 3.95559 9.75518 4.00039 9.69998 4.00039ZM10.5 4.00039H10.1C10.0448 4.00039 9.99998 3.95559 9.99998 3.90039C9.99998 3.84519 10.0448 3.80039 10.1 3.80039H10.5C10.5552 3.80039 10.6 3.84519 10.6 3.90039C10.6 3.95559 10.5552 4.00039 10.5 4.00039ZM11.5 4.40039H9.49998C9.44478 4.40039 9.39998 4.35559 9.39998 4.30039C9.39998 4.24519 9.44478 4.20039 9.49998 4.20039H11.5C11.5552 4.20039 11.6 4.24519 11.6 4.30039C11.6 4.35559 11.5554 4.40039 11.5 4.40039ZM9.09998 4.40039H8.89998C8.84478 4.40039 8.79998 4.35559 8.79998 4.30039C8.79998 4.24519 8.84478 4.20039 8.89998 4.20039H9.09998C9.15518 4.20039 9.19998 4.24519 9.19998 4.30039C9.19998 4.35559 9.15518 4.40039 9.09998 4.40039ZM8.49398 4.40039H8.09998C8.04478 4.40039 7.99998 4.35559 7.99998 4.30039C7.99998 4.24519 8.04478 4.20039 8.09998 4.20039H8.49398C8.54918 4.20039 8.59398 4.24519 8.59398 4.30039C8.59398 4.35559 8.54918 4.40039 8.49398 4.40039ZM10.3 3.60039H9.29998C9.24478 3.60039 9.19998 3.55559 9.19998 3.50039C9.19998 3.44519 9.24478 3.40039 9.29998 3.40039H10.3C10.3552 3.40039 10.4 3.44519 10.4 3.50039C10.4 3.55559 10.3554 3.60039 10.3 3.60039ZM9.69998 4.80039H9.29998C9.24478 4.80039 9.19998 4.75559 9.19998 4.70039C9.19998 4.64519 9.24478 4.60039 9.29998 4.60039H9.69998C9.75518 4.60039 9.79998 4.64519 9.79998 4.70039C9.79998 4.75559 9.75518 4.80039 9.69998 4.80039Z" fill="white"/>
<path d="M10.4 5.34961C9.16674 5.34961 7.984 5.83952 7.11195 6.71156C6.23991 7.58361 5.75 8.76635 5.75 9.99961C5.75 11.2329 6.23991 12.4156 7.11195 13.2877C7.984 14.1597 9.16674 14.6496 10.4 14.6496C11.6333 14.6496 12.816 14.1597 13.688 13.2877C14.5601 12.4156 15.05 11.2329 15.05 9.99961C15.05 8.76635 14.5601 7.58361 13.688 6.71156C12.816 5.83952 11.6333 5.34961 10.4 5.34961V5.34961Z" fill="#78A2D2"/>
<path d="M10.4 14.79C7.75879 14.79 5.60999 12.6412 5.60999 9.99996C5.60999 7.35876 7.75879 5.20996 10.4 5.20996C13.0412 5.20996 15.19 7.35876 15.19 9.99996C15.19 12.6412 13.0412 14.79 10.4 14.79ZM10.4 5.48996C7.91319 5.48996 5.88999 7.51296 5.88999 9.99996C5.88999 12.487 7.91319 14.51 10.4 14.51C12.8868 14.51 14.91 12.487 14.91 9.99996C14.91 7.51296 12.8868 5.48996 10.4 5.48996Z" fill="#472B29"/>
<path d="M13.8798 11.8373C13.8652 11.8373 13.8502 11.8339 13.8362 11.8271C13.7864 11.8029 13.7658 11.7431 13.79 11.6935C13.8152 11.6417 13.8392 11.5895 13.8618 11.5371C13.9498 11.3329 14.0198 11.1193 14.07 10.9019C14.0826 10.8479 14.1362 10.8143 14.19 10.8269C14.2438 10.8395 14.2774 10.8931 14.265 10.9469C14.212 11.1761 14.1382 11.4011 14.0456 11.6163C14.0218 11.6717 13.9966 11.7267 13.97 11.7811C13.9524 11.8167 13.9168 11.8373 13.8798 11.8373Z" fill="#472B29"/>
<path d="M14.2822 10.4757C14.2792 10.4757 14.2762 10.4755 14.2732 10.4753C14.2182 10.4703 14.1776 10.4215 14.1826 10.3667C14.19 10.2849 14.1948 10.2027 14.1968 10.1207C14.2096 9.61034 14.122 9.11134 13.937 8.63734C13.9168 8.58594 13.9424 8.52794 13.9938 8.50794C14.0456 8.48774 14.1032 8.51294 14.1234 8.56474C14.3184 9.06334 14.4104 9.58874 14.397 10.1259C14.3948 10.2123 14.3898 10.2987 14.382 10.3849C14.377 10.4367 14.3334 10.4757 14.2822 10.4757Z" fill="#472B29"/>
<path d="M7.54681 7.44782C7.52221 7.44782 7.49781 7.43882 7.47861 7.42082C7.43821 7.38322 7.4362 7.31982 7.4738 7.27962C8.12561 6.58142 9.00761 6.14042 9.95741 6.03782C10.0132 6.03122 10.0616 6.07162 10.0676 6.12642C10.0736 6.18122 10.0338 6.23062 9.97901 6.23662C9.07681 6.33402 8.23901 6.75302 7.62021 7.41582C7.60021 7.43722 7.57361 7.44782 7.54681 7.44782Z" fill="#472B29"/>
<path d="M7.74416 12.9569C7.71956 12.9569 7.69516 12.9479 7.67596 12.9299C6.31356 11.6579 6.00335 9.64286 6.92156 8.03006C6.94876 7.98186 7.00976 7.96546 7.05796 7.99246C7.10596 8.01986 7.12276 8.08086 7.09536 8.12886C6.22336 9.66106 6.51816 11.5751 7.81256 12.7837C7.85296 12.8213 7.85496 12.8847 7.81736 12.9249C7.79756 12.9463 7.77096 12.9569 7.74416 12.9569Z" fill="#472B29"/>
<path d="M12.103 13.6242C12.0658 13.6242 12.03 13.6034 12.0128 13.5676C11.9888 13.518 12.0096 13.4582 12.0594 13.4342C12.4808 13.231 12.8578 12.9532 13.1802 12.6082C13.3102 12.4688 13.4304 12.3192 13.5374 12.1632C13.5686 12.118 13.631 12.1066 13.6764 12.1374C13.722 12.1686 13.7336 12.231 13.7022 12.2764C13.5896 12.4402 13.4632 12.5978 13.3264 12.7444C12.9872 13.1076 12.5902 13.4002 12.1464 13.6142C12.1322 13.6212 12.1174 13.6242 12.103 13.6242Z" fill="#472B29"/>
<path d="M9.7 14.5999V11.2999H8.5V10.0999H9.7V8.90911C9.674 7.84071 10.75 6.78331 12.5 7.37751V8.49991L11.8256 8.49571C11.3068 8.49571 11.1 8.61711 11.1 8.97771V10.0999H12.4654L12.2254 11.2999H11.1V14.5999" fill="white"/>
<path d="M11.2 14.6002H11V11.2002H12.1434L12.3434 10.2002H11V8.97798C11 8.46638 11.3968 8.39598 11.8256 8.39598L12.4 8.39958V7.45038C11.6312 7.20598 10.934 7.27418 10.4304 7.64498C10.0238 7.94378 9.78822 8.41558 9.80002 8.90718V10.2002H8.60002V11.2002H9.80002V14.6002H9.60002V11.4002H8.40002V10.0002H9.60002V8.90938C9.58662 8.35518 9.85262 7.82118 10.312 7.48358C10.8848 7.06278 11.6736 6.99138 12.5322 7.28318L12.6 7.30618V8.60078L11.825 8.59598C11.2968 8.59598 11.2 8.72478 11.2 8.97798V10.0002H12.5874L12.3074 11.4002H11.2V14.6002Z" fill="#472B29"/>
<path d="M10.4001 14.7859C7.76126 14.7859 5.61426 12.6389 5.61426 9.99987C5.61426 7.36087 7.76126 5.21387 10.4001 5.21387C13.0389 5.21387 15.1859 7.36107 15.1859 9.99987C15.1859 12.6387 13.0389 14.7859 10.4001 14.7859ZM10.4001 5.49407C7.91566 5.49407 5.89426 7.51527 5.89426 9.99987C5.89426 12.4845 7.91566 14.5057 10.4001 14.5057C12.8845 14.5057 14.9059 12.4845 14.9059 9.99987C14.9059 7.51527 12.8845 5.49407 10.4001 5.49407Z" fill="#472B29"/>
<path d="M7.29995 13.2992C7.29995 13.2992 7.61335 13.2992 7.99995 13.2992C8.38655 13.2992 8.69995 12.9858 8.69995 12.5992C8.69995 12.243 8.43295 11.9524 8.08895 11.9082C8.09455 11.8724 8.09995 11.8366 8.09995 11.7992C8.09995 11.4126 7.78655 11.0992 7.39995 11.0992C7.19355 11.0992 7.00995 11.1902 6.88195 11.3322C6.80515 10.9706 6.48455 10.6992 6.09995 10.6992C5.65815 10.6992 5.29995 11.0574 5.29995 11.4992C5.29995 11.5374 5.30595 11.574 5.31115 11.6108C5.22555 11.542 5.11835 11.4992 4.99995 11.4992C4.75435 11.4992 4.55095 11.6766 4.50895 11.9102C4.47315 11.9046 4.43735 11.8992 4.39995 11.8992C4.01335 11.8992 3.69995 12.2126 3.69995 12.5992C3.69995 12.9858 4.01335 13.2992 4.39995 13.2992C4.78655 13.2992 5.89995 13.2992 5.89995 13.2992V13.3992H7.29995V13.2992Z" fill="#FDFCEF"/>
<path d="M7.64995 12.3998C7.62235 12.3998 7.59995 12.3774 7.59995 12.3498C7.59995 12.1052 7.79895 11.9062 8.04355 11.9062C8.05035 11.908 8.19095 11.906 8.29235 11.9334C8.31895 11.9406 8.33475 11.968 8.32755 11.9946C8.32035 12.0214 8.29295 12.0372 8.26635 12.0298C8.17755 12.0058 8.04635 12.0058 8.04375 12.0062C7.85415 12.0062 7.69995 12.1604 7.69995 12.3498C7.69995 12.3774 7.67755 12.3998 7.64995 12.3998ZM6.29995 13.1998C6.27343 13.1998 6.24799 13.2104 6.22924 13.2291C6.21049 13.2479 6.19995 13.2733 6.19995 13.2998C6.19995 13.3264 6.21049 13.3518 6.22924 13.3706C6.24799 13.3893 6.27343 13.3998 6.29995 13.3998C6.32647 13.3998 6.35191 13.3893 6.37066 13.3706C6.38942 13.3518 6.39995 13.3264 6.39995 13.2998C6.39995 13.2733 6.38942 13.2479 6.37066 13.2291C6.35191 13.2104 6.32647 13.1998 6.29995 13.1998Z" fill="#472B29"/>
<path d="M7.99998 13.3996H7.29998C7.24478 13.3996 7.19998 13.3548 7.19998 13.2996C7.19998 13.2444 7.24478 13.1996 7.29998 13.1996H7.99998C8.33078 13.1996 8.59998 12.9304 8.59998 12.5996C8.59998 12.3004 8.37498 12.046 8.07638 12.0078C8.04958 12.0042 8.02538 11.9902 8.00918 11.9686C7.99298 11.947 7.98618 11.9198 7.99038 11.8932C7.99498 11.8624 7.99998 11.8316 7.99998 11.7996C7.99998 11.4688 7.73078 11.1996 7.39998 11.1996C7.22998 11.1996 7.07238 11.2706 6.95618 11.3996C6.93118 11.4274 6.89198 11.4392 6.85618 11.4292C6.81978 11.4194 6.79198 11.3902 6.78418 11.3534C6.71598 11.0326 6.42818 10.7996 6.09998 10.7996C5.71398 10.7996 5.39998 11.1136 5.39998 11.4996C5.39998 11.5282 5.40418 11.5556 5.40818 11.5832C5.41398 11.6238 5.39558 11.6708 5.35978 11.6912C5.32398 11.7116 5.28058 11.7148 5.24858 11.6892C5.17558 11.6306 5.08978 11.5996 4.99998 11.5996C4.80678 11.5996 4.64158 11.7378 4.60738 11.9284C4.59778 11.9818 4.54818 12.0176 4.49358 12.0094C4.46278 12.0046 4.43198 11.9996 4.39998 11.9996C4.06918 11.9996 3.79998 12.2688 3.79998 12.5996C3.79998 12.9304 4.06918 13.1996 4.39998 13.1996H5.89998C5.95518 13.1996 5.99998 13.2444 5.99998 13.2996C5.99998 13.3548 5.95518 13.3996 5.89998 13.3996H4.39998C3.95878 13.3996 3.59998 13.0408 3.59998 12.5996C3.59998 12.1584 3.95878 11.7996 4.39998 11.7996C4.41178 11.7996 4.42318 11.8 4.43478 11.8008C4.51758 11.5636 4.74218 11.3996 4.99998 11.3996C5.06978 11.3996 5.13778 11.4118 5.20218 11.4356C5.23518 10.969 5.62518 10.5996 6.09998 10.5996C6.46618 10.5996 6.79318 10.825 6.93058 11.1544C7.06658 11.0548 7.23098 10.9996 7.39998 10.9996C7.84118 10.9996 8.19998 11.3584 8.19998 11.7996C8.19998 11.8092 8.19977 11.8186 8.19917 11.828C8.54777 11.9176 8.79998 12.2334 8.79998 12.5996C8.79998 13.0408 8.44118 13.3996 7.99998 13.3996Z" fill="#472B29"/>
<path d="M6.89998 13.1992C6.86818 13.1992 6.73178 13.1992 6.69998 13.1992C6.64478 13.1992 6.59998 13.244 6.59998 13.2992C6.59998 13.3544 6.64478 13.3992 6.69998 13.3992C6.73178 13.3992 6.86818 13.3992 6.89998 13.3992C6.95518 13.3992 6.99998 13.3544 6.99998 13.2992C6.99998 13.244 6.95518 13.1992 6.89998 13.1992Z" fill="#472B29"/>
</svg>
