<?xml version="1.0" encoding="utf-8"?>
<!-- Generator: Adobe Illustrator 24.3.0, SVG Export Plug-In . SVG Version: 6.00 Build 0)  -->
<svg version="1.1" id="Layer_1" xmlns="http://www.w3.org/2000/svg" xmlns:xlink="http://www.w3.org/1999/xlink" x="0px" y="0px"
	 viewBox="0 0 320 320" style="enable-background:new 0 0 320 320;" xml:space="preserve">
<style type="text/css">
	.st0{fill:#F7B1CB;}
	.st1{fill:#8533AD;}
	.st2{fill:#CC1F59;}
	.st3{fill:#EB3D7D;}
	.st4{fill:#461E5F;}
</style>
<g>
	<path class="st0" d="M118.2,186.9c-5.1,7.2-12,13-19.9,16.9c-2.1,1-4.3,1.9-6.6,1.9c-4.9-0.1-6.6-7.2-9.9-10.7s-9.8-7.4-14-5.7
		c-10.5,4.4-9.5,16.5-17,17.5c-5.9,0.8-16.9-5.4-26.3,0.3c-10.3,6.3-9.1,21.3,1,27c3.1,1.7,8.5,3.1,11.8,4.3c3.3,1.2,6.7,3,8.2,6.3
		c2.4,5.1-0.9,10.9-1.8,16.5c-0.8,5.8,1.3,11.9,5.5,15.9s10.4,5.9,16.2,4.8c2.8-0.5,5.6-1.7,8.3-1c5.5,1.3,6.9,8.2,10.5,12.6
		c3.2,3.9,8.6,5.8,13.6,4.7c6.9-1.5,11.5-8,14.2-14.6c0.5-1.3,1.1-2.7,2.3-3.5c2.3-1.6,5.3-0.1,7.9,0.7c7.9,2.5,17.4-2.3,20.1-10.2
		c1.1-3.2,1.1-6.8,0.5-10.1c-1.2-6.6-4.7-12.8-9.8-17.1c-3.4-2.9-7.5-5-11-7.9c-3.5-2.9-6.4-7-6.3-11.5c0.1-3.3,1.8-6.4,3.8-9.1
		c4.6-6.2,10.7-11.3,17.7-14.6"/>
	<g>
		<path class="st1" d="M244.5,144.6c32.5-36,42.7-81.8,45.8-103.5c0.9-6.5-4.6-12.1-11.2-11.2c-21.6,3-67.1,13-103.5,45.9
			c-46.3,41.8-64,83.4-69.1,98c-1.1,3.3-0.3,6.9,2.1,9.3l28.4,28.4c2.4,2.4,6.1,3.3,9.3,2.1C161.1,208.6,202.7,190.9,244.5,144.6z"
			/>
		<g>
			<path class="st2" d="M197.7,122.6c-11.9-11.9-11.9-31.3,0-43.2s31.3-11.9,43.2,0c11.9,11.9,11.9,31.3,0,43.2
				C229,134.5,209.6,134.5,197.7,122.6z M234.1,86.2c-8.2-8.2-21.5-8.2-29.6,0c-8.2,8.2-8.2,21.4,0,29.6c8.2,8.2,21.4,8.2,29.6,0
				S242.3,94.4,234.1,86.2z"/>
		</g>
		<circle class="st0" cx="222.2" cy="98.2" r="25"/>
		<g>
			<path class="st3" d="M201.2,119.2c-11.6-11.6-11.6-30.4,0-42c11.6-11.6,30.4-11.6,42,0c11.6,11.6,11.6,30.4,0,42
				C231.6,130.7,212.8,130.7,201.2,119.2z M236.6,83.8c-7.9-7.9-20.9-7.9-28.8,0s-7.9,20.9,0,28.8c7.9,7.9,20.8,7.9,28.8,0
				C244.5,104.6,244.5,91.7,236.6,83.8z"/>
		</g>
		<path class="st4" d="M134.9,173.2l-34.3,44.3c-1.3,1.7,0.5,3.6,2.3,2.3l44.3-34.3c5-3.8,6-10.7,2.2-14.5l0,0
			C145.6,167.2,138.7,168.2,134.9,173.2z"/>
		<g>
			<path class="st3" d="M263.9,56.6c7.6,7.6,13.8,15.4,17.8,22.1c4.9-15,7.5-28.3,8.8-37.4c1-6.6-4.7-12.2-11.3-11.3
				c-9.1,1.3-22.4,3.8-37.5,8.7C248.4,42.8,256.2,48.9,263.9,56.6z"/>
		</g>
		<g>
			<path class="st4" d="M177.2,203.5l-0.3,12.4c-0.2,10.8-3.6,21.4-9.6,30.4l-7.8,11.5c-1.9,2.7-6.1,1.8-6.7-1.4l-7.2-42.9
				c-0.4-2.2,0.8-4.4,2.9-5.3l22-9.2C173.7,197.6,177.2,200,177.2,203.5z"/>
			<path class="st4" d="M116.9,143.2l-12.4,0.3c-10.8,0.2-21.4,3.6-30.4,9.6l-11.5,7.8c-2.7,1.9-1.8,6.1,1.4,6.7l42.9,7.2
				c2.2,0.4,4.4-0.8,5.3-2.9l9.2-22C122.8,146.7,120.4,143.1,116.9,143.2z"/>
		</g>
	</g>
	<circle class="st0" cx="43.3" cy="191" r="6.7"/>
	<circle class="st0" cx="120.6" cy="295.6" r="6.7"/>
	<circle class="st0" cx="24.8" cy="252.1" r="3.8"/>
</g>
</svg>
