<svg width="101" height="41" viewBox="0 0 101 41" fill="none" xmlns="http://www.w3.org/2000/svg">
<path d="M25.8908 0.0478516L38.2849 18.3985H13.4967L25.8908 0.0478516Z" fill="#E3C8E7"/>
<path d="M12.184 20.583L23.8798 39.589H0.488159L12.184 20.583Z" fill="#E3C8E7"/>
<path d="M61.0769 17.1439V17.9609H56.0658V17.1439L56.8641 17.192C57.0562 17.1439 57.1523 16.9917 57.1523 16.7354V10.92C57.1523 10.1029 57.0932 9.5182 56.9749 9.16575C56.8715 8.8133 56.6423 8.63708 56.2876 8.63708C55.9624 8.63708 55.615 8.8133 55.2455 9.16575C54.8907 9.5182 54.5877 10.0309 54.3364 10.7037C54.0851 11.3766 53.952 12.1696 53.9373 13.0827V16.7354C53.9373 17.0398 54.0333 17.192 54.2255 17.192L55.0016 17.1439V17.9609H49.9462V17.1439L50.7444 17.192C50.9366 17.1439 51.0326 16.9917 51.0326 16.7354V10.92C51.0326 10.0709 50.9735 9.47815 50.8553 9.14172C50.737 8.80529 50.4931 8.63708 50.1236 8.63708C49.8131 8.63708 49.4805 8.80529 49.1258 9.14172C48.7858 9.47815 48.4902 9.96677 48.2389 10.6076C47.9876 11.2324 47.8398 11.9773 47.7954 12.8424V16.7354C47.7954 17.0558 47.8915 17.208 48.0837 17.192L48.8819 17.1439V17.9609H43.8708V17.1439L44.6025 17.192C44.7947 17.1439 44.8908 16.9917 44.8908 16.7354V8.97351C44.8908 8.70116 44.7947 8.54095 44.6025 8.49289L43.8708 8.54096V7.74795H47.9285C47.8545 7.98825 47.8176 8.2606 47.8176 8.56499V9.9107C48.128 9.15774 48.5715 8.573 49.148 8.15647C49.7244 7.72392 50.4118 7.50764 51.21 7.50764C52.0082 7.50764 52.6217 7.70789 53.0504 8.1084C53.4938 8.50891 53.7673 9.15774 53.8707 10.0549C54.1812 9.23784 54.632 8.61305 55.2233 8.1805C55.8146 7.73193 56.5167 7.50764 57.3297 7.50764C58.2757 7.50764 58.9631 7.788 59.3918 8.34871C59.8352 8.8934 60.0569 9.7585 60.0569 10.944V16.7354C60.0569 17.0398 60.153 17.192 60.3452 17.192L61.0769 17.1439Z" fill="#E3C8E7"/>
<path d="M64.1731 2.17285C64.6757 2.17285 65.0822 2.30902 65.3926 2.58137C65.7178 2.85372 65.8804 3.21418 65.8804 3.66275C65.8804 4.12734 65.7178 4.49581 65.3926 4.76815C65.0822 5.0405 64.6757 5.17667 64.1731 5.17667C63.6705 5.17667 63.2566 5.0405 62.9314 4.76815C62.621 4.49581 62.4658 4.12734 62.4658 3.66275C62.4658 3.21418 62.621 2.85372 62.9314 2.58137C63.2566 2.30902 63.6705 2.17285 64.1731 2.17285ZM65.6808 16.7354C65.6808 17.0558 65.7769 17.208 65.9691 17.192L66.7008 17.1439V17.9609H61.7563V17.1439L62.488 17.192H62.5323C62.6949 17.192 62.7762 17.0398 62.7762 16.7354V8.97351C62.7762 8.70116 62.6875 8.54095 62.5101 8.49289L61.7784 8.54096V7.74795H65.6808V16.7354Z" fill="#E3C8E7"/>
<path d="M78.8447 17.1439V17.9609H73.7893V17.1439L74.6319 17.192C74.824 17.1439 74.9201 16.9917 74.9201 16.7354V10.92C74.9201 10.0869 74.8536 9.50218 74.7205 9.16575C74.6023 8.8133 74.3214 8.63708 73.878 8.63708C73.4937 8.63708 73.1167 8.8133 72.7472 9.16575C72.3924 9.5182 72.0968 10.0389 71.8603 10.7277C71.6238 11.4166 71.5055 12.2417 71.5055 13.2029V16.7354C71.5055 17.0398 71.6016 17.192 71.7937 17.192L72.6585 17.1439V17.9609H67.5809V17.1439L68.3126 17.192C68.5048 17.1439 68.6009 16.9917 68.6009 16.7354V8.97351C68.6009 8.70116 68.5048 8.54095 68.3126 8.49289L67.5809 8.54096V7.74795H71.6164C71.5425 7.98825 71.5055 8.26861 71.5055 8.58902V9.93473C71.8307 9.16575 72.2815 8.573 72.858 8.15647C73.4493 7.72392 74.1441 7.50764 74.9423 7.50764C75.9474 7.50764 76.6791 7.788 77.1374 8.34871C77.5956 8.8934 77.8247 9.7585 77.8247 10.944V16.7354C77.8247 17.0398 77.9208 17.192 78.113 17.192L78.8447 17.1439Z" fill="#E3C8E7"/>
<path d="M89.2007 17.1439V17.9609H85.1653C85.2244 17.5765 85.254 17.2801 85.254 17.0718L85.2761 16.423C84.6257 17.5284 83.6058 18.0811 82.2163 18.0811C81.2851 18.0811 80.5755 17.8568 80.0877 17.4082C79.6147 16.9437 79.3782 16.2628 79.3782 15.3656C79.3782 14.1962 79.8512 13.3311 80.7973 12.7703C81.7433 12.2096 83.2363 11.9293 85.2761 11.9293V10.2471C85.2761 9.63835 85.1801 9.16575 84.9879 8.82932C84.7957 8.49289 84.3966 8.32468 83.7906 8.32468C83.2732 8.32468 82.9037 8.4208 82.6819 8.61305C82.475 8.80529 82.3715 9.03759 82.3715 9.30993C82.3715 9.5182 82.4085 9.70243 82.4824 9.86264C82.5415 10.0869 82.5711 10.2471 82.5711 10.3432C82.5711 10.6957 82.4528 10.968 82.2163 11.1603C81.9946 11.3525 81.7063 11.4487 81.3516 11.4487C80.9377 11.4487 80.5977 11.3205 80.3316 11.0642C80.0803 10.7918 79.9547 10.4554 79.9547 10.0549C79.9547 9.2859 80.3242 8.66912 81.0633 8.20453C81.8024 7.73994 82.8002 7.50764 84.0566 7.50764C86.8061 7.50764 88.1808 8.573 88.1808 10.7037V16.7354C88.1808 17.0398 88.2768 17.192 88.469 17.192L89.2007 17.1439ZM83.4802 16.6633C83.9384 16.6633 84.3301 16.455 84.6553 16.0385C84.9953 15.6059 85.2022 15.0452 85.2761 14.3564V12.7703C84.271 12.7703 83.5393 12.9626 83.081 13.3471C82.6228 13.7316 82.3937 14.3083 82.3937 15.0773C82.3937 16.1346 82.7558 16.6633 83.4802 16.6633Z" fill="#E3C8E7"/>
<path d="M90.327 14.5486L91.0809 14.5005C91.0809 15.3176 91.3913 15.9984 92.0121 16.5431C92.6478 17.0878 93.409 17.3602 94.2959 17.3602C94.7837 17.3602 95.1681 17.24 95.4489 16.9997C95.7445 16.7434 95.8924 16.3909 95.8924 15.9424C95.8924 15.5739 95.7815 15.2855 95.5598 15.0773C95.3528 14.853 94.9907 14.6688 94.4733 14.5246L92.8769 14.044C92.0195 13.7876 91.3839 13.3951 90.97 12.8665C90.5709 12.3378 90.3714 11.6649 90.3714 10.8479C90.3714 9.85463 90.6892 9.05361 91.3248 8.44483C91.9604 7.82004 92.8547 7.50764 94.0077 7.50764C94.3181 7.50764 94.599 7.53167 94.8502 7.57973C95.1015 7.62779 95.412 7.7079 95.7815 7.82004C96.2545 7.96422 96.6241 8.03631 96.8901 8.03631C97.1266 8.03631 97.3484 7.97223 97.5553 7.84407L97.4223 10.5836H96.7571C96.7571 9.97478 96.5206 9.44611 96.0476 8.99754C95.5893 8.54897 94.9611 8.32468 94.1629 8.32468C93.7047 8.32468 93.3351 8.45284 93.0543 8.70917C92.7882 8.94948 92.6552 9.25386 92.6552 9.62233C92.6552 9.92672 92.7586 10.1911 92.9656 10.4153C93.1725 10.6236 93.4755 10.7838 93.8746 10.896L95.4046 11.3285C96.4245 11.6169 97.1193 12.0254 97.4888 12.5541C97.8731 13.0827 98.0653 13.7636 98.0653 14.5967C98.0653 15.7341 97.7105 16.6232 97.001 17.2641C96.2915 17.8889 95.3528 18.2012 94.1851 18.2012C93.8451 18.2012 93.4977 18.1612 93.1429 18.0811C92.803 18.017 92.2634 17.8808 91.5243 17.6726C91.2878 17.6085 91.0809 17.5765 90.9035 17.5765C90.5783 17.5765 90.3492 17.6245 90.2162 17.7206L90.327 14.5486Z" fill="#E3C8E7"/>
<path d="M32.9679 29.5946H35.163V30.3635H32.9679V37.7169C32.9679 38.2776 33.0344 38.6541 33.1675 38.8463C33.3005 39.0386 33.5074 39.1347 33.7883 39.1347C33.9657 39.1347 34.1504 39.0546 34.3426 38.8944C34.5496 38.7182 34.7048 38.4859 34.8082 38.1975L35.4069 38.558C35.2147 39.0706 34.9117 39.4471 34.4978 39.6874C34.0987 39.9117 33.5887 40.0238 32.9679 40.0238C32.0662 40.0238 31.3567 39.8396 30.8393 39.4711C30.322 39.0866 30.0633 38.4859 30.0633 37.6688V30.3635H28.7329V29.5946C29.3242 29.5946 29.775 29.5385 30.0854 29.4264C30.3959 29.2982 30.6398 29.0659 30.8171 28.7295C31.0093 28.393 31.1867 27.8644 31.3493 27.1434H32.9679V29.5946Z" fill="#E3C8E7"/>
<path d="M41.1983 29.3543C42.5435 29.3543 43.6151 29.7548 44.4134 30.5558C45.2264 31.3408 45.6402 32.4622 45.655 33.9201V34.8092H39.2693C39.2693 36.187 39.4984 37.2363 39.9566 37.9572C40.4297 38.6781 41.1318 39.0466 42.063 39.0626C42.7578 39.0626 43.3565 38.8784 43.859 38.5099C44.3616 38.1254 44.7312 37.6608 44.9677 37.1161L45.5663 37.5727C45.2264 38.3577 44.6794 38.9665 43.9256 39.399C43.1865 39.8316 42.2922 40.0479 41.2427 40.0479C39.4836 40.0479 38.1976 39.6153 37.3846 38.7502C36.5716 37.8851 36.1651 36.5474 36.1651 34.7371C36.1651 32.8948 36.5864 31.541 37.4289 30.6759C38.2715 29.7948 39.528 29.3543 41.1983 29.3543ZM41.1318 30.1713C40.4962 30.1713 40.0305 30.5318 39.7349 31.2527C39.4393 31.9576 39.2915 32.8787 39.2915 34.0162H42.2404C42.3882 34.0162 42.4991 33.9601 42.573 33.848C42.6469 33.7358 42.6839 33.5276 42.6839 33.2232C42.6839 32.1819 42.5582 31.4129 42.3069 30.9163C42.0704 30.4196 41.6787 30.1713 41.1318 30.1713Z" fill="#E3C8E7"/>
<path d="M46.5369 38.9905L47.2686 39.0386C47.4608 38.9905 47.5569 38.8383 47.5569 38.582V23.4668C47.5569 23.1944 47.4682 23.0262 47.2908 22.9621L46.5591 23.0102V22.2412H50.4615V38.582C50.4615 38.9024 50.5576 39.0546 50.7497 39.0386L51.4814 38.9905V39.8076H46.5369V38.9905Z" fill="#E3C8E7"/>
<path d="M57.3948 29.3543C58.7399 29.3543 59.8116 29.7548 60.6098 30.5558C61.4228 31.3408 61.8367 32.4622 61.8515 33.9201V34.8092H55.4658C55.4658 36.187 55.6949 37.2363 56.1531 37.9572C56.6261 38.6781 57.3283 39.0466 58.2595 39.0626C58.9543 39.0626 59.5529 38.8784 60.0555 38.5099C60.5581 38.1254 60.9276 37.6608 61.1641 37.1161L61.7628 37.5727C61.4228 38.3577 60.8759 38.9665 60.122 39.399C59.3829 39.8316 58.4886 40.0479 57.4391 40.0479C55.6801 40.0479 54.3941 39.6153 53.5811 38.7502C52.7681 37.8851 52.3616 36.5474 52.3616 34.7371C52.3616 32.8948 52.7829 31.541 53.6254 30.6759C54.468 29.7948 55.7244 29.3543 57.3948 29.3543ZM57.3283 30.1713C56.6926 30.1713 56.227 30.5318 55.9314 31.2527C55.6357 31.9576 55.4879 32.8787 55.4879 34.0162H58.4369C58.5847 34.0162 58.6956 33.9601 58.7695 33.848C58.8434 33.7358 58.8804 33.5276 58.8804 33.2232C58.8804 32.1819 58.7547 31.4129 58.5034 30.9163C58.2669 30.4196 57.8752 30.1713 57.3283 30.1713Z" fill="#E3C8E7"/>
<path d="M67.7001 29.3543C68.4392 29.3543 69.1043 29.4664 69.6956 29.6907C70.2869 29.915 70.7451 30.2194 71.0703 30.6039C71.4103 30.9883 71.5803 31.4129 71.5803 31.8775C71.5803 32.294 71.4547 32.6465 71.2034 32.9348C70.9669 33.2232 70.6269 33.3674 70.1834 33.3674C69.8287 33.3674 69.533 33.2793 69.2965 33.103C69.0748 32.9108 68.9639 32.6384 68.9639 32.286C68.9639 32.1418 68.9935 31.9736 69.0526 31.7814C69.1265 31.6211 69.1635 31.4449 69.1635 31.2527C69.1635 30.9002 69.0304 30.6359 68.7644 30.4597C68.5131 30.2674 68.1953 30.1713 67.8109 30.1713C67.1753 30.1713 66.6801 30.4997 66.3254 31.1566C65.9706 31.7974 65.7932 32.8948 65.7932 34.4487C65.7932 36.1789 66.0076 37.3965 66.4362 38.1014C66.8797 38.8063 67.4857 39.1587 68.2544 39.1587C68.8604 39.1587 69.4074 38.9825 69.8952 38.6301C70.3977 38.2616 70.7821 37.6688 71.0481 36.8518L71.7355 37.2123C71.0999 39.1027 69.7621 40.0479 67.7222 40.0479C66.2736 40.0479 65.0763 39.6153 64.1303 38.7502C63.199 37.8851 62.7334 36.5634 62.7334 34.7852C62.7334 33.0069 63.1916 31.6612 64.1081 30.748C65.0246 29.8189 66.2219 29.3543 67.7001 29.3543Z" fill="#E3C8E7"/>
<path d="M72.4773 34.6891C72.4773 32.9589 72.8911 31.6372 73.7189 30.724C74.5467 29.8108 75.7884 29.3543 77.4439 29.3543C79.1143 29.3543 80.356 29.8108 81.169 30.724C81.982 31.6372 82.3885 32.9589 82.3885 34.6891C82.3885 38.2616 80.7403 40.0479 77.4439 40.0479C75.7884 40.0479 74.5467 39.5913 73.7189 38.6781C72.8911 37.765 72.4773 36.4353 72.4773 34.6891ZM75.5814 34.7371C75.5814 36.3552 75.7219 37.5086 76.0027 38.1975C76.2983 38.8704 76.7788 39.2068 77.4439 39.2068C78.1091 39.2068 78.5821 38.8704 78.863 38.1975C79.1438 37.5247 79.2843 36.3712 79.2843 34.7371C79.2843 33.071 79.1438 31.8935 78.863 31.2046C78.5821 30.5157 78.1091 30.1713 77.4439 30.1713C76.7788 30.1713 76.2983 30.5157 76.0027 31.2046C75.7219 31.8935 75.5814 33.071 75.5814 34.7371Z" fill="#E3C8E7"/>
<path d="M100.488 38.9905V39.8076H95.4771V38.9905L96.2753 39.0386C96.4675 38.9905 96.5636 38.8383 96.5636 38.582V32.7666C96.5636 31.9496 96.5044 31.3648 96.3862 31.0124C96.2827 30.6599 96.0536 30.4837 95.6988 30.4837C95.3736 30.4837 95.0263 30.6599 94.6567 31.0124C94.302 31.3648 93.9989 31.8775 93.7476 32.5503C93.4963 33.2232 93.3633 34.0162 93.3485 34.9294V38.582C93.3485 38.8864 93.4446 39.0386 93.6368 39.0386L94.4128 38.9905V39.8076H89.3574V38.9905L90.1557 39.0386C90.3478 38.9905 90.4439 38.8383 90.4439 38.582V32.7666C90.4439 31.9175 90.3848 31.3248 90.2665 30.9883C90.1483 30.6519 89.9044 30.4837 89.5348 30.4837C89.2244 30.4837 88.8918 30.6519 88.5371 30.9883C88.1971 31.3248 87.9014 31.8134 87.6501 32.4542C87.3989 33.079 87.251 33.824 87.2067 34.6891V38.582C87.2067 38.9024 87.3028 39.0546 87.4949 39.0386L88.2932 38.9905V39.8076H83.2821V38.9905L84.0138 39.0386C84.206 38.9905 84.3021 38.8383 84.3021 38.582V30.8201C84.3021 30.5478 84.206 30.3876 84.0138 30.3395L83.2821 30.3876V29.5946H87.3397C87.2658 29.8349 87.2289 30.1072 87.2289 30.4116V31.7573C87.5393 31.0044 87.9827 30.4196 88.5592 30.0031C89.1357 29.5705 89.8231 29.3543 90.6213 29.3543C91.4195 29.3543 92.0329 29.5545 92.4616 29.955C92.9051 30.3555 93.1785 31.0044 93.282 31.9015C93.5924 31.0845 94.0433 30.4597 94.6345 30.0271C95.2258 29.5785 95.928 29.3543 96.741 29.3543C97.687 29.3543 98.3743 29.6346 98.803 30.1953C99.2465 30.74 99.4682 31.6051 99.4682 32.7906V38.582C99.4682 38.8864 99.5643 39.0386 99.7564 39.0386L100.488 38.9905Z" fill="#E3C8E7"/>
</svg>
