<svg width="249" height="82" viewBox="0 0 249 82" fill="none" xmlns="http://www.w3.org/2000/svg">
<path d="M63.0118 0L93.7558 37.2834H32.2679L63.0118 0Z" fill="url(#paint0_linear_876_4)"/>
<path d="M29.0119 41.7227L58.0237 80.3376H0L29.0119 41.7227Z" fill="url(#paint1_linear_876_4)"/>
<path d="M150.292 34.7354V36.3954H137.862V34.7354L139.842 34.8331C140.318 34.7354 140.557 34.4262 140.557 33.9054V22.0901C140.557 20.4301 140.41 19.2421 140.117 18.526C139.86 17.8099 139.292 17.4519 138.412 17.4519C137.605 17.4519 136.743 17.8099 135.827 18.526C134.947 19.2421 134.195 20.2837 133.572 21.6507C132.948 23.0178 132.618 24.6289 132.582 26.4842V33.9054C132.582 34.5239 132.82 34.8331 133.297 34.8331L135.222 34.7354V36.3954H122.682V34.7354L124.662 34.8331C125.138 34.7354 125.377 34.4262 125.377 33.9054V22.0901C125.377 20.365 125.23 19.1607 124.937 18.4772C124.643 17.7937 124.038 17.4519 123.122 17.4519C122.352 17.4519 121.527 17.7937 120.647 18.4772C119.803 19.1607 119.07 20.1535 118.447 21.4554C117.823 22.7248 117.457 24.2384 117.347 25.996V33.9054C117.347 34.5564 117.585 34.8656 118.062 34.8331L120.042 34.7354V36.3954H107.612V34.7354L109.427 34.8331C109.903 34.7354 110.142 34.4262 110.142 33.9054V18.1354C110.142 17.5821 109.903 17.2566 109.427 17.1589L107.612 17.2566V15.6454H117.677C117.493 16.1337 117.402 16.687 117.402 17.3054V20.0395C118.172 18.5097 119.272 17.3217 120.702 16.4754C122.132 15.5966 123.837 15.1572 125.817 15.1572C127.797 15.1572 129.318 15.564 130.382 16.3778C131.482 17.1915 132.16 18.5097 132.417 20.3325C133.187 18.6725 134.305 17.4031 135.772 16.5242C137.238 15.6129 138.98 15.1572 140.997 15.1572C143.343 15.1572 145.048 15.7268 146.112 16.866C147.212 17.9727 147.762 19.7303 147.762 22.1389V33.9054C147.762 34.5239 148 34.8331 148.477 34.8331L150.292 34.7354Z" fill="url(#paint2_linear_876_4)"/>
<path d="M157.972 4.31836C159.219 4.31836 160.227 4.59503 160.997 5.14836C161.804 5.70169 162.207 6.43404 162.207 7.34542C162.207 8.28934 161.804 9.03797 160.997 9.5913C160.227 10.1446 159.219 10.4213 157.972 10.4213C156.725 10.4213 155.699 10.1446 154.892 9.5913C154.122 9.03797 153.737 8.28934 153.737 7.34542C153.737 6.43404 154.122 5.70169 154.892 5.14836C155.699 4.59503 156.725 4.31836 157.972 4.31836ZM161.712 33.9054C161.712 34.5564 161.95 34.8656 162.427 34.8331L164.242 34.7354V36.3954H151.977V34.7354L153.792 34.8331H153.902C154.305 34.8331 154.507 34.5239 154.507 33.9054V18.1354C154.507 17.5821 154.287 17.2566 153.847 17.1589L152.032 17.2566V15.6454H161.712V33.9054Z" fill="url(#paint3_linear_876_4)"/>
<path d="M194.365 34.7354V36.3954H181.825V34.7354L183.915 34.8331C184.392 34.7354 184.63 34.4262 184.63 33.9054V22.0901C184.63 20.3976 184.465 19.2095 184.135 18.526C183.842 17.8099 183.145 17.4519 182.045 17.4519C181.092 17.4519 180.157 17.8099 179.24 18.526C178.36 19.2421 177.627 20.2999 177.04 21.6995C176.454 23.0991 176.16 24.7754 176.16 26.7284V33.9054C176.16 34.5239 176.399 34.8331 176.875 34.8331L179.02 34.7354V36.3954H166.425V34.7354L168.24 34.8331C168.717 34.7354 168.955 34.4262 168.955 33.9054V18.1354C168.955 17.5821 168.717 17.2566 168.24 17.1589L166.425 17.2566V15.6454H176.435C176.252 16.1337 176.16 16.7033 176.16 17.3542V20.0884C176.967 18.526 178.085 17.3217 179.515 16.4754C180.982 15.5966 182.705 15.1572 184.685 15.1572C187.179 15.1572 188.994 15.7268 190.13 16.866C191.267 17.9727 191.835 19.7303 191.835 22.1389V33.9054C191.835 34.5239 192.074 34.8331 192.55 34.8331L194.365 34.7354Z" fill="url(#paint4_linear_876_4)"/>
<path d="M220.054 34.7354V36.3954H210.044C210.19 35.6142 210.264 35.0121 210.264 34.5889L210.319 33.2707C208.705 35.5166 206.175 36.6395 202.729 36.6395C200.419 36.6395 198.659 36.1839 197.449 35.2725C196.275 34.3286 195.689 32.9452 195.689 31.1225C195.689 28.7464 196.862 26.9888 199.209 25.8495C201.555 24.7103 205.259 24.1407 210.319 24.1407V20.7231C210.319 19.4862 210.08 18.526 209.604 17.8425C209.127 17.1589 208.137 16.8172 206.634 16.8172C205.35 16.8172 204.434 17.0125 203.884 17.4031C203.37 17.7937 203.114 18.2656 203.114 18.8189C203.114 19.2421 203.205 19.6164 203.389 19.9419C203.535 20.3976 203.609 20.7231 203.609 20.9184C203.609 21.6344 203.315 22.1878 202.729 22.5784C202.179 22.9689 201.464 23.1642 200.584 23.1642C199.557 23.1642 198.714 22.9038 198.054 22.3831C197.43 21.8297 197.119 21.1462 197.119 20.3325C197.119 18.7701 198.035 17.517 199.869 16.5731C201.702 15.6291 204.177 15.1572 207.294 15.1572C214.114 15.1572 217.524 17.3217 217.524 21.6507V33.9054C217.524 34.5239 217.762 34.8331 218.239 34.8331L220.054 34.7354ZM205.864 33.7589C207 33.7589 207.972 33.3358 208.779 32.4895C209.622 31.6107 210.135 30.4715 210.319 29.0719V25.8495C207.825 25.8495 206.01 26.2401 204.874 27.0213C203.737 27.8025 203.169 28.9742 203.169 30.5366C203.169 32.6848 204.067 33.7589 205.864 33.7589Z" fill="url(#paint5_linear_876_4)"/>
<path d="M222.848 29.4625L224.718 29.3648C224.718 31.0248 225.488 32.4082 227.028 33.5148C228.604 34.6215 230.493 35.1748 232.693 35.1748C233.903 35.1748 234.856 34.9307 235.553 34.4425C236.286 33.9217 236.653 33.2056 236.653 32.2942C236.653 31.5456 236.378 30.9597 235.828 30.5366C235.314 30.0809 234.416 29.7066 233.133 29.4137L229.173 28.4372C227.046 27.9164 225.469 27.1189 224.443 26.0448C223.453 24.9707 222.958 23.6037 222.958 21.9437C222.958 19.9256 223.746 18.2982 225.323 17.0613C226.899 15.7919 229.118 15.1572 231.978 15.1572C232.748 15.1572 233.444 15.206 234.068 15.3037C234.691 15.4013 235.461 15.564 236.378 15.7919C237.551 16.0848 238.468 16.2313 239.128 16.2313C239.714 16.2313 240.264 16.1011 240.778 15.8407L240.448 21.4066H238.798C238.798 20.1697 238.211 19.0956 237.038 18.1842C235.901 17.2729 234.343 16.8172 232.363 16.8172C231.226 16.8172 230.309 17.0776 229.613 17.5984C228.953 18.0866 228.623 18.705 228.623 19.4537C228.623 20.0721 228.879 20.6091 229.393 21.0648C229.906 21.488 230.658 21.8135 231.648 22.0413L235.443 22.9201C237.973 23.506 239.696 24.336 240.613 25.4101C241.566 26.4842 242.043 27.8676 242.043 29.5601C242.043 31.8711 241.163 33.6776 239.403 34.9795C237.643 36.2489 235.314 36.8837 232.418 36.8837C231.574 36.8837 230.713 36.8023 229.833 36.6395C228.989 36.5093 227.651 36.2327 225.818 35.8095C225.231 35.6793 224.718 35.6142 224.278 35.6142C223.471 35.6142 222.903 35.7119 222.573 35.9072L222.848 29.4625Z" fill="url(#paint6_linear_876_4)"/>
<path d="M80.5669 60.0308H86.0119V61.5932H80.5669V76.5332C80.5669 77.6724 80.7319 78.4373 81.0619 78.8279C81.3919 79.2185 81.9052 79.4138 82.6019 79.4138C83.0419 79.4138 83.5002 79.251 83.9769 78.9255C84.4902 78.5675 84.8752 78.0955 85.1319 77.5096L86.6169 78.242C86.1402 79.2836 85.3886 80.0485 84.3619 80.5367C83.3719 80.9924 82.1069 81.2202 80.5669 81.2202C78.3302 81.2202 76.5702 80.8459 75.2869 80.0973C74.0036 79.3161 73.3619 78.0955 73.3619 76.4355V61.5932H70.0619V60.0308C71.5286 60.0308 72.6469 59.9169 73.4169 59.6891C74.1869 59.4287 74.7919 58.9567 75.2319 58.2732C75.7086 57.5896 76.1486 56.5155 76.5519 55.0508H80.5669V60.0308Z" fill="url(#paint7_linear_876_4)"/>
<path d="M100.983 59.5426C104.319 59.5426 106.978 60.3563 108.958 61.9838C110.974 63.5787 112.001 65.8571 112.038 68.8191V70.6255H96.1976C96.1976 73.4247 96.766 75.5567 97.9026 77.0214C99.076 78.4861 100.818 79.2347 103.128 79.2673C104.851 79.2673 106.336 78.893 107.583 78.1444C108.829 77.3632 109.746 76.4193 110.333 75.3126L111.818 76.2402C110.974 77.8351 109.618 79.072 107.748 79.9508C105.914 80.8296 103.696 81.2691 101.093 81.2691C96.7293 81.2691 93.5393 80.3902 91.5226 78.6326C89.506 76.8749 88.4976 74.1571 88.4976 70.4791C88.4976 66.7359 89.5426 63.9855 91.6326 62.2279C93.7226 60.4377 96.8393 59.5426 100.983 59.5426ZM100.818 61.2026C99.241 61.2026 98.086 61.9349 97.3526 63.3996C96.6193 64.8318 96.2526 66.7034 96.2526 69.0143H103.568C103.934 69.0143 104.209 68.9004 104.393 68.6726C104.576 68.4447 104.668 68.0216 104.668 67.4032C104.668 65.2875 104.356 63.7251 103.733 62.7161C103.146 61.7071 102.174 61.2026 100.818 61.2026Z" fill="url(#paint8_linear_876_4)"/>
<path d="M114.225 79.1208L116.04 79.2185C116.517 79.1208 116.755 78.8116 116.755 78.2908V47.5808C116.755 47.0275 116.535 46.6857 116.095 46.5555L114.28 46.6532V45.0908H123.96V78.2908C123.96 78.9418 124.199 79.251 124.675 79.2185L126.49 79.1208V80.7808H114.225V79.1208Z" fill="url(#paint9_linear_876_4)"/>
<path d="M141.158 59.5426C144.495 59.5426 147.153 60.3563 149.133 61.9838C151.15 63.5787 152.177 65.8571 152.213 68.8191V70.6255H136.373C136.373 73.4247 136.942 75.5567 138.078 77.0214C139.252 78.4861 140.993 79.2347 143.303 79.2673C145.027 79.2673 146.512 78.893 147.758 78.1444C149.005 77.3632 149.922 76.4193 150.508 75.3126L151.993 76.2402C151.15 77.8351 149.793 79.072 147.923 79.9508C146.09 80.8296 143.872 81.2691 141.268 81.2691C136.905 81.2691 133.715 80.3902 131.698 78.6326C129.682 76.8749 128.673 74.1571 128.673 70.4791C128.673 66.7359 129.718 63.9855 131.808 62.2279C133.898 60.4377 137.015 59.5426 141.158 59.5426ZM140.993 61.2026C139.417 61.2026 138.262 61.9349 137.528 63.3996C136.795 64.8318 136.428 66.7034 136.428 69.0143H143.743C144.11 69.0143 144.385 68.9004 144.568 68.6726C144.752 68.4447 144.843 68.0216 144.843 67.4032C144.843 65.2875 144.532 63.7251 143.908 62.7161C143.322 61.7071 142.35 61.2026 140.993 61.2026Z" fill="url(#paint10_linear_876_4)"/>
<path d="M166.721 59.5426C168.554 59.5426 170.204 59.7704 171.671 60.2261C173.138 60.6818 174.274 61.3002 175.081 62.0814C175.924 62.8626 176.346 63.7251 176.346 64.6691C176.346 65.5153 176.034 66.2314 175.411 66.8173C174.824 67.4032 173.981 67.6961 172.881 67.6961C172.001 67.6961 171.268 67.5171 170.681 67.1591C170.131 66.7685 169.856 66.2151 169.856 65.4991C169.856 65.2061 169.929 64.8643 170.076 64.4738C170.259 64.1483 170.351 63.7902 170.351 63.3996C170.351 62.6836 170.021 62.1465 169.361 61.7885C168.738 61.3979 167.949 61.2026 166.996 61.2026C165.419 61.2026 164.191 61.8698 163.311 63.2043C162.431 64.5063 161.991 66.7359 161.991 69.8932C161.991 73.4085 162.523 75.8822 163.586 77.3144C164.686 78.7465 166.189 79.4626 168.096 79.4626C169.599 79.4626 170.956 79.1045 172.166 78.3885C173.413 77.6398 174.366 76.4355 175.026 74.7755L176.731 75.5079C175.154 79.3487 171.836 81.2691 166.776 81.2691C163.183 81.2691 160.213 80.3902 157.866 78.6326C155.556 76.8749 154.401 74.1896 154.401 70.5767C154.401 66.9638 155.538 64.2296 157.811 62.3743C160.084 60.4865 163.054 59.5426 166.721 59.5426Z" fill="url(#paint11_linear_876_4)"/>
<path d="M178.571 70.3814C178.571 66.8661 179.598 64.1808 181.651 62.3255C183.704 60.4702 186.784 59.5426 190.891 59.5426C195.034 59.5426 198.114 60.4702 200.131 62.3255C202.148 64.1808 203.156 66.8661 203.156 70.3814C203.156 77.6398 199.068 81.2691 190.891 81.2691C186.784 81.2691 183.704 80.3414 181.651 78.4861C179.598 76.6308 178.571 73.9293 178.571 70.3814ZM186.271 70.4791C186.271 73.7665 186.619 76.11 187.316 77.5096C188.049 78.8767 189.241 79.5602 190.891 79.5602C192.541 79.5602 193.714 78.8767 194.411 77.5096C195.108 76.1426 195.456 73.7991 195.456 70.4791C195.456 67.094 195.108 64.7016 194.411 63.302C193.714 61.9024 192.541 61.2026 190.891 61.2026C189.241 61.2026 188.049 61.9024 187.316 63.302C186.619 64.7016 186.271 67.094 186.271 70.4791Z" fill="url(#paint12_linear_876_4)"/>
<path d="M248.053 79.1208V80.7808H235.623V79.1208L237.603 79.2185C238.079 79.1208 238.318 78.8116 238.318 78.2908V66.4755C238.318 64.8155 238.171 63.6275 237.878 62.9114C237.621 62.1953 237.053 61.8373 236.173 61.8373C235.366 61.8373 234.504 62.1953 233.588 62.9114C232.708 63.6275 231.956 64.6691 231.333 66.0361C230.709 67.4032 230.379 69.0143 230.343 70.8696V78.2908C230.343 78.9093 230.581 79.2185 231.058 79.2185L232.983 79.1208V80.7808H220.443V79.1208L222.423 79.2185C222.899 79.1208 223.138 78.8116 223.138 78.2908V66.4755C223.138 64.7504 222.991 63.5461 222.698 62.8626C222.404 62.1791 221.799 61.8373 220.883 61.8373C220.113 61.8373 219.288 62.1791 218.408 62.8626C217.564 63.5461 216.831 64.5389 216.208 65.8408C215.584 67.1102 215.218 68.6238 215.108 70.3814V78.2908C215.108 78.9418 215.346 79.251 215.823 79.2185L217.803 79.1208V80.7808H205.373V79.1208L207.188 79.2185C207.664 79.1208 207.903 78.8116 207.903 78.2908V62.5208C207.903 61.9675 207.664 61.642 207.188 61.5443L205.373 61.642V60.0308H215.438C215.254 60.5191 215.163 61.0724 215.163 61.6908V64.4249C215.933 62.8951 217.033 61.7071 218.463 60.8608C219.893 59.982 221.598 59.5426 223.578 59.5426C225.558 59.5426 227.079 59.9494 228.143 60.7632C229.243 61.5769 229.921 62.8951 230.178 64.7179C230.948 63.0579 232.066 61.7885 233.533 60.9096C234.999 59.9983 236.741 59.5426 238.758 59.5426C241.104 59.5426 242.809 60.1122 243.873 61.2514C244.973 62.3581 245.523 64.1157 245.523 66.5243V78.2908C245.523 78.9093 245.761 79.2185 246.238 79.2185L248.053 79.1208Z" fill="url(#paint13_linear_876_4)"/>
<defs>
<linearGradient id="paint0_linear_876_4" x1="-12.103" y1="-52.9874" x2="109.493" y2="31.8114" gradientUnits="userSpaceOnUse">
<stop offset="0.011823" stop-color="#652C9F"/>
<stop offset="0.161242" stop-color="#B42790"/>
<stop offset="0.328952" stop-color="#664DC4"/>
<stop offset="0.574141" stop-color="#526AC7"/>
<stop offset="0.738909" stop-color="#CE53DF"/>
<stop offset="1" stop-color="#04E9DB"/>
</linearGradient>
<linearGradient id="paint1_linear_876_4" x1="-41.8711" y1="-13.1572" x2="79.6268" y2="64.0428" gradientUnits="userSpaceOnUse">
<stop offset="0.011823" stop-color="#652C9F"/>
<stop offset="0.161242" stop-color="#B42790"/>
<stop offset="0.328952" stop-color="#664DC4"/>
<stop offset="0.574141" stop-color="#526AC7"/>
<stop offset="0.738909" stop-color="#CE53DF"/>
<stop offset="1" stop-color="#04E9DB"/>
</linearGradient>
<linearGradient id="paint2_linear_876_4" x1="10.6038" y1="-41.9636" x2="108.239" y2="128.467" gradientUnits="userSpaceOnUse">
<stop offset="0.011823" stop-color="#652C9F"/>
<stop offset="0.161242" stop-color="#B42790"/>
<stop offset="0.328952" stop-color="#664DC4"/>
<stop offset="0.574141" stop-color="#526AC7"/>
<stop offset="0.738909" stop-color="#CE53DF"/>
<stop offset="1" stop-color="#04E9DB"/>
</linearGradient>
<linearGradient id="paint3_linear_876_4" x1="10.6038" y1="-41.9636" x2="108.239" y2="128.467" gradientUnits="userSpaceOnUse">
<stop offset="0.011823" stop-color="#652C9F"/>
<stop offset="0.161242" stop-color="#B42790"/>
<stop offset="0.328952" stop-color="#664DC4"/>
<stop offset="0.574141" stop-color="#526AC7"/>
<stop offset="0.738909" stop-color="#CE53DF"/>
<stop offset="1" stop-color="#04E9DB"/>
</linearGradient>
<linearGradient id="paint4_linear_876_4" x1="10.6038" y1="-41.9636" x2="108.239" y2="128.467" gradientUnits="userSpaceOnUse">
<stop offset="0.011823" stop-color="#652C9F"/>
<stop offset="0.161242" stop-color="#B42790"/>
<stop offset="0.328952" stop-color="#664DC4"/>
<stop offset="0.574141" stop-color="#526AC7"/>
<stop offset="0.738909" stop-color="#CE53DF"/>
<stop offset="1" stop-color="#04E9DB"/>
</linearGradient>
<linearGradient id="paint5_linear_876_4" x1="10.6038" y1="-41.9636" x2="108.239" y2="128.467" gradientUnits="userSpaceOnUse">
<stop offset="0.011823" stop-color="#652C9F"/>
<stop offset="0.161242" stop-color="#B42790"/>
<stop offset="0.328952" stop-color="#664DC4"/>
<stop offset="0.574141" stop-color="#526AC7"/>
<stop offset="0.738909" stop-color="#CE53DF"/>
<stop offset="1" stop-color="#04E9DB"/>
</linearGradient>
<linearGradient id="paint6_linear_876_4" x1="10.6038" y1="-41.9636" x2="108.239" y2="128.467" gradientUnits="userSpaceOnUse">
<stop offset="0.011823" stop-color="#652C9F"/>
<stop offset="0.161242" stop-color="#B42790"/>
<stop offset="0.328952" stop-color="#664DC4"/>
<stop offset="0.574141" stop-color="#526AC7"/>
<stop offset="0.738909" stop-color="#CE53DF"/>
<stop offset="1" stop-color="#04E9DB"/>
</linearGradient>
<linearGradient id="paint7_linear_876_4" x1="-58.38" y1="-6.32591" x2="39.8115" y2="197.952" gradientUnits="userSpaceOnUse">
<stop offset="0.011823" stop-color="#652C9F"/>
<stop offset="0.161242" stop-color="#B42790"/>
<stop offset="0.328952" stop-color="#664DC4"/>
<stop offset="0.574141" stop-color="#526AC7"/>
<stop offset="0.738909" stop-color="#CE53DF"/>
<stop offset="1" stop-color="#04E9DB"/>
</linearGradient>
<linearGradient id="paint8_linear_876_4" x1="-58.38" y1="-6.32591" x2="39.8115" y2="197.952" gradientUnits="userSpaceOnUse">
<stop offset="0.011823" stop-color="#652C9F"/>
<stop offset="0.161242" stop-color="#B42790"/>
<stop offset="0.328952" stop-color="#664DC4"/>
<stop offset="0.574141" stop-color="#526AC7"/>
<stop offset="0.738909" stop-color="#CE53DF"/>
<stop offset="1" stop-color="#04E9DB"/>
</linearGradient>
<linearGradient id="paint9_linear_876_4" x1="-58.38" y1="-6.32591" x2="39.8115" y2="197.952" gradientUnits="userSpaceOnUse">
<stop offset="0.011823" stop-color="#652C9F"/>
<stop offset="0.161242" stop-color="#B42790"/>
<stop offset="0.328952" stop-color="#664DC4"/>
<stop offset="0.574141" stop-color="#526AC7"/>
<stop offset="0.738909" stop-color="#CE53DF"/>
<stop offset="1" stop-color="#04E9DB"/>
</linearGradient>
<linearGradient id="paint10_linear_876_4" x1="-58.38" y1="-6.32591" x2="39.8115" y2="197.952" gradientUnits="userSpaceOnUse">
<stop offset="0.011823" stop-color="#652C9F"/>
<stop offset="0.161242" stop-color="#B42790"/>
<stop offset="0.328952" stop-color="#664DC4"/>
<stop offset="0.574141" stop-color="#526AC7"/>
<stop offset="0.738909" stop-color="#CE53DF"/>
<stop offset="1" stop-color="#04E9DB"/>
</linearGradient>
<linearGradient id="paint11_linear_876_4" x1="-58.38" y1="-6.32591" x2="39.8115" y2="197.952" gradientUnits="userSpaceOnUse">
<stop offset="0.011823" stop-color="#652C9F"/>
<stop offset="0.161242" stop-color="#B42790"/>
<stop offset="0.328952" stop-color="#664DC4"/>
<stop offset="0.574141" stop-color="#526AC7"/>
<stop offset="0.738909" stop-color="#CE53DF"/>
<stop offset="1" stop-color="#04E9DB"/>
</linearGradient>
<linearGradient id="paint12_linear_876_4" x1="-58.38" y1="-6.32591" x2="39.8115" y2="197.952" gradientUnits="userSpaceOnUse">
<stop offset="0.011823" stop-color="#652C9F"/>
<stop offset="0.161242" stop-color="#B42790"/>
<stop offset="0.328952" stop-color="#664DC4"/>
<stop offset="0.574141" stop-color="#526AC7"/>
<stop offset="0.738909" stop-color="#CE53DF"/>
<stop offset="1" stop-color="#04E9DB"/>
</linearGradient>
<linearGradient id="paint13_linear_876_4" x1="-58.38" y1="-6.32591" x2="39.8115" y2="197.952" gradientUnits="userSpaceOnUse">
<stop offset="0.011823" stop-color="#652C9F"/>
<stop offset="0.161242" stop-color="#B42790"/>
<stop offset="0.328952" stop-color="#664DC4"/>
<stop offset="0.574141" stop-color="#526AC7"/>
<stop offset="0.738909" stop-color="#CE53DF"/>
<stop offset="1" stop-color="#04E9DB"/>
</linearGradient>
</defs>
</svg>
