<svg width="100" height="40" viewBox="0 0 100 40" fill="none" xmlns="http://www.w3.org/2000/svg">
<path d="M25.4026 0L37.7968 18.3506H13.0085L25.4026 0Z" fill="url(#paint0_linear_128_109)"/>
<path d="M11.6958 20.5352L23.3917 39.5412H0L11.6958 20.5352Z" fill="url(#paint1_linear_128_109)"/>
<path d="M60.5887 17.0961V17.9131H55.5777V17.0961L56.3759 17.1441C56.5681 17.0961 56.6641 16.9439 56.6641 16.6875V10.8721C56.6641 10.0551 56.605 9.47035 56.4868 9.1179C56.3833 8.76545 56.1542 8.58923 55.7994 8.58923C55.4742 8.58923 55.1268 8.76545 54.7573 9.1179C54.4025 9.47035 54.0995 9.983 53.8482 10.6559C53.5969 11.3287 53.4639 12.1217 53.4491 13.0349V16.6875C53.4491 16.9919 53.5452 17.1441 53.7373 17.1441L54.5134 17.0961V17.9131H49.458V17.0961L50.2562 17.1441C50.4484 17.0961 50.5445 16.9439 50.5445 16.6875V10.8721C50.5445 10.0231 50.4854 9.4303 50.3671 9.09387C50.2488 8.75744 50.0049 8.58923 49.6354 8.58923C49.325 8.58923 48.9924 8.75744 48.6376 9.09387C48.2976 9.4303 48.002 9.91892 47.7507 10.5597C47.4994 11.1845 47.3516 11.9295 47.3073 12.7946V16.6875C47.3073 17.0079 47.4033 17.1601 47.5955 17.1441L48.3937 17.0961V17.9131H43.3827V17.0961L44.1144 17.1441C44.3066 17.0961 44.4026 16.9439 44.4026 16.6875V8.92565C44.4026 8.65331 44.3066 8.4931 44.1144 8.44504L43.3827 8.4931V7.70009H47.4403C47.3664 7.9404 47.3294 8.21275 47.3294 8.51713V9.86285C47.6399 9.10989 48.0833 8.52514 48.6598 8.10861C49.2363 7.67606 49.9236 7.45979 50.7219 7.45979C51.5201 7.45979 52.1335 7.66004 52.5622 8.06055C53.0056 8.46106 53.2791 9.10989 53.3826 10.007C53.693 9.18999 54.1438 8.5652 54.7351 8.13265C55.3264 7.68407 56.0285 7.45979 56.8415 7.45979C57.7876 7.45979 58.4749 7.74015 58.9036 8.30086C59.347 8.84555 59.5688 9.71065 59.5688 10.8962V16.6875C59.5688 16.9919 59.6649 17.1441 59.857 17.1441L60.5887 17.0961Z" fill="url(#paint2_linear_128_109)"/>
<path d="M63.6849 2.125C64.1875 2.125 64.594 2.26117 64.9044 2.53352C65.2296 2.80587 65.3922 3.16632 65.3922 3.6149C65.3922 4.07949 65.2296 4.44796 64.9044 4.7203C64.594 4.99265 64.1875 5.12882 63.6849 5.12882C63.1823 5.12882 62.7685 4.99265 62.4433 4.7203C62.1328 4.44796 61.9776 4.07949 61.9776 3.6149C61.9776 3.16632 62.1328 2.80587 62.4433 2.53352C62.7685 2.26117 63.1823 2.125 63.6849 2.125ZM65.1927 16.6875C65.1927 17.0079 65.2888 17.1601 65.4809 17.1441L66.2126 17.0961V17.9131H61.2681V17.0961L61.9998 17.1441H62.0441C62.2067 17.1441 62.288 16.9919 62.288 16.6875V8.92565C62.288 8.65331 62.1994 8.4931 62.022 8.44504L61.2903 8.4931V7.70009H65.1927V16.6875Z" fill="url(#paint3_linear_128_109)"/>
<path d="M78.3565 17.0961V17.9131H73.3011V17.0961L74.1437 17.1441C74.3359 17.0961 74.4319 16.9439 74.4319 16.6875V10.8721C74.4319 10.0391 74.3654 9.45433 74.2324 9.1179C74.1141 8.76545 73.8333 8.58923 73.3898 8.58923C73.0055 8.58923 72.6286 8.76545 72.259 9.1179C71.9042 9.47035 71.6086 9.99101 71.3721 10.6799C71.1356 11.3688 71.0173 12.1938 71.0173 13.155V16.6875C71.0173 16.9919 71.1134 17.1441 71.3056 17.1441L72.1703 17.0961V17.9131H67.0928V17.0961L67.8245 17.1441C68.0166 17.0961 68.1127 16.9439 68.1127 16.6875V8.92565C68.1127 8.65331 68.0166 8.4931 67.8245 8.44504L67.0928 8.4931V7.70009H71.1282C71.0543 7.9404 71.0173 8.22076 71.0173 8.54116V9.88688C71.3425 9.1179 71.7934 8.52514 72.3699 8.10861C72.9611 7.67606 73.6559 7.45979 74.4541 7.45979C75.4593 7.45979 76.191 7.74015 76.6492 8.30086C77.1074 8.84555 77.3366 9.71065 77.3366 10.8962V16.6875C77.3366 16.9919 77.4326 17.1441 77.6248 17.1441L78.3565 17.0961Z" fill="url(#paint4_linear_128_109)"/>
<path d="M88.7126 17.0961V17.9131H84.6771C84.7362 17.5286 84.7658 17.2322 84.7658 17.024L84.788 16.3751C84.1376 17.4805 83.1176 18.0332 81.7281 18.0332C80.7969 18.0332 80.0874 17.809 79.5996 17.3604C79.1265 16.8958 78.89 16.2149 78.89 15.3178C78.89 14.1483 79.3631 13.2832 80.3091 12.7225C81.2551 12.1618 82.7481 11.8814 84.788 11.8814V10.1993C84.788 9.5905 84.6919 9.1179 84.4997 8.78147C84.3076 8.44504 83.9085 8.27683 83.3024 8.27683C82.785 8.27683 82.4155 8.37295 82.1938 8.56519C81.9868 8.75744 81.8834 8.98974 81.8834 9.26208C81.8834 9.47035 81.9203 9.65458 81.9942 9.81479C82.0533 10.0391 82.0829 10.1993 82.0829 10.2954C82.0829 10.6478 81.9647 10.9202 81.7281 11.1124C81.5064 11.3047 81.2182 11.4008 80.8634 11.4008C80.4495 11.4008 80.1095 11.2726 79.8435 11.0163C79.5922 10.744 79.4665 10.4075 79.4665 10.007C79.4665 9.23805 79.8361 8.62127 80.5752 8.15668C81.3143 7.69208 82.312 7.45979 83.5685 7.45979C86.3179 7.45979 87.6926 8.52514 87.6926 10.6559V16.6875C87.6926 16.9919 87.7887 17.1441 87.9809 17.1441L88.7126 17.0961ZM82.992 16.6154C83.4502 16.6154 83.8419 16.4072 84.1671 15.9906C84.5071 15.5581 84.7141 14.9974 84.788 14.3085V12.7225C83.7828 12.7225 83.0511 12.9147 82.5929 13.2992C82.1346 13.6837 81.9055 14.2604 81.9055 15.0294C81.9055 16.0868 82.2677 16.6154 82.992 16.6154Z" fill="url(#paint5_linear_128_109)"/>
<path d="M89.8389 14.5007L90.5927 14.4527C90.5927 15.2697 90.9031 15.9506 91.524 16.4953C92.1596 17.04 92.9209 17.3123 93.8078 17.3123C94.2956 17.3123 94.6799 17.1922 94.9608 16.9519C95.2564 16.6955 95.4042 16.3431 95.4042 15.8945C95.4042 15.5261 95.2933 15.2377 95.0716 15.0294C94.8647 14.8051 94.5025 14.6209 93.9852 14.4767L92.3887 13.9961C91.5314 13.7398 90.8958 13.3473 90.4819 12.8186C90.0828 12.2899 89.8832 11.6171 89.8832 10.8C89.8832 9.80678 90.201 9.00576 90.8366 8.39698C91.4722 7.77219 92.3665 7.45979 93.5195 7.45979C93.8299 7.45979 94.1108 7.48382 94.3621 7.53188C94.6134 7.57994 94.9238 7.66004 95.2933 7.77219C95.7664 7.91637 96.1359 7.98846 96.402 7.98846C96.6385 7.98846 96.8602 7.92438 97.0672 7.79622L96.9341 10.5357H96.2689C96.2689 9.92693 96.0324 9.39826 95.5594 8.94968C95.1012 8.50111 94.473 8.27683 93.6747 8.27683C93.2165 8.27683 92.847 8.40499 92.5661 8.66132C92.3 8.90162 92.167 9.20601 92.167 9.57448C92.167 9.87887 92.2705 10.1432 92.4774 10.3675C92.6844 10.5758 92.9874 10.736 93.3865 10.8481L94.9164 11.2807C95.9364 11.569 96.6311 11.9775 97.0006 12.5062C97.385 13.0349 97.5771 13.7158 97.5771 14.5488C97.5771 15.6863 97.2224 16.5754 96.5128 17.2162C95.8033 17.841 94.8647 18.1534 93.6969 18.1534C93.3569 18.1534 93.0096 18.1133 92.6548 18.0332C92.3148 17.9692 91.7753 17.833 91.0362 17.6247C90.7997 17.5606 90.5927 17.5286 90.4153 17.5286C90.0901 17.5286 89.861 17.5767 89.728 17.6728L89.8389 14.5007Z" fill="url(#paint6_linear_128_109)"/>
<path d="M32.4797 29.5467H34.6748V30.3157H32.4797V37.6691C32.4797 38.2298 32.5463 38.6062 32.6793 38.7985C32.8123 38.9907 33.0193 39.0869 33.3001 39.0869C33.4775 39.0869 33.6623 39.0068 33.8544 38.8466C34.0614 38.6703 34.2166 38.438 34.3201 38.1497L34.9187 38.5101C34.7266 39.0228 34.4235 39.3993 34.0097 39.6396C33.6105 39.8638 33.1006 39.976 32.4797 39.976C31.578 39.976 30.8685 39.7918 30.3512 39.4233C29.8338 39.0388 29.5751 38.438 29.5751 37.621V30.3157H28.2448V29.5467C28.836 29.5467 29.2869 29.4906 29.5973 29.3785C29.9077 29.2503 30.1516 29.018 30.329 28.6816C30.5211 28.3452 30.6985 27.8165 30.8611 27.0956H32.4797V29.5467Z" fill="url(#paint7_linear_128_109)"/>
<path d="M40.7101 29.3064C42.0553 29.3064 43.127 29.7069 43.9252 30.5079C44.7382 31.2929 45.1521 32.4144 45.1669 33.8722V34.7614H38.7811C38.7811 36.1391 39.0102 37.1884 39.4685 37.9094C39.9415 38.6303 40.6436 38.9987 41.5749 39.0148C42.2696 39.0148 42.8683 38.8305 43.3709 38.4621C43.8735 38.0776 44.243 37.613 44.4795 37.0683L45.0782 37.5249C44.7382 38.3099 44.1913 38.9186 43.4374 39.3512C42.6983 39.7837 41.804 40 40.7545 40C38.9955 40 37.7094 39.5675 36.8964 38.7024C36.0834 37.8373 35.6769 36.4996 35.6769 34.6893C35.6769 32.8469 36.0982 31.4932 36.9408 30.6281C37.7833 29.747 39.0398 29.3064 40.7101 29.3064ZM40.6436 30.1235C40.008 30.1235 39.5424 30.4839 39.2467 31.2048C38.9511 31.9097 38.8033 32.8309 38.8033 33.9683H41.7523C41.9001 33.9683 42.0109 33.9123 42.0849 33.8001C42.1588 33.688 42.1957 33.4797 42.1957 33.1753C42.1957 32.134 42.0701 31.365 41.8188 30.8684C41.5823 30.3718 41.1906 30.1235 40.6436 30.1235Z" fill="url(#paint8_linear_128_109)"/>
<path d="M46.0487 38.9427L46.7804 38.9907C46.9726 38.9427 47.0687 38.7905 47.0687 38.5342V23.4189C47.0687 23.1466 46.98 22.9784 46.8026 22.9143L46.0709 22.9623V22.1934H49.9733V38.5342C49.9733 38.8546 50.0694 39.0068 50.2616 38.9907L50.9933 38.9427V39.7597H46.0487V38.9427Z" fill="url(#paint9_linear_128_109)"/>
<path d="M56.9066 29.3064C58.2518 29.3064 59.3234 29.7069 60.1217 30.5079C60.9347 31.2929 61.3486 32.4144 61.3633 33.8722V34.7614H54.9776C54.9776 36.1391 55.2067 37.1884 55.6649 37.9094C56.138 38.6303 56.8401 38.9987 57.7714 39.0148C58.4661 39.0148 59.0648 38.8305 59.5673 38.4621C60.0699 38.0776 60.4395 37.613 60.676 37.0683L61.2746 37.5249C60.9347 38.3099 60.3877 38.9186 59.6339 39.3512C58.8948 39.7837 58.0005 40 56.951 40C55.1919 40 53.9059 39.5675 53.0929 38.7024C52.2799 37.8373 51.8734 36.4996 51.8734 34.6893C51.8734 32.8469 52.2947 31.4932 53.1373 30.6281C53.9798 29.747 55.2363 29.3064 56.9066 29.3064ZM56.8401 30.1235C56.2045 30.1235 55.7389 30.4839 55.4432 31.2048C55.1476 31.9097 54.9998 32.8309 54.9998 33.9683H57.9487C58.0966 33.9683 58.2074 33.9123 58.2813 33.8001C58.3552 33.688 58.3922 33.4797 58.3922 33.1753C58.3922 32.134 58.2665 31.365 58.0153 30.8684C57.7787 30.3718 57.387 30.1235 56.8401 30.1235Z" fill="url(#paint10_linear_128_109)"/>
<path d="M67.2119 29.3064C67.951 29.3064 68.6162 29.4186 69.2075 29.6428C69.7987 29.8671 70.257 30.1715 70.5822 30.556C70.9221 30.9405 71.0921 31.365 71.0921 31.8296C71.0921 32.2462 70.9665 32.5986 70.7152 32.887C70.4787 33.1753 70.1387 33.3195 69.6953 33.3195C69.3405 33.3195 69.0449 33.2314 68.8083 33.0552C68.5866 32.8629 68.4758 32.5906 68.4758 32.2381C68.4758 32.094 68.5053 31.9257 68.5644 31.7335C68.6384 31.5733 68.6753 31.3971 68.6753 31.2048C68.6753 30.8524 68.5423 30.588 68.2762 30.4118C68.0249 30.2196 67.7071 30.1235 67.3228 30.1235C66.6872 30.1235 66.192 30.4519 65.8372 31.1087C65.4824 31.7495 65.3051 32.8469 65.3051 34.4009C65.3051 36.1311 65.5194 37.3486 65.9481 38.0535C66.3915 38.7584 66.9976 39.1109 67.7662 39.1109C68.3723 39.1109 68.9192 38.9347 69.407 38.5822C69.9096 38.2137 70.2939 37.621 70.56 36.804L71.2473 37.1644C70.6117 39.0548 69.274 40 67.2341 40C65.7855 40 64.5881 39.5675 63.6421 38.7024C62.7109 37.8373 62.2452 36.5156 62.2452 34.7373C62.2452 32.9591 62.7035 31.6133 63.6199 30.7002C64.5364 29.771 65.7337 29.3064 67.2119 29.3064Z" fill="url(#paint11_linear_128_109)"/>
<path d="M71.9891 34.6412C71.9891 32.911 72.403 31.5893 73.2308 30.6762C74.0585 29.763 75.3002 29.3064 76.9558 29.3064C78.6261 29.3064 79.8678 29.763 80.6808 30.6762C81.4938 31.5893 81.9003 32.911 81.9003 34.6412C81.9003 38.2137 80.2521 40 76.9558 40C75.3002 40 74.0585 39.5434 73.2308 38.6303C72.403 37.7171 71.9891 36.3874 71.9891 34.6412ZM75.0933 34.6893C75.0933 36.3073 75.2337 37.4608 75.5146 38.1497C75.8102 38.8225 76.2906 39.159 76.9558 39.159C77.621 39.159 78.094 38.8225 78.3748 38.1497C78.6557 37.4768 78.7961 36.3233 78.7961 34.6893C78.7961 33.0231 78.6557 31.8456 78.3748 31.1568C78.094 30.4679 77.621 30.1235 76.9558 30.1235C76.2906 30.1235 75.8102 30.4679 75.5146 31.1568C75.2337 31.8456 75.0933 33.0231 75.0933 34.6893Z" fill="url(#paint12_linear_128_109)"/>
<path d="M100 38.9427V39.7597H94.989V38.9427L95.7872 38.9907C95.9793 38.9427 96.0754 38.7905 96.0754 38.5342V32.7188C96.0754 31.9017 96.0163 31.317 95.898 30.9645C95.7946 30.6121 95.5654 30.4358 95.2107 30.4358C94.8855 30.4358 94.5381 30.6121 94.1686 30.9645C93.8138 31.317 93.5108 31.8296 93.2595 32.5025C93.0082 33.1753 92.8752 33.9683 92.8604 34.8815V38.5342C92.8604 38.8385 92.9565 38.9907 93.1486 38.9907L93.9247 38.9427V39.7597H88.8693V38.9427L89.6675 38.9907C89.8597 38.9427 89.9557 38.7905 89.9557 38.5342V32.7188C89.9557 31.8697 89.8966 31.2769 89.7784 30.9405C89.6601 30.6041 89.4162 30.4358 89.0467 30.4358C88.7362 30.4358 88.4037 30.6041 88.0489 30.9405C87.7089 31.2769 87.4133 31.7655 87.162 32.4064C86.9107 33.0312 86.7629 33.7761 86.7185 34.6412V38.5342C86.7185 38.8546 86.8146 39.0068 87.0068 38.9907L87.805 38.9427V39.7597H82.794V38.9427L83.5257 38.9907C83.7178 38.9427 83.8139 38.7905 83.8139 38.5342V30.7723C83.8139 30.4999 83.7178 30.3397 83.5257 30.2917L82.794 30.3397V29.5467H86.8516C86.7777 29.787 86.7407 30.0594 86.7407 30.3638V31.7095C87.0511 30.9565 87.4946 30.3718 88.0711 29.9552C88.6476 29.5227 89.3349 29.3064 90.1331 29.3064C90.9313 29.3064 91.5448 29.5067 91.9735 29.9072C92.4169 30.3077 92.6904 30.9565 92.7939 31.8537C93.1043 31.0366 93.5551 30.4118 94.1464 29.9793C94.7377 29.5307 95.4398 29.3064 96.2528 29.3064C97.1988 29.3064 97.8862 29.5868 98.3149 30.1475C98.7583 30.6922 98.98 31.5573 98.98 32.7428V38.5342C98.98 38.8385 99.0761 38.9907 99.2683 38.9907L100 38.9427Z" fill="url(#paint13_linear_128_109)"/>
<defs>
<linearGradient id="paint0_linear_128_109" x1="2.59748" y1="5.73456" x2="10.5706" y2="-4.91854" gradientUnits="userSpaceOnUse">
<stop offset="0.0560638" stop-color="#EB3D7D"/>
<stop offset="0.338542" stop-color="#7B3B7D"/>
<stop offset="0.552083" stop-color="#7B3B7D"/>
<stop offset="0.708333" stop-color="#85789F"/>
<stop offset="0.729167" stop-color="#85789F"/>
<stop offset="0.885417" stop-color="#8EADBC"/>
<stop offset="0.978211" stop-color="#93CDCE"/>
</linearGradient>
<linearGradient id="paint1_linear_128_109" x1="-9.82452" y1="26.4745" x2="-1.38136" y2="16.196" gradientUnits="userSpaceOnUse">
<stop offset="0.0560638" stop-color="#EB3D7D"/>
<stop offset="0.338542" stop-color="#7B3B7D"/>
<stop offset="0.552083" stop-color="#7B3B7D"/>
<stop offset="0.708333" stop-color="#85789F"/>
<stop offset="0.729167" stop-color="#85789F"/>
<stop offset="0.885417" stop-color="#8EADBC"/>
<stop offset="0.978211" stop-color="#93CDCE"/>
</linearGradient>
<linearGradient id="paint2_linear_128_109" x1="20.621" y1="7.13387" x2="24.6055" y2="-6.1919" gradientUnits="userSpaceOnUse">
<stop offset="0.0560638" stop-color="#EB3D7D"/>
<stop offset="0.338542" stop-color="#7B3B7D"/>
<stop offset="0.552083" stop-color="#7B3B7D"/>
<stop offset="0.708333" stop-color="#85789F"/>
<stop offset="0.729167" stop-color="#85789F"/>
<stop offset="0.885417" stop-color="#8EADBC"/>
<stop offset="0.978211" stop-color="#93CDCE"/>
</linearGradient>
<linearGradient id="paint3_linear_128_109" x1="20.621" y1="7.13387" x2="24.6055" y2="-6.1919" gradientUnits="userSpaceOnUse">
<stop offset="0.0560638" stop-color="#EB3D7D"/>
<stop offset="0.338542" stop-color="#7B3B7D"/>
<stop offset="0.552083" stop-color="#7B3B7D"/>
<stop offset="0.708333" stop-color="#85789F"/>
<stop offset="0.729167" stop-color="#85789F"/>
<stop offset="0.885417" stop-color="#8EADBC"/>
<stop offset="0.978211" stop-color="#93CDCE"/>
</linearGradient>
<linearGradient id="paint4_linear_128_109" x1="20.621" y1="7.13387" x2="24.6055" y2="-6.1919" gradientUnits="userSpaceOnUse">
<stop offset="0.0560638" stop-color="#EB3D7D"/>
<stop offset="0.338542" stop-color="#7B3B7D"/>
<stop offset="0.552083" stop-color="#7B3B7D"/>
<stop offset="0.708333" stop-color="#85789F"/>
<stop offset="0.729167" stop-color="#85789F"/>
<stop offset="0.885417" stop-color="#8EADBC"/>
<stop offset="0.978211" stop-color="#93CDCE"/>
</linearGradient>
<linearGradient id="paint5_linear_128_109" x1="20.621" y1="7.13387" x2="24.6055" y2="-6.1919" gradientUnits="userSpaceOnUse">
<stop offset="0.0560638" stop-color="#EB3D7D"/>
<stop offset="0.338542" stop-color="#7B3B7D"/>
<stop offset="0.552083" stop-color="#7B3B7D"/>
<stop offset="0.708333" stop-color="#85789F"/>
<stop offset="0.729167" stop-color="#85789F"/>
<stop offset="0.885417" stop-color="#8EADBC"/>
<stop offset="0.978211" stop-color="#93CDCE"/>
</linearGradient>
<linearGradient id="paint6_linear_128_109" x1="20.621" y1="7.13387" x2="24.6055" y2="-6.1919" gradientUnits="userSpaceOnUse">
<stop offset="0.0560638" stop-color="#EB3D7D"/>
<stop offset="0.338542" stop-color="#7B3B7D"/>
<stop offset="0.552083" stop-color="#7B3B7D"/>
<stop offset="0.708333" stop-color="#85789F"/>
<stop offset="0.729167" stop-color="#85789F"/>
<stop offset="0.885417" stop-color="#8EADBC"/>
<stop offset="0.978211" stop-color="#93CDCE"/>
</linearGradient>
<linearGradient id="paint7_linear_128_109" x1="-1.89248" y1="27.7579" x2="1.91414" y2="12.5852" gradientUnits="userSpaceOnUse">
<stop offset="0.0560638" stop-color="#EB3D7D"/>
<stop offset="0.338542" stop-color="#7B3B7D"/>
<stop offset="0.552083" stop-color="#7B3B7D"/>
<stop offset="0.708333" stop-color="#85789F"/>
<stop offset="0.729167" stop-color="#85789F"/>
<stop offset="0.885417" stop-color="#8EADBC"/>
<stop offset="0.978211" stop-color="#93CDCE"/>
</linearGradient>
<linearGradient id="paint8_linear_128_109" x1="-1.89248" y1="27.7579" x2="1.91414" y2="12.5852" gradientUnits="userSpaceOnUse">
<stop offset="0.0560638" stop-color="#EB3D7D"/>
<stop offset="0.338542" stop-color="#7B3B7D"/>
<stop offset="0.552083" stop-color="#7B3B7D"/>
<stop offset="0.708333" stop-color="#85789F"/>
<stop offset="0.729167" stop-color="#85789F"/>
<stop offset="0.885417" stop-color="#8EADBC"/>
<stop offset="0.978211" stop-color="#93CDCE"/>
</linearGradient>
<linearGradient id="paint9_linear_128_109" x1="-1.89248" y1="27.7579" x2="1.91414" y2="12.5852" gradientUnits="userSpaceOnUse">
<stop offset="0.0560638" stop-color="#EB3D7D"/>
<stop offset="0.338542" stop-color="#7B3B7D"/>
<stop offset="0.552083" stop-color="#7B3B7D"/>
<stop offset="0.708333" stop-color="#85789F"/>
<stop offset="0.729167" stop-color="#85789F"/>
<stop offset="0.885417" stop-color="#8EADBC"/>
<stop offset="0.978211" stop-color="#93CDCE"/>
</linearGradient>
<linearGradient id="paint10_linear_128_109" x1="-1.89248" y1="27.7579" x2="1.91414" y2="12.5852" gradientUnits="userSpaceOnUse">
<stop offset="0.0560638" stop-color="#EB3D7D"/>
<stop offset="0.338542" stop-color="#7B3B7D"/>
<stop offset="0.552083" stop-color="#7B3B7D"/>
<stop offset="0.708333" stop-color="#85789F"/>
<stop offset="0.729167" stop-color="#85789F"/>
<stop offset="0.885417" stop-color="#8EADBC"/>
<stop offset="0.978211" stop-color="#93CDCE"/>
</linearGradient>
<linearGradient id="paint11_linear_128_109" x1="-1.89248" y1="27.7579" x2="1.91414" y2="12.5852" gradientUnits="userSpaceOnUse">
<stop offset="0.0560638" stop-color="#EB3D7D"/>
<stop offset="0.338542" stop-color="#7B3B7D"/>
<stop offset="0.552083" stop-color="#7B3B7D"/>
<stop offset="0.708333" stop-color="#85789F"/>
<stop offset="0.729167" stop-color="#85789F"/>
<stop offset="0.885417" stop-color="#8EADBC"/>
<stop offset="0.978211" stop-color="#93CDCE"/>
</linearGradient>
<linearGradient id="paint12_linear_128_109" x1="-1.89248" y1="27.7579" x2="1.91414" y2="12.5852" gradientUnits="userSpaceOnUse">
<stop offset="0.0560638" stop-color="#EB3D7D"/>
<stop offset="0.338542" stop-color="#7B3B7D"/>
<stop offset="0.552083" stop-color="#7B3B7D"/>
<stop offset="0.708333" stop-color="#85789F"/>
<stop offset="0.729167" stop-color="#85789F"/>
<stop offset="0.885417" stop-color="#8EADBC"/>
<stop offset="0.978211" stop-color="#93CDCE"/>
</linearGradient>
<linearGradient id="paint13_linear_128_109" x1="-1.89248" y1="27.7579" x2="1.91414" y2="12.5852" gradientUnits="userSpaceOnUse">
<stop offset="0.0560638" stop-color="#EB3D7D"/>
<stop offset="0.338542" stop-color="#7B3B7D"/>
<stop offset="0.552083" stop-color="#7B3B7D"/>
<stop offset="0.708333" stop-color="#85789F"/>
<stop offset="0.729167" stop-color="#85789F"/>
<stop offset="0.885417" stop-color="#8EADBC"/>
<stop offset="0.978211" stop-color="#93CDCE"/>
</linearGradient>
</defs>
</svg>
