<svg version="1.1" id="Layer_1" xmlns="http://www.w3.org/2000/svg" x="0" y="0" viewBox="0 0 252 252" xml:space="preserve"><style>.st2{fill:#fadb4f}.st3{fill:#fa6324}.st4{fill:#eb3d7d}.st5{fill:#cc1f59}</style><path d="M153.1 9.7h74.6c10.9 0 19.7 8.8 19.7 19.7l-.1 196c0 10.9-8.8 19.7-19.7 19.7H153c-10.9 0-19.7-8.8-19.7-19.7l.1-196c0-10.8 8.8-19.7 19.7-19.7z" fill="#ea522f"/><path d="M145.7 9.5h74.6c10.9 0 19.7 8.8 19.7 19.7l-.1 196c0 10.9-8.8 19.7-19.7 19.7h-74.6c-10.9 0-19.7-8.8-19.7-19.7l.1-196c-.1-10.8 8.8-19.7 19.7-19.7z" fill="#f90"/><path class="st2" d="M147.1 18.3h7.3c1.2 0 2.2 1 2.1 2.2v3c0 2.3 1.9 4.2 4.2 4.2h44.5c2.3 0 4.2-1.9 4.2-4.2v-3c0-1.2 1-2.2 2.2-2.1h7.3c8.1 0 14.6 6.5 14.6 14.6l-.1 188.8c0 8.1-6.5 14.6-14.6 14.6h-71.9c-8.1 0-14.6-6.5-14.6-14.6l.1-188.8c.1-8.1 6.7-14.7 14.7-14.7z"/><path class="st3" d="M188.8 22.9h-12.6c-.3 0-.6-.3-.6-.6s.3-.6.6-.6h12.6c.3 0 .6.3.6.6 0 .4-.3.6-.6.6zM173.5 22.9H172c-.3 0-.6-.3-.6-.6s.3-.6.6-.6h1.5c.3 0 .6.3.6.6 0 .4-.3.6-.6.6z"/><path class="st4" d="M37.4 172.6h196.2v-84H46.3c-5.1 0-9.3 3.7-10 8.7L27.4 161c-.9 6.2 3.8 11.6 10 11.6z"/><path class="st5" d="M92.9 133c2.5 0 2.1 5.6 1.8 8.1l-.3 2.6c-.3 2.5-2 4.1-4.5 4.1h-4.4l-.8 6.3c-.3 2.5-2.6 4.3-5.1 4.3h-4.2c-2.5 0-4.4-1.8-4.1-4.3v-4.5l.8-1.8H49c-2.5 0-3.6-1.5-3.8-3.1l-.3-2.7c-.1-.5 0-5.1 0-5.6.2-2.9 3.1-3.2 3.4-3.9l24.6-23.3c2.6-2.7 4.6-4 7.7-4l5.7-3.9c2.9 0 4.8 1.8 4.4 5.2l-4 30.6 6.2-4.1zm-17.4-12.6l-14.9 16.3v.2h12.9l2.2-16.5h-.2zM95.1 146.9c.6-4.6 4.6-4.5 9.5-4.5 4.1 0 6.9-1.2 7.4 2.3.1.7.2 5.2.1 5.9-.6 4.6-4.8 8.1-9.7 8.1-4 0-6.8-2.4-7.3-5.8-.1-.7-.1-5.3 0-6zM158.8 141.5c-1.7 12.2-12.8 17.4-25.3 17.4-6 0-12.7-.9-17.1-3.8-1.4-.9-2.1-2.1-2.1-3.5 0-.9-.3-4.9.2-5.8h2.8c1.5-2.3 3.7-3 6.6-1.6 3.5 1.8 7.4 2.7 10.7 2.7 5.1 0 9.4-1.1 10-5.4.4-3-2.2-5.4-18.6-5.4-2.8 0-5-1.4-5.2-4.6 0-.7-.1-4.6.1-5.4l3-13.5c.6-3.8 3.7-6.9 7.5-6.9l27.8-3.9c2.3 0 2 5.5 1.7 8l-.5 3.9c-.3 2.5-2.3 4.1-4.5 4.1H136l-1.2 7.3c17.1 0 24.3.5 24.4 9.3-.2.9-.3 6.1-.4 7.1zM194.3 139.4c-2.2 0-3.6-1.5-3.2-3.8v-4.1c.3-2.1 2.7-3.6 4.9-3.6l15.8-3.3c2.9 0 2.6 5.7 2.2 8.6l-2.4 17c-.2 1.6-1 3-2.7 4.2-2.8 1.8-10.5 4.6-21 4.6-15 0-23.2-7.9-23.9-20.2-.1-2-.2-6.3.1-8.5 2.2-16.3 17.2-25.5 32.7-25.5 7.7 0 13.8-1.8 18.6 1.7 1.2.8.7 5.1.7 6.4 0 .9-.3 1.9-1.2 2.9l-2.1 2.7c-1.7 2.3-4.2 3-6.5 1.8-3.4-1.8-6.7-2.8-10.1-2.8-9.1 0-15.9 4.4-17.4 15.3-1.3 9.3 3.3 14.5 12.3 14.5 2.6 0 4.2-.1 6.9-.9l1-6.9h-4.7z"/><path class="st2" d="M91.2 132.3c2.5 0 3.8 1.6 3.4 4.1l-.3 2.6c-.3 2.5-2 4.1-4.5 4.1h-4.4l-.8 6.3c-.3 2.5-2.6 4.3-5.1 4.3h-4.2c-2.5 0-4.4-1.8-4.1-4.3l.8-6.3H49c-2.5 0-3.6-1.5-3.8-3.1l-.3-2.7c-.4-3.1 1.7-5.4 3.6-7.4l24.3-25.4c2.6-2.7 4.6-4 7.7-4h5.3c2.9 0 4.8 1.8 4.4 5.2l-3.5 26.6h4.5zm-15.7-16.5l-14.9 16.3v.2h12.9l2.2-16.5h-.2zM95.1 146c.6-4.6 4.6-8.3 9.5-8.3s8.1 3.7 7.5 8.3-4.8 8.1-9.7 8.1c-4.8-.1-7.9-3.5-7.3-8.1zM158.8 136.9c-1.7 12.2-12.8 17.4-25.3 17.4-6 0-12.7-.9-17.1-3.8-2.3-1.4-2.7-3.8-1.2-6.2l2.1-3.1c1.5-2.3 3.7-3 6.6-1.6 3.5 1.8 7.4 2.7 10.7 2.7 5.1 0 9.4-1.1 10-5.4.4-3-2.2-5.4-18.6-5.4-3.3 0-6-2-5-6.9l2.9-16.7c.6-3.8 3.7-6.9 7.5-6.9h26c2.3 0 3.8 1.6 3.4 4.1l-.5 3.9c-.3 2.5-2.3 4.1-4.5 4.1h-19.9l-1.2 7.3c18.7 0 25.5 5.8 24.1 16.5zM194.3 134.7c-2.2 0-3.6-1.5-3.2-3.8l.6-4c.3-2.1 2.1-3.8 4.3-3.8h13.5c2.9 0 4.9 2.4 4.5 5.3l-2.4 17c-.2 1.6-1 3-2.7 4.2-2.8 1.8-10.5 4.6-21 4.6-17.4 0-25.7-10.6-23.6-26.5 2.2-16.3 17.1-27.7 32.5-27.7 7.7 0 12.7 1.3 17.5 4.7 2 1.4 2.7 3.8.7 6.2l-2.1 2.7c-1.7 2.3-4.2 3-6.5 1.8-3.4-1.8-6.7-2.8-10.1-2.8-9.1 0-15.9 4.4-17.4 15.3-1.3 9.3 3.3 14.5 12.3 14.5 2.6 0 4.2-.1 6.9-.9l1-6.9h-4.8z"/><g><path class="st4" d="M156.2 81.1H79.5c-.6 0-1.1-.5-1.1-1.1s.5-1.1 1.1-1.1h76.7c.6 0 1.1.5 1.1 1.1s-.5 1.1-1.1 1.1z"/></g><g><path class="st4" d="M71.9 81.1H59.7c-.6 0-1.1-.5-1.1-1.1s.5-1.1 1.1-1.1h12.2c.6 0 1.1.5 1.1 1.1s-.5 1.1-1.1 1.1z"/></g><g><path class="st4" d="M87.5 72.6H52.2c-.6 0-1.1-.5-1.1-1.1s.5-1.1 1.1-1.1h35.3c.6 0 1.1.5 1.1 1.1s-.5 1.1-1.1 1.1z"/></g><g><path class="st4" d="M40.4 72.6h-8c-.6 0-1.1-.5-1.1-1.1s.5-1.1 1.1-1.1h8c.6 0 1.1.5 1.1 1.1s-.5 1.1-1.1 1.1z"/></g><g><path class="st4" d="M93.1 184.6H16.4c-.6 0-1.1-.5-1.1-1.1s.5-1.1 1.1-1.1h76.7c.6 0 1.1.5 1.1 1.1s-.5 1.1-1.1 1.1z"/></g><g><path class="st4" d="M149.1 184.6h-33.9c-.6 0-1.1-.5-1.1-1.1s.5-1.1 1.1-1.1h33.9c.6 0 1.1.5 1.1 1.1s-.5 1.1-1.1 1.1z"/></g><g><path class="st4" d="M137.3 194.5H60.6c-.6 0-1.1-.5-1.1-1.1s.5-1.1 1.1-1.1h76.7c.6 0 1.1.5 1.1 1.1s-.5 1.1-1.1 1.1z"/></g><g><path class="st4" d="M192.4 81.1h-21.6c-.6 0-1.1-.5-1.1-1.1s.5-1.1 1.1-1.1h21.6c.6 0 1.1.5 1.1 1.1s-.5 1.1-1.1 1.1z"/></g></svg>