<svg version="1.1" id="Layer_1" xmlns="http://www.w3.org/2000/svg" x="0" y="0" viewBox="0 0 108 108" xml:space="preserve"><style>.st2{fill:#d19d97}.st4{fill:#eb3d7d}.st5{fill:#f90}</style><path d="M73.4 95.8c-.1-.7 4.2-8.8 9-14.3s7.4-7.6 8.2-7.1c.8.6 2.3 4.7.2 10.5-2.1 5.8-5.6 11.3-5.6 11.3l-11.8-.4z" fill="#461e5f"/><path d="M4.8 64.2c4.3 2.9 9 5.2 12.1 9.2 1.7 2.3 3.2 4.3 5.2 5.8 4.6 4 11.3 4.3 17.3 4.6 7.5.3 15.3 0 22.8.9 4.6.6 10.4 4.3 17.3 15.6 1.4 2 12.2-18.3 11-20.4C86.9 73 84 62.8 73.9 57.3c-7.5-4-17-2.9-24.8-6.4-1.7-.6-3.2-1.7-4.9-2.3-.3-.3-.6-.3-.9-.3-.6 0-.9.6-1.2 1.2-.6 2.3.9 4.3 2.6 5.8 1.4 1.2 4 2.9 6.1 3.5.6.3 1.2.9 1.4 1.4-4.9-.6-10.1-.3-13-.9-4.3-.6-6.4-4-9-6.6-3.5-3.5-12.1-9.8-13.6-7.5-1.2 1.4 1.7 5.5 2.9 6.6 2 1.7 3.5 4.3 4.9 6.4-7.4-6.1-21-9.6-21.6-6.1-.3 1.7 5.2 4.9 7.5 6.6.6.3 1.2.9 1.7 1.2-.3-.3-.6-.3-.9-.3-2.6-.6-5.5-1.2-8.1 0-3.1 1.4.4 3.5 1.8 4.6z" fill="#da9"/><path class="st2" d="M20.9 75.7s-1.7-9.1-4.7-14 3.3-2.9 5.2-.4c1.9 2.5 3.5 9.9 7.4 10.7 3.9.8 15.9-.5 24.2-.9 6-.3 12.2 1.3 15.2 2.3.4.1.8-.4.4-.7-2.4-2-7.6-5.5-15-5.5-10.3 0-23.6 4-26.9-.2s-4-8.9-8.6-9.7c-4.7-.8-4.7 1.9-3.9 3.3.7 1.3 4.5 6.2 6.7 15.1zM52.2 60.2s1.4 2.1 5.6 3.7-4.7.6-8-1.5c-3.3-2-6.9-2.7-6.9-2.7l9.3.5z"/><path d="M73.6 95.3s5.8.3 11.6-6.7 5-14.3 5-14.3 1.5-1.3 9.8 7.9c3.6 4 3.5 8.9-2.3 16-6.8 8.3-14.5 9.2-15.9 8-3.1-2.6-9.6-9-8.2-10.9z" fill="#55057f"/><path class="st4" d="M20 32.3l-3-1.8 3-1.8c.7-.4.8-1.2.4-1.9l-.5-.9c-.4-.7-1.2-1-1.9-.6L15.1 27v-3.4c0-.8-.7-1.3-1.5-1.3h-1c-.8 0-1.5.5-1.5 1.3V27l-2.9-1.7c-.7-.4-1.5-.1-1.9.6l-.5.9c-.4.7-.3 1.5.4 1.9l3 1.8-3 1.8c-.7.4-.8 1.2-.4 1.9l.5.9c.4.7 1.2 1 1.9.6l2.9-1.7v3.4c0 .8.7 1.3 1.5 1.3h1c.8 0 1.5-.5 1.5-1.3V34l2.9 1.7c.7.4 1.5.1 1.9-.6l.5-.9c.4-.6.3-1.5-.4-1.9z"/><path class="st5" d="M20 31.3l-3-1.8 3-1.8c.7-.4.8-1.2.4-1.9l-.5-.9c-.4-.7-1.2-1-1.9-.6L15.1 26v-3.4c0-.8-.7-1.3-1.5-1.3h-1c-.8 0-1.5.5-1.5 1.3V26l-2.9-1.7c-.7-.4-1.5-.1-1.9.6l-.5.9c-.4.7-.3 1.5.4 1.9l3 1.8-3 1.8c-.7.4-.8 1.2-.4 1.9l.5.9c.4.7 1.2 1 1.9.6l2.9-1.7v3.4c0 .8.7 1.3 1.5 1.3h1c.8 0 1.5-.5 1.5-1.3V33l2.9 1.7c.7.4 1.5.1 1.9-.6l.5-.9c.4-.6.3-1.4-.4-1.9z"/><path class="st4" d="M42.7 32.3l-3-1.8 3-1.8c.7-.4.8-1.2.4-1.9l-.5-.9c-.4-.7-1.2-1-1.9-.6L37.8 27v-3.4c0-.8-.7-1.3-1.5-1.3h-1c-.8 0-1.5.5-1.5 1.3V27l-2.9-1.7c-.7-.4-1.5-.1-1.9.6l-.5.9c-.4.7-.3 1.5.4 1.9l3 1.8-3 1.8c-.7.4-.8 1.2-.4 1.9l.5.9c.4.7 1.2 1 1.9.6l2.9-1.7v3.4c0 .8.7 1.3 1.5 1.3h1c.8 0 1.5-.5 1.5-1.3V34l2.9 1.7c.7.4 1.5.1 1.9-.6l.5-.9c.4-.6.3-1.5-.4-1.9z"/><path class="st5" d="M42.7 31.3l-3-1.8 3-1.8c.7-.4.8-1.2.4-1.9l-.5-.9c-.4-.7-1.2-1-1.9-.6L37.8 26v-3.4c0-.8-.7-1.3-1.5-1.3h-1c-.8 0-1.5.5-1.5 1.3V26l-2.9-1.7c-.7-.4-1.5-.1-1.9.6l-.5.9c-.4.7-.3 1.5.4 1.9l3 1.8-3 1.8c-.7.4-.8 1.2-.4 1.9l.5.9c.4.7 1.2 1 1.9.6l2.9-1.7v3.4c0 .8.7 1.3 1.5 1.3h1c.8 0 1.5-.5 1.5-1.3V33l2.9 1.7c.7.4 1.5.1 1.9-.6l.5-.9c.4-.6.3-1.4-.4-1.9z"/><path class="st4" d="M65.5 32.3l-3-1.8 3-1.8c.7-.4.8-1.2.4-1.9l-.5-.9c-.4-.7-1.2-1-1.9-.6L60.6 27v-3.4c0-.8-.7-1.3-1.5-1.3h-1c-.8 0-1.5.5-1.5 1.3V27l-2.9-1.7c-.7-.4-1.5-.1-1.9.6l-.5.9c-.4.7-.3 1.5.4 1.9l3 1.8-3 1.8c-.7.4-.8 1.2-.4 1.9l.5.9c.4.7 1.2 1 1.9.6l2.9-1.7v3.4c0 .8.7 1.3 1.5 1.3h1c.8 0 1.5-.5 1.5-1.3V34l2.9 1.7c.7.4 1.5.1 1.9-.6l.5-.9c.4-.6.3-1.5-.4-1.9z"/><path class="st5" d="M65.5 31.3l-3-1.8 3-1.8c.7-.4.8-1.2.4-1.9l-.5-.9c-.4-.7-1.2-1-1.9-.6L60.6 26v-3.4c0-.8-.7-1.3-1.5-1.3h-1c-.8 0-1.5.5-1.5 1.3V26l-2.9-1.7c-.7-.4-1.5-.1-1.9.6l-.5.9c-.4.7-.3 1.5.4 1.9l3 1.8-3 1.8c-.7.4-.8 1.2-.4 1.9l.5.9c.4.7 1.2 1 1.9.6l2.9-1.7v3.4c0 .8.7 1.3 1.5 1.3h1c.8 0 1.5-.5 1.5-1.3V33l2.9 1.7c.7.4 1.5.1 1.9-.6l.5-.9c.4-.6.3-1.4-.4-1.9z"/><path class="st4" d="M88.2 32.3l-3-1.8 3-1.8c.7-.4.8-1.2.4-1.9l-.5-.9c-.4-.7-1.2-1-1.9-.6L83.3 27v-3.4c0-.8-.7-1.3-1.5-1.3h-1c-.8 0-1.5.5-1.5 1.3V27l-2.9-1.7c-.7-.4-1.5-.1-1.9.6l-.5.9c-.4.7-.3 1.5.4 1.9l3 1.8-3 1.8c-.7.4-.8 1.2-.4 1.9l.5.9c.4.7 1.2 1 1.9.6l2.9-1.7v3.4c0 .8.7 1.3 1.5 1.3h1c.8 0 1.5-.5 1.5-1.3V34l2.9 1.7c.7.4 1.5.1 1.9-.6l.5-.9c.4-.6.3-1.5-.4-1.9z"/><path class="st5" d="M88.2 31.3l-3-1.8 3-1.8c.7-.4.8-1.2.4-1.9l-.5-.9c-.4-.7-1.2-1-1.9-.6L83.3 26v-3.4c0-.8-.7-1.3-1.5-1.3h-1c-.8 0-1.5.5-1.5 1.3V26l-2.9-1.7c-.7-.4-1.5-.1-1.9.6l-.5.9c-.4.7-.3 1.5.4 1.9l3 1.8-3 1.8c-.7.4-.8 1.2-.4 1.9l.5.9c.4.7 1.2 1 1.9.6l2.9-1.7v3.4c0 .8.7 1.3 1.5 1.3h1c.8 0 1.5-.5 1.5-1.3V33l2.9 1.7c.7.4 1.5.1 1.9-.6l.5-.9c.4-.6.3-1.4-.4-1.9z"/></svg>