<svg width="31" height="34" viewBox="0 0 31 34" fill="none" xmlns="http://www.w3.org/2000/svg">
<path d="M30.9999 22.0743V22.142C30.959 22.142 30.8944 22.0987 30.8127 22.0093V22.0743L30.7484 22.0093H30.6872L30.7484 22.0743H30.6872V22.0093H30.6234C30.6234 22.0532 30.6021 22.0532 30.5592 22.0093C30.5592 21.9659 30.5387 21.9416 30.4979 21.9416C30.4542 21.9416 30.4337 21.9199 30.4337 21.8765C30.3082 21.8332 30.2231 21.7871 30.1821 21.7438L30.1184 21.8088C30.1184 21.7654 30.0979 21.7221 30.0563 21.676H29.9926L30.0563 21.7438C30.0982 21.7877 30.1184 21.8335 30.1184 21.8765C30.1184 21.9205 30.1613 21.9416 30.2464 21.9416C30.3281 21.9416 30.3719 21.9662 30.3719 22.0093L30.5592 22.2103L30.6872 22.3431V22.4081L30.7484 22.4758V22.6086C30.7902 22.698 30.7902 22.7414 30.7484 22.7414C30.7902 22.7874 30.8127 22.8311 30.8127 22.8741V22.9418C30.7697 22.9418 30.7484 22.9641 30.7484 23.0098C30.7074 23.0098 30.6872 23.0315 30.6872 23.0746V23.1423L30.7484 23.2751H30.6234C30.5796 23.2751 30.5796 23.2967 30.6234 23.3401V23.4078H30.5591C30.5182 23.4538 30.5182 23.4972 30.5591 23.5406L30.6234 23.6083C30.5796 23.6083 30.5591 23.63 30.5591 23.6733H30.4979V24.0066C30.4979 24.0526 30.5184 24.0743 30.5591 24.0743C30.6021 24.0743 30.6234 24.085 30.6234 24.1066C30.6234 24.1283 30.6439 24.139 30.6872 24.139H30.6234L30.5591 24.207C30.5591 24.2964 30.5796 24.3398 30.6234 24.3398H30.4979C30.4132 24.2504 30.3486 24.2287 30.3076 24.2721C30.2666 24.2287 30.2228 24.2073 30.1821 24.2073L30.0566 24.0746C30.0136 24.0746 29.9724 24.0529 29.9311 24.0069C29.8882 23.9629 29.8264 23.8952 29.7416 23.8058L29.5507 23.7431H29.4895L29.3615 23.6754C29.2767 23.6315 29.2155 23.6104 29.1742 23.6104H28.7323C28.7323 23.6543 28.7741 23.6754 28.8578 23.6754H29.1094C29.3199 23.7648 29.4457 23.8082 29.4889 23.8082L29.5501 23.8759L29.6144 23.9436C29.6961 23.9436 29.7399 23.9653 29.7399 24.0086L29.9294 24.1414V24.2094H30.0549C30.0549 24.2988 30.0968 24.3422 30.1804 24.3422C30.1804 24.4319 30.2214 24.4749 30.3059 24.4749C30.3469 24.521 30.3907 24.5426 30.4314 24.5426V24.6077H30.3702L30.3059 24.5426C30.3059 24.5866 30.2854 24.6077 30.2447 24.6077C30.2009 24.5643 30.1167 24.499 29.9906 24.4096C29.9906 24.3656 29.9496 24.3416 29.8651 24.3416L29.7396 24.2088C29.6958 24.2088 29.6753 24.1865 29.6753 24.1408L29.615 24.1414H29.4895C29.4465 24.098 29.3839 24.0766 29.3 24.0766L28.9841 24.0089C28.9431 23.965 28.8993 23.9439 28.8586 23.9439C28.7744 23.9439 28.7331 23.9656 28.7331 24.0089C28.6902 23.965 28.6489 23.9439 28.6076 23.9439V24.0089L28.5439 23.9439C28.4591 23.8979 28.3954 23.8979 28.3536 23.9439H28.2281L28.1017 23.9436H27.9762C27.9324 23.8976 27.9119 23.8976 27.9119 23.9436C27.9119 23.8976 27.8915 23.8759 27.8507 23.8759H27.5969L27.5341 23.8762H26.9675C26.9675 23.9222 26.9445 23.9439 26.9032 23.9439H26.8395C26.7985 23.9439 26.7783 23.9222 26.7783 23.8762C26.7345 23.8762 26.714 23.8979 26.714 23.9439L26.6528 23.8762L26.5885 23.9439H26.463C26.3782 23.9439 26.3375 23.9656 26.3375 24.0089H26.0208C25.977 24.055 25.9152 24.0766 25.8305 24.0766H25.7693V24.0089L25.6412 24.0766C25.6412 24.12 25.6207 24.1414 25.58 24.1414H25.5157C25.3052 24.2742 25.2005 24.2988 25.2005 24.2094C25.2434 24.1654 25.2847 24.1414 25.3285 24.1414L25.454 24.0766C25.5357 24.0766 25.6 24.055 25.6412 24.0089L25.3897 24.0766H25.2642L25.0747 24.1414C25.0328 24.1874 24.9899 24.2094 24.9492 24.2094H24.7588C24.7588 24.1654 24.7383 24.1654 24.6976 24.2094H24.0665C23.9817 24.2528 23.918 24.2741 23.877 24.2741H23.1833C23.099 24.3202 23.0347 24.3202 22.9938 24.2741C22.909 24.2741 22.8478 24.2988 22.8065 24.3419H22.4266C22.3418 24.3419 22.2568 24.3665 22.1751 24.4099H21.9847C21.9437 24.4099 21.9235 24.3989 21.9235 24.3745C21.9235 24.3523 21.9005 24.3419 21.8592 24.3419C21.8592 24.3879 21.8362 24.4099 21.7955 24.4099H21.67C21.629 24.4099 21.5852 24.4316 21.5445 24.4746C21.5035 24.4746 21.4802 24.4529 21.4802 24.4099H21.1669L21.1032 24.608C21.1032 24.7434 21.0613 24.8984 20.9777 25.0751C20.9777 25.3439 20.9339 25.5417 20.8522 25.6777C20.8084 25.7211 20.7879 25.7535 20.7879 25.7752V25.9432L20.7267 26.076C20.7267 26.122 20.7037 26.1877 20.6624 26.2771V26.4098C20.6624 26.4992 20.6419 26.5892 20.5987 26.6759C20.5987 26.8547 20.5782 26.9447 20.5366 26.9447V27.0775H20.4729C20.5139 27.1208 20.4934 27.2319 20.4117 27.411C20.4117 27.4549 20.3985 27.5331 20.378 27.6447C20.3575 27.7558 20.3474 27.8562 20.3474 27.9432C20.2626 28.1654 20.2418 28.2987 20.2862 28.3447V28.4095C20.2424 28.4095 20.2424 28.4341 20.2862 28.4775V28.6753L20.2219 28.743V28.8107H20.2862L20.2219 28.8758C20.1789 28.9218 20.1789 28.9435 20.2219 28.9435C20.2219 28.9874 20.2014 29.0085 20.1576 29.0085V29.0762L20.2219 29.1439H20.1576V29.2767L20.0964 29.4095L20.0327 29.4742V29.7465L19.9706 30.0124C19.9706 30.0584 19.9583 30.0804 19.9375 30.0804C19.917 30.0804 19.9069 30.1021 19.9069 30.1451C19.9069 30.2348 19.8864 30.2779 19.8448 30.2779V30.5467L19.7811 30.6117V30.8122C19.7811 30.8555 19.7572 30.8799 19.7168 30.8799V31.146L19.6556 31.2107V31.3465C19.6118 31.3898 19.5913 31.4575 19.5913 31.5446V31.6773C19.5913 31.7667 19.5708 31.8127 19.5301 31.8127V32.1433C19.5301 32.1893 19.5178 32.211 19.4964 32.211C19.4759 32.211 19.4658 32.2327 19.4658 32.2787V32.6093C19.4248 32.6553 19.4021 32.7233 19.4021 32.8103V32.8781L19.34 32.9431C19.2971 32.9431 19.2763 32.9891 19.2763 33.0785C19.2353 33.0785 19.2143 33.1008 19.2143 33.1436L19.2763 33.2113C19.2353 33.2552 19.2143 33.301 19.2143 33.344L19.089 33.2113C19.0453 33.2113 19.0248 33.233 19.0248 33.2763C19.0248 33.3224 19.0043 33.344 18.9605 33.344C19.0043 33.3874 19.0043 33.4091 18.9605 33.4091V33.6773H18.835C18.8768 33.6773 18.8993 33.6556 18.8993 33.6096H18.835C18.794 33.5656 18.7738 33.5656 18.7738 33.6096V33.6773C18.7738 33.7206 18.7507 33.7423 18.71 33.7423C18.6682 33.7423 18.648 33.753 18.648 33.7774V33.8748C18.605 33.8314 18.5638 33.8314 18.52 33.8748H18.3333L18.269 33.9425V33.8748C18.228 33.8314 18.1847 33.81 18.1435 33.81L18.0758 33.8109H18.0138L17.95 33.7432C17.909 33.6992 17.8652 33.6782 17.8245 33.6782C17.7398 33.6782 17.699 33.6565 17.699 33.6104L17.6348 33.5454H17.5727L17.5084 33.6104C17.4674 33.6104 17.4472 33.5882 17.4472 33.5454H17.3832C17.2987 33.6348 17.2344 33.6348 17.1931 33.5454L17.0676 33.4777C17.0266 33.521 17.0064 33.521 17.0064 33.4777L16.9421 33.41H16.8784L16.8164 33.3449L16.6909 33.41C16.6064 33.4994 16.5654 33.4777 16.5654 33.3449C16.5654 33.3016 16.5421 33.3016 16.5014 33.3449C16.4578 33.3449 16.4371 33.3232 16.4371 33.2772V33.1445L16.3116 32.8783L16.2501 32.7456V32.6776C16.2501 32.6342 16.2706 32.5882 16.3116 32.5448V32.4768L16.2501 32.3441H16.3116C16.2271 32.2573 16.1861 31.8769 16.1861 31.2092C16.1861 31.1225 16.1962 31.0007 16.217 30.843C16.2374 30.6886 16.2709 30.5662 16.3118 30.4768C16.3118 30.3874 16.322 30.29 16.3453 30.1754C16.3658 30.0667 16.3761 29.9886 16.3761 29.942V29.6761C16.3761 29.6322 16.3966 29.5645 16.4373 29.4748C16.4811 29.3884 16.5016 29.3204 16.5016 29.2767V28.9429C16.5426 28.8535 16.5656 28.7884 16.5656 28.7418C16.5656 28.5654 16.5867 28.4323 16.6271 28.3429V28.1419C16.6681 28.0522 16.6911 27.9197 16.6911 27.7403C16.6911 27.6964 16.7116 27.6536 16.7526 27.6076V27.4748C16.7526 27.3854 16.7731 27.3204 16.8164 27.2738V27.076C16.8164 26.9863 16.8374 26.9186 16.8784 26.8749V26.5411L16.9421 26.4734C16.9837 25.8518 17.0477 25.4529 17.1325 25.2741L17.1937 24.9403C17.2347 24.7639 17.2785 24.6065 17.3192 24.4732H15.7442C15.7442 24.5192 15.7237 24.5192 15.6799 24.4732H15.6184L15.4918 24.4729C15.4483 24.4729 15.4278 24.4975 15.4278 24.5406H15.3663C15.3228 24.4972 15.302 24.4972 15.302 24.5406C15.261 24.5406 15.197 24.5189 15.1119 24.4729C15.0709 24.5189 15.0504 24.5189 15.0504 24.4729H14.9249C14.8814 24.5626 14.8171 24.5626 14.7349 24.4729C14.6914 24.4729 14.6094 24.4975 14.4833 24.5406C14.3553 24.5406 14.2932 24.5189 14.2932 24.4729H14.042C14.042 24.5189 14.0187 24.5406 13.978 24.5406L13.8525 24.4729H13.727L13.663 24.5406H13.5989V24.4729H12.3397C12.2552 24.4295 12.1909 24.4081 12.1497 24.4081L12.0242 24.4729H11.8035C11.7392 24.4729 11.6881 24.4512 11.6468 24.4081H10.5744L10.2588 24.3401H10.1333C10.1333 24.4729 10.11 24.5629 10.069 24.6062C10.069 24.6522 10.0589 24.731 10.0384 24.8397C10.0151 24.9513 10.0075 25.0511 10.0075 25.1411C9.92302 25.3632 9.90253 25.4966 9.94352 25.54V25.608C9.90253 25.608 9.90253 25.6297 9.94352 25.6757V25.8735L9.87922 25.9412V26.074L9.81774 26.1417C9.85873 26.1856 9.85873 26.2067 9.81774 26.2067C9.81774 26.2527 9.83823 26.2961 9.87922 26.3395H9.81774V26.5399L9.75373 26.6077L9.69224 26.7404V26.9415L9.62823 27.2073C9.62823 27.2512 9.61812 27.2723 9.59735 27.2723C9.57433 27.2723 9.56675 27.297 9.56675 27.34C9.56675 27.4297 9.54344 27.4728 9.50245 27.4728V27.7389L9.43844 27.8066V28.0071C9.43844 28.0504 9.41795 28.0721 9.37696 28.0721V28.3409L9.31267 28.4057V28.5384C9.27168 28.5844 9.25118 28.6501 9.25118 28.7395V28.8722C9.25118 28.9616 9.22816 29.005 9.18717 29.005V29.3382C9.18717 29.3842 9.17678 29.4059 9.15629 29.4059C9.13327 29.4059 9.1254 29.4276 9.1254 29.4707V29.8042H9.06139V30.0733L8.99738 30.138C8.95639 30.138 8.9359 30.1841 8.9359 30.2708C8.89238 30.2708 8.87189 30.2954 8.87189 30.3385L8.9359 30.4035C8.89238 30.4496 8.87189 30.4929 8.87189 30.539L8.74639 30.4035C8.7054 30.4035 8.6849 30.4282 8.6849 30.4712H8.62089V30.539C8.66188 30.5829 8.66188 30.604 8.62089 30.604V30.8722H8.4954C8.53639 30.8722 8.55688 30.8475 8.55688 30.8045H8.4954C8.45188 30.7605 8.43139 30.7605 8.43139 30.8045V30.8722C8.43139 30.9155 8.41089 30.9372 8.3699 30.9372C8.32638 30.9372 8.30589 30.9479 8.30589 30.9696V31.0697C8.2649 31.0263 8.22138 31.0263 8.18039 31.0697H7.99061L7.92912 31.1377L7.86511 31.0697C7.86511 31.0263 7.84461 31.0049 7.80082 31.0049H7.67532L7.61384 30.9372L7.54674 30.9387C7.54674 30.8948 7.52624 30.8737 7.48525 30.8737C7.40074 30.8737 7.35695 30.849 7.35695 30.806L7.29546 30.7382H7.23117L7.16968 30.806H7.04419C6.95968 30.806 6.89539 30.7843 6.85412 30.7382L6.72862 30.6732C6.68511 30.7166 6.66461 30.7166 6.66461 30.6732L6.60313 30.6055H6.53912L6.47511 30.5404L6.34961 30.6055C6.2651 30.6949 6.22411 30.6732 6.22411 30.5404C6.22411 30.4944 6.20362 30.4944 6.16263 30.5404C6.11911 30.5404 6.09862 30.5188 6.09862 30.4727V30.34C6.09862 30.2966 6.08823 30.2613 6.06773 30.2399C6.04443 30.2176 6.01383 30.1636 5.97284 30.0742L5.90883 29.9384V29.8734C5.90883 29.83 5.92932 29.784 5.97284 29.7406C5.97284 29.6967 5.94954 29.6729 5.90883 29.6729V29.5402H5.97284C5.88833 29.4505 5.84734 29.073 5.84734 28.4053C5.84734 28.3189 5.85492 28.1968 5.87823 28.0391C5.89872 27.8847 5.92932 27.7623 5.97312 27.6729C5.97312 27.5836 5.98323 27.4832 6.004 27.3718C6.0245 27.2631 6.0346 27.1844 6.0346 27.1381V26.8723C6.07559 26.7826 6.0989 26.6495 6.0989 26.4707C6.13989 26.4268 6.16291 26.362 6.16291 26.2723C6.16291 26.1396 6.1834 26.0285 6.22439 25.9385C6.22439 25.7621 6.24489 25.627 6.28868 25.537V25.3389C6.28868 25.2949 6.29879 25.2272 6.31929 25.1378C6.33978 25.0481 6.35017 24.9834 6.35017 24.9368C6.35017 24.8928 6.37066 24.85 6.41418 24.804V24.4702L6.47567 24.4054C6.43468 24.4054 6.41418 24.4271 6.41418 24.4702H6.35017V24.5379L6.28868 24.4702L6.22439 24.4054L6.16291 24.4702L6.0332 24.4705C5.99221 24.5165 5.97171 24.5165 5.97171 24.4705L5.84622 24.5382H5.9077C5.86671 24.4948 5.82319 24.4948 5.78221 24.5382L5.71819 24.4705H5.40571L5.27741 24.5382L5.02585 24.4705H4.14232C4.10134 24.4705 4.01683 24.4951 3.89077 24.5382L3.82676 24.4705H3.63725L3.51176 24.5382H3.13527L3.07126 24.6032H2.94576H2.18916C2.14817 24.5599 2.10465 24.5382 2.06366 24.5382H1.74585L1.87134 24.4054C1.87134 24.3615 1.85085 24.3374 1.80986 24.3374H1.49457C1.45106 24.3835 1.43028 24.3835 1.43028 24.3374C1.38929 24.3374 1.3688 24.3157 1.3688 24.2697H1.43028V24.205H1.3688C1.32528 24.205 1.30479 24.1827 1.30479 24.137L1.17929 24.1367L1.11528 24.0039V23.9389C1.1588 23.8928 1.1588 23.8495 1.11528 23.8034H1.05379L0.989502 23.7431L1.05351 23.6754C1.0945 23.6315 1.0945 23.6104 1.05351 23.6104C1.05351 23.567 1.07401 23.521 1.115 23.4776H1.05351V23.4099L1.115 23.3422V23.2094C1.115 23.1661 1.13549 23.1227 1.17901 23.0767V22.9427L1.115 22.875C1.07401 22.8317 1.07401 22.8103 1.115 22.8103V22.7423C1.07401 22.6989 1.05351 22.6559 1.05351 22.6095L1.115 22.4085V22.2757C1.15851 22.2757 1.17901 22.254 1.17901 22.2107V22.1423C1.17901 22.099 1.13549 22.053 1.05351 22.0096C1.05351 21.9202 1.07401 21.8552 1.115 21.8085V21.7435L1.24302 21.6758C1.28401 21.6758 1.31517 21.6541 1.3351 21.6081C1.3584 21.5647 1.4095 21.5213 1.49457 21.4753L1.62007 21.4106H1.68436C1.72535 21.3666 1.76634 21.3425 1.80986 21.3425H1.87134L1.93535 21.2778H1.99684C2.04035 21.2318 2.37641 21.1204 3.0078 20.944C3.08977 20.944 3.2178 20.9333 3.38485 20.9086C3.55189 20.887 3.65942 20.8763 3.70041 20.8763C3.82591 20.8323 3.99295 20.8112 4.20605 20.8112C4.28803 20.8112 4.37281 20.7866 4.4576 20.7435H4.96295C5.00394 20.7435 5.06571 20.7328 5.15022 20.7111C5.23472 20.6889 5.29901 20.6758 5.34028 20.6758H5.71733L5.9074 20.6108H6.60198C6.64297 20.5674 6.68396 20.543 6.72748 20.543H7.23003C7.23003 20.4103 7.25052 20.2992 7.29432 20.2092L7.41982 19.6773C7.50432 19.2758 7.54531 19.053 7.54531 19.0097L7.60932 18.942L7.73482 18.1416L7.79631 17.8104L7.8606 17.7427V17.61C7.90159 17.5666 7.92461 17.4989 7.92461 17.4095L8.05011 16.8096V16.9423C8.0911 16.899 8.11159 16.899 8.11159 16.9423C8.15258 16.9423 8.1756 16.9206 8.1756 16.8773V16.5435L8.23989 16.4757L8.30138 16.4107V16.275L8.30278 16.2073C8.34377 16.1179 8.3668 16.0528 8.3668 16.0062L8.42828 15.9382V15.7401C8.46927 15.6507 8.49229 15.539 8.49229 15.4063C8.53328 15.3169 8.55378 15.2052 8.55378 15.0725C8.55378 15.0291 8.57427 14.9614 8.61807 14.8714C8.65906 14.7847 8.68208 14.717 8.68208 14.6733V14.6056C8.68208 14.5162 8.70257 14.4511 8.74356 14.4045V14.2718C8.74356 14.2284 8.75395 14.1824 8.77445 14.139C8.79494 14.0956 8.80786 14.0496 8.80786 14.0062V13.9385C8.80786 13.8952 8.82835 13.8735 8.86934 13.8735V13.6047C8.86934 13.518 8.88984 13.4503 8.93335 13.4066C8.97434 13.45 8.99484 13.4283 8.99484 13.3389C9.03835 13.3389 9.05885 13.3172 9.05885 13.2709V13.0731H9.12286C9.07934 13.0731 9.03835 13.0514 8.99484 13.0054H8.80758H8.6481C8.58662 13.0054 8.53271 13.0297 8.49144 13.0731H8.23989C8.23989 13.0297 8.19637 13.0054 8.11158 13.0054H7.9246L7.86059 13.0731C7.86059 13.0297 7.84009 13.0054 7.7963 13.0054H7.6708C7.58629 13.0054 7.5453 13.0297 7.5453 13.0731H6.97818C6.76818 13.0731 6.64212 13.0948 6.60113 13.1381H6.53712C6.45262 13.1381 6.41163 13.1625 6.41163 13.2058H6.28613L6.22184 13.1381C6.18085 13.1381 6.16035 13.1625 6.16035 13.2058V13.1381H6.09634L6.16035 13.2058H5.84619H5.90768H3.26018C3.21919 13.2058 3.17567 13.2275 3.13468 13.2709H2.75482C2.71383 13.2709 2.67031 13.2955 2.62932 13.3389H2.50383C2.41932 13.2955 2.35784 13.2955 2.31376 13.3389H2.25228L2.18798 13.2709C2.14699 13.2275 2.10348 13.2275 2.06249 13.2709L1.9982 13.2058L1.93671 13.2709H1.74664C1.83115 13.2275 1.87214 13.1842 1.87214 13.1381V13.0731C1.87214 13.0297 1.85164 13.0054 1.81065 13.0054H1.68516C1.68516 13.0514 1.66186 13.0731 1.62087 13.0731H1.43108L1.36959 13.0054H1.43108V12.8723L1.36959 12.9403L1.30558 12.8723C1.26459 12.829 1.22108 12.8046 1.18009 12.8046C1.22108 12.7612 1.20058 12.7396 1.11608 12.7396V12.6715V12.5388L1.05459 12.4737C1.01107 12.4737 0.99058 12.4494 0.99058 12.406H1.05459C1.09558 12.3627 1.09558 12.3166 1.05459 12.2733C1.05459 12.2299 1.07509 12.2056 1.11608 12.2056L1.05459 12.1405V12.0725H1.11608V11.9398C1.11608 11.8504 1.13657 11.807 1.18009 11.807V11.6742C1.13657 11.6282 1.11608 11.5848 1.11608 11.5388V11.4738C1.07509 11.4304 1.05459 11.3627 1.05459 11.2727L1.11608 11.0716V10.9389H1.18009V10.8061L1.05459 10.6734C1.05459 10.63 1.07509 10.584 1.11608 10.5406C1.15959 10.5406 1.15959 10.5189 1.11608 10.4726V10.4076C1.20058 10.4076 1.24409 10.3859 1.24409 10.3398H1.30558C1.34657 10.2965 1.41058 10.2505 1.49565 10.2071L1.62114 10.1394L1.68544 10.0743H1.81093H1.87242L1.93643 10.0063H1.99791C2.08242 9.87357 2.41848 9.7619 3.00887 9.67251C3.09085 9.67251 3.20652 9.66152 3.35504 9.63984C3.50103 9.61816 3.6167 9.58578 3.70121 9.53945H4.20684C4.20684 9.49609 4.28882 9.47441 4.4584 9.47441H4.83545C4.87897 9.47441 4.91996 9.45273 4.96376 9.4064H5.34081C5.3818 9.4064 5.44581 9.39571 5.53087 9.37403C5.61285 9.35235 5.67686 9.33869 5.71814 9.33869H6.41328C6.45427 9.29533 6.49526 9.27365 6.53878 9.27365H7.23139C7.3159 9.23028 7.38019 9.20563 7.42146 9.20563H7.48575C7.69351 9.20563 7.93439 9.19494 8.20893 9.17326C8.48347 9.15158 8.63989 9.14059 8.68341 9.14059H8.99645H9.28141C9.38641 9.14059 9.50208 9.11891 9.62758 9.07288H9.94314C9.94314 9.02952 9.95325 9.00784 9.97374 9.00784C9.99424 9.00784 10.0072 8.98616 10.0072 8.94012C10.0481 8.71797 10.0686 8.58462 10.0686 8.54126V8.40553C10.1096 8.36217 10.1329 8.29683 10.1329 8.20743V8.13972L10.1944 7.87361V7.67314C10.1944 7.62978 10.2149 7.60513 10.2584 7.60513V7.47237C10.2584 7.42901 10.2789 7.36367 10.3227 7.27428V7.13855C10.3637 7.05183 10.3637 6.98411 10.3227 6.94045C10.3227 6.89709 10.3303 6.87274 10.3533 6.87274C10.3738 6.87274 10.3842 6.85105 10.3842 6.80769V6.60722C10.3842 6.56386 10.4047 6.51783 10.4482 6.47447V6.34141C10.4047 6.29538 10.4047 6.2737 10.4482 6.2737C10.4482 6.23034 10.4687 6.20569 10.5097 6.20569L10.4482 6.14065L10.5097 6.07293H10.4482L10.5097 5.94018C10.5507 5.94018 10.5737 5.91849 10.5737 5.87513V5.7394V5.6013L10.6352 5.40024C10.5942 5.40024 10.5942 5.37856 10.6352 5.3352V5.20244L10.5737 5.13443V5.06939L10.6352 5.00167V5.06939L10.6995 5.13443L10.7635 4.93337V4.86833C10.8045 4.77893 10.825 4.71389 10.825 4.66726C10.825 4.6239 10.8455 4.60222 10.8893 4.60222V4.46649C10.9303 4.46649 10.9508 4.44481 10.9508 4.40145V4.33344L11.0148 4.2684C11.0148 4.22504 11.0249 4.16801 11.0457 4.1003C11.0661 4.03526 11.0763 3.97823 11.0763 3.93458C11.0763 3.84518 11.1198 3.75816 11.2046 3.66579V3.53304C11.2046 3.48968 11.2251 3.468 11.266 3.468L11.3303 3.26693L11.3918 3.13418L11.6459 2.53425V2.46654H11.7074V2.40149C11.6664 2.35546 11.6664 2.3121 11.7074 2.26576C11.7074 2.2224 11.7279 2.20072 11.7714 2.20072L11.8329 2.06797L11.8972 2.00025C11.9382 1.91085 11.9817 1.84582 12.0227 1.79919C12.0227 1.75583 12.0432 1.75583 12.087 1.79919V1.66643L12.1485 1.60139C12.233 1.51199 12.2739 1.44398 12.2739 1.40033L12.464 1.19927C12.464 1.11254 12.505 1.06651 12.5895 1.06651V0.998794L12.8436 0.732688L13.0309 0.531625L13.1564 0.398869H13.2206C13.3052 0.312148 13.3874 0.244435 13.4722 0.200771L13.5977 0.0650417C13.6412 0.0216807 13.7027 0 13.7878 0H13.9133L13.726 0.201062C13.767 0.155028 13.7875 0.155028 13.7875 0.201062L13.726 0.266104H13.662H13.7875L13.726 0.334116C13.726 0.377476 13.703 0.399157 13.662 0.399157L13.3464 0.732977C13.3464 0.779011 13.3669 0.800691 13.4107 0.800691C13.3262 0.800691 13.2852 0.822372 13.2852 0.865733C13.2417 0.865733 13.2212 0.890383 13.2212 0.933744C13.2212 0.977105 13.2852 0.933744 13.4113 0.800988C13.4523 0.800988 13.4933 0.765645 13.5368 0.700604C13.5778 0.63289 13.6213 0.600222 13.6623 0.600222C13.7033 0.600222 13.7673 0.55686 13.8523 0.467465C13.8933 0.424104 13.9343 0.399751 13.9778 0.399751C14.0188 0.399751 14.0623 0.37807 14.1033 0.334709H14.2931L14.3546 0.399751C14.3546 0.445785 14.3751 0.445785 14.4186 0.399751H14.5441V0.334709L14.6081 0.467466L14.6696 0.532507L14.7339 0.600222V0.532507H14.924L14.8597 0.600222L14.7957 0.667937L14.8597 0.732978C14.9007 0.689617 14.9442 0.689617 14.9852 0.732978H14.9237C14.9647 0.822375 15.0057 0.844051 15.0492 0.800692H15.175V0.865734C15.175 0.911768 15.2159 0.933746 15.3005 0.933746H15.5514C15.636 0.933746 15.6769 0.912065 15.6769 0.865734V0.998787L15.8053 0.933746C15.8053 0.977107 15.7822 1.02314 15.7412 1.0665V1.13451C15.7003 1.17788 15.6769 1.22391 15.6769 1.26727C15.636 1.26727 15.5924 1.28895 15.5515 1.33231C15.5515 1.37835 15.5413 1.40003 15.5206 1.40003C15.5001 1.40003 15.4897 1.42171 15.4897 1.46507L15.3642 1.53308C15.1514 1.75523 15.0486 1.88858 15.0486 1.93461H14.9846L14.8591 2.06737C14.8156 2.15676 14.7951 2.2218 14.7951 2.26547C14.7951 2.3115 14.785 2.33318 14.7642 2.33318C14.7437 2.33318 14.7336 2.35486 14.7336 2.40119V2.6673C14.7336 2.62394 14.7746 2.51287 14.8591 2.33348L15.0492 1.99966L15.1107 1.93462H15.175C15.175 1.88858 15.216 1.82294 15.3005 1.73356L15.4905 1.6008C15.4905 1.55744 15.511 1.53308 15.552 1.53308C15.6365 1.44369 15.7008 1.40033 15.7421 1.40033H15.8061L15.8676 1.33261C15.8676 1.28925 15.878 1.26757 15.901 1.26757C15.9215 1.26757 15.9319 1.24589 15.9319 1.19986L15.9948 1.19956V1.26728C15.9538 1.26728 15.9333 1.28896 15.9333 1.33232C15.9743 1.33232 15.9743 1.35667 15.9333 1.40003C15.8488 1.48943 15.7637 1.55744 15.6792 1.60109L15.6177 1.66613L15.4916 1.79889L15.4276 1.86661V1.93462L15.3661 1.99966C15.3661 2.04569 15.3428 2.06737 15.3019 2.06737L15.2378 2.20013L15.1123 2.46624C15.1123 2.51227 15.0714 2.57731 14.9868 2.6673C14.9868 2.7567 15.0073 2.80006 15.0509 2.80006C15.0073 2.84609 14.9868 2.88945 14.9868 2.93281V2.86777C14.9868 2.91113 14.9664 2.96518 14.9254 3.0335C14.8818 3.10151 14.8818 3.15556 14.9254 3.19922L14.8611 3.26693V3.4674L14.7971 3.53244C14.7561 3.53244 14.7356 3.55709 14.7356 3.60046V3.73321C14.6921 3.77925 14.6713 3.84489 14.6713 3.93428V3.99932L14.6098 4.13474C14.5663 4.1781 14.5458 4.24642 14.5458 4.33284C14.5458 4.42224 14.5253 4.49025 14.4843 4.5339V4.60191C14.4408 4.64527 14.4408 4.69131 14.4843 4.73467C14.4408 4.77803 14.4408 4.79971 14.4843 4.79971L14.4203 4.86743V5.26599V5.33371C14.4203 5.4231 14.3998 5.48814 14.3563 5.53477C14.4408 5.62417 14.4408 5.6892 14.3563 5.73287V5.80088C14.3153 5.84424 14.3153 5.89028 14.3563 5.93364V6.00165C14.3563 6.04501 14.3768 6.06669 14.4203 6.06669V6.46822L14.3563 6.33546C14.3998 6.28943 14.3998 6.25676 14.3563 6.23508C14.3153 6.2134 14.2948 6.17806 14.2948 6.1347V5.93364V6.00165C14.2948 6.13441 14.2718 6.19975 14.2308 6.19975C14.2718 6.24578 14.2948 6.28914 14.2948 6.33548C14.2513 6.33548 14.2308 6.40052 14.2308 6.53357L14.2948 6.66633C14.2513 6.71236 14.2308 6.75573 14.2308 6.80175V6.93451C14.2308 6.97787 14.2103 6.99955 14.1693 6.99955V7.46643C14.1258 7.46643 14.105 7.49078 14.105 7.53414C14.105 7.6669 14.0845 7.75689 14.0435 7.80025V7.933C14 8.15812 13.9795 8.33454 13.9795 8.46789C13.9795 8.51125 13.9562 8.53561 13.9152 8.53561V8.7337C13.8742 8.77974 13.8537 8.84478 13.8537 8.93477V9.06752H14.1693H14.0438C14.0438 9.11356 14.0643 9.13524 14.1053 9.13524H14.3568C14.4004 9.1786 14.4209 9.15692 14.4209 9.06752V9.13524H16.752C16.8365 9.13524 16.8775 9.11356 16.8775 9.06752C16.9204 9.06752 16.9412 9.09188 16.9412 9.13524C16.9827 9.13524 17.026 9.11356 17.0667 9.06752H17.5078C17.4668 9.11356 17.4875 9.13524 17.572 9.13524L17.6332 9.20028C17.6751 9.20028 17.718 9.1786 17.7587 9.13524H17.8868V9.20028L17.9488 9.13524H18.0125L18.0746 9.20028H18.1383L18.2026 9.13524H18.2638V9.06752L18.3281 9.13524H18.2638H19.0201C19.0611 9.1786 19.0844 9.1786 19.0844 9.13524H19.8405C19.8824 9.1786 19.9231 9.20028 19.966 9.20028C20.1746 9.15692 20.3024 9.13524 20.3436 9.13524H20.7838V9.06752C20.7838 9.02416 20.8043 9.00248 20.8481 9.00248L20.7838 8.93477C20.8248 8.93477 20.8481 8.91309 20.8481 8.86705H20.7838L20.8481 8.7343C20.8891 8.7343 20.9093 8.71262 20.9093 8.66925V8.5365V8.40077L20.9736 8.20267C20.9298 8.20267 20.9298 8.18099 20.9736 8.13496L20.9722 8.07051C20.9722 8.02448 20.9927 8.0025 21.0334 8.0025V7.93478H20.9722V7.80203V7.87004L21.0334 7.93508L21.0977 7.73698V7.66927C21.1387 7.57987 21.1615 7.51483 21.1615 7.46821C21.1615 7.42484 21.182 7.40316 21.2235 7.40316V7.27011C21.2645 7.27011 21.2872 7.24843 21.2872 7.2021V7.13438L21.3493 7.06934C21.3493 7.02598 21.3594 6.96896 21.3824 6.90065C21.4029 6.8356 21.413 6.78155 21.413 6.73492C21.413 6.64553 21.454 6.55851 21.5385 6.46882V6.33606C21.5385 6.29003 21.559 6.26835 21.6028 6.26835L21.664 6.06728L21.7277 5.93453L21.9793 5.3346V5.26689H22.0436V5.20184C21.9998 5.15848 21.9998 5.11245 22.0436 5.06909C22.0436 5.02305 22.0641 5.00137 22.1048 5.00137L22.1691 4.86862C22.2101 4.82526 22.2746 4.73586 22.3586 4.60251C22.3586 4.55648 22.3791 4.55648 22.4206 4.60251V4.46678L22.4844 4.40174C22.5669 4.31234 22.6099 4.24731 22.6099 4.20068L22.8002 3.99961C22.8002 3.91289 22.8412 3.86686 22.9257 3.86686V3.80181L23.1764 3.53303L23.3668 3.33493L23.4923 3.19951H23.5535C23.6383 3.11279 23.7233 3.04508 23.8075 3.00141L23.933 2.86866C24.0178 2.82262 24.079 2.80094 24.1234 2.80094H24.2489L24.0585 3.002C24.0995 2.95864 24.1228 2.95864 24.1228 3.002L24.0585 3.06705H24.0044H24.1299L24.0656 3.13476C24.1065 3.17812 24.0861 3.1998 24.0044 3.1998C24.0044 3.2892 23.9606 3.33523 23.8763 3.33523L23.6885 3.53332C23.6885 3.57936 23.709 3.60134 23.7506 3.60134C23.6658 3.60134 23.6251 3.62302 23.6251 3.66638C23.5832 3.66638 23.5608 3.69103 23.5608 3.73409C23.5608 3.78013 23.6251 3.73409 23.7511 3.60134C23.7921 3.60134 23.8353 3.56867 23.8766 3.50095C23.9176 3.43294 23.9608 3.40057 24.0046 3.40057C24.0456 3.40057 24.1068 3.35721 24.1919 3.26781L24.3174 3.2001C24.3603 3.2001 24.4022 3.17842 24.4454 3.13506H24.6321L24.6964 3.2001C24.6964 3.24613 24.7169 3.24613 24.7576 3.2001H24.8856V3.13506L24.9477 3.26781L25.0114 3.33553L25.0735 3.40057L25.1372 3.33553H25.2627L25.1989 3.40057L25.1369 3.46828C25.1369 3.51165 25.1779 3.53333 25.2624 3.53333C25.3034 3.62272 25.3472 3.645 25.3879 3.60134H25.5134V3.66638C25.5134 3.71241 25.5544 3.73409 25.6389 3.73409H25.8924C25.9741 3.73409 26.0179 3.71241 26.0179 3.66638V3.80211C26.0589 3.80211 26.1027 3.78043 26.1434 3.7341V3.86685C26.0586 3.95625 26.0179 4.02426 26.0179 4.06792C25.9741 4.06792 25.9331 4.0896 25.8924 4.13563C25.8924 4.17899 25.8823 4.20067 25.8618 4.20067C25.8379 4.20067 25.8281 4.22503 25.8281 4.26839L25.7669 4.33343H25.7026C25.4929 4.55618 25.3873 4.6916 25.3873 4.73496H25.3261C25.3261 4.82436 25.2618 4.93306 25.1358 5.06878C25.1358 5.11214 25.1257 5.13382 25.1052 5.13382C25.0822 5.13382 25.0721 5.15847 25.0721 5.20183V5.46794C25.0721 5.42458 25.113 5.31351 25.1975 5.13412L25.3871 4.8003L25.4514 4.73526H25.5126C25.5126 4.6919 25.5535 4.62419 25.6381 4.5342L25.8276 4.40144V4.33343H25.8918C25.9735 4.24671 26.0378 4.20067 26.0814 4.20067H26.1434L26.2071 4.13563C26.2071 4.0896 26.2172 4.06792 26.2377 4.06792C26.2591 4.06792 26.2692 4.04623 26.2692 4.0002H26.3329V4.06792C26.29 4.06792 26.2692 4.0896 26.2692 4.13563C26.3102 4.13563 26.3102 4.15731 26.2692 4.20067L26.0814 4.40173L25.9533 4.46678L25.8278 4.60251L25.7666 4.66755V4.73526L25.7023 4.8003C25.7023 4.84634 25.6818 4.86802 25.6386 4.86802L25.5774 5.00077L25.4519 5.26688V5.3346C25.4081 5.37796 25.3876 5.42399 25.3876 5.46735C25.3028 5.55675 25.3028 5.60011 25.3876 5.60011C25.3466 5.64614 25.3264 5.68951 25.3264 5.73287V5.66782C25.3264 5.71119 25.3026 5.76821 25.2621 5.83355C25.2211 5.90156 25.2211 5.95828 25.2621 6.00224L25.1984 6.06729V6.26805L25.1363 6.33577C25.0934 6.33577 25.0726 6.35745 25.0726 6.40081V6.53386C25.0308 6.5799 25.0106 6.64493 25.0106 6.73492V6.80264L24.9468 6.9354V7.00044L24.8848 7.13319C24.8848 7.22259 24.8618 7.2906 24.8211 7.33426V7.40197C24.7773 7.44533 24.7773 7.49137 24.8211 7.53473C24.7773 7.57809 24.7773 7.59977 24.8211 7.59977V7.66778H24.7568V7.7355C24.8006 7.7355 24.8006 7.75718 24.7568 7.80054V8.06902V8.33512C24.7568 8.42452 24.7363 8.48955 24.6956 8.53618V8.60123C24.6518 8.64726 24.6518 8.69062 24.6956 8.73398V8.86674H24.8211C24.8621 8.82338 24.9053 8.8017 24.9466 8.8017V8.86674H25.0103V8.8017H25.4516V8.73398H25.5771V8.8017H25.5128V8.86674H25.7023H26.144L26.2077 8.93445H26.6493C26.8161 8.93445 26.9214 8.95613 26.9646 9.00217H27.4671L28.0983 9.13492H28.2235V9.19997C28.2653 9.15661 28.3083 9.13492 28.349 9.13492L28.6031 9.26768C28.7286 9.26768 28.8117 9.28936 28.8546 9.33272C28.8956 9.33272 28.9167 9.35708 28.9167 9.40044H29.0447L29.1059 9.46845C29.1469 9.51181 29.2115 9.53349 29.2962 9.53349L29.5469 9.66625C29.6317 9.66625 29.6725 9.6906 29.6725 9.73396H29.7367C29.8622 9.86672 29.9883 9.93502 30.1143 9.93502L30.3039 10.0678V10.1328C30.3448 10.1328 30.3886 10.1572 30.4294 10.2005C30.4703 10.2005 30.4936 10.2222 30.4936 10.2685C30.6191 10.3579 30.7444 10.4666 30.8704 10.5994L30.9959 10.7351V10.8679C30.9117 10.8245 30.8499 10.7568 30.8087 10.6668V10.7996L30.7444 10.7345V10.7996H30.6832V10.7345H30.6194C30.6194 10.7779 30.5981 10.7779 30.5551 10.7345L30.4939 10.6665L30.4296 10.5988C30.3448 10.5555 30.2836 10.5121 30.2424 10.4661H30.1781C30.1351 10.4661 30.1143 10.4907 30.1143 10.5341C30.1143 10.4907 30.0939 10.4447 30.0523 10.4013C30.0093 10.358 29.9886 10.358 29.9886 10.4013C29.9476 10.4447 29.9681 10.4664 30.0523 10.4664L30.1143 10.5344C30.1573 10.5777 30.2191 10.6238 30.3039 10.6671L30.3681 10.7351C30.4498 10.8245 30.5141 10.8679 30.5554 10.8679C30.5554 10.9113 30.5984 10.9796 30.6834 11.066V11.134L30.7446 11.2017V11.4672C30.7865 11.5106 30.8089 11.5566 30.8089 11.6L30.7446 11.6677L30.6834 11.7327V11.8655L30.7446 11.9983H30.6834L30.6197 11.9332C30.5759 11.9766 30.5759 12.0226 30.6197 12.066H30.5554V12.1987L30.6197 12.3315H30.5554C30.5554 12.3775 30.5349 12.3992 30.4942 12.3992V12.532C30.5352 12.578 30.5352 12.6214 30.4942 12.6647L30.5554 12.7975C30.5984 12.7975 30.6197 12.8111 30.6197 12.8328C30.6197 12.8545 30.6402 12.8652 30.6834 12.8652H30.5554C30.5554 12.9546 30.5759 12.9979 30.6197 12.9979H30.4299C30.3889 12.9546 30.3451 12.9329 30.3044 12.9329C30.2637 12.9329 30.2196 12.9082 30.1789 12.8649C30.136 12.8649 30.1152 12.8542 30.1152 12.8325C30.1152 12.8108 30.0947 12.7972 30.0531 12.7972C30.0102 12.7538 29.9689 12.7321 29.9277 12.7321C29.7586 12.5554 29.6331 12.466 29.5481 12.466H29.4869L29.3589 12.3983C29.2741 12.3549 29.2129 12.3306 29.1716 12.3306H28.7297C28.7715 12.3306 28.8965 12.3549 29.1073 12.3983C29.3179 12.4877 29.4436 12.5311 29.4869 12.5311L29.5481 12.5988C29.5899 12.5988 29.6536 12.6421 29.7384 12.7315L29.9279 12.8643C29.9698 12.8643 30.0105 12.886 30.0534 12.9323L30.3044 13.1978C30.3454 13.1978 30.3892 13.2195 30.4299 13.2629H30.3687C30.3249 13.2629 30.3044 13.2412 30.3044 13.1978V13.2629C30.3044 13.3089 30.2839 13.3089 30.2432 13.2629L30.1789 13.1978C30.0947 13.1545 30.0304 13.1084 29.9894 13.0651C29.9484 13.0651 29.9046 13.0434 29.8639 12.9973L29.7384 12.9323L29.6741 12.8643L29.6149 12.8682C29.5719 12.8682 29.5301 12.8465 29.4894 12.8004H29.2999L28.984 12.6677H28.8585C28.7743 12.6677 28.7331 12.6923 28.7331 12.7357C28.6488 12.6463 28.6076 12.624 28.6076 12.6677H28.1016C28.0578 12.6243 28.0168 12.6026 27.9761 12.6026H26.7139V12.6677C26.7139 12.6243 26.6934 12.6026 26.6527 12.6026H26.5884L26.4629 12.6677H26.3374H26.2737C26.1889 12.7137 26.1069 12.7357 26.0221 12.7357H25.8318V12.8007H25.7706V12.7357L25.6426 12.8007H25.5814V12.8685H25.5171L25.2018 12.9365C25.2447 12.8904 25.286 12.8685 25.3298 12.8685L25.4553 12.8007C25.4963 12.7574 25.5269 12.7357 25.5494 12.7357H25.642H25.3905L25.3293 12.8007H25.265C25.265 12.7574 25.2012 12.7574 25.0755 12.8007C25.0755 12.8468 25.0336 12.8685 24.95 12.8685H24.8879C24.845 12.9118 24.8037 12.9365 24.7599 12.9365C24.7599 12.8904 24.7394 12.8685 24.6987 12.8685C24.6987 12.9118 24.6748 12.9118 24.6344 12.8685C24.5089 12.8685 24.4471 12.8901 24.4471 12.9365H24.1319L24.0044 12.9368V13.1346L23.9401 13.2023C23.8971 13.2456 23.8764 13.3134 23.8764 13.4033V13.7339C23.8764 13.7799 23.855 13.8016 23.8143 13.8016V13.9344L23.7506 14.0059V14.2721L23.6885 14.4048C23.6456 14.4508 23.6248 14.5159 23.6248 14.6059V14.6736C23.6248 14.7169 23.6043 14.7386 23.5605 14.7386L23.6248 14.8066C23.583 14.896 23.5605 14.9611 23.5605 15.0047V15.0724L23.4993 15.1402V15.2052C23.4555 15.2052 23.4555 15.2296 23.4993 15.2729C23.4993 15.3623 23.4755 15.4496 23.435 15.539C23.435 15.5851 23.4555 15.607 23.4993 15.607V15.6721C23.4993 15.7181 23.4755 15.7398 23.435 15.7398L23.3738 15.8048V15.9376C23.3738 15.9836 23.3508 16.0056 23.3095 16.0056V16.2714L23.2483 16.3391V16.4719V16.6729L23.184 16.8057C23.143 16.8057 23.1203 16.8491 23.1203 16.9385C23.0793 16.9385 23.0583 16.9845 23.0583 17.0712V17.204C23.0583 17.25 23.0352 17.2717 22.9945 17.2717V17.405C22.9535 17.4944 22.9333 17.6272 22.9333 17.806L22.869 17.871C22.828 17.9171 22.8078 17.9711 22.8078 18.0397V18.2054C22.8078 18.2515 22.784 18.2948 22.7435 18.3382V18.5393C22.7435 18.5826 22.723 18.6287 22.6792 18.672C22.6792 18.7181 22.6587 18.7617 22.618 18.8048V19.0058C22.659 19.0498 22.659 19.0735 22.618 19.0735L22.5543 19.1386V19.4041L22.4923 19.4718C22.4923 19.5179 22.4692 19.5612 22.4285 19.6046C22.5128 19.694 22.5128 19.7373 22.4285 19.7373V19.8701C22.4285 19.9598 22.408 20.0275 22.3665 20.0711C22.3665 20.1172 22.3435 20.2039 22.3028 20.3373H22.3665C22.449 20.3373 22.5125 20.3156 22.5543 20.2722L22.618 20.3373H22.8696L22.9951 20.2722H23.3101C23.3101 20.2289 23.3519 20.2289 23.4356 20.2722C23.4356 20.2289 23.4766 20.2045 23.5611 20.2045H23.7514H23.8769L24.0044 20.2054H24.3166C24.3595 20.162 24.3803 20.162 24.3803 20.2054C24.4222 20.162 24.4446 20.162 24.4446 20.2054H24.5058V20.1406H25.1993L25.263 20.0726C25.263 20.1187 25.304 20.1406 25.3885 20.1406H25.4528V20.0726C25.4938 20.0293 25.5345 20.0293 25.5783 20.0726L25.514 20.1406H25.9551C25.9989 20.1406 26.0193 20.1623 26.0193 20.2054H26.3964C26.4394 20.2054 26.4806 20.2191 26.5244 20.2407C26.5654 20.2624 26.6061 20.2731 26.6499 20.2731H27.1519L27.3422 20.3381H27.4677L28.0989 20.4736H28.2241C28.2659 20.4302 28.3089 20.4302 28.3496 20.4736H28.4751L28.6031 20.5386C28.6856 20.5386 28.7704 20.5847 28.8547 20.6714H28.9167C28.9597 20.6714 29.0009 20.696 29.0447 20.7391H29.1059L29.1702 20.8068C29.2112 20.8508 29.2519 20.8718 29.2957 20.8718H29.4852L29.5464 20.9396L29.6719 21.0723H29.7362C29.8617 21.0723 29.9878 21.1374 30.1138 21.2734C30.2418 21.3167 30.3033 21.3628 30.3033 21.4061C30.3443 21.4061 30.3676 21.4168 30.3676 21.4385C30.3676 21.4602 30.3881 21.4709 30.4288 21.4709L30.4931 21.5389C30.5748 21.6283 30.6599 21.7177 30.7438 21.8047L30.8693 21.8724C30.8693 21.9164 30.8898 21.9375 30.9336 21.9375L30.9999 22.0743ZM2.94448 9.73686V9.66914H2.883L2.94448 9.73686ZM4.39401 13.0716C4.39401 13.1149 4.41451 13.1149 4.45802 13.0716H4.39401ZM5.1509 9.53553H5.21491C5.21463 9.49217 5.19189 9.49217 5.1509 9.53553ZM8.05218 17.072C8.05218 17.0287 8.02888 17.0287 7.98789 17.072H8.05218ZM8.55501 17.2048V17.3402L8.6193 17.4059V17.5386C8.6193 17.4953 8.63979 17.4519 8.68331 17.4059C8.7243 17.3619 8.74479 17.2725 8.74479 17.1398L8.80909 17.072V16.9393V16.8065C8.85008 16.7632 8.87057 16.6949 8.87057 16.6055V16.4727H8.93458L8.99607 16.2716L8.99663 16.2066C9.08114 15.8511 9.14543 15.6067 9.1867 15.471C9.1867 15.4276 9.20719 15.4059 9.25071 15.4059C9.20719 15.4493 9.20719 15.471 9.25071 15.471V15.3382C9.25071 15.2948 9.2712 15.2948 9.31219 15.3382C9.35318 15.2948 9.37648 15.2948 9.37648 15.3382C9.37648 15.2948 9.39698 15.2515 9.43797 15.2054C9.48148 15.1621 9.50198 15.1187 9.50198 15.0727L9.37648 15.2054V15.1404C9.41747 15.051 9.46099 15.0293 9.50198 15.0727C9.54297 15.0727 9.56627 15.051 9.56627 15.005V14.8722L9.50198 14.8072V14.9399V14.8722C9.41747 14.8722 9.37648 14.8505 9.37648 14.8072H9.31219V14.6744L9.43769 14.4056V14.0718L9.5017 14.0068V14.0718H9.56599V14.4053L9.5017 14.473C9.46071 14.5164 9.46071 14.5381 9.5017 14.5381V14.7389H9.56599V14.6738H9.62747V14.6061H9.69149C9.69149 14.5167 9.73248 14.2966 9.81698 13.9385L9.94248 13.5396V13.3385C9.98347 13.2952 9.98347 13.2705 9.94248 13.2705L10.0065 13.1378V13.0727H9.50085C9.45986 13.1161 9.45986 13.1621 9.50085 13.2055C9.50085 13.2488 9.49075 13.2705 9.47025 13.2705C9.44695 13.2705 9.43684 13.2952 9.43684 13.3385V13.5393L9.31135 13.8054V14.0065H9.24986V14.2075C9.24986 14.2969 9.22684 14.3839 9.18585 14.4736V14.6064C9.14486 14.6958 9.12436 14.7638 9.12436 14.8075L9.06035 14.9402V15.073C9.06035 15.1624 9.03986 15.2304 8.99634 15.274V15.4071L8.93486 15.4721V15.6079V15.7406C8.89134 15.784 8.87085 15.83 8.87085 15.8734V16.0061L8.80936 16.0738V16.2066C8.80936 16.296 8.78606 16.361 8.74507 16.4077V16.5404C8.74507 16.5838 8.72458 16.6055 8.68359 16.6055V16.8742C8.64007 16.9176 8.61957 17.007 8.61957 17.1404L8.55501 17.2048ZM8.93458 15.0718C8.93458 15.0284 8.91156 15.0041 8.87057 15.0041C8.87057 15.0501 8.89106 15.0718 8.93458 15.0718ZM9.566 14.806V14.7379C9.5222 14.7379 9.5222 14.7626 9.566 14.806ZM9.566 14.8707L9.62748 14.8057V14.7377L9.566 14.8707ZM10.1943 20.0087C10.2378 19.9627 10.2583 19.987 10.2583 20.0734C10.2583 20.0301 10.2788 20.0087 10.3226 20.0087V19.941C10.3636 19.897 10.3636 19.873 10.3226 19.873V19.7405L10.2583 19.8082L10.1943 20.0087ZM10.2586 20.407H10.3841V20.3392C10.3841 20.2525 10.4046 20.1848 10.4481 20.1411V19.9401L10.5096 19.8073L10.6351 19.5412C10.6351 19.4952 10.6452 19.4411 10.6685 19.3725C10.689 19.3078 10.6994 19.2508 10.6994 19.2068C10.7404 19.1634 10.7634 19.0957 10.7634 19.0057C10.8454 19.0057 10.8889 18.8513 10.8889 18.5392C10.9299 18.5392 10.9504 18.5169 10.9504 18.4712V18.4064L10.9509 18.3396C10.9919 18.2529 11.015 18.1852 11.015 18.1385C11.015 18.0946 11.0355 18.0518 11.0764 18.0058C11.0764 17.919 11.0997 17.873 11.1407 17.873V17.6719L11.3923 16.8739V16.7382C11.3923 16.6515 11.4128 16.6054 11.4563 16.6054V16.4727C11.4973 16.4293 11.5178 16.3616 11.5178 16.2716C11.5613 16.1849 11.5818 16.0952 11.5818 16.0055L11.6458 15.8728V15.805C11.6458 15.7617 11.6663 15.6963 11.7073 15.6069V15.4059L11.7713 15.2731V15.1404L11.8328 15.0049V14.8722L11.8971 14.7394C11.8971 14.6067 11.9176 14.5173 11.9611 14.4733V14.2723C12.0021 14.2289 12.0226 14.1612 12.0226 14.0712L12.0869 13.8731L12.1484 13.672C12.1484 13.5826 12.1688 13.5393 12.2124 13.5393V13.3388C12.2534 13.2955 12.2738 13.2494 12.2738 13.2061V13.1383H11.7073V13.4719L11.6458 13.5399C11.6458 13.5832 11.6228 13.6293 11.5818 13.6726V13.8731L11.5178 14.3403L11.4563 14.6064V14.8074L11.3923 15.0055C11.3513 15.0949 11.3308 15.1629 11.3308 15.2066C11.2873 15.3854 11.2665 15.4971 11.2665 15.5404C11.182 15.6298 11.141 15.7848 11.141 16.0076C11.0565 16.0076 11.0565 16.0536 11.141 16.1403L11.0767 16.2084C11.0767 16.2517 11.1 16.2978 11.141 16.3411C11.1 16.3845 11.1 16.4305 11.141 16.4739L11.0767 16.5416V16.6066C11.0767 16.6527 11.0562 16.6743 11.0152 16.6743C10.9717 16.6743 10.9512 16.696 10.9512 16.7394C10.9512 16.7854 10.9717 16.8074 11.0152 16.8074L10.9512 17.0085V16.9404H10.8897L10.8255 17.0732V17.1409C10.7845 17.2303 10.764 17.2954 10.764 17.342C10.805 17.4314 10.8255 17.497 10.8255 17.5401L10.764 17.475H10.7V17.6734C10.7845 17.7628 10.7845 17.8308 10.7 17.8745H10.6357L10.5742 17.9422V18.0072C10.5742 18.0533 10.5947 18.075 10.6357 18.075H10.7L10.6357 18.14V18.6099L10.7 18.4741C10.7 18.4308 10.7205 18.4094 10.764 18.4094V18.2766H10.8255C10.8255 18.32 10.805 18.3767 10.764 18.4423C10.7204 18.5101 10.7 18.5644 10.7 18.611C10.7 18.7004 10.6795 18.7655 10.6357 18.8091C10.6792 18.8552 10.6792 18.8769 10.6357 18.8769C10.6357 18.9665 10.6152 19.0313 10.5742 19.0779C10.6152 19.0779 10.6152 19.1002 10.5742 19.143L10.5102 19.2107V19.4091C10.5102 19.5445 10.4897 19.6995 10.4487 19.8756C10.4052 19.9217 10.3847 20.0114 10.3847 20.1447H10.3232V20.3428L10.2586 20.407ZM10.2586 17.8074V17.8724H10.3229V17.7397L10.2586 17.8074ZM10.3844 8.80312V8.93587L10.3229 9.00359V9.06863H10.89C10.89 8.98191 10.9105 8.9142 10.9515 8.86757V8.33595C10.9925 8.33595 11.0155 8.31427 11.0155 8.26823V8.13548L11.077 8.07043L11.1413 7.6689L11.2053 7.33508V7.06898C11.2463 7.02562 11.2668 6.97958 11.2668 6.93622C11.3078 6.80346 11.3311 6.71407 11.3311 6.66744V6.53468L11.3926 6.20086V6.00276L11.4566 5.5356L11.5181 5.33453C11.5181 5.29117 11.5411 5.26682 11.5821 5.26682V5.20178C11.6231 5.20178 11.6461 5.15841 11.6461 5.06902V5.0013L11.6464 4.80024C11.6464 4.84628 11.6233 4.86796 11.5824 4.86796V4.933L11.5183 5.13406C11.5183 5.18009 11.4978 5.20207 11.4569 5.20207V5.33483C11.4133 5.33483 11.3724 5.35651 11.3314 5.39987V5.46758V5.06872C11.3314 5.15812 11.3081 5.22316 11.2671 5.26682L11.2053 5.26712C11.2053 5.22376 11.2258 5.20207 11.2668 5.20207V4.86796L11.2053 5.00101C11.2053 5.09041 11.1618 5.22317 11.077 5.39987C11.036 5.48927 11.0155 5.57867 11.0155 5.66866C10.972 5.66866 10.9515 5.69034 10.9515 5.7337V5.80171H10.89V5.93447L10.8257 6.00248V6.13524V6.33571C10.8257 6.37907 10.8156 6.4251 10.7951 6.46846C10.7718 6.51182 10.7642 6.55786 10.7642 6.60122C10.7207 6.69062 10.7207 6.73398 10.7642 6.73398C10.7207 6.78001 10.7002 6.86673 10.7002 7.00008V7.13284L10.6359 7.26857L10.5745 7.46667V7.73545C10.5745 7.82485 10.5511 7.97987 10.5104 8.20203L10.449 8.53584V8.73394C10.4484 8.78146 10.4254 8.80312 10.3844 8.80312ZM10.5742 18.3396C10.5742 18.2957 10.5947 18.2746 10.6357 18.2746V18.2069H10.5102L10.5742 18.2746V18.3396ZM10.5742 23.4764L10.6357 23.5414V23.4764H10.5742ZM17.2575 23.7425H17.447C17.4885 23.6985 17.5082 23.6308 17.5082 23.5414C17.5082 23.4547 17.5295 23.387 17.5725 23.3404V23.2076C17.4034 23.2536 17.2979 23.2753 17.2572 23.2753H16.4357C16.2689 23.3193 16.1639 23.3193 16.1229 23.2753H15.5535L15.4918 23.2756C15.4073 23.2756 15.3663 23.2973 15.3663 23.3407H15.0513V23.2756C14.9668 23.2756 14.9258 23.2973 14.9258 23.3407H14.6714L14.7969 23.2756H14.6097C14.4842 23.2323 14.3991 23.2323 14.3556 23.2756C14.2711 23.3196 14.209 23.3407 14.1683 23.3407L14.2298 23.2756C14.2298 23.2323 14.2093 23.2079 14.1683 23.2079C14.0838 23.2079 14.0428 23.2326 14.0428 23.2756C13.9993 23.3196 13.935 23.3407 13.8527 23.3407V23.2079H13.7272C13.6837 23.2079 13.6427 23.2326 13.5992 23.2756H13.6632V23.3407L13.5992 23.2756C13.5582 23.3196 13.4737 23.3407 13.3477 23.3407L13.2862 23.4084L13.3477 23.4761H13.5377H12.9701C12.9701 23.52 12.947 23.52 12.906 23.4761H12.716C12.716 23.52 12.6955 23.52 12.6545 23.4761H12.716H10.6356C10.6356 23.52 10.669 23.5411 10.7305 23.5411H11.5183C11.6028 23.5411 11.6671 23.5658 11.7084 23.6088L11.8339 23.5411H12.024L11.9625 23.6088H12.024L12.3395 23.6739H13.9142C13.9552 23.6739 13.9785 23.6982 13.9785 23.7416C14.063 23.6976 14.1245 23.6739 14.1686 23.6739L14.9252 23.7416H17.2574L17.2575 23.7425ZM10.7639 15.8041H10.8254V15.7391H10.7639V15.8041ZM10.8254 15.6063V15.7391L10.8897 15.4703H10.8254V15.6063ZM10.9515 23.3409C10.9105 23.2969 10.89 23.2969 10.89 23.3409H10.9515ZM11.0155 14.9388V14.806C11.0155 14.8494 10.9924 14.871 10.9515 14.871L11.0155 14.9388ZM11.141 14.4716V14.3388C11.1 14.3388 11.1 14.3822 11.141 14.4716ZM13.5989 20.339H14.1686H14.0431C14.0841 20.385 14.0841 20.4067 14.0431 20.4067C14.0431 20.4527 14.0636 20.4744 14.1046 20.4744H14.2946C14.2946 20.431 14.3151 20.4067 14.3561 20.4067H14.4201C14.4611 20.4067 14.4841 20.4174 14.4841 20.4394C14.4841 20.4637 14.5046 20.4744 14.5456 20.4744H15.5535C15.638 20.431 15.7635 20.4067 15.9331 20.4067H17.3181C17.3616 20.4067 17.4236 20.385 17.5076 20.339L17.5719 20.4744H17.7586V20.4067H17.8229L17.8866 20.4744H18.2024V20.4067C18.2434 20.3633 18.2636 20.2956 18.2636 20.2056L18.3891 19.606V19.7387C18.4301 19.6948 18.4534 19.6948 18.4534 19.7387C18.4944 19.7387 18.5146 19.7165 18.5146 19.6737C18.5146 19.5843 18.5351 19.5193 18.5789 19.4726H18.5146V19.4049C18.5584 19.4049 18.5584 19.3833 18.5146 19.3399L18.5789 19.2722L18.6426 19.2071V19.0744C18.6836 19.0283 18.7047 18.9389 18.7047 18.8056C18.7457 18.7622 18.7684 18.6728 18.7684 18.5398C18.8094 18.4501 18.8296 18.3387 18.8296 18.206C18.8296 18.162 18.8406 18.1056 18.8633 18.0402C18.8838 17.9722 18.9144 17.9182 18.9554 17.8715C18.9554 17.6951 18.9793 17.5621 19.0197 17.4721V17.4047C19.0197 17.3174 19.0402 17.2496 19.084 17.2036V17.0709C19.084 17.0275 19.0913 16.9841 19.1146 16.9381C19.1351 16.8947 19.1452 16.8487 19.1452 16.8053V16.7373L19.2089 16.6723V16.4062C19.2089 16.3601 19.2303 16.2951 19.271 16.2051C19.312 16.2485 19.3347 16.2268 19.3347 16.1371C19.3765 16.1371 19.3967 16.1154 19.3967 16.0721V15.8713L19.4605 15.8036V15.6708C19.5023 15.6708 19.5248 15.6491 19.5248 15.6058V15.405L19.586 15.2723V15.1395L19.6503 15.0718V14.8063C19.6912 14.7629 19.7115 14.7169 19.7115 14.6735C19.7525 14.6275 19.7525 14.6058 19.7115 14.6058C19.7525 14.5624 19.7758 14.4947 19.7758 14.4047V14.272C19.86 14.1826 19.9013 14.0498 19.9013 13.8731V13.8054C19.9422 13.762 19.965 13.716 19.965 13.6727C20.006 13.5833 20.027 13.5286 20.027 13.5046V13.3388V13.2708L20.0265 13.2046L20.0902 13.1369H19.9644C19.9215 13.1829 19.9007 13.1829 19.9007 13.1369H19.6533L19.5891 13.2046H19.4636V13.1369H19.3998C19.358 13.1829 19.2743 13.2046 19.1483 13.2046C19.1073 13.2046 19.0871 13.2263 19.0871 13.2696H18.9585V13.2046C18.9585 13.1152 18.9175 13.1152 18.833 13.2046H18.2055L18.1412 13.2696H18.0758L17.888 13.2046H17.4472C17.4042 13.1612 17.3627 13.1612 17.3192 13.2046H15.7442C15.7442 13.248 15.7237 13.248 15.6799 13.2046H15.302C15.261 13.2046 15.197 13.1829 15.1119 13.1369V13.2046H14.9249C14.8814 13.248 14.8171 13.248 14.7349 13.2046H14.042C14.042 13.248 14.0187 13.2696 13.978 13.2696L13.8525 13.2046H13.4734C13.3889 13.1152 13.3479 13.1152 13.3479 13.2046H13.1573C13.1163 13.1612 13.0958 13.1612 13.0958 13.2046H12.9703V13.4707L12.9063 13.5387V13.6715V13.8725L12.8448 14.0053C12.8013 14.0053 12.7805 14.0486 12.7805 14.138C12.737 14.138 12.7165 14.1814 12.7165 14.2708V14.4036C12.7165 14.4496 12.696 14.4713 12.6551 14.4713V14.604C12.6551 14.6474 12.6449 14.7151 12.6242 14.8051C12.6011 14.8945 12.5703 14.9595 12.5293 15.0032V15.0709C12.4858 15.1169 12.4653 15.1713 12.4653 15.2366V15.4053C12.4653 15.4493 12.4448 15.4947 12.4038 15.5381V15.7391C12.4038 15.7825 12.3909 15.8042 12.3704 15.8042C12.3499 15.8042 12.3395 15.8285 12.3395 15.8719C12.3395 15.9153 12.319 15.9613 12.2755 16.0047L12.2746 16.2063C12.3182 16.2497 12.3182 16.2714 12.2746 16.2714L12.2132 16.3391V16.6046L12.1491 16.6723C12.1491 16.7157 12.1286 16.7617 12.0877 16.805V17.0706C12.0877 17.16 12.0644 17.228 12.0234 17.2716C11.9824 17.2716 11.9619 17.2933 11.9619 17.3393V17.5374L11.8979 17.7385V17.8713L11.8336 17.939V18.004L11.8979 18.0717L11.7724 18.1368V18.4056H11.7084V18.5383L11.6469 18.6711V18.8718L11.5829 18.9369L11.5189 19.2057C11.5189 19.2496 11.4984 19.2954 11.4574 19.3384V19.4712V19.5389L11.3934 19.6039C11.4343 19.65 11.4343 19.715 11.3934 19.805L11.3319 19.8697V20.0055C11.2884 20.0949 11.2575 20.1712 11.237 20.2389C11.2137 20.3039 11.2061 20.361 11.2061 20.4046H11.3934C11.7729 20.3613 11.9835 20.3369 12.0245 20.3369H13.412L13.599 20.3375L13.5989 20.339ZM11.4565 13.2046V13.1369H11.3925V13.2696C11.3925 13.3157 11.372 13.359 11.331 13.4054V13.4704L11.2667 13.6032C11.2667 13.6925 11.2872 13.7359 11.331 13.7359V13.8713C11.372 13.8713 11.3925 13.8253 11.3925 13.7359C11.4335 13.7359 11.4565 13.7142 11.4565 13.6709C11.4565 13.6275 11.4335 13.6032 11.3925 13.6032C11.3925 13.4701 11.413 13.3373 11.4565 13.2046ZM11.3925 4.73403V4.86679L11.4565 4.79907V4.66631L11.3925 4.73403ZM11.3925 4.93242V5.00043V4.86768V4.93242ZM11.4565 4.60098V4.66602C11.4975 4.66602 11.518 4.64434 11.518 4.60098C11.5615 4.51158 11.5615 4.44357 11.518 4.39991C11.518 4.44387 11.4975 4.51159 11.4565 4.60098ZM11.5823 4.3325H11.5183C11.5618 4.37853 11.5823 4.37853 11.5823 4.3325ZM11.6463 12.2032H11.5823V12.2709H11.6463V12.2032ZM11.7721 2.3329C11.7285 2.3329 11.708 2.35458 11.708 2.40091C11.708 2.35487 11.7285 2.3329 11.7721 2.3329ZM11.7721 23.3409L11.708 23.4086H11.9618L12.0233 23.3409H11.9618L11.7718 23.2758L11.7721 23.3409ZM11.8335 2.06679V2.13183C11.8745 2.08847 11.8745 2.06679 11.8335 2.06679ZM11.9618 12.0701H12.0233L11.9618 12.0024V12.0701ZM11.9618 12.2712C11.9618 12.3145 11.9823 12.3362 12.0233 12.3362H12.4644C12.4644 12.2929 12.4849 12.2495 12.5284 12.2035H11.9618V12.2712ZM12.3392 8.66984V8.8026C12.3392 8.84596 12.3187 8.892 12.2752 8.93536V9.06811H12.3392V8.86705C12.3802 8.86705 12.4032 8.82369 12.4032 8.73429C12.4032 8.69093 12.4442 8.5362 12.5287 8.26772C12.5697 8.22436 12.5902 8.181 12.5902 8.13496C12.5492 8.0916 12.5492 8.06992 12.5902 8.06992V8.00191C12.5902 7.95855 12.6107 7.93419 12.6545 7.93419V7.80144C12.6545 7.75808 12.675 7.62502 12.7159 7.40257C12.7595 7.26982 12.78 7.14745 12.78 7.03638C12.78 6.92531 12.7903 6.8466 12.8108 6.80294C12.8313 6.75691 12.8442 6.71355 12.8442 6.66752L12.8445 6.46913V6.13531H12.7802V6.46883V6.40082H12.7162V6.73464C12.6752 6.82403 12.6547 6.89204 12.6547 6.9357V7.00074C12.6112 7.04678 12.5904 7.11242 12.5904 7.2018V7.40227L12.4032 7.80114H12.3392V7.73609C12.3392 7.69273 12.3597 7.66838 12.4032 7.66838V7.53562C12.3597 7.57899 12.3392 7.62502 12.3392 7.66838C12.2957 7.84717 12.2752 7.95884 12.2752 8.0022L12.4652 8.07021L12.4037 8.26831V8.46937C12.4032 8.55847 12.3802 8.62648 12.3392 8.66984ZM12.4032 7.46765C12.3597 7.46765 12.3392 7.492 12.3392 7.53536L12.4032 7.46765ZM13.2216 6.73499L13.1573 6.93605C13.1163 7.06881 13.0958 7.20216 13.0958 7.33492V7.40263V7.13385C13.1368 7.09049 13.1573 7.02515 13.1573 6.93575V6.80299C13.1573 6.75696 13.1677 6.73528 13.1907 6.73528C13.2112 6.73528 13.2216 6.7136 13.2216 6.66757C13.2216 6.58085 13.2011 6.53481 13.1573 6.53481V6.33671C13.1163 6.51342 13.0728 6.66786 13.0318 6.80329L12.9703 6.86833V7.00109L13.0318 7.0691L12.9703 7.20185C12.9703 7.29125 12.9473 7.33461 12.9063 7.33461V7.40232C12.9063 7.53508 12.8858 7.60042 12.8448 7.60042C12.8448 7.77981 12.8215 7.91257 12.7805 8.00195C12.696 8.09135 12.7165 8.13471 12.8448 8.13471L12.7805 8.33577C12.737 8.42517 12.737 8.49021 12.7805 8.53684L12.7165 8.66959V8.80235L12.655 8.86739C12.655 8.95679 12.6317 9.0248 12.5907 9.06845H12.8448L13.1576 9.00341C13.1576 8.95738 13.1809 8.9357 13.2219 8.9357C13.2219 8.89234 13.2424 8.78126 13.2859 8.60188V8.46912C13.3269 8.46912 13.3474 8.43645 13.3474 8.36874V8.20301V8.00195C13.3883 7.95859 13.4117 7.91255 13.4117 7.86919L13.4731 7.20156V7.00049C13.4731 6.91377 13.4936 6.86774 13.5371 6.86774V6.73498L13.4731 6.66727C13.4731 6.7133 13.4526 6.73498 13.4117 6.73498V6.33641H13.3474V6.66756C13.3064 6.66756 13.2859 6.69192 13.2859 6.73528V6.86804C13.2856 6.82467 13.2628 6.78073 13.2216 6.73499ZM12.7162 14.0704V14.1384C12.7597 14.0951 12.7597 14.0704 12.7162 14.0704ZM12.7802 22.9424H12.7162C12.7162 22.9858 12.7367 22.9858 12.7802 22.9424ZM12.7802 13.6043V13.5393C12.7367 13.5393 12.7367 13.561 12.7802 13.6043ZM12.9063 1.46532V1.40028L12.8448 1.46532H12.9063ZM12.9063 0.933404V0.998446C12.9908 0.911725 13.0523 0.865689 13.0964 0.865689C13.0964 0.822328 13.1169 0.778968 13.1578 0.732932L13.2221 0.600175H13.2862L13.2216 0.599878C13.1806 0.689275 13.116 0.779264 13.0315 0.865985C12.9905 0.865985 12.97 0.879647 12.97 0.901327C12.97 0.923304 12.9473 0.933404 12.9063 0.933404ZM13.2216 6.06782V6.00277L13.1573 6.06782H13.2216ZM13.1573 6.13553V6.26829L13.2216 6.13553V6.06782L13.1573 6.13553ZM13.8527 11.9379H13.7887L13.7272 11.8699V11.9379H13.5992C13.5992 11.9812 13.6222 12.0029 13.6632 12.0029H13.5992C13.5992 12.0489 13.5683 12.0706 13.5071 12.0706H13.3476H13.2216V12.1386H13.2856L13.3471 12.2037C13.4316 12.1603 13.4931 12.1603 13.5371 12.2037H13.4731L13.2216 12.204V12.2717C13.1806 12.2717 13.1573 12.3151 13.1573 12.4044C13.2008 12.4044 13.2216 12.3828 13.2216 12.3367H13.2856L13.3471 12.4044C13.3471 12.3611 13.3676 12.3367 13.4114 12.3367H13.4729C13.5138 12.3828 13.5779 12.4044 13.6629 12.4044H14.168L14.9246 12.4722H17.256C17.297 12.4722 17.3276 12.4615 17.3506 12.4368C17.3711 12.4151 17.4023 12.4041 17.4452 12.4041C17.5278 12.4041 17.5912 12.4258 17.6325 12.4719H19.0203L19.0846 12.4041H19.1458C19.2306 12.4935 19.2713 12.4935 19.2713 12.4041L19.335 12.4719H19.4605L19.5248 12.4041C19.5658 12.4041 19.6065 12.4258 19.6503 12.4719H19.9018L19.9656 12.4041H20.0276V12.4719C20.0686 12.4258 20.1118 12.4258 20.1528 12.4719H20.2171L20.2814 12.138V12.0023C20.2814 11.8696 20.3019 11.7825 20.3426 11.7362C20.3426 11.6495 20.3631 11.5818 20.4069 11.5351L20.3426 11.4701H20.0916V11.4024C19.9661 11.4024 19.9021 11.427 19.9021 11.4701H19.7118C19.6708 11.4701 19.627 11.4918 19.5863 11.5351L19.5251 11.4701L19.4608 11.5351H18.6429C18.6839 11.5812 18.7684 11.6029 18.8945 11.6029C18.9355 11.5595 18.9793 11.5351 19.02 11.5351L19.3353 11.6029C19.3771 11.5595 19.4201 11.5595 19.4608 11.6029H19.7118C19.5863 11.6029 19.5658 11.6489 19.6506 11.7356H19.9021C19.9431 11.6923 19.9658 11.6923 19.9658 11.7356L19.9021 11.8033H19.7766C19.8176 11.8033 19.8176 11.825 19.7766 11.8684V11.8033H19.5251C19.4813 11.8033 19.4608 11.825 19.4608 11.8684H18.8302L18.705 11.9364C18.6632 11.893 18.5994 11.8684 18.5146 11.8684C18.4299 11.8684 18.3687 11.893 18.3274 11.9364H17.6963C17.4447 11.9797 17.2962 11.9797 17.2552 11.9364C17.2552 11.9797 17.1909 12.0014 17.0648 12.0014H16.1209C16.0336 11.9147 15.8876 11.9147 15.6771 12.0014H15.5516L15.4918 12.0017C15.4073 12.0017 15.3663 12.0264 15.3663 12.0694H15.0513C15.0513 12.0261 15.0283 12.0017 14.9873 12.0017C14.9463 12.0017 14.9258 12.0264 14.9258 12.0694H14.6714L14.7969 12.0017L14.6096 11.9367H14.3556C14.2711 11.98 14.209 12.0017 14.1683 12.0017H14.2298C14.2298 11.9584 14.2093 11.9367 14.1683 11.9367C14.0838 11.9367 14.0428 11.9584 14.0428 12.0017H13.8527C13.894 11.9595 13.894 11.9379 13.8527 11.9379ZM13.2856 0.333343L13.2216 0.398384H13.2856V0.333343ZM13.4117 11.9375C13.3681 11.9375 13.3681 11.9592 13.4117 12.0026H13.4731V11.9375H13.4117ZM13.4729 0.398387C13.4319 0.398387 13.4114 0.42274 13.4114 0.466101L13.5986 0.333344L13.5372 0.265333C13.5372 0.311367 13.527 0.333344 13.5065 0.333344C13.4832 0.333344 13.4729 0.355026 13.4729 0.398387ZM13.4117 23.2767L13.4731 23.3417V23.2767C13.5141 23.2767 13.5141 23.255 13.4731 23.209L13.4117 23.2767ZM13.5989 0.199947V0.264989C13.6424 0.221628 13.6629 0.175592 13.6629 0.132232C13.7039 0.132232 13.7269 0.110551 13.7269 0.0642206C13.7269 0.110255 13.7039 0.132232 13.6629 0.132232C13.6217 0.132232 13.5989 0.153914 13.5989 0.199947ZM17.2574 21.4094H18.0137C18.0137 21.3654 18.0238 21.2977 18.0451 21.2083C18.0656 21.1186 18.0757 21.0316 18.0757 20.9422L18.1395 20.8745H17.8247C17.74 20.8745 17.6992 20.8992 17.6992 20.9422C17.6563 20.9422 17.635 20.9205 17.635 20.8745H17.5726L17.5083 20.9422H17.4471C17.4042 20.8989 17.3626 20.8745 17.3191 20.8745H17.1936H16.9426C16.8997 20.8745 16.8581 20.8992 16.8171 20.9422H13.9141C13.8296 20.9422 13.7886 20.9639 13.7886 21.0073H13.7271L13.6631 21.075H13.7271C13.8091 21.1183 13.9144 21.14 14.0427 21.14H15.7435L15.6792 21.2077H15.8075L15.869 21.2755V21.3402H16.1231L15.9948 21.2761C16.1231 21.2761 16.1643 21.2977 16.1231 21.3408C16.1231 21.3868 16.1436 21.4088 16.1846 21.4088H16.3101V21.3408H16.3741C16.3306 21.3408 16.2896 21.3191 16.2486 21.2761H16.3101C16.2691 21.23 16.2691 21.2083 16.3101 21.2083V21.1406H16.7511H16.8766L17.0046 21.0756H17.0658V21.1406H17.0046V21.2083H16.6253C16.5844 21.2083 16.5844 21.23 16.6253 21.2761H16.5639C16.5203 21.2761 16.4794 21.2977 16.4356 21.3408H16.4998V21.4088H17.2573L17.2574 21.4094ZM13.9785 9.66954H13.7887V9.73725C13.7477 9.73725 13.7272 9.75893 13.7272 9.80229H13.8839C13.9479 9.80229 13.9993 9.82695 14.0428 9.87031L14.1043 9.80229H14.2297C14.2707 9.84833 14.3143 9.84833 14.3552 9.80229H14.6708V9.87031H15.7433H15.679V9.93802H15.8073L15.8688 10.0031C15.9533 10.0925 16.0358 10.1141 16.1229 10.0711H16.0586C16.0151 10.0711 15.9946 10.0494 15.9946 10.0031C16.1229 10.0031 16.1641 10.0277 16.1229 10.0711C16.1229 10.1144 16.1434 10.1361 16.1844 10.1361L16.2484 10.0711H16.3739C16.3304 10.0711 16.3099 10.0494 16.3099 10.0031C16.2689 9.9597 16.2689 9.91634 16.3099 9.87031V9.80229H17.0662H17.005V9.93802H16.6257L16.5642 10.0031H16.4359L16.5002 10.0711C16.5002 10.1144 16.5207 10.1361 16.5642 10.1361H17.8239C17.8649 10.0928 17.8876 10.0928 17.8876 10.1361L18.0131 10.0711H18.8318C18.8318 10.1144 18.9573 10.1144 19.2114 10.0711H19.5885C19.6294 10.0711 19.6527 10.0928 19.6527 10.1361C19.8625 10.0928 20.009 10.0711 20.0938 10.0711H20.6604V9.93832C20.7022 9.84892 20.7022 9.78091 20.6604 9.73726C20.6604 9.6939 20.6705 9.66954 20.6918 9.66954C20.7123 9.66954 20.7249 9.64786 20.7249 9.6045V9.53679L20.6606 9.47175H20.3459C20.2611 9.56114 20.2204 9.56114 20.2204 9.47175H20.0309L19.6533 9.53679H18.4559C18.4121 9.58282 18.3711 9.6045 18.3304 9.6045H17.6355L17.5727 9.6048H16.124L16.0597 9.66984H15.7441C15.7031 9.62648 15.6596 9.6048 15.6186 9.6048C15.5751 9.64816 15.5341 9.66984 15.4931 9.66984H15.3676L15.2393 9.6048L15.1779 9.66984H13.9784L13.9785 9.66954ZM13.7887 11.5365H13.7272L13.7887 11.6042H13.8527L13.7887 11.5365ZM13.7887 22.8103L13.7272 22.875H13.8527C13.8089 22.875 13.7887 22.8536 13.7887 22.8103ZM13.9145 20.4078H13.789C13.7887 20.4545 13.8294 20.4545 13.9145 20.4078ZM13.8527 9.13786L13.9142 9.07014H13.8527V9.13786ZM13.8527 20.4078C13.8527 20.4539 13.8732 20.4539 13.9142 20.4078H13.8527ZM14.4838 3.00144C14.5248 3.00144 14.5453 2.95808 14.5453 2.86868L14.4838 3.00144ZM14.6096 2.73236L14.7351 2.53426V2.40151C14.7351 2.44487 14.7118 2.46655 14.6708 2.46655L14.6093 2.59931V2.66702L14.609 2.73236L14.6096 2.73236ZM15.1122 12.0028C15.1531 12.0028 15.1764 11.9811 15.1764 11.9377C15.1326 11.9377 15.1122 11.9594 15.1122 12.0028ZM15.7433 11.6042C15.7023 11.5608 15.6588 11.5608 15.6178 11.6042H15.7433ZM15.8076 11.6042V11.5365L15.7436 11.6042H15.8076ZM15.9948 11.6042L15.9333 11.5365H15.8691L15.8076 11.6042H16.1231L16.0588 11.5365L15.9948 11.6042ZM15.9948 22.875H15.8691L15.8076 22.9427C15.8898 22.8996 15.9538 22.875 15.9948 22.875H16.1231L16.0588 22.8102C16.0588 22.8536 16.0358 22.875 15.9948 22.875ZM16.6903 11.6042C16.6903 11.5608 16.667 11.5365 16.6262 11.5365L16.6903 11.6042ZM16.6903 22.875L16.6262 22.8102V22.875H16.6903ZM16.9415 28.5445V28.4798C16.898 28.5226 16.898 28.5445 16.9415 28.5445ZM17.067 11.6042H17.1925V11.5365L17.067 11.6042ZM17.1931 22.875C17.1521 22.8316 17.1086 22.8316 17.0676 22.875H17.1931ZM17.5081 21.4098C17.5499 21.4532 17.5724 21.4532 17.5724 21.4098H17.5081ZM17.6339 22.8102L17.5727 22.8749C17.6134 22.8749 17.6339 22.8535 17.6339 22.8102ZM17.7596 11.6717H17.6984V11.604C17.6136 11.6934 17.6341 11.7368 17.7596 11.7368H17.8877V11.6717C18.0132 11.6257 18.1597 11.604 18.3296 11.604H18.5163L18.5806 11.5363H18.3296L18.2653 11.604C18.2653 11.5606 18.2448 11.5363 18.2041 11.5363H18.076H17.8248L17.7605 11.604V11.6717L17.7596 11.6717ZM17.9497 31.3476L17.8877 31.2796C17.8877 31.323 17.909 31.3476 17.9497 31.3476ZM18.3908 19.9415H18.4551V19.8735C18.4553 19.9193 18.4318 19.9415 18.3908 19.9415ZM20.9773 13.2054H20.913V13.1377H20.7875C20.7465 13.1837 20.7263 13.1837 20.7263 13.1377H20.5983C20.5135 13.1377 20.4523 13.162 20.411 13.2054V13.2704L20.3468 13.3385V13.5395L20.2855 13.6723C20.2417 13.7617 20.2213 13.9167 20.2213 14.1394C20.1783 14.1394 20.157 14.1501 20.157 14.1718V14.2722V14.5383C20.116 14.5383 20.0958 14.563 20.0958 14.6063C20.0528 14.6497 20.032 14.6957 20.032 14.7391V14.8718C20.032 14.9612 20.0107 15.0046 19.97 15.0046V15.4706C19.97 15.5166 19.9576 15.5383 19.9369 15.5383C19.9164 15.5383 19.9062 15.56 19.9062 15.6063C19.9062 15.6957 19.8858 15.7607 19.8442 15.8044V15.8721C19.8012 15.9155 19.8012 15.9615 19.8442 16.0049V16.1376L19.7805 16.2056V16.3384C19.7367 16.4278 19.7162 16.5178 19.7162 16.6045C19.6752 16.6505 19.655 16.7156 19.655 16.8056H19.5907V17.0066C19.5907 17.096 19.5702 17.183 19.5295 17.2727C19.5295 17.4061 19.5065 17.5172 19.4652 17.6065C19.4652 17.6962 19.4447 17.7393 19.4015 17.7393V18.0731L19.3394 18.1382V18.2059C19.3394 18.2953 19.3164 18.363 19.2757 18.4069V18.5397C19.2347 18.5831 19.2136 18.6291 19.2136 18.6725V18.8052L19.1499 18.8729V19.0057C19.1499 19.0954 19.1294 19.1631 19.0887 19.2067V19.4045C19.0449 19.4506 19.0244 19.54 19.0244 19.6733C18.9834 19.7167 18.9601 19.8061 18.9601 19.9394L18.8989 20.0072V20.1399L18.9601 20.2047V20.3374C18.9601 20.294 18.984 20.2507 19.0244 20.2047C19.0654 20.1613 19.0887 20.0719 19.0887 19.9388L19.1499 19.8708V19.7381C19.1909 19.6941 19.1909 19.6514 19.1499 19.6053C19.1909 19.5614 19.2136 19.4936 19.2136 19.4043C19.2555 19.3603 19.2757 19.3175 19.2757 19.2715L19.3394 19.0731V19.0054C19.4242 18.6499 19.4854 18.4058 19.5298 18.2727C19.5298 18.2293 19.5503 18.205 19.591 18.205V18.2727V18.1373C19.591 18.0933 19.6115 18.0933 19.6553 18.1373C19.6962 18.0933 19.7165 18.0933 19.7165 18.1373C19.7165 18.0933 19.737 18.0506 19.7808 18.0045C19.8217 17.9606 19.8445 17.9178 19.8445 17.8718L19.7165 18.0045C19.7575 18.0045 19.7808 17.9828 19.7808 17.9395C19.7808 17.8501 19.8012 17.8284 19.8445 17.8718C19.8863 17.8718 19.9065 17.8501 19.9065 17.8067V17.6713L19.8445 17.6063V17.739V17.6713C19.7572 17.6713 19.7165 17.6496 19.7165 17.6063L19.6533 17.6069C19.6533 17.5635 19.6738 17.5175 19.7145 17.4741C19.7145 17.3847 19.735 17.2953 19.7788 17.2059V17.1409C19.7788 17.0081 19.7993 16.9187 19.8425 16.8748H19.9046V17.2056L19.8425 17.2733V17.4067C19.8425 17.4521 19.863 17.4961 19.9046 17.5394V17.4744H19.9683V17.407H20.0303C20.0303 17.3197 20.0713 17.0969 20.1556 16.739L20.2844 16.3402L20.2842 16.1388C20.3251 16.0955 20.3251 16.0738 20.2842 16.0738H20.3454V15.938C20.3454 15.8513 20.3659 15.7836 20.4096 15.7399V15.4712L20.4709 15.2731C20.5118 15.2297 20.5346 15.1944 20.5346 15.1727V15.0723L20.6601 14.6734V14.473C20.7019 14.4296 20.7244 14.3619 20.7244 14.2719C20.7244 14.2285 20.7449 14.2069 20.7856 14.2069C20.7856 13.9841 20.8061 13.8514 20.8499 13.8053C20.8499 13.6286 20.8704 13.4959 20.9111 13.4065C20.9128 13.3165 20.9332 13.2488 20.9773 13.2054ZM19.2114 13.2054C19.2114 13.162 19.1884 13.1377 19.1477 13.1377V13.2054H19.2114ZM19.2735 17.873C19.2735 17.8296 19.253 17.8079 19.2114 17.8079L19.2735 17.873ZM19.6533 18.1391V18.2068C19.694 18.1634 19.694 18.1391 19.6533 18.1391ZM19.7145 31.0141C19.7145 30.9701 19.694 30.9464 19.6533 30.9464C19.6533 30.9924 19.6741 31.0141 19.7145 31.0141ZM20.0306 12.9394L20.0944 12.8714L19.9689 12.9394H19.8434C19.8852 12.9827 19.9259 13.0044 19.9689 13.0044H20.0309L20.0306 12.9394ZM19.9049 17.607V17.5392C19.863 17.5392 19.863 17.5639 19.9049 17.607ZM19.9049 17.6726L19.9686 17.6076V17.5398L19.9049 17.6726ZM20.5978 13.1378C20.5978 13.0944 20.5568 13.0944 20.4723 13.1378H20.5978ZM20.5352 23.6756C20.6177 23.4989 20.6811 23.3201 20.7255 23.1434H20.6612C20.6183 23.1873 20.577 23.3418 20.5357 23.6105V23.6756H20.472L20.5352 23.6756ZM21.2289 11.8703H20.6609V12.1391L20.5972 12.3372V12.4049H21.1028V12.3369C21.1438 12.3369 21.1666 12.3152 21.1666 12.2719V12.2042C21.1666 12.1608 21.1871 12.1174 21.2286 12.0714L21.2283 11.8703L21.2289 11.8703ZM20.5978 22.875L20.6615 22.8102H20.5978V22.875ZM20.7258 22.8102V22.875H20.787V22.7422C20.7867 22.788 20.7662 22.8102 20.7258 22.8102ZM20.7867 11.4718V11.5369H20.9771C20.9333 11.5369 20.9021 11.5288 20.8822 11.5042C20.8617 11.4828 20.828 11.4718 20.7867 11.4718ZM20.9128 21.1414L20.9771 21.0763V21.0086H20.8516L20.9128 21.0763V21.1414ZM21.3544 20.7425L20.9768 20.8102H20.9125C20.9125 20.8542 20.933 20.8753 20.9768 20.8753H21.038L20.9768 20.943V21.3418H21.038V21.2771L21.1023 21.2094V21.0766H21.166C21.123 21.166 21.1023 21.253 21.1023 21.3424H21.2278C21.2688 21.3424 21.2915 21.3207 21.2915 21.2777V21.1423C21.3325 21.0555 21.3535 20.9872 21.3535 20.9439C21.3535 20.9005 21.3637 20.8762 21.3867 20.8762C21.4072 20.8762 21.4173 20.8545 21.4173 20.8111V20.7434H21.3544L21.3544 20.7425ZM21.0383 9.80248C21.0383 9.89484 21.0178 9.98187 20.9771 10.0713H21.3544C21.3954 10.0279 21.4386 10.0033 21.4796 10.0033H21.5439V9.87049C21.5849 9.82713 21.6082 9.7811 21.6082 9.73774L21.6694 9.47163H21.1026V9.53667C21.0613 9.58271 21.0383 9.66972 21.0383 9.80248ZM20.9773 11.5367H21.1028C21.061 11.5367 21.0385 11.515 21.0385 11.4716C21.0383 11.515 21.0178 11.5367 20.9773 11.5367ZM23.2475 13.2058V13.0053C23.2037 13.0053 23.1832 12.9836 23.1832 12.9402C23.1832 12.9836 23.1195 13.0053 22.9937 13.0053H22.8064L22.7421 13.073C22.6992 13.1164 22.6779 13.2274 22.6779 13.4068L22.6167 13.738V13.8057C22.6167 13.8517 22.5936 13.8734 22.5529 13.8734L22.4909 13.9384L22.4271 13.8734H22.3651V13.738H22.3014V13.6052C22.3424 13.5619 22.3651 13.4965 22.3651 13.4071V13.2714C22.3651 13.3174 22.3421 13.3608 22.3014 13.4071V13.5402H22.2371V13.874H22.1759V14.0067L22.1116 14.0718C22.0706 14.0718 22.0504 14.0964 22.0504 14.1398V14.6747H21.9861V14.9402C21.9861 14.9836 21.9656 15.0052 21.9249 15.0052V15.2057L21.8606 15.2734V15.4712C21.8606 15.5173 21.8376 15.5389 21.7969 15.5389V15.607H21.8606L21.9249 15.4059V15.2731L21.9861 14.9393L22.0504 14.8066V14.7385H22.1116V14.5378H22.1759V14.6058H22.2371L22.3014 14.4047V14.272C22.3424 14.318 22.3651 14.3614 22.3651 14.4047C22.3221 14.4508 22.3014 14.4941 22.3014 14.5375H22.3651C22.3221 14.5375 22.3014 14.5621 22.3014 14.6055V15.0715C22.3014 15.1175 22.2913 15.1392 22.2708 15.1392C22.2469 15.1392 22.2371 15.1609 22.2371 15.2042V15.272C22.2371 15.4047 22.2166 15.4947 22.1759 15.5381V15.6708C22.1321 15.7169 22.1116 15.7819 22.1116 15.8719C22.0706 15.9152 22.0504 15.983 22.0504 16.0729L22.0507 16.2075C22.0507 16.2508 22.0276 16.2969 21.9864 16.3402C21.9864 16.3836 21.9659 16.4296 21.9252 16.473V16.6735L21.8609 17.14L21.7971 17.4061V17.6066L21.7351 17.8077C21.6921 17.8974 21.6714 17.9621 21.6714 18.0061C21.6304 18.1855 21.6102 18.2965 21.6102 18.3399C21.5254 18.4293 21.4813 18.5837 21.4813 18.8065C21.3971 18.8065 21.3971 18.8525 21.4813 18.9392L21.4201 19.0069C21.4201 19.0509 21.4406 19.0966 21.4813 19.1397V19.2724L21.4201 19.3402V19.4052C21.4201 19.4512 21.3971 19.4729 21.3564 19.4729C21.3145 19.4729 21.2943 19.4946 21.2943 19.5406C21.2943 19.5846 21.3148 19.6057 21.3564 19.6057L21.2943 19.8067V19.674C21.2514 19.7173 21.2306 19.7857 21.2306 19.8721C21.1458 19.9618 21.1051 20.0515 21.1051 20.1412C21.1461 20.2306 21.1688 20.2956 21.1688 20.3393V20.2742H21.0408V20.407H21.1688C21.3356 20.3636 21.4409 20.3636 21.4816 20.407L21.7357 19.6743V19.5415C21.7775 19.5415 21.7977 19.5198 21.7977 19.4738V19.2733C21.8387 19.2294 21.8614 19.1646 21.8614 19.075C21.9033 18.9856 21.9257 18.8962 21.9257 18.8062L21.9869 18.6734V18.6087C21.9869 18.5626 22.0074 18.497 22.0512 18.4076V18.2065L22.1124 18.0738V17.941L22.1767 17.8083V17.6728L22.2379 17.5401C22.2379 17.4967 22.2584 17.4073 22.3022 17.274V17.0729C22.3432 17.0296 22.3659 16.9642 22.3659 16.8748L22.428 16.6738L22.4917 16.4727L22.5538 16.3399V16.1395C22.5948 16.0961 22.6175 16.0528 22.6175 16.0067V15.8062C22.6585 15.8062 22.6787 15.7846 22.6787 15.7412C22.6787 15.6518 22.7 15.5868 22.743 15.5401V15.3394L22.8073 15.2066C22.8073 15.1199 22.8278 15.0522 22.8685 15.0056V14.8078C22.9095 14.7644 22.9328 14.6967 22.9328 14.6067V14.5387C22.9738 14.4953 22.9738 14.4736 22.9328 14.4736H22.994V14.3409L23.0577 14.2081V13.8743C23.0996 13.7849 23.1198 13.6732 23.1198 13.5405C23.1627 13.4971 23.1835 13.4288 23.1835 13.3394C23.1829 13.2491 23.2034 13.2058 23.2475 13.2058ZM21.1669 18.6089V18.5412H21.1031L21.1669 18.6089ZM21.1029 18.742C21.1438 18.742 21.1666 18.698 21.1666 18.6092C21.1666 18.6526 21.1436 18.674 21.1029 18.674V18.742ZM21.1669 9.06986V9.13757C21.2924 9.13757 21.3755 9.11589 21.4184 9.06986H21.67L21.7337 9.00482V8.80375L21.7958 8.53765C21.7958 8.40192 21.8162 8.33658 21.8595 8.33658V8.13552C21.8595 8.09216 21.8808 8.07048 21.9238 8.07048V8.00247C21.9648 8.00247 21.985 7.95911 21.985 7.86971V7.60063C22.0268 7.64667 22.0268 7.66864 21.985 7.66864L21.9238 7.73636V7.93446C21.8808 7.98049 21.8365 8.00217 21.7958 8.00217V8.13493C21.7548 8.13493 21.711 8.15958 21.6703 8.20264V8.26768V7.86882C21.6703 7.95822 21.6498 8.02325 21.6091 8.06988H21.5448C21.5448 8.02385 21.5653 8.00187 21.6091 8.00187V7.93416C21.6091 7.8014 21.6295 7.73606 21.6703 7.73606L21.6091 7.66834L21.5448 7.8011C21.5448 7.8905 21.5038 8.02385 21.4193 8.20263C21.3763 8.29203 21.3555 8.37934 21.3555 8.46874C21.3137 8.46874 21.2935 8.49042 21.2935 8.53645V8.6015H21.2298V8.73425L21.1677 8.80197V8.93472V9.06985L21.1669 9.06986ZM21.2289 11.5367V11.4716L21.1669 11.5367H21.2924V11.4716L21.2289 11.5367ZM21.1669 18.4082V18.541L21.2289 18.2749H21.1669V18.4082ZM21.3544 17.7406V17.6078C21.3544 17.6518 21.3331 17.6729 21.2924 17.6729L21.3544 17.7406ZM21.3544 19.342V19.407H21.4181L21.3544 19.342ZM24.8866 23.2768L25.0744 23.2091V23.1441H24.9177C24.8535 23.1441 24.8229 23.1664 24.8229 23.2091H24.5713L24.6325 23.1441H24.0045H24.3167L24.4447 23.0764H24.6957C24.7774 23.0764 24.8212 23.0547 24.8212 23.0116H24.8849C24.9267 23.0116 24.9674 22.987 25.0104 22.9436H24.3796L24.3158 23.0116H24.0648C24.0238 22.9656 23.98 22.9436 23.9393 22.9436H23.4348C23.3093 22.9436 23.2476 22.9876 23.2476 23.0764H23.1833C23.0578 23.033 22.9735 23.033 22.9326 23.0764H22.1116C22.0706 23.0764 22.0706 23.101 22.1116 23.1441H21.5439V23.2091C21.503 23.3885 21.4592 23.543 21.4185 23.6763H22.3646L22.4901 23.6113H23.6883C23.6883 23.5679 23.7914 23.5435 24.0042 23.5435C24.2119 23.5435 24.3169 23.5219 24.3169 23.4785H24.6322C24.6732 23.4785 24.6965 23.4678 24.6965 23.4432C24.6965 23.4215 24.717 23.4108 24.7577 23.4108C24.7577 23.3674 24.7372 23.3431 24.6965 23.3431C24.7375 23.3431 24.7577 23.3214 24.7577 23.278H24.822L24.8866 23.2777V23.2768ZM21.4797 17.2057V17.1406C21.4384 17.1406 21.4384 17.1623 21.4797 17.2057ZM21.7955 15.8053H21.8593L21.7955 15.7403V15.8053H21.7335V16.0738C21.7335 16.1172 21.7105 16.1632 21.6698 16.2066V16.2716C21.6288 16.3176 21.6085 16.361 21.6085 16.4073L21.6698 16.5401V16.6729C21.7107 16.6729 21.7545 16.6295 21.7952 16.5401V16.4724C21.7952 16.429 21.7748 16.4073 21.7332 16.4073C21.7332 16.2716 21.7545 16.1386 21.7952 16.0058V15.8731L21.7955 15.8053ZM23.2476 22.6775H23.0572C23.0143 22.6775 22.9525 22.6882 22.8677 22.7099C22.7829 22.7316 22.7217 22.7206 22.6774 22.6775C22.6364 22.6775 22.5931 22.6882 22.5522 22.7099C22.5103 22.7316 22.4466 22.7206 22.3643 22.6775C22.3214 22.6775 22.2801 22.6992 22.2363 22.7422H22.0496L21.8593 22.7419H21.67V22.81H22.6162C22.6572 22.766 22.7217 22.7419 22.8065 22.7419H23.0572C23.0991 22.7419 23.1193 22.7666 23.1193 22.81H23.2473C23.2883 22.766 23.3085 22.766 23.3085 22.81H23.9391C24.0646 22.81 24.1805 22.7993 24.2855 22.7773C24.3902 22.7529 24.4646 22.7313 24.5056 22.7096C24.5474 22.6879 24.5904 22.6772 24.6311 22.6772L24.8215 22.6095H25.1367V22.5444H24.822C24.7782 22.5444 24.7577 22.5661 24.7577 22.6095H24.0651L23.9399 22.6098H23.8762C23.6656 22.6098 23.5398 22.5875 23.4986 22.5447L23.5598 22.477L23.624 22.5447V22.477H23.7498C23.708 22.4331 23.665 22.4331 23.6243 22.477H23.3085L23.2476 22.6775ZM21.7335 7.53604V7.66879L21.7955 7.60078V7.46803L21.7335 7.53604ZM21.7335 7.7368V7.80185V7.66909V7.7368ZM21.7955 7.40328V7.46832C21.8365 7.46832 21.8593 7.44664 21.8593 7.40328C21.9011 7.31388 21.9236 7.24885 21.9236 7.20222H21.8593C21.8593 7.24855 21.8365 7.31359 21.7955 7.40328ZM21.9236 7.1345H21.8593C21.9011 7.18083 21.9236 7.18083 21.9236 7.1345ZM22.1108 5.13421C22.0698 5.13421 22.0496 5.15886 22.0496 5.20223C22.0496 5.15886 22.0701 5.13421 22.1108 5.13421ZM25.8954 21.0763C25.977 21.0763 26.0413 21.0546 26.0849 21.0086H25.705C25.664 21.0086 25.6208 20.9863 25.5798 20.9435H25.5155C25.4745 20.9002 25.4099 20.8758 25.3282 20.8758C25.4099 20.8319 25.5559 20.8108 25.7693 20.8108C25.7263 20.7647 25.6845 20.743 25.6413 20.743H25.5158V20.6753H25.5801L25.6413 20.743L25.8308 20.6753H25.8951H25.7047L25.5795 20.6103H25.3279L25.1376 20.5426H25.0121C25.0121 20.4992 24.9891 20.4775 24.9484 20.4775H24.8229C24.7791 20.5215 24.7173 20.5426 24.6325 20.5426H24.3815C24.1718 20.5426 24.0663 20.5672 24.0663 20.6103L24.0045 20.61H23.1193L22.3646 20.675L22.2366 20.7428V20.8755L22.1754 20.9432V21.0083L22.1111 21.141V21.2087H22.0499V21.2764C22.1316 21.3198 22.1959 21.3198 22.2372 21.2764H22.4275C22.4685 21.2764 22.5118 21.2518 22.553 21.2087H22.678C22.7218 21.2521 22.7628 21.2521 22.8068 21.2087L22.868 21.2764H22.9323L23.3091 21.2087H23.751C23.751 21.1648 23.792 21.141 23.8765 21.141L24.0045 21.1413C24.13 21.1413 24.2561 21.119 24.3813 21.0763H25.3286C25.3696 21.0323 25.4103 21.0086 25.4541 21.0086H25.5796L25.6408 21.0763H25.8954ZM22.3646 13.2056C22.4064 13.2056 22.4064 13.1839 22.3646 13.1379V13.2056ZM22.5527 12.3369C22.5527 12.2502 22.5732 12.1388 22.6164 12.0031L22.6777 11.8703V11.8053H22.6164C22.5735 11.8486 22.5735 11.8947 22.6164 11.938C22.5735 11.9814 22.5527 12.0491 22.5527 12.1391V12.3369ZM22.6777 11.4714H22.7419V11.4037C22.7422 11.4494 22.7217 11.4714 22.6777 11.4714ZM23.1193 9.33573C23.0783 9.38177 23.0572 9.44978 23.0572 9.53679C23.0143 9.62619 22.9935 9.6942 22.9935 9.73786V9.8029L22.9323 9.87091V9.93862H23.1196C23.1196 9.66984 23.1426 9.51511 23.1833 9.47205V9.33632L23.1193 9.33602L23.1193 9.33573ZM23.0572 12.3369H23.3731L23.4343 12.2718C23.4753 12.2285 23.4986 12.1608 23.4986 12.0708V11.8697L23.5598 11.8047V11.6719H23.4343C23.3088 11.6719 23.247 11.6936 23.247 11.737H22.9929C22.9519 11.8697 22.9317 11.9591 22.9317 12.0031V12.3369L23.0572 12.3369ZM23.6249 11.1377C23.4143 11.1377 23.3091 11.1593 23.3091 11.2054L23.2479 11.3381C23.1631 11.3381 23.1198 11.3598 23.1198 11.4032L23.0578 11.4709H23.1198C23.1198 11.5142 23.1628 11.5359 23.2479 11.5359H23.3091C23.3509 11.4926 23.3939 11.4926 23.4346 11.5359C23.4755 11.4926 23.5193 11.4709 23.5601 11.4709L23.6243 11.4032V11.3381L23.4988 11.2701C23.4551 11.2268 23.475 11.2051 23.5601 11.2051H23.6243L23.6881 11.1374L23.6249 11.1371L23.6249 11.1377ZM23.1193 16.9395V16.8744H23.0572C23.0572 16.9184 23.0786 16.9395 23.1193 16.9395ZM23.1193 8.9365V9.00421H23.183V8.9365H23.1193ZM23.2476 4.26838V4.20066L23.1833 4.26838H23.2476ZM23.2476 3.73379V3.8018C23.3293 3.71241 23.3936 3.66608 23.4348 3.66608L23.4991 3.60103C23.5401 3.51164 23.5834 3.4466 23.6246 3.39997H23.5603C23.5193 3.48937 23.4548 3.57876 23.3731 3.66608C23.3293 3.66608 23.3088 3.67974 23.3088 3.70142C23.3088 3.7231 23.2883 3.73379 23.2476 3.73379ZM23.4991 9.33572H23.4348L23.3736 9.6045L23.3093 9.66954V9.8023L23.3736 9.87031V9.93802L23.4991 9.87031V9.6048C23.4991 9.56143 23.5092 9.53708 23.5297 9.53708C23.5502 9.53708 23.5603 9.5154 23.5603 9.47204C23.5603 9.38146 23.5398 9.33572 23.4991 9.33572ZM23.4991 14.6058H23.4348V14.4728H23.3736V14.6055H23.4348V14.6733L23.3736 14.7383L23.4991 14.6058ZM23.5603 8.86851V8.80347L23.4991 8.86851H23.5603ZM23.5603 8.93652V8.86881L23.4991 8.93652H23.5603ZM23.7507 9.33568H23.6886V9.53645C23.6886 9.58248 23.6656 9.62584 23.6249 9.6692V9.53645C23.6249 9.58248 23.6044 9.60416 23.5606 9.60416L23.4994 9.73692V9.86967H23.8147L23.8767 9.66861V9.53586L23.8147 9.47081C23.8147 9.51417 23.7917 9.53586 23.751 9.53586V9.4028L23.7512 9.33568L23.7507 9.33568ZM23.6249 3.13418L23.5606 3.19922H23.6249V3.13418ZM23.6249 24.2752V24.2105L23.5606 24.2752H23.6249ZM23.8144 3.19977C23.7715 3.19977 23.7507 3.22413 23.7507 3.26749L23.9402 3.13473L23.8765 3.06702C23.8765 3.11305 23.8655 3.13473 23.845 3.13473C23.8248 3.13443 23.8144 3.15612 23.8144 3.19977ZM23.7507 22.4089V22.4766C23.7917 22.4766 23.8144 22.4549 23.8144 22.4089H23.7507ZM23.8144 8.67092V8.73597C23.8551 8.73626 23.8551 8.71458 23.8144 8.67092ZM23.9399 3.00194H24.0042L23.9399 3.06698C23.9809 3.02362 24.0042 2.98026 24.0042 2.93423C24.0452 2.93423 24.0654 2.91255 24.0654 2.86919C24.0654 2.91255 24.0449 2.93423 24.0042 2.93423C23.9604 2.93393 23.9399 2.95858 23.9399 3.00194ZM24.8866 11.9386H25.0744V11.8705C25.0326 11.9166 24.9896 11.9386 24.9489 11.9386H24.5719L24.6331 11.8705C24.5921 11.8705 24.5719 11.8625 24.5719 11.8382C24.5719 11.8165 24.5281 11.8055 24.4464 11.8055C24.3616 11.8489 24.2774 11.8705 24.1923 11.8705C24.1923 11.9599 24.1718 12.028 24.1311 12.0716V12.2044H24.3184H24.5079L24.6334 12.1393H24.7589V12.0713H24.6977L24.7589 12.0036H24.8869L24.8872 11.9386L24.8866 11.9386ZM24.6325 11.8058H24.6968C24.7785 11.8058 24.8223 11.7841 24.8223 11.7381C24.8633 11.6947 24.9279 11.673 25.0118 11.673C24.9276 11.673 24.7785 11.6514 24.5708 11.6053H24.5065L24.4453 11.673H24.3172C24.2763 11.7164 24.2325 11.7164 24.1918 11.673V11.8058H24.6325ZM24.6971 11.2709H24.3175L24.2563 11.3389V11.4717C24.4231 11.4283 24.5489 11.404 24.6331 11.404L24.8234 11.3389C24.9077 11.3823 25.0129 11.3606 25.1387 11.2709C25.1387 11.2276 25.1157 11.2276 25.075 11.2709L24.6971 11.2709ZM24.5068 11.0699H24.4456C24.4865 11.1165 24.5068 11.1165 24.5068 11.0699ZM24.8232 9.20292H24.7589V9.27094L24.6977 9.20292H24.5722V9.33568L24.6334 9.47141C24.5924 9.51477 24.5722 9.56081 24.5722 9.60417V9.80197H24.8872L25.3291 9.73693H25.6418V9.80197C25.6848 9.80197 25.7474 9.78029 25.8313 9.73693C25.8313 9.78029 25.8732 9.80197 25.9568 9.80197C26.0416 9.80197 26.0849 9.78029 26.0849 9.73693L25.9565 9.73722H25.705C25.664 9.73722 25.6208 9.71554 25.5798 9.66951H25.5155C25.4745 9.62615 25.4307 9.60447 25.39 9.60447L25.3288 9.53675C25.5803 9.53675 25.7263 9.51507 25.7698 9.47171H25.5158V9.4037H25.8951C25.8103 9.36034 25.7465 9.33599 25.7047 9.33599C25.5795 9.33599 25.454 9.3143 25.3279 9.27094H24.9484V9.20293L24.8231 9.20234L24.8232 9.20292ZM24.6325 8.73635V8.8691H24.6968C24.6971 8.82574 24.6732 8.78238 24.6325 8.73635ZM24.8232 5.80264C24.8641 5.80264 24.8869 5.75928 24.8869 5.66988L24.8232 5.80264ZM24.9487 5.53653L25.0742 5.33547V5.20271C25.0742 5.24607 25.0528 5.26775 25.0121 5.26775L24.9484 5.40051V5.46822L24.9487 5.53653ZM24.8866 22.409H24.9487C24.9896 22.409 25.0124 22.3867 25.0124 22.3439H24.9487L24.8866 22.409ZM25.2002 11.6727H25.2639L25.2002 11.605L25.0747 11.6727H25.2002ZM25.2002 22.9435H25.2639H25.0747C25.0747 22.9868 25.1151 22.9868 25.2002 22.9435ZM25.2637 11.6051C25.2637 11.6511 25.2842 11.6728 25.328 11.6728V11.6051H25.2637ZM25.8954 9.47202H25.8311C25.8723 9.51538 25.8954 9.51538 25.8954 9.47202ZM26.0209 9.47202H25.9566V9.53706C26.0846 9.53706 26.1469 9.51538 26.1469 9.47202H26.0209ZM25.9566 20.8104H26.1469L26.0214 20.7427L25.9566 20.8104ZM26.1469 9.47202V9.53706H26.3985C26.3566 9.4937 26.2724 9.47202 26.1469 9.47202ZM26.4619 9.47202C26.419 9.51538 26.419 9.53706 26.4619 9.53706V9.47202ZM28.2913 20.542C28.3323 20.542 28.3525 20.5204 28.3525 20.477H28.2913V20.542ZM28.4168 12.2053H28.3525H28.5428H28.4168ZM28.4168 23.4783H28.3525C28.3943 23.5223 28.4581 23.5434 28.5428 23.5434C28.4985 23.5 28.4578 23.4783 28.4168 23.4783ZM28.6063 20.5423L28.5426 20.61C28.5835 20.61 28.6063 20.5883 28.6063 20.5423ZM28.6683 12.2055H28.6063C28.6063 12.2516 28.6481 12.2733 28.7318 12.2733H28.9833C28.8985 12.2733 28.8348 12.2516 28.7938 12.2055H28.6683ZM28.9199 23.6116H28.9836C28.9836 23.5683 28.9631 23.5439 28.9199 23.5439H28.7944H28.6066H28.7321L28.9199 23.6116ZM29.2352 12.6716L29.174 12.6066C29.174 12.6499 29.1945 12.6716 29.2352 12.6716ZM29.4255 10.2048L29.4892 10.1371H29.3612L29.4255 10.2048ZM29.3609 21.4109L29.4252 21.4757H29.489L29.4252 21.4109H29.3609ZM29.9303 10.0717H29.8666L29.9303 10.1368C29.9721 10.1828 30.0128 10.2045 30.0558 10.2045C30.0976 10.2045 30.1383 10.2262 30.1813 10.2725C30.2223 10.3159 30.2661 10.3376 30.3068 10.3376C30.1378 10.2482 30.0322 10.1831 29.9915 10.1365L29.9303 10.0717ZM30.3076 21.6086C30.1386 21.5219 30.0331 21.4758 29.9924 21.4758L29.9303 21.4111L29.8666 21.3431C29.9514 21.4328 30.0126 21.4758 30.0561 21.4758C30.0979 21.5219 30.1386 21.5439 30.1816 21.5439C30.2229 21.5436 30.2667 21.5652 30.3076 21.6086ZM30.3722 10.3379V10.4056C30.4132 10.4489 30.4334 10.4489 30.4334 10.4056L30.3722 10.3379ZM30.4977 10.4709L30.6232 10.6037V10.5386L30.5589 10.4706L30.4977 10.4703V10.4709ZM30.6238 21.877V21.8093H30.5595L30.4983 21.7442L30.6238 21.877ZM30.7484 10.6032H30.6872C30.7698 10.6032 30.8127 10.6278 30.8127 10.6709C30.8127 10.5815 30.7903 10.5598 30.7484 10.6032ZM30.8127 21.9416L30.8739 22.0093V21.9416H30.8127C30.8127 21.8983 30.7897 21.8766 30.7484 21.8766V21.9416L30.6872 21.8766L30.8127 21.9416Z" fill="url(#paint0_linear_884_3)"/>
<defs>
<linearGradient id="paint0_linear_884_3" x1="31.6633" y1="2.03344" x2="0.615976" y2="31.3829" gradientUnits="userSpaceOnUse">
<stop stop-color="#29B7D3"/>
<stop offset="0.39339" stop-color="#A090D7"/>
<stop offset="0.794843" stop-color="#CE53DF"/>
<stop offset="1" stop-color="#A090D7"/>
<stop offset="1" stop-color="#90C0D7"/>
</linearGradient>
</defs>
</svg>
