<?xml version="1.0" encoding="utf-8"?>
<!-- Generator: Adobe Illustrator 24.0.2, SVG Export Plug-In . SVG Version: 6.00 Build 0)  -->
<svg version="1.1" id="Layer_1" xmlns="http://www.w3.org/2000/svg" xmlns:xlink="http://www.w3.org/1999/xlink" x="0px" y="0px"
	 viewBox="0 0 320 320" style="enable-background:new 0 0 320 320;" xml:space="preserve">
<style type="text/css">
	.st0{fill:#321A4C;}
	.st1{fill:#660099;}
	.st2{fill:#8533AD;}
	.st3{fill:#EB3D7D;}
	.st4{fill:#8300AA;}
	.st5{fill:#CC1F59;}
	.st6{fill:#FFB200;}
</style>
<g>
	<g>
		<path class="st0" d="M37.2,314.2L37.2,314.2c-5.6,0-9.3-5.8-7-10.8l20.9-45.7h16.8l-23.8,52C42.9,312.4,40.2,314.2,37.2,314.2z"/>
		<path class="st0" d="M281.6,314.2L281.6,314.2c5.6,0,9.3-5.8,7-10.8l-20.9-45.7h-16.8l23.8,52
			C275.9,312.4,278.6,314.2,281.6,314.2z"/>
	</g>
	<g>
		<path class="st1" d="M294.2,72.9H24.6c-10.1,0-18.4,8.2-18.4,18.4v171.8c0,10.1,8.2,18.4,18.4,18.4h269.7
			c10.1,0,18.4-8.2,18.4-18.4V91.2C312.6,81.1,304.4,72.9,294.2,72.9z"/>
		<g>
			<path class="st2" d="M294.8,83.2H24c-4.4,0-7.9,3.5-7.9,7.9v153.1c0,4.4,3.5,7.9,7.9,7.9h270.8c4.4,0,7.9-3.5,7.9-7.9V91.1
				C302.7,86.7,299.2,83.2,294.8,83.2z"/>
		</g>
	</g>
	<path class="st3" d="M166.2,269.1h-13.7c-1.1,0-1.9-0.9-1.9-1.9v-1.7c0-1.1,0.9-1.9,1.9-1.9h13.7c1.1,0,1.9,0.9,1.9,1.9v1.7
		C168.1,268.3,167.3,269.1,166.2,269.1z"/>
</g>
<g>
	<path class="st4" d="M101.1,149.3l-36.1,28.3c-3.4,3.9,8.8,12.2,14,12.5l40.2,2.8L101.1,149.3z"/>
	<g>
		<circle class="st4" cx="176.5" cy="138.6" r="86.8"/>
	</g>
</g>
<g>
	<path class="st5" d="M96,143.3l-31,33.8c-2.7,4.4,10.7,10.6,15.8,10.1l40.1-3.7L96,143.3z"/>
	<g>
		<circle class="st5" cx="168.6" cy="120.6" r="86.8"/>
	</g>
</g>
<g>
	<path class="st3" d="M83.6,140.1l-18.6,35.5c-2.4,4.5,1.5,9.9,6.5,9l39.6-6.4L83.6,140.1z"/>
	<g>
		<circle class="st3" cx="158.9" cy="114.3" r="85.3"/>
	</g>
</g>
<g>
	<path class="st6" d="M120.6,137.8c0,2.7-2.1,4.5-5,4.5h-4.7c-2.7,0-5-1.8-5-4.5V95.7c0-2.7,2.4-4.5,5-4.5h4.7c3,0,5,1.8,5,4.5v14.5
		h18.1V95.7c0-2.7,2.1-4.5,5-4.5h4.7c3,0,5,1.8,5,4.5v42.1c0,2.7-2.1,4.5-5,4.5h-4.5c-3,0-5-1.8-5-4.5v-15.7h-18.1v15.7H120.6z
		 M166.3,98.1c0-2.7,1.8-5,4.5-5.9c4.5-1.5,11.6-1.8,16.3-1.8c14.8,0,29.7,7.1,29.7,26.4c0,14.8-12.2,26.1-29.1,26.1
		c-5.3,0-11-0.3-15.4-0.6c-3.6-0.3-5.6-2.7-5.6-5V98.1H166.3z M187.7,102.5c-1.5,0-3.9,0-6.8,0.6v27.6c2.7,0.3,5.3,0.3,6.5,0.3
		c9.8,0,15.1-6.2,15.1-14.2C202.5,109.6,199,102.5,187.7,102.5z"/>
</g>
</svg>
