<svg width="50" height="60" viewBox="0 0 50 60" fill="none" xmlns="http://www.w3.org/2000/svg">
<path d="M19.3751 1.125H4.16675C1.97925 1.125 0.104248 3.25 0.104248 6V54.125C0.104248 56.75 1.87508 59 4.16675 59H19.3751C21.5626 59 23.4376 56.875 23.4376 54.125V6C23.4376 3.25 21.6667 1.125 19.3751 1.125V1.125Z" fill="#321A4C"/>
<path d="M20.9376 1.125H5.72925C3.54175 1.125 1.66675 3.25 1.66675 6V54.125C1.66675 56.75 3.43758 59 5.72925 59H20.9376C23.1251 59 25.0001 56.875 25.0001 54.125V6C25.0001 3.25 23.2292 1.125 20.9376 1.125Z" fill="#660096"/>
<path d="M20.625 3.25H19.1667C18.9583 3.25 18.75 3.5 18.75 3.75V4.5C18.75 5.125 18.3333 5.5 17.9167 5.5H8.85417C8.33333 5.5 8.02083 5 8.02083 4.5V3.75C8.02083 3.5 7.8125 3.25 7.60417 3.25H6.14583C4.47917 3.25 3.125 4.875 3.125 6.875V53.25C3.125 55.25 4.47917 56.875 6.14583 56.875H20.8333C22.5 56.875 23.8542 55.25 23.8542 53.25V6.875C23.6458 4.875 22.2917 3.25 20.625 3.25V3.25Z" fill="#EC6494"/>
<path d="M34.2709 53.875H10.6251C10.1042 53.875 9.79175 53.375 9.79175 52.875V11.625C9.79175 11 10.2084 10.625 10.6251 10.625H34.2709C34.7917 10.625 35.1042 11.125 35.1042 11.625V52.75C35.2084 53.375 34.7917 53.875 34.2709 53.875Z" fill="#E83D7D"/>
<path d="M35.2084 53.875H11.5626C11.0417 53.875 10.7292 53.375 10.7292 52.875V11.625C10.7292 11 11.1459 10.625 11.5626 10.625H35.2084C35.7292 10.625 36.0417 11.125 36.0417 11.625V52.75C36.1459 53.375 35.7292 53.875 35.2084 53.875Z" fill="#8233AA"/>
<path d="M33.6459 45.375H13.4376C13.0209 45.375 12.6042 44.875 12.6042 44.375V42C12.6042 41.5 13.0209 41 13.4376 41H33.1251C33.8542 41 34.3751 41.625 34.3751 42.5V44.375C34.3751 44.875 34.0626 45.375 33.6459 45.375V45.375ZM13.6459 44.125H33.3334V42.5C33.3334 42.375 33.2292 42.25 33.1251 42.25H13.6459V44.125V44.125Z" fill="#660096"/>
<path d="M13.3334 15.25H25.0001C25.1043 15.25 25.2084 15.125 25.2084 15V13.375C25.2084 13 24.8959 12.625 24.5834 12.625H13.3334C13.2293 12.625 13.1251 12.75 13.1251 12.875V15C13.0209 15.125 13.1251 15.25 13.3334 15.25ZM33.6459 13.625H28.9584C28.7501 13.625 28.6459 13.5 28.6459 13.25V13.125C28.6459 12.875 28.7501 12.75 28.9584 12.75H33.6459C33.8543 12.75 33.9584 12.875 33.9584 13.125V13.25C33.9584 13.5 33.8543 13.625 33.6459 13.625ZM33.6459 14.875H28.9584C28.7501 14.875 28.6459 14.75 28.6459 14.5V14.375C28.6459 14.125 28.7501 14 28.9584 14H33.6459C33.8543 14 33.9584 14.125 33.9584 14.375V14.5C33.9584 14.75 33.8543 14.875 33.6459 14.875Z" fill="#F7B238"/>
<path d="M26.5627 24.875H17.0835C16.5627 24.875 16.146 24.375 16.146 23.75V23.625C16.146 23 16.5627 22.5 17.0835 22.5H26.5627C27.0835 22.5 27.5002 23 27.5002 23.625V23.75C27.5002 24.375 27.0835 24.875 26.5627 24.875ZM14.1668 24.875H14.0627C13.5418 24.875 13.021 24.375 13.021 23.625V20.25C13.021 19.625 13.4377 19 14.0627 19H14.1668C14.6877 19 15.2085 19.5 15.2085 20.25V23.75C15.2085 24.375 14.7918 24.875 14.1668 24.875Z" fill="#791FA2"/>
<path d="M27.0835 27.625H28.1252V40.125H27.0835V27.625Z" fill="#660096"/>
<path d="M33.4377 41H13.5418C13.1252 41 12.7085 40.5 12.7085 40V27.875C12.7085 27.375 13.1252 26.875 13.5418 26.875H33.4377C33.8543 26.875 34.271 27.25 34.271 27.875V40C34.271 40.5 33.9585 41 33.4377 41ZM13.7502 39.75H33.2293V28.125H13.7502V39.75V39.75Z" fill="#660096"/>
<path d="M29.7918 24.125C29.5835 24 29.5835 23.75 29.5835 23.625L29.6877 23.25C29.7918 23 29.896 23 30.1043 23.125C30.4168 23.25 30.7293 23.375 31.146 23.375C31.4585 23.375 31.6668 23.25 31.6668 23C31.6668 22.875 31.5627 22.75 31.4585 22.625C31.3543 22.5 31.146 22.5 30.8335 22.375C30.2085 22.125 29.6877 21.875 29.6877 20.875C29.6877 20 30.2085 19.625 30.8335 19.5V19C30.8335 18.75 30.9377 18.625 31.146 18.625H31.4585C31.6668 18.625 31.771 18.75 31.771 19V19.5C32.0835 19.5 32.2918 19.625 32.5002 19.75C32.7085 19.875 32.8127 20 32.7085 20.25L32.6043 20.625C32.5002 20.875 32.396 21 32.1877 20.875C31.8752 20.75 31.5627 20.625 31.2502 20.625C30.9377 20.625 30.7293 20.75 30.7293 21C30.7293 21.375 31.0418 21.375 31.6668 21.625C32.2918 21.875 32.8127 22.125 32.8127 23C32.8127 23.875 32.396 24.25 31.6668 24.5V24.875C31.6668 25.125 31.4585 25.25 31.3543 25.25H31.0418C30.8335 25.25 30.7293 25.125 30.7293 24.875V24.5L29.7918 24.125Z" fill="#F7D84F"/>
<path d="M33.2292 50.875H13.8542C13.3334 50.875 12.9167 50.375 12.9167 49.75V47.875C12.9167 47.25 13.3334 46.75 13.8542 46.75H33.1251C33.6459 46.75 34.0626 47.25 34.0626 47.875V49.75C34.0626 50.375 33.6459 50.875 33.2292 50.875V50.875Z" fill="#660096"/>
</svg>
