<svg width="50" height="60" viewBox="0 0 50 60" fill="none" xmlns="http://www.w3.org/2000/svg">
<path d="M18.9814 2.11111L2.6388 5.88889C1.24991 6.22222 0.323988 7.83333 0.555469 9.55556L8.00917 56.5556C8.28695 58.2222 9.62954 59.3333 11.0647 59.0556L27.4073 55.3333C28.7962 55 29.7221 53.3889 29.4907 51.6667L22.037 4.61111C21.7129 2.94444 20.3703 1.83333 18.9814 2.11111V2.11111Z" fill="#660099"/>
<path d="M20.3242 1.77778L3.98158 5.5C2.59269 5.83333 1.66676 7.44444 1.89824 9.16667L9.35195 56.1667C9.62973 57.8333 10.9723 58.9444 12.4075 58.6667L28.7501 54.9444C30.139 54.6111 31.0649 53 30.8334 51.2778L23.3334 4.22222C23.0557 2.55556 21.7131 1.44444 20.3242 1.77778V1.77778Z" fill="#8533AD"/>
<path d="M27.1297 28.1667C26.6205 27.6667 25.8797 27.5556 25.2316 27.8889C24.6297 28.2222 24.2131 29 24.2131 29.7222C23.7501 28.7778 22.7316 28.4444 21.8982 28.8889C21.2964 29.2222 20.926 29.9444 20.8797 30.6667L19.1668 26.2778C18.7501 25.2222 17.639 24.6667 16.7131 25.1667C15.7871 25.6667 15.3242 27.0556 15.7408 28.1111C15.7408 28.1111 17.7316 33.1111 20.0001 39L17.7316 37C16.8982 36.4444 15.7408 36.5 15.139 37.4444C14.5371 38.4444 14.6297 39.7778 15.4631 40.5L21.6668 46.0556C24.3056 48.4445 27.8705 48.9444 30.2779 47.8889L27.1297 28.1667V28.1667Z" fill="#660099"/>
<path d="M20.2777 3.11111L17.9165 3.66667C17.7314 3.72222 17.5462 4 17.5925 4.27778L17.6851 5C17.7777 5.55556 17.4999 6.05556 16.9906 6.16667L8.37951 8.16667C7.91655 8.27778 7.49988 7.94444 7.40729 7.33333L7.3147 6.66667C7.2684 6.44444 7.03692 6.22222 6.80544 6.27778L4.44433 6.83333C3.4721 7.05556 2.77766 8.27778 2.96284 9.44444L10.324 55.6667C10.5091 56.8333 11.5277 57.6667 12.4999 57.4444L28.2869 53.8889C29.2591 53.6667 29.9536 52.4444 29.7684 51.2778L22.4536 4.88889C22.2684 3.66667 21.2962 2.88889 20.2777 3.11111V3.11111Z" fill="#FAB538"/>
<path d="M26.0649 27.6667C25.7871 27.6667 25.5094 27.7222 25.2316 27.8889C24.6297 28.2222 24.2131 29 24.2131 29.7222C23.7501 28.7778 22.7316 28.4444 21.8982 28.8889C21.2964 29.2222 20.926 29.9444 20.8797 30.6667L19.1668 26.2778C18.7501 25.2222 17.639 24.6667 16.7131 25.1667C15.7871 25.6667 15.3242 27.0556 15.7408 28.1111C15.7408 28.1111 17.7316 33.1111 20.0001 39L17.7316 37C16.8982 36.4444 15.7408 36.5 15.139 37.4444C14.5371 38.4444 14.6297 39.7778 15.4631 40.5L21.6668 46.0556C23.9816 48.1111 26.9445 48.7778 29.2594 48.2222L26.0649 27.6667V27.6667Z" fill="#EDA541"/>
<path d="M28.611 24.6667C27.9166 25.1111 27.5925 25.8889 27.6388 26.7222C27.0832 25.7778 26.0184 25.5556 25.1851 26.1667C24.6295 26.6111 24.3055 27.3889 24.3517 28.1667C23.7962 27.2778 22.7314 27.1111 21.9906 27.6667C21.4351 28.1111 21.111 28.8333 21.1573 29.6111L19.0277 25.5C18.5184 24.5 17.361 24.1111 16.4814 24.7778C15.6017 25.4444 15.2777 26.7778 15.7869 27.7778C15.7869 27.7778 18.2869 32.4444 21.111 38L18.6573 36.3333C17.7777 35.8889 16.6203 36.1667 16.111 37.1667C15.6017 38.2222 15.8332 39.5556 16.7129 40.1667L23.4721 44.7778C26.5277 46.8889 30.4166 46.7222 32.6388 45C34.861 43.3333 36.3888 40.2222 36.0184 37.3333C35.7406 35.5556 35.2777 33.8889 34.1203 31.6111C32.2221 27.9444 31.0184 25.6667 31.0184 25.6667C30.5092 24.6111 29.4906 24.1667 28.611 24.6667V24.6667Z" fill="#D83582"/>
<path d="M35.5556 37.1111C35.2315 33.4444 34.213 31.9444 33.2408 29.8889C32.963 29.3889 32.6852 28.7778 32.3149 28C31.4815 26.4444 30.9723 25.5556 30.9723 25.5556C30.463 24.6111 29.3982 24.1667 28.6112 24.6667C27.9167 25.1111 27.5927 25.8889 27.639 26.7222C27.0834 25.7778 26.0186 25.5556 25.1852 26.1667C24.6297 26.6111 24.3056 27.3889 24.3519 28.1667C23.7964 27.2778 22.7315 27.1111 21.9908 27.6667C21.4352 28.1111 21.1112 28.8333 21.1575 29.6111L19.0278 25.5C18.5186 24.5 17.3612 24.1111 16.4815 24.7778C16.389 24.8333 16.2964 24.9444 16.1575 25C17.3149 27.5556 20.139 32.7222 21.6667 35.3333C23.5649 38.6111 25.5556 42.8333 28.6575 43.7222C31.6667 44.6111 35.8797 40.7778 35.5556 37.1111Z" fill="#EB3D7D"/>
<path d="M15.7871 23.2778C15.6019 23.2778 15.3704 23.1111 15.3241 22.8333L13.9352 18.0556C13.8426 17.7222 13.9815 17.3889 14.2593 17.2222C14.5371 17.0556 14.8148 17.2778 14.9537 17.6111L16.3426 22.3889C16.4352 22.7222 16.2963 23.0556 16.0185 23.2222C15.926 23.2778 15.8797 23.2778 15.7871 23.2778V23.2778ZM13.9352 26.4444C13.8889 26.4444 13.8889 26.4444 13.9352 26.4444L10.6945 26.1111C10.4167 26.0556 10.1852 25.7778 10.2315 25.4444C10.2778 25.1111 10.5093 24.8333 10.7871 24.8889L13.9815 25.2778C14.2593 25.3333 14.4908 25.6111 14.4445 25.9444C14.3982 26.2222 14.213 26.4444 13.9352 26.4444ZM13.426 32.8889C13.3334 32.8889 13.2408 32.8333 13.1482 32.7778C12.8704 32.6111 12.8241 32.2222 13.0093 31.8889L14.3519 29.3889C14.4908 29.0556 14.8148 29 15.0926 29.2222C15.3704 29.3889 15.4167 29.7778 15.2315 30.1111L13.8889 32.5556C13.7963 32.7778 13.6111 32.8889 13.426 32.8889ZM18.7037 23.6111C18.6111 23.6111 18.5185 23.5556 18.3797 23.5C18.1945 23.3333 18.1019 22.8889 18.3334 22.6111L19.9074 20.3333C20.0463 20.1111 20.4167 20 20.6482 20.2778C20.8334 20.5 20.926 20.8889 20.6945 21.1667L19.1204 23.4444C19.0278 23.5556 18.8889 23.6111 18.7037 23.6111V23.6111Z" fill="#8533AD"/>
</svg>
