<svg width="50" height="60" viewBox="0 0 50 60" fill="none" xmlns="http://www.w3.org/2000/svg">
<path d="M20.1094 1.0875H4.71875C2.46875 1.10625 0.640625 3.28125 0.640625 5.98125L0.65625 54.5438C0.65625 57.2438 2.48437 59.4375 4.73437 59.4375H20.125C22.375 59.4375 24.2031 57.2438 24.2031 54.5438L24.1875 5.98125C24.1875 3.28125 22.3594 1.0875 20.1094 1.0875Z" fill="#321A4C"/>
<path d="M21.6563 1.03125H6.26563C4.01563 1.05 2.1875 3.24375 2.1875 5.94375L2.20313 54.5063C2.20313 57.2063 4.03125 59.4 6.28125 59.4H21.6719C23.9219 59.4 25.75 57.2063 25.75 54.5063L25.7344 5.94375C25.7344 3.225 23.9063 1.03125 21.6563 1.03125Z" fill="#660099"/>
<path d="M21.3594 3.225H19.8594C19.6094 3.225 19.4219 3.46875 19.4219 3.75V4.5C19.4219 5.08125 19.0313 5.55 18.5469 5.55H9.35938C8.875 5.55 8.48438 5.08125 8.48438 4.5V3.75C8.48438 3.45 8.28125 3.225 8.04688 3.225H6.54688C4.89063 3.225 3.53125 4.8375 3.53125 6.84375L3.54688 53.6062C3.54688 55.5937 4.89063 57.225 6.5625 57.225H21.3906C23.0469 57.225 24.4063 55.6125 24.4063 53.6062L24.3906 6.84375C24.3594 4.8375 23.0156 3.225 21.3594 3.225Z" fill="#EC6494"/>
<path d="M12.7501 4.35H15.3438C15.4063 4.35 15.4532 4.29375 15.4532 4.21875C15.4532 4.14375 15.4063 4.0875 15.3438 4.0875H12.7501C12.6876 4.0875 12.6407 4.14375 12.6407 4.21875C12.6251 4.29375 12.6719 4.35 12.7501 4.35ZM15.9063 4.35H16.2188C16.2813 4.35 16.3282 4.29375 16.3282 4.21875C16.3282 4.14375 16.2813 4.0875 16.2188 4.0875H15.9063C15.8438 4.0875 15.7969 4.14375 15.7969 4.21875C15.7969 4.29375 15.8438 4.35 15.9063 4.35Z" fill="#C299D6"/>
<path d="M24.3921 13.5206C20.7577 13.695 18.0108 17.4019 18.3468 21.5569C18.7062 25.8131 21.3937 27.3694 21.8155 27.5944C22.2374 27.8194 22.4249 28.2131 22.2843 29.0006C22.2218 29.3944 21.9405 29.5631 21.6905 29.6194C21.4562 29.6756 21.2062 29.6756 20.9874 29.6006C20.4562 29.4319 18.8937 28.9819 16.4874 28.2881C13.4562 27.4256 13.003 30.2569 13.003 30.2569L12.7374 31.4944C12.3624 33.3881 13.5655 34.5319 14.1124 34.9444C14.253 35.0569 14.4249 35.1319 14.5968 35.1881C15.3937 35.4319 18.1905 36.2381 19.003 36.5006C19.9405 36.8006 20.3937 37.3444 20.4874 38.5444C20.5812 39.7444 19.9874 40.6069 19.9874 40.6069C19.3312 41.5631 15.8624 46.5881 15.2843 47.3756C14.6905 48.1631 14.5343 48.6506 14.4718 49.5694C14.4093 50.4881 14.7687 51.0506 14.9874 51.4444C15.2062 51.8381 15.8155 52.4194 16.3155 52.8506C16.7999 53.2819 17.5655 53.4506 18.253 53.3381C18.9405 53.2256 19.5812 52.6256 19.7999 52.3069C20.0343 51.9881 23.3937 47.0006 23.628 46.6631C23.8187 46.3894 23.9874 46.0425 24.403 45.8906L24.3921 13.5206Z" fill="#DA5794"/>
<path d="M29.9344 34.7962C30.1219 34.6087 30.3407 34.4775 30.5907 34.4025C31.4344 34.14 34.0594 33.3712 34.9344 33.1087C35.9813 32.8087 37.4188 31.6275 36.7938 28.5337C36.1688 25.44 33.6063 26.0212 33.6063 26.0212C33.6063 26.0212 29.3719 27.2212 28.4969 27.465C27.6219 27.7087 27.4188 26.8087 27.4188 26.8087C27.4188 26.8087 27.1532 25.89 27.9813 25.3837C29.4501 24.4837 31.3407 22.0837 31.3563 18.4837C31.3563 14.8837 28.6219 11.415 24.8563 11.3962C21.0907 11.3962 18.2001 15.1837 18.5438 19.44C18.9032 23.6962 21.5907 25.2525 22.0126 25.4775C22.4344 25.7025 22.6219 26.0962 22.4813 26.8837C22.4188 27.2775 22.1376 27.4462 21.8876 27.5025C21.6532 27.5587 21.4032 27.5587 21.1844 27.4837C20.6532 27.315 19.0907 26.865 16.6844 26.1712C13.6688 25.3275 13.2157 28.14 13.2157 28.14L12.9501 29.3775C12.5751 31.2712 13.7782 32.415 14.3251 32.8275C14.4657 32.94 14.6376 33.015 14.8094 33.0712C15.6063 33.315 18.4032 34.1212 19.2157 34.3837C20.1532 34.6837 20.6063 35.2275 20.7001 36.4275C20.7938 37.6275 20.2001 38.49 20.2001 38.49C19.5438 39.4462 16.0751 44.4712 15.4969 45.2587C14.9032 46.0462 14.7469 46.5337 14.6844 47.4525C14.6219 48.3712 14.9813 48.9337 15.2001 49.3275C15.4188 49.7212 16.0282 50.3025 16.5282 50.7337C17.0126 51.165 17.7782 51.3337 18.4657 51.2212C19.1532 51.1087 19.7938 50.5087 20.0126 50.19C20.2469 49.8712 23.6063 44.8837 23.8407 44.5462C24.0751 44.2087 24.2782 43.7587 24.9501 43.7025C25.5126 43.665 25.8251 44.1712 25.9344 44.3587C25.9657 44.415 25.9969 44.4712 26.0438 44.5275C26.4501 45.1275 28.5282 48.2025 29.6376 49.7587C30.8719 51.4837 32.0282 51.915 34.1063 50.04C36.1688 48.165 34.7313 46.0837 34.7313 46.0837C34.7313 46.0837 30.5594 40.1587 29.8876 38.9962C29.2157 37.8337 29.2157 37.1962 29.2469 36.4087C29.2469 35.6587 29.6219 35.115 29.9344 34.7962Z" fill="#FF9600"/>
<path d="M30.0001 33.5625C30.1876 33.375 30.4064 33.2437 30.6564 33.1687C31.5001 32.9062 34.1251 32.1375 35.0001 31.875C36.047 31.575 37.4845 30.3938 36.8595 27.3C36.2345 24.2063 33.672 24.7875 33.672 24.7875C33.672 24.7875 29.4376 25.9875 28.5626 26.2312C27.6876 26.475 27.4845 25.575 27.4845 25.575C27.4845 25.575 27.2189 24.6563 28.047 24.15C29.5157 23.25 31.4064 20.85 31.422 17.25C31.422 13.65 28.6876 10.1812 24.922 10.1625C21.1564 10.1625 18.2657 13.95 18.6095 18.2062C18.9689 22.4625 21.6564 24.0188 22.0782 24.2438C22.5001 24.4688 22.6876 24.8625 22.547 25.65C22.4845 26.0438 22.2032 26.2125 21.9532 26.2688C21.7189 26.325 21.4689 26.325 21.2501 26.25C20.7189 26.0813 19.1564 25.6313 16.7501 24.9375C13.7345 24.0938 13.2814 26.9063 13.2814 26.9063L13.0157 28.1438C12.6407 30.0375 13.8439 31.1813 14.3907 31.5938C14.5314 31.7063 14.7032 31.7813 14.8751 31.8375C15.672 32.0813 18.4689 32.8875 19.2814 33.15C20.2189 33.45 20.672 33.9938 20.7657 35.1938C20.8595 36.3938 20.2657 37.2563 20.2657 37.2563C19.6095 38.2125 16.1407 43.2375 15.5626 44.025C14.9689 44.8125 14.8126 45.3 14.7501 46.2188C14.6876 47.1375 15.047 47.7 15.2657 48.0938C15.4845 48.4875 16.0939 49.0688 16.5939 49.5C17.0782 49.9313 17.8439 50.1 18.5314 49.9875C19.2189 49.875 19.8595 49.275 20.0782 48.9563C20.3126 48.6375 23.672 43.65 23.9064 43.3125C24.1407 42.975 24.3439 42.525 25.0157 42.4688C25.5782 42.4313 25.8907 42.9375 26.0001 43.125C26.0314 43.1813 26.0626 43.2375 26.1095 43.2938C26.5157 43.8938 28.5939 46.9687 29.7032 48.525C30.9376 50.25 32.0939 50.6812 34.172 48.8062C36.2345 46.9312 34.797 44.85 34.797 44.85C34.797 44.85 30.6251 38.925 29.9532 37.7625C29.2814 36.6 29.2814 35.9625 29.3126 35.175C29.3126 34.425 29.6876 33.8813 30.0001 33.5625Z" fill="#FADB4F"/>
</svg>
