<?xml version="1.0" encoding="utf-8"?>
<!-- Generator: Adobe Illustrator 23.0.1, SVG Export Plug-In . SVG Version: 6.00 Build 0)  -->
<svg version="1.1" id="Layer_1" xmlns="http://www.w3.org/2000/svg" xmlns:xlink="http://www.w3.org/1999/xlink" x="0px" y="0px"
	 viewBox="0 0 252 252" style="enable-background:new 0 0 252 252;" xml:space="preserve">
<style type="text/css">
	.st0{fill:#00ABDB;}
	.st1{fill:#FAB538;}
	.st2{fill:#EDA541;}
	.st3{fill:#CC1F59;}
	.st4{fill:#EB3D7D;}
</style>
<path class="st0" d="M237.4,48.7h-221c-4.3,0-7.8,3.5-7.8,7.8v157.3c0,4.3,3.5,7.8,7.8,7.8h11.3l-8.6,18.8c-1.9,4.2,1.2,9.1,5.8,9.1
	c2.5,0,4.8-1.5,5.8-3.8l11-24.1h171.1l11,24.1c1,2.3,3.3,3.8,5.8,3.8h0c4.7,0,7.8-4.8,5.8-9.1l-8.6-18.8h10.4c4.3,0,7.8-3.5,7.8-7.8
	V56.5C245.1,52.2,241.7,48.7,237.4,48.7z"/>
<path class="st1" d="M233.5,56.6H20.3c-1.7,0-3,1.3-3,3v150.2c0,1.7,1.3,3,3,3h213.2c1.7,0,3-1.3,3-3V59.6
	C236.5,57.9,235.1,56.6,233.5,56.6z"/>
<path class="st2" d="M145.5,139c1.2-0.4,2.3-0.4,3.4-0.2c4,0.6,16.7,2.5,20.9,3.3c5,0.8,13.1-0.8,15-13.2c0.3-1.7,1.2-8.1,1-9.5
	c-1.2-8.4-11-5.4-11-5.4s-20.3-3.4-24.5-4.1c-4.2-0.7-3.6-4.3-3.6-4.3s0.2-3.8,4.6-4.1c7.8-0.6,19.7-5.8,25.2-18.9
	c0.7-1.6,2-8.5,2.3-10.3c2.2-12.2-5.4-21.2-19.7-27.2C142.9,38.2,125,41,120,57c-1.2,3.9-2.1,13.1-1.9,16.3
	c0.5,10,6.1,16.4,7.3,17.5c1.5,1.5,1.7,3.3-0.1,5.9c-0.9,1.3-2.3,1.4-3.6,1.2c-1.1-0.3-2.2-0.8-3-1.3c-2.1-1.5-8.1-6-17.5-13
	C89.3,74.9,83,84.3,83,84.3l-3.3-0.9c-1.7,2.3-2,9.6-2,11.7c0.1,3.6,1.9,6.7,2.9,8.2c0.5,0.7,1,1.3,1.7,1.8
	c3.1,2.3,14,10.4,17.1,12.7c3.6,2.8,4.7,5.6,3.3,10.1c-1.4,4.6-5.3,6.6-5.3,6.6c-4.4,2.4-27,14.1-30.8,16c-3.8,1.8-5.1-2.1-6.8,1.1
	c-0.7,1.3-1.1,7.9-1.2,9c-0.1,1.6,0.2,3,0.4,4.1c0.3,1.8,2.2,5.1,3.6,7.4c1.5,2.5,4.5,4.4,7.7,5.4c3.2,0.8,6.8-0.2,8.3-0.9
	c1.4-0.8,23.8-12.6,25.2-13.4c1.5-0.8,3.1-2.1,6.1-0.9c2.4,0.9,3.1,3.4,3.3,4.1c0,0.3,0.1,0.6,0.2,0.8c0.9,2.9,5.3,17.8,7.7,25.5
	c2.7,8.4,7.1,12.2,19,9.1c5.9-1.5,8.1-4.8,8.8-7.7s1-11.1,1-11.1s-10.1-23.4-11.2-28.8c-1.2-5.4-0.2-7.8,1.1-10.5
	C141.1,140.7,143.6,139.5,145.5,139L145.5,139z"/>
<path class="st3" d="M145.5,128.9c1.2-0.4,2.3-0.4,3.4-0.2c4,0.6,16.7,2.5,20.9,3.3c5,0.8,13.1-0.8,15-13.2c0.3-1.7,1.2-8.1,1-9.5
	c-1.2-8.4-11-5.4-11-5.4s-20.3-3.4-24.5-4.1c-4.2-0.7-3.6-4.3-3.6-4.3s0.2-3.8,4.6-4.1c7.8-0.6,19.7-5.8,25.2-18.9
	c0.7-1.6,2-8.5,2.3-10.3C181.1,50,173.4,41,159.2,35c-16.3-6.9-34.2-4.1-39.2,11.9c-1.2,3.9-2.1,13.1-1.9,16.3
	c0.5,10,6.1,16.4,7.3,17.5c1.5,1.5,1.7,3.3-0.1,5.9c-0.9,1.3-2.3,1.4-3.6,1.2c-1.1-0.3-2.2-0.8-3-1.3c-2.1-1.5-8.1-6-17.5-13
	C89.3,64.8,83,74.2,83,74.2l-3.3-0.9c-1.7,2.3-2,9.6-2,11.7c0.1,3.6,1.9,6.7,2.9,8.2c0.5,0.7,1,1.3,1.7,1.8
	c3.1,2.3,14,10.4,17.1,12.7c3.6,2.8,4.7,5.6,3.3,10.1c-1.4,4.6-5.3,6.6-5.3,6.6c-4.4,2.4-27,14.1-30.8,16c-3.8,1.8-5.1-2.1-6.8,1.1
	c-0.7,1.3-1.1,7.9-1.2,9c-0.1,1.6,0.2,3,0.4,4.1c0.3,1.8,2.2,5.1,3.6,7.4c1.5,2.5,4.5,4.4,7.7,5.4c3.2,0.8,6.8-0.2,8.3-0.9
	c1.4-0.8,23.8-12.6,25.2-13.4c1.5-0.8,3.1-2.1,6.1-0.9c2.4,0.9,3.1,3.4,3.3,4.1c0,0.3,0.1,0.6,0.2,0.8c0.9,2.9,5.3,17.8,7.7,25.5
	c2.7,8.4,7.1,12.2,19,9.1c5.9-1.5,8.1-4.8,8.8-7.7s1-11.1,1-11.1s-10.1-23.4-11.2-28.8c-1.2-5.4-0.2-7.8,1.1-10.5
	C141.1,130.6,143.6,129.4,145.5,128.9L145.5,128.9z"/>
<path class="st4" d="M146.4,121.3c1.2-0.4,2.3-0.4,3.4-0.2c4,0.6,16.7,2.5,20.9,3.3c5,0.8,13.1-0.8,15-13.2c2-12.4-10-14.9-10-14.9
	s-20.3-3.4-24.5-4.1c-4.2-0.7-3.6-4.3-3.6-4.3s0.2-3.8,4.6-4.1c7.8-0.6,19.7-5.8,25.2-18.9c5.5-13.1-1-30.6-17.4-37.5
	S125.4,29,120.4,45s4.3,26.6,5.9,28.1c1.5,1.5,1.7,3.3-0.1,5.9c-0.9,1.3-2.3,1.4-3.6,1.2c-1.1-0.3-2.2-0.8-3-1.3
	c-2.1-1.5-8.1-6-17.5-13c-11.9-8.6-18.1,0.8-18.1,0.8l-3.1,4c-4.4,6.2-0.9,12.6,0.8,15c0.5,0.7,1,1.3,1.7,1.8
	c3.1,2.3,14,10.4,17.1,12.7c3.6,2.8,4.7,5.6,3.3,10.1c-1.4,4.6-5.3,6.6-5.3,6.6c-4.4,2.4-27,14.1-30.8,16c-3.8,1.8-5.2,3.2-6.9,6.5
	c-1.7,3.1-1,5.9-0.7,7.7c0.3,1.8,2.2,5.1,3.6,7.4c1.5,2.5,4.5,4.4,7.7,5.4c3.2,0.8,6.8-0.2,8.3-0.9c1.4-0.8,23.8-12.6,25.2-13.4
	c1.5-0.8,3.1-2.1,6.1-0.9c2.4,0.9,3.1,3.4,3.3,4.1c0,0.3,0.1,0.6,0.2,0.8c0.9,2.9,5.3,17.8,7.7,25.5c2.7,8.4,7.1,12.2,19,9.1
	c11.8-3,8.8-13.1,8.8-13.1s-9.1-29.1-10.2-34.5c-1.2-5.4-0.2-7.8,1.1-10.5C142,123.1,144.5,121.9,146.4,121.3L146.4,121.3z"/>
</svg>
