<?xml version="1.0" encoding="utf-8"?>
<!-- Generator: Adobe Illustrator 24.0.3, SVG Export Plug-In . SVG Version: 6.00 Build 0)  -->
<svg version="1.1" id="Layer_1" xmlns="http://www.w3.org/2000/svg" xmlns:xlink="http://www.w3.org/1999/xlink" x="0px" y="0px"
	 viewBox="0 0 320 320" style="enable-background:new 0 0 320 320;" xml:space="preserve">
<style type="text/css">
	.st0{fill:#660099;}
	.st1{fill:#8533AD;}
	.st2{fill:#EF6497;}
	.st3{fill:#FF9900;}
	.st4{fill:#FA6324;}
	.st5{fill:#55057F;}
	.st6{fill:#EB3D7D;}
	.st7{fill:#FADB4F;}
</style>
<g>
	<path class="st0" d="M130.8,8H34.3C20.2,8,8.8,19.5,8.8,33.6l0.1,253.6c0,14.1,11.4,25.5,25.5,25.5h96.4
		c14.1,0,25.5-11.4,25.5-25.5l-0.1-253.6C156.3,19.4,144.9,8,130.8,8z"/>
	<path class="st1" d="M140.4,7.7L44,7.8c-14.1,0-25.5,11.4-25.5,25.5l0.1,253.6c0,14.1,11.4,25.5,25.5,25.5h96.4
		c14.1,0,25.5-11.4,25.5-25.5V33.3C166,19.2,154.5,7.7,140.4,7.7z"/>
	<g>
		<path class="st2" d="M138.6,19.1h-9.4c-1.5,0-2.8,1.2-2.8,2.8v3.9c0,3-2.4,5.5-5.5,5.5H63.4c-3,0-5.5-2.4-5.5-5.5v-3.9
			c0-1.5-1.2-2.8-2.8-2.8h-9.4c-10.4,0-18.9,8.5-18.9,18.9l0.1,244.2c0,10.4,8.5,18.9,18.9,18.9h92.9c10.4,0,18.9-8.5,18.9-18.9
			L157.4,38C157.4,27.5,149,19.1,138.6,19.1z"/>
		<path class="st0" d="M84.6,25h16.3c0.4,0,0.7-0.3,0.7-0.7c0-0.4-0.3-0.7-0.7-0.7H84.6c-0.4,0-0.7,0.3-0.7,0.7
			C83.9,24.7,84.2,25,84.6,25z"/>
		<path class="st0" d="M104.4,25h2c0.4,0,0.7-0.3,0.7-0.7c0-0.4-0.3-0.7-0.7-0.7h-2c-0.4,0-0.7,0.3-0.7,0.7
			C103.7,24.7,104,25,104.4,25z"/>
	</g>
</g>
<path class="st3" d="M123.4,122.1H168c3.7,0,6.8-3,6.8-6.8V70.8c0-3.7-3-6.8-6.8-6.8h-44.6c-3.7,0-6.8,3-6.8,6.8v44.6
	C116.6,119.1,119.7,122.1,123.4,122.1z"/>
<path class="st4" d="M200.9,221.9h29.7c3,0,5.4-2.4,5.4-5.4v-29.7c0-3-2.4-5.4-5.4-5.4h-29.7c-3,0-5.4,2.4-5.4,5.4v29.7
	C195.6,219.5,198,221.9,200.9,221.9z"/>
<path class="st5" d="M47.5,122.1H92c3.7,0,6.8-3,6.8-6.8V70.8c0-3.7-3-6.8-6.8-6.8H47.5c-3.7,0-6.8,3-6.8,6.8v44.6
	C40.7,119.1,43.7,122.1,47.5,122.1z"/>
<path class="st6" d="M258.9,142.7h25.7c2.6,0,4.7-2.1,4.7-4.7v-25.7c0-2.6-2.1-4.7-4.7-4.7h-25.7c-2.6,0-4.7,2.1-4.7,4.7V138
	C254.2,140.6,256.3,142.7,258.9,142.7z"/>
<path class="st0" d="M123.4,196.3H168c3.7,0,6.8-3,6.8-6.8V145c0-3.7-3-6.8-6.8-6.8h-44.6c-3.7,0-6.8,3-6.8,6.8v44.6
	C116.6,193.3,119.7,196.3,123.4,196.3z"/>
<path class="st4" d="M47.5,196.3H92c3.7,0,6.8-3,6.8-6.8V145c0-3.7-3-6.8-6.8-6.8H47.5c-3.7,0-6.8,3-6.8,6.8v44.6
	C40.7,193.3,43.7,196.3,47.5,196.3z"/>
<path class="st7" d="M123.4,270H168c3.7,0,6.8-3,6.8-6.8v-44.6c0-3.7-3-6.8-6.8-6.8h-44.6c-3.7,0-6.8,3-6.8,6.8v44.6
	C116.6,267,119.7,270,123.4,270z"/>
<path class="st1" d="M198.5,129.7h20.3c2,0,3.7-1.6,3.7-3.7v-20.3c0-2-1.6-3.7-3.7-3.7h-20.3c-2,0-3.7,1.6-3.7,3.7V126
	C194.8,128.1,196.5,129.7,198.5,129.7z"/>
<path class="st1" d="M47.5,270H92c3.7,0,6.8-3,6.8-6.8v-44.6c0-3.7-3-6.8-6.8-6.8H47.5c-3.7,0-6.8,3-6.8,6.8v44.6
	C40.7,267,43.7,270,47.5,270z"/>
</svg>
