<svg version="1.1" id="Layer_1" xmlns="http://www.w3.org/2000/svg" x="0" y="0" viewBox="0 0 108 108" xml:space="preserve"><style>.st0{fill:#609}</style><path class="st0" d="M96.72 21.3c0 58.06-35.47 75.1-41.76 79.04-.53.32-1.28.32-1.92 0-6.28-3.83-41.76-20.99-41.76-79.04 0-1.28 1.07-2.24 2.34-2.34h1.28c13.42.21 26.63-3.73 37.82-11.29.75-.53 1.81-.53 2.66 0A67.257 67.257 0 0 0 93.2 18.96h1.28c1.17.11 2.24 1.06 2.24 2.34z"/><path d="M54 90.01c-9.48-5.54-30.89-21.73-33.02-61.68 11.61-.85 22.9-4.26 33.02-10.12 10.12 5.86 21.41 9.27 33.13 10.12C84.89 68.28 63.59 84.47 54 90.01z" fill="#8533ad"/><path d="M64.66 56.56h-3V38.88c0-4.04-3.41-7.45-7.45-7.45s-7.45 3.41-7.45 7.45v17.68h-3V38.88c0-5.76 4.69-10.45 10.45-10.45s10.45 4.69 10.45 10.45v17.68z" fill="#fadb4f"/><path d="M66.04 46.03H41.53c-1.49 0-2.77 1.28-2.88 2.88v18.54c0 1.6 1.28 2.88 2.88 2.88H66.04c1.6 0 2.88-1.28 2.88-2.88V48.91a2.874 2.874 0 0 0-2.88-2.88z" fill="#791fa5"/><path d="M47.5 43.03h18.54c1.6 0 2.88 1.28 2.88 2.88v18.54c0 1.6-1.28 2.88-2.88 2.88H47.5c-1.6 0-2.88-1.28-2.88-2.88V45.91c.01-1.6 1.28-2.88 2.88-2.88z" fill="#eda541"/><path d="M41.54 43.03h18.54c1.6 0 2.88 1.28 2.88 2.88v18.54c0 1.6-1.28 2.88-2.88 2.88H41.54c-1.6 0-2.88-1.28-2.88-2.88V45.91c.11-1.6 1.39-2.88 2.88-2.88z" fill="#fab538"/><path class="st0" d="M54.75 51.87c0-2.24-1.81-3.94-3.94-3.94-.43 0-.85.11-1.28.21a4.344 4.344 0 0 0-2.56 2.56c-.53 1.6 0 3.3 1.38 4.37.64.43.96 1.17.85 1.92v3.83c0 .85.64 1.49 1.49 1.49s1.49-.64 1.49-1.49v-3.83c0-.75.32-1.49.96-1.92.97-.75 1.61-1.92 1.61-3.2z"/></svg>