<svg id="Camada_1" data-name="Camada 1" xmlns="http://www.w3.org/2000/svg" viewBox="0 0 320 320"><defs><style>.cls-1{fill:#609;}.cls-2{fill:#8533ad;}.cls-3{fill:#791fa5;}.cls-10,.cls-11,.cls-15,.cls-3,.cls-4,.cls-5,.cls-7,.cls-8,.cls-9{fill-rule:evenodd;}.cls-13,.cls-4{fill:#a8021a;}.cls-14,.cls-5{fill:#fd0121;}.cls-6,.cls-9{fill:#fff;}.cls-7{fill:#1387d1;}.cls-8{fill:#00abd6;}.cls-11{fill:#191919;}.cls-12{fill:#d3011c;}.cls-15{fill:#bcbcbc;}.cls-16{fill:#282828;}.cls-17{fill:#fe0000;}.cls-18{fill:#fefefe;}</style></defs><path class="cls-1" d="M304.2,47.9H14.7A10.2,10.2,0,0,0,4.4,58.1V264a10.2,10.2,0,0,0,10.3,10.3H29.5L18.3,298.8a8.3,8.3,0,0,0,7.6,11.7,7.9,7.9,0,0,0,7.5-4.8l14.5-31.4h224l14.5,31.4a8.3,8.3,0,0,0,7.6,4.8c6,0,10.2-6.3,7.5-11.7l-11.2-24.5h13.6A10.2,10.2,0,0,0,314.2,264V58.1A10.1,10.1,0,0,0,304.2,47.9Z"/><path class="cls-2" d="M300.6,58.1H18.3a2.6,2.6,0,0,0-2.4,2.4V260.4a2.6,2.6,0,0,0,2.4,2.4H300.6a2.6,2.6,0,0,0,2.4-2.4V60.5A2.6,2.6,0,0,0,300.6,58.1Z"/><path class="cls-3" d="M132.5,146.2H73.7a20.6,20.6,0,0,0-20.6,20.6v58.8a20.6,20.6,0,0,0,20.6,20.6h58.8a20.6,20.6,0,0,0,20.6-20.6V166.8A20.6,20.6,0,0,0,132.5,146.2Z"/><path class="cls-4" d="M132.5,140.5H73.7a20.6,20.6,0,0,0-20.6,20.6V220a20.6,20.6,0,0,0,20.6,20.6h58.8A20.6,20.6,0,0,0,153.1,220V161.1A20.6,20.6,0,0,0,132.5,140.5Z"/><path class="cls-5" d="M132.5,133.1H73.7a20.6,20.6,0,0,0-20.6,20.6v58.9a20.6,20.6,0,0,0,20.6,20.6h58.8a20.6,20.6,0,0,0,20.6-20.6V153.8A20.7,20.7,0,0,0,132.5,133.1Z"/><path class="cls-6" d="M142.2,163.2a69,69,0,0,1,1.5,12.3v14.9a67.9,67.9,0,0,1-1.5,12.4,10.5,10.5,0,0,1-2.7,4.5,10.2,10.2,0,0,1-4.6,2.7c-2.6.7-8.6,1.2-18.3,1.5H89.5q-14.2-.5-18.3-1.5a10.2,10.2,0,0,1-4.6-2.7,10.5,10.5,0,0,1-2.7-4.5,67.9,67.9,0,0,1-1.5-12.4v-7.5c0-2.2,0-4.7.1-7.4a69,69,0,0,1,1.5-12.3,10.6,10.6,0,0,1,7.3-7.3c2.7-.7,8.7-1.2,18.3-1.5h13.6l13.5.2q14.4.5,18.3,1.5a10.2,10.2,0,0,1,4.6,2.7A9.9,9.9,0,0,1,142.2,163.2ZM94.6,195.3,116,183,94.6,170.9Z"/><path class="cls-3" d="M248.5,22.4H189.7A20.6,20.6,0,0,0,169.1,43v58.9a20.7,20.7,0,0,0,20.6,20.6h58.8a20.6,20.6,0,0,0,20.6-20.6V43A20.6,20.6,0,0,0,248.5,22.4Z"/><path class="cls-7" d="M249.2,15.9H190.4a20.7,20.7,0,0,0-20.7,20.6V95.4A20.7,20.7,0,0,0,190.4,116h58.8a20.7,20.7,0,0,0,20.6-20.6V36.5A20.6,20.6,0,0,0,249.2,15.9Z"/><path class="cls-8" d="M249.2,8.5H190.4a20.7,20.7,0,0,0-20.7,20.6V88a20.7,20.7,0,0,0,20.7,20.6h58.8A20.6,20.6,0,0,0,269.8,88V29.2A20.7,20.7,0,0,0,249.2,8.5Z"/><path id="path8-8" class="cls-9" d="M246.8,40.6a6.4,6.4,0,0,1-2.5-.3,3.6,3.6,0,0,0,1,2.5,4.1,4.1,0,0,0,2.7.7h1.3l1.9-.3a.1.1,0,0,0,.1-.1h.1c.3,0,.5.2.5.6v1.2a1.4,1.4,0,0,1-.2.6c0,.1-.2.1-.4.3a10,10,0,0,1-3.9.7,6.5,6.5,0,0,1-4.8-1.7,7.2,7.2,0,0,1-1.7-5,7.7,7.7,0,0,1,1.7-5.2,6.4,6.4,0,0,1,4.8-1.9,5.3,5.3,0,0,1,3.7,1.2,3.8,3.8,0,0,1,1.4,3.1,3.4,3.4,0,0,1-1.4,2.9,10,10,0,0,1-4.3.8Zm.3-5.5c-1.6,0-2.5,1-2.8,3.1h2.3a3.9,3.9,0,0,0,1.8-.3,1.5,1.5,0,0,0,.6-1.3c0-1.1-.6-1.6-1.9-1.6Zm-24.6-.9a8.9,8.9,0,0,1,2.4-1.2,5.4,5.4,0,0,1,2.2-.4,3.5,3.5,0,0,1,3.2,1.6,9,9,0,0,1,2.4-1.2,5.9,5.9,0,0,1,2.3-.4,3.5,3.5,0,0,1,3.8,3.8v9a.5.5,0,0,1-.2.4c-.1.2-.2.2-.5.2h-2.4a.5.5,0,0,1-.4-.2c-.2-.1-.2-.2-.2-.4V37.2q0-1.8-1.5-1.8a7.2,7.2,0,0,0-2.8.7v9.3c0,.2,0,.3-.1.4s-.2.2-.5.2h-2.4a.6.6,0,0,1-.5-.2c-.2-.1-.2-.2-.2-.4V37.2q0-1.8-1.5-1.8a7.7,7.7,0,0,0-2.8.7v9.2a.7.7,0,0,1-.1.5h-3.4c-.2-.1-.2-.3-.2-.5V33.6a.8.8,0,0,1,.2-.5h2.3a.7.7,0,0,1,.7.5Zm-10.2-.6a4.3,4.3,0,0,1,.1-.5h2.9c.3,0,.5,0,.5.1a.7.7,0,0,1,.1.5V45.3a.7.7,0,0,1-.1.5c0,.1-.2.1-.5.1h-2.9a.7.7,0,0,1-.1-.5Zm1.9-2.6a2.1,2.1,0,0,1-1.6-.6,2.5,2.5,0,0,1-.5-1.5,2,2,0,0,1,.5-1.4,2.1,2.1,0,0,1,1.6-.6,2,2,0,0,1,1.5.6,1.6,1.6,0,0,1,.5,1.4,2,2,0,0,1-.5,1.5A2,2,0,0,1,214.2,31Zm-8.5,3.9a8.5,8.5,0,0,1,1.9-1.6,4.9,4.9,0,0,1,1.9-.5h.9a.7.7,0,0,1,.1.5v2.2a.9.9,0,0,1-.1.5h-1.6a3.6,3.6,0,0,0-1.4.2,3.9,3.9,0,0,0-1.4.4v8.6c0,.2-.1.3-.1.4a.6.6,0,0,1-.5.2H203a.6.6,0,0,1-.5-.2c-.2-.1-.2-.2-.2-.4V33.7c0-.3.1-.5.2-.5a.6.6,0,0,1,.5-.2h1.8a.7.7,0,0,1,.7.6Zm-18.6-1.3a4.3,4.3,0,0,1,.1-.5h2.4a.6.6,0,0,1,.6.5l.2.7a6.9,6.9,0,0,1,1.9-1.2,5.4,5.4,0,0,1,2.2-.4,4.5,4.5,0,0,1,3.8,1.8,7.4,7.4,0,0,1,1.5,4.9,10.6,10.6,0,0,1-.7,3.7,6.5,6.5,0,0,1-1.9,2.4,5.1,5.1,0,0,1-2.8.8,6.9,6.9,0,0,1-2-.3,5.1,5.1,0,0,1-1.6-.9v5.5c0,.3,0,.4-.1.5h-3.4c-.1-.1-.1-.2-.1-.5Zm6.1,1.7a5.1,5.1,0,0,0-2.4.7v6.7a4.8,4.8,0,0,0,2.4.7,2.2,2.2,0,0,0,2.1-1,5.1,5.1,0,0,0,.7-3.1,5.3,5.3,0,0,0-.7-3.1A2.3,2.3,0,0,0,193.2,35.3Z"/><path id="path6-57" class="cls-9" d="M245.7,72.4a6.5,6.5,0,0,1-5-1.9,8.1,8.1,0,0,1-1.8-5.3,7.7,7.7,0,0,1,1.8-5.3,6.5,6.5,0,0,1,5-1.9,6.4,6.4,0,0,1,4.9,1.9,7.9,7.9,0,0,1,1.8,5.3,8.1,8.1,0,0,1-1.8,5.3A6.4,6.4,0,0,1,245.7,72.4Zm0-3q2.7,0,2.7-4.2c0-2.9-.9-4.3-2.7-4.3s-2.8,1.4-2.8,4.3S243.8,69.4,245.7,69.4Zm-14.6-3a9.8,9.8,0,0,1-2.6-.3,3.6,3.6,0,0,0,1,2.5,4.3,4.3,0,0,0,2.7.7h1.5l1.9-.4h.3c.3,0,.4.2.4.6v1.3a3.5,3.5,0,0,1-.1.6l-.5.3a10.2,10.2,0,0,1-4,.7,6.4,6.4,0,0,1-4.9-1.8,7,7,0,0,1-1.7-5.1,7.6,7.6,0,0,1,1.8-5.3,6.3,6.3,0,0,1,4.9-2,5.6,5.6,0,0,1,3.8,1.2,3.9,3.9,0,0,1,1.3,3.1,3.4,3.4,0,0,1-1.5,3,6.7,6.7,0,0,1-4.3,1.1Zm.3-5.7c-1.6,0-2.6,1.1-2.8,3.1l2.3.2a3.4,3.4,0,0,0,1.9-.4,1.5,1.5,0,0,0,.6-1.3C233.3,61.3,232.7,60.7,231.4,60.7ZM214.7,72.3a5.1,5.1,0,0,1-3-.9,5.6,5.6,0,0,1-2-2.5,10.2,10.2,0,0,1-.6-3.7,8,8,0,0,1,1.5-5.3,4.9,4.9,0,0,1,4.1-1.9,5.6,5.6,0,0,1,3.6,1.2V52.9a.8.8,0,0,1,.2-.5H222c.2.1.2.3.2.5V71.4a.8.8,0,0,1-.2.5h-3c-.2,0-.2-.2-.3-.4l-.2-.6a5.6,5.6,0,0,1-3.8,1.4Zm1.2-2.9a4.5,4.5,0,0,0,2.5-.7V61.6a5.6,5.6,0,0,0-2.6-.7,2.2,2.2,0,0,0-2.1,1.1,5.2,5.2,0,0,0-.7,3.2,5.8,5.8,0,0,0,.7,3.2A2.9,2.9,0,0,0,215.9,69.4ZM203.3,72h-.5a.9.9,0,0,1-.1-.5V59.1c0-.3,0-.5.1-.5h3.1c.2,0,.4,0,.4.1s.2.2.2.5V71.4a.8.8,0,0,1-.2.5h-3Zm1.3-15.8a2.1,2.1,0,0,1-1.6-.5,2.1,2.1,0,0,1-.6-1.6,2,2,0,0,1,.6-1.5,2.2,2.2,0,0,1,1.6-.5,1.9,1.9,0,0,1,1.6.5,2,2,0,0,1,.6,1.5,1.8,1.8,0,0,1-.6,1.6A2.2,2.2,0,0,1,204.6,56.2ZM192.8,72h-.4l-.3-.2-.3-.4-4.5-11.9c-.1-.1-.1-.2-.1-.4a.4.4,0,0,1-.1-.3.5.5,0,0,1,.5-.4h2.7l.6.2a.9.9,0,0,1,.3.5l2.7,9.5,2.8-9.5a.9.9,0,0,1,.3-.5l.6-.2h2.6c.4,0,.5.1.5.4v.3a.8.8,0,0,0-.1.4L196,71.4c-.1.2-.1.3-.2.4l-.3.2h-2.7Z"/><path id="path2-5" class="cls-9" d="M187.3,78.7a.6.6,0,0,1,.6-.5h.4a61.2,61.2,0,0,0,32.3,9.2,59.2,59.2,0,0,0,24.6-5.4c1.3-.5,2.2.9,1.1,1.8-7.2,5.7-17.5,8.7-26.4,8.7a45.9,45.9,0,0,1-32.3-13.3l-.3-.5Z"/><path id="path4-0" class="cls-9" d="M240.4,79.6a12.2,12.2,0,0,1,7.2-2.2c2.2,0,4,.5,4.3,1s-.2,8.2-4,11.7c-.6.5-1.2.2-.9-.5s2.8-7.5,1.9-8.7-6-.6-8.4-.3a.5.5,0,0,1-.6-.3h0c.1-.2.2-.5.5-.6Z"/><path class="cls-3" d="M132.5,22H73.7A20.6,20.6,0,0,0,53.1,42.6v58.9a20.6,20.6,0,0,0,20.6,20.6h58.8a20.6,20.6,0,0,0,20.6-20.6V42.6A20.6,20.6,0,0,0,132.5,22Z"/><path class="cls-10" d="M132.5,17H73.7A20.6,20.6,0,0,0,53.1,37.6V96.4A20.6,20.6,0,0,0,73.7,117h58.8a20.6,20.6,0,0,0,20.6-20.6V37.6A20.6,20.6,0,0,0,132.5,17Z"/><path class="cls-11" d="M132.5,8.5H73.7A20.6,20.6,0,0,0,53.1,29.1V88a20.6,20.6,0,0,0,20.6,20.6h58.8A20.6,20.6,0,0,0,153.1,88V29.2A20.6,20.6,0,0,0,132.5,8.5Z"/><path class="cls-12" d="M82.1,28.1V90.3l2.1-.2q5.4-.7,10.8-1.2h1.7V35.4Z"/><polygon class="cls-13" points="109.4 28.3 109.4 83.2 124 90.3 124 28.3 109.4 28.3"/><path class="cls-14" d="M103.1,43.9,96,28.3H82.1l21,46.3,6.4,14.1h1c3.9.3,7.7.7,11.4,1.3l2.1.2Z"/><path class="cls-3" d="M248.5,146.2H189.7a20.7,20.7,0,0,0-20.6,20.6v58.9a20.6,20.6,0,0,0,20.6,20.6h58.8a20.6,20.6,0,0,0,20.6-20.6V166.8A20.6,20.6,0,0,0,248.5,146.2Z"/><path class="cls-15" d="M249.2,140.5H190.4a20.7,20.7,0,0,0-20.7,20.6V220a20.7,20.7,0,0,0,20.7,20.6h58.8A20.6,20.6,0,0,0,269.8,220V161.1A20.6,20.6,0,0,0,249.2,140.5Z"/><path class="cls-9" d="M249.2,133.1H190.4a20.7,20.7,0,0,0-20.7,20.6v58.9a20.7,20.7,0,0,0,20.7,20.6h58.8a20.6,20.6,0,0,0,20.6-20.6V153.8A20.7,20.7,0,0,0,249.2,133.1Z"/><path class="cls-16" d="M261,190.6a31.1,31.1,0,0,1-1,8.6,15,15,0,0,1-7.1,8.9,22.9,22.9,0,0,1-12,3.1c-2.8-.1-5.7.1-8.5.2a93.8,93.8,0,0,0-12,1.2c-5.1.8-10,2.3-14.9,3.5a35.2,35.2,0,0,1-9.7,1,12.8,12.8,0,0,1-9.2-4,17.1,17.1,0,0,1-3.9-7.7c-1.3-5.9-2.1-11.9-3-17.9-.5-4.3-1.3-8.6-1.2-12.9a15.4,15.4,0,0,1,4.4-10.7,25.1,25.1,0,0,1,11.2-6.6,83.6,83.6,0,0,1,8.7-1.7l14.3-2.1,9.6-1.2,9.1-1.2c3.7-.4,7.4-.7,11,.6a16.7,16.7,0,0,1,10,9.5c1.3,2.9,1.7,6.1,2.2,9.2s.9,6.5,1.3,9.8.3,4.1.5,6.2A29.5,29.5,0,0,1,261,190.6Z"/><path class="cls-17" d="M257.9,190.5a27.4,27.4,0,0,1-.8,7.5c-1.5,4.9-4.9,7.7-9.6,9.1a22.3,22.3,0,0,1-6.8.9c-5.2.1-10.3.2-15.5.8a109.7,109.7,0,0,0-16.9,3.3,43.8,43.8,0,0,1-11.4,1.8c-6.1.1-9.3-2.8-11-8.7a112.4,112.4,0,0,1-2.3-12.9c-.7-4.7-1.4-9.3-1.8-13.9a25.3,25.3,0,0,1,0-5.5c.5-3.8,2.7-6.6,5.6-8.8a25.3,25.3,0,0,1,11.4-4.6c8.4-1.4,16.9-2.7,25.3-3.7l14.8-1.8c7.9-.9,14.6,3.8,16.1,11.8A157.1,157.1,0,0,1,257.9,190.5Z"/><path class="cls-16" d="M209,172.6c0-1.5.4-1.9,1.8-1.6s5.8,1.9,8.7,3c5,1.8,10,3.6,14.9,5.9a2.6,2.6,0,0,1,1.1.7c.7.9.4,1.9-.7,2.7l-8.5,5.7-10.4,7.1a8.2,8.2,0,0,1-2,1.2c-1.1.4-1.5.2-1.9-.9a17.6,17.6,0,0,1-.6-3.9L209,173.2Z"/><path class="cls-18" d="M231.2,181.8l-16.6,11.4c-.7-6.2-1.5-12.2-2.2-18.4C218.7,177,224.9,179.2,231.2,181.8Z"/></svg>