<?xml version="1.0" encoding="utf-8"?>
<!-- Generator: Adobe Illustrator 25.2.1, SVG Export Plug-In . SVG Version: 6.00 Build 0)  -->
<svg version="1.1" id="Layer_1" xmlns="http://www.w3.org/2000/svg" xmlns:xlink="http://www.w3.org/1999/xlink" x="0px" y="0px"
	 viewBox="0 0 108 108" style="enable-background:new 0 0 108 108;" xml:space="preserve">
<style type="text/css">
	.st0{fill:#321A4C;}
	.st1{fill:#461E5F;}
	.st2{fill:#E83D7D;}
	.st3{fill:#F9B446;}
	.st4{fill:#E76F3D;}
	.st5{fill:#B7356A;}
	.st6{fill:#99CC33;}
	.st7{fill:none;}
	.st8{fill:#94BA3C;}
</style>
<path class="st0" d="M60.8,4H28.2c-4.8,0-8.6,3.9-8.6,8.6v85.7c0,4.8,3.9,8.6,8.6,8.6h32.6c4.8,0,8.6-3.9,8.6-8.6V12.7
	C69.4,7.9,65.6,4,60.8,4z"/>
<path class="st1" d="M62.9,3.9H30.3c-4.8,0-8.6,3.9-8.6,8.6v85.7c0,4.8,3.9,8.6,8.6,8.6h32.6c4.8,0,8.6-3.9,8.6-8.6V12.6
	C71.5,7.8,67.7,3.9,62.9,3.9z"/>
<path class="st2" d="M62.8,6.4h-3.3c-0.5,0-1,0.4-1,1v1.4c0,1.1-0.8,1.9-1.9,1.9h-20c-1.1,0-1.9-0.8-1.9-1.9V7.4c0-0.5-0.4-1-1-1
	h-3.3c-3.6,0-6.6,2.9-6.6,6.6v84.9c0,3.6,2.9,6.6,6.6,6.6h32.3c3.6,0,6.6-2.9,6.6-6.6V13C69.3,9.4,66.4,6.4,62.8,6.4z"/>
<path class="st1" d="M54.2,102.4H39c-0.2,0-0.4-0.2-0.4-0.4s0.2-0.4,0.4-0.4h15.2c0.2,0,0.4,0.2,0.4,0.4
	C54.6,102.3,54.4,102.4,54.2,102.4z"/>
<path class="st2" d="M49.7,8.5H44c-0.2,0-0.3-0.1-0.3-0.3C43.8,8.1,43.9,8,44,8h5.6c0.2,0,0.3,0.1,0.3,0.3S49.8,8.5,49.7,8.5z
	 M51.6,8.5h-0.7c-0.2,0-0.3-0.1-0.3-0.3s0.1-0.3,0.3-0.3h0.7c0.2,0,0.3,0.1,0.3,0.3C51.9,8.4,51.7,8.5,51.6,8.5z"/>
<path class="st3" d="M61.6,81.8c5.4-0.3,10.9-2.7,15.9-4.3L76,72.7c-0.7,1.8-1.5,3.6-2.3,5.4c-0.6,1.2-0.7,5.9,1.6,5.2
	c8.3-2.6,16.5-6,24.3-10c1.7-0.8,1.2-6.7-0.9-5.7c-8,3.5-16.1,6.7-24.4,9.7c0.5,1.7,1.1,3.5,1.6,5.2c0.9-2.1,1.7-4.2,2.4-6.3
	c0.3-1,0.1-5-1.7-4.2c-5.1,2.2-10.7,4.1-15.3,7.4C60.9,79.8,60.7,81.9,61.6,81.8z M4,14c5.2,3.7,9.9,8.7,13.6,13.9
	c0.8,1.1,1.5-0.4,1.8-1.1c0.6-2.1,1.5-3.9,2.7-5.7c-0.5-0.1-1.1-0.3-1.6-0.4c2.6,6.1,6.1,11.7,10.5,16.7c1.6,1.9,2.4-3.9,1.2-5.3
	c-4.1-4.8-7.4-9.9-9.9-15.7c-0.3-0.7-1.1-1.2-1.6-0.4c-1.6,2.5-2.7,5-3.5,7.9c0.6-0.4,1.2-0.7,1.8-1.1C14.3,18.3,9.6,14.6,4.3,11
	C3.5,10.5,3.2,13.5,4,14z M67.3,91.9c3.2,0.7,6.4,0.5,9.6,0.6c3.1,0.1,6.7,0.8,9.6,0c1.3-0.3,1.5-3.8,0.2-4.2
	c-3.1-1-6.7-0.3-9.9-0.1c-3.3,0.2-6.6,0.4-9.7,1.6C66.4,90,66.6,91.7,67.3,91.9z M64.5,99.2c3.5,2.7,7.6,5.5,11.9,6.9
	c1.7,0.5,1.9-3.9,0.5-4.5c-4.1-1.7-8.2-3.1-12.1-5.5C63.8,95.5,63.7,98.6,64.5,99.2z M22.6,46.3c-3.3,0.1-6.6,1.4-9.8,2.2
	c-2.9,0.7-6.3,0.9-8.9,2.5c-1.1,0.6-1.1,4.1,0.4,4.2c3,0.2,6.1-1.5,8.9-2.5c3.3-1.2,6.7-2.3,9.6-4.3C23.2,48,23.4,46.3,22.6,46.3z
	 M16.3,36.8c-4.4-1.1-9.1-2.1-13.7-1.7c-1.6,0.1-1.5,4.6,0.1,4.6c4.5-0.1,8.9-0.4,13.4,0.2C17.2,40.1,17.2,37,16.3,36.8z M72.2,36.2
	c6.4,0,6.4-10,0-10C65.7,26.2,65.7,36.2,72.2,36.2z M22.6,82.4v-0.7c0-1.3-0.6-2.6-1.5-3.5s-2.3-1.5-3.5-1.5
	c-1.3,0.1-2.6,0.5-3.5,1.5s-1.5,2.2-1.5,3.5v0.7c0,1.3,0.6,2.6,1.5,3.5s2.3,1.5,3.5,1.5c1.3-0.1,2.6-0.5,3.5-1.5
	C22.1,85,22.6,83.8,22.6,82.4z"/>
<g>
	<path class="st4" d="M9,74.1c3.9,0,3.9-6,0-6S5.1,74.1,9,74.1z"/>
</g>
<g>
	<path class="st4" d="M82.8,42.2c3.9,0,3.9-6,0-6S78.9,42.2,82.8,42.2z"/>
</g>
<g>
	<path class="st4" d="M86.1,23.2c2.6,0,2.6-4,0-4C83.6,19.2,83.6,23.2,86.1,23.2z"/>
</g>
<g>
	<path class="st5" d="M63.2,63c1-1.2,1.1-2.6,0.5-3.9l-0.2-0.6c0-0.1-0.1-0.2-0.1-0.4c-0.1-0.4,0-0.8,0.2-1.1
		c0.1-0.1,0.1-0.2,0.2-0.4c0.5-1.4,0.2-3.1-0.9-4.2c-0.8-0.8-2-1.2-4.4-1.3L49.6,51h-0.2h-0.1c0,0-0.1,0-0.1-0.1l-0.1-0.1L49,50.7
		v-0.1v-0.2v-1.3V47v-0.6v-0.2v-0.5v-0.3v-0.5v-0.3c0-0.2,0-0.4-0.1-0.6v-0.2c-0.1-0.6-0.2-1.2-0.3-1.7v-0.2c0-0.2-0.1-0.4-0.2-0.6
		c0-0.1,0-0.2-0.1-0.2c-0.1-0.2-0.1-0.4-0.2-0.5v-0.1c-0.5-1.4-1.3-2.5-2.4-2.4c-1,0-1.4,1.5-1.6,2.2c-0.4,1.6-1.6,8-2.8,10.1
		C39.9,53,37,55.5,35.6,57c-2,2.2-3.6,5-3,9.2c0.7,5,4.6,8,8.5,9c3.6,0.9,9,1.1,11.7,0.9c1.7-0.1,7-0.6,7.3-3.2v-0.1v-0.2
		c0-0.2,0-0.3-0.1-0.5c-0.2-0.6,0-1.1,0.3-1.6c0.1-0.2,0.2-0.3,0.4-0.4l0.3-0.3c1-0.8,1.5-2.2,1.4-3.5v-0.2L62,65.4
		c-0.1-0.7,0.1-1.3,0.6-1.8C62.9,63.4,63,63.3,63.2,63C63.2,63.1,63.2,63,63.2,63L63.2,63z"/>
	<path class="st5" d="M30.6,65.5c-0.2-4,1.4-7.6,1.4-7.7c0.2-0.5,0-1.1-0.5-1.3s-1.1,0-1.3,0.5c-0.1,0.2-1.9,4.1-1.6,8.6
		c0.4,5.7,3.6,8.4,3.7,8.5c0.2,0.2,0.4,0.2,0.6,0.2c0.3,0,0.6-0.1,0.8-0.4c0.4-0.4,0.3-1.1-0.1-1.4C33.5,72.6,30.9,70.4,30.6,65.5z"
		/>
</g>
<g>
	<path class="st6" d="M35.5,55.1c1.4-1.5,4.2-4,5.7-6.6c1.2-2.1,2.4-8.6,2.8-10.1c0.2-0.7,0.6-2.1,1.6-2.2c2.8-0.1,3.4,6.4,3.4,9.1
		c0,1.7,0,2.8,0.1,3.4c0,0.3,0.3,0.6,0.6,0.6l8.8,0.1c2.4,0.1,3.7,0.5,4.4,1.3c1.2,1.2,1.4,3,0.7,4.5c-0.2,0.5-0.2,1-0.1,1.5
		l0.2,0.6c0.6,1.6,0.5,3.1-1.1,4.5c-0.5,0.4-0.7,1.1-0.6,1.8l0.1,0.7c0.3,1.4-0.3,2.8-1.3,3.6l-0.3,0.3c-0.6,0.5-0.8,1.3-0.6,2
		c0.9,3.3-5.3,3.9-7.2,4c-2.7,0.1-8,0-11.7-0.9c-3.9-1-7.8-4-8.5-9C31.9,60,33.5,57.3,35.5,55.1z"/>
	<path class="st7" d="M35.5,55.1c1.4-1.5,4.2-4,5.7-6.6c1.2-2.1,2.4-8.6,2.8-10.1c0.2-0.7,0.6-2.1,1.6-2.2c2.8-0.1,3.4,6.4,3.4,9.1
		c0,1.7,0,2.8,0.1,3.4c0,0.3,0.3,0.6,0.6,0.6l8.8,0.1c2.4,0.1,3.7,0.5,4.4,1.3c1.2,1.2,1.4,3,0.7,4.5c-0.2,0.5-0.2,1-0.1,1.5
		l0.2,0.6c0.6,1.6,0.5,3.1-1.1,4.5c-0.5,0.4-0.7,1.1-0.6,1.8l0.1,0.7c0.3,1.4-0.3,2.8-1.3,3.6l-0.3,0.3c-0.6,0.5-0.8,1.3-0.6,2
		c0.9,3.3-5.3,3.9-7.2,4c-2.7,0.1-8,0-11.7-0.9c-3.9-1-7.8-4-8.5-9C31.9,60,33.5,57.3,35.5,55.1z"/>
	<path class="st8" d="M59.8,70.2c-0.2-0.7,0-1.5,0.6-2l0.3-0.3c-1.1,0.7-2.4,0.7-2.2,1.3c0.2,0.6,1.2,0.7,1.3,1.8v0.1
		C59.9,70.9,59.9,70.6,59.8,70.2z M62.2,56c0.1,0.5,0.9,0.4,1.4,1l-0.1-0.3c-0.2-0.5-0.2-1,0.1-1.5c0.1-0.1,0.1-0.2,0.2-0.4
		C63.4,55.3,62.1,55.4,62.2,56z M63.2,61.3c-0.9,0.6-2.2,0.3-2.2,0.9c0,0.8,0.9,0.9,1.2,2.3v-0.2L62,63.6c-0.1-0.7,0.1-1.3,0.6-1.8
		C62.9,61.7,63.1,61.5,63.2,61.3z"/>
	<g>
		<path class="st8" d="M46.3,49.2h3.2c-0.3-0.1-0.5-0.3-0.5-0.6c0-0.6-0.1-1.7-0.1-3.4c0-1.6-0.2-4.6-1-6.7
			C49.3,46.1,46.3,49.2,46.3,49.2z"/>
	</g>
	<g>
		<path class="st6" d="M32.9,72.7c-0.2,0-0.5-0.1-0.6-0.2S29,69.7,28.6,64c-0.3-4.5,1.5-8.5,1.6-8.6c0.2-0.5,0.8-0.7,1.3-0.5
			c0.5,0.2,0.7,0.8,0.5,1.3c0,0-1.7,3.7-1.4,7.7c0.3,4.8,2.9,7.1,3,7.1c0.4,0.4,0.5,1,0.1,1.4C33.5,72.5,33.2,72.7,32.9,72.7z"/>
	</g>
</g>
</svg>
