<svg version="1.1" id="Camada_1" xmlns="http://www.w3.org/2000/svg" x="0" y="0" viewBox="0 0 470 320" xml:space="preserve"><style>.st0{fill:#609}.st2{fill:#eb3d7d}.st3{fill:#321a4c}.st4{fill:#55057f}.st7{fill:#f90}</style><path class="st0" d="M400 299.8H70l31.9-52.4c1.9-3.1 5.2-4.9 8.8-4.9h248.4c3.6 0 6.9 1.9 8.8 4.9l32.1 52.4z"/><path fill="#8533ad" d="M71.3 297.7l-1.3 2.1h330l-1.3-2.1z"/><path class="st0" d="M361.7 242.5H108.3c-1.8 0-3.3-1.5-3.3-3.3V79.9c0-1.8 1.5-3.3 3.3-3.3h253.4c1.8 0 3.3 1.5 3.3 3.3v159.3c0 1.8-1.5 3.3-3.3 3.3z"/><path class="st2" d="M353.2 232.1H116.8c-.7 0-1.2-.5-1.2-1.2V89.6c0-.7.5-1.2 1.2-1.2h236.3c.7 0 1.2.5 1.2 1.2v141.3c0 .7-.5 1.2-1.1 1.2z"/><path class="st3" d="M397.2 309.9H72.9c-1.6 0-2.8-1.3-2.8-2.8v-7.3H400v7.3c0 1.6-1.3 2.8-2.8 2.8z"/><path class="st4" d="M372 271.8l-15.5-25.5H112l-15.6 25.5zM263 294l-6.9-18.1h-43.7l-7 18.1z"/><g><path d="M336.2 184c5.9-21.4 5-45.6-5.3-70.1-9.5-22.9-27.5-40.9-50.5-50.2C207 34 136.6 87.3 136.6 157c0 9.3 1.2 18.3 3.7 27 2.5 9 10.5 15.2 19.8 15.2h156.2c9.1 0 17.5-6.2 19.9-15.2z" fill="#d83582"/><path class="st3" d="M336.2 170.9c5.9-21.4 5-45.6-5.3-70.1-9.6-22.9-27.6-40.9-50.5-50.2-73.4-29.7-143.8 23.6-143.8 93.3 0 9.3 1.2 18.3 3.7 27 2.5 9 10.5 15.2 19.8 15.2h156.2c9.1 0 17.5-6.2 19.9-15.2z"/><path d="M336.2 163.5c5.9-21.4 5-45.6-5.3-70.1-9.6-22.9-27.6-40.9-50.5-50.2-73.8-30.1-144.1 23.6-144.1 93.3 0 9.3 1.2 18.3 3.7 27 2.5 9 10.5 15.2 19.8 15.2H316c9.4 0 17.8-6.2 20.2-15.2z" fill="#461e5f"/><path class="st7" d="M176.6 152.3c-1.5-6.2-2.2-12.7-1.5-19.2 2.2-31.6 28.5-57.3 60.4-58.6 36-1.5 65.7 27.3 65.7 62.9 0 5-.6 9.9-1.9 14.9-1.9 7.4 1.5 14.9 8.4 18 9 4.3 19.8-.9 22-10.5 2.2-9.3 3.1-19.2 2.5-29.4-3.4-46.8-41.5-84.3-88.3-87.4-54.9-3.4-100.4 40.3-100.4 94.2 0 7.7.9 15.2 2.8 22.6 2.5 9.6 13 14.6 22 10.2 6.7-2.8 10.1-10.2 8.3-17.7z"/><circle class="st7" cx="238" cy="137.4" r="9.3"/><path class="st2" d="M290.4 86.9c-.3 0-.9 0-1.2-.3-.6-.6-.6-1.5 0-2.2l9.3-9.3c.6-.6 1.5-.6 2.2 0 .6.6.6 1.5 0 2.2l-9.3 9.3c-.4 0-.7.3-1 .3zm-104.5 0c-.3 0-.9 0-1.2-.3l-9.3-9.3c-.6-.6-.6-1.5 0-2.2.6-.6 1.5-.6 2.2 0l9.3 9.3c.6.6.6 1.5 0 2.2-.4 0-.7.3-1 .3zM238 65.2c-.9 0-1.5-.6-1.5-1.5v-13c0-.9.6-1.5 1.5-1.5s1.5.6 1.5 1.5v13c0 .9-.6 1.5-1.5 1.5zm87.1 73.8h-13c-.9 0-1.5-.6-1.5-1.5s.6-1.5 1.5-1.5h13c.9 0 1.5.6 1.5 1.5s-.6 1.5-1.5 1.5zm-160.9 0h-13c-.9 0-1.5-.6-1.5-1.5s.6-1.5 1.5-1.5h13c.9 0 1.5.6 1.5 1.5s-.6 1.5-1.5 1.5zM306.2 110.2c-.6 0-1.2-.3-1.5-.9-.3-.9 0-1.5.9-2.2l6.2-2.8c.9-.3 1.5 0 2.2.9.3.9 0 1.5-.9 2.2l-6.2 2.8h-.7zm-97.1-39.1c-.6 0-1.2-.3-1.5-.9l-2.8-6.2c-.3-.9 0-1.5.9-2.2.9-.3 1.5 0 2.2.9l2.8 6.2c.3.9 0 1.5-.9 2.2h-.7zM170.1 110.5h-.6l-6.2-2.8c-.9-.3-1.2-1.2-.9-2.2.3-.9 1.2-1.2 2.2-.9l6.2 2.8c.9.3 1.2 1.2.9 2.2-.4.6-1 .9-1.6.9zm96.7-39.4h-.6c-.9-.3-1.2-1.2-.9-2.2l2.8-6.2c.3-.9 1.2-1.2 2.2-.9.9.3 1.2 1.2.9 2.2l-2.8 6.2c-.7.6-1 .9-1.6.9z"/><path d="M245.7 127.5c-1.9-1.9-1.9-5.3.3-7.1l38.1-32.5c.6-.6 1.5.3.9.9l-32.5 38.7c-1.8 1.9-4.9 2.2-6.8 0z" fill="#fadb4f"/></g></svg>