<svg width="470" height="320" viewBox="0 0 470 320" fill="none" xmlns="http://www.w3.org/2000/svg">
<g clip-path="url(#clip0)">
<rect width="470" height="320" fill="white"/>
<path d="M330.493 232.472H97.6711C91.4215 232.472 86.3161 227.367 86.3161 221.117V66.1962C86.3161 59.9465 91.4215 54.8412 97.6711 54.8412H330.493C336.743 54.8412 341.848 59.9465 341.848 66.1962V221.117C341.848 227.367 336.743 232.472 330.493 232.472Z" fill="#660099"/>
<path opacity="0.15" d="M74.4329 309.317H414.555C416.404 309.317 417.988 307.82 417.988 305.884V303.683C417.988 301.835 416.492 300.25 414.555 300.25H74.4329C72.5844 300.25 71 301.747 71 303.683V305.884C71.088 307.732 72.5844 309.317 74.4329 309.317ZM183.406 283.262C181.557 283.262 179.973 281.677 179.973 279.829C179.973 277.98 181.557 276.396 183.406 276.396H270.813C272.662 276.396 274.246 277.98 274.246 279.829C274.246 281.677 272.662 283.262 270.813 283.262" fill="#461E5F"/>
<path d="M192.736 264.249V183.003C192.736 180.715 194.585 178.866 196.873 178.866H244.054C246.343 178.866 248.191 180.715 248.191 183.003V274.46H192.824V264.249H192.736Z" fill="#660099"/>
<path d="M202.067 183.003C202.067 180.715 203.915 178.866 206.204 178.866H253.384C255.673 178.866 257.522 180.715 257.522 183.003V274.46H202.155V183.003H202.067Z" fill="#7850A0"/>
<path d="M204.707 271.115H262.715C265.356 271.115 267.556 273.227 267.556 275.956C267.556 278.597 265.356 280.709 262.803 280.709H204.796C202.155 280.709 200.042 278.597 200.042 275.956C199.954 273.227 202.067 271.115 204.707 271.115V271.115Z" fill="#A078B4"/>
<path d="M267.556 275.956C267.556 278.597 265.356 280.709 262.803 280.709H193.617C190.976 280.709 187.719 278.597 187.719 275.956H267.556V275.956Z" fill="#660099"/>
<path d="M188.775 271.115H206.38C209.021 271.115 211.221 273.227 211.221 275.956C211.221 278.597 209.109 280.797 206.38 280.797H188.775C186.135 280.797 184.022 278.685 184.022 276.044C183.934 273.227 186.135 271.115 188.775 271.115Z" fill="#660099"/>
<path d="M348.45 298.93H81.2107C79.4503 298.93 77.9539 297.434 77.9539 295.673V294.177C77.9539 290.392 81.0347 287.311 84.8197 287.311H344.929C348.714 287.311 351.795 290.392 351.795 294.177V295.673C351.707 297.434 350.298 298.93 348.45 298.93V298.93Z" fill="#A078B4"/>
<path d="M130.768 298.93H81.2107C79.4503 298.93 77.9539 297.434 77.9539 295.673V294.177C77.9539 290.392 81.0347 287.311 84.8197 287.311H127.247C131.032 287.311 134.113 290.392 134.113 294.177V295.673C134.025 297.434 132.616 298.93 130.768 298.93V298.93Z" fill="#7850A0"/>
<path d="M78.482 291.888H351.09C353.291 291.888 355.051 293.649 355.051 295.849V297.61C355.051 302.187 351.354 305.884 346.777 305.884H82.7951C78.2179 305.884 74.5209 302.187 74.5209 297.61V295.849C74.5209 293.649 76.2814 291.888 78.482 291.888Z" fill="#660099"/>
<path d="M354.611 300.162C353.555 303.419 350.386 305.796 346.777 305.796H82.7951C79.1861 305.796 76.0173 303.419 74.961 300.162H354.611Z" fill="#461E5F"/>
<path d="M134.465 291.888H78.482C76.2814 291.888 74.5209 293.649 74.5209 295.849V297.61C74.5209 302.187 78.2179 305.884 82.7951 305.884H130.152C134.729 305.884 138.426 302.187 138.426 297.61V295.849C138.426 293.649 136.665 291.888 134.465 291.888Z" fill="#55057F"/>
<path d="M358.925 294.353C358.925 288.983 365.614 283.35 373.537 282.382C386.212 280.885 401.792 281.501 406.721 283.702C409.01 284.758 416.668 288.983 416.668 294.265C416.668 299.634 412.355 303.947 406.985 303.947H368.607C363.238 304.035 358.925 299.634 358.925 294.353Z" fill="#7850A0"/>
<path d="M416.58 294.353C416.58 299.722 412.267 304.035 406.897 304.035H368.519C363.15 304.035 358.836 299.722 358.836 294.353C358.836 294.353 361.477 297.258 387.62 297.258C413.851 297.17 416.58 294.353 416.58 294.353Z" fill="#660099"/>
<path d="M342.64 232.472H109.818C103.569 232.472 98.4633 227.367 98.4633 221.117V66.1962C98.4633 59.9465 103.569 54.8412 109.818 54.8412H342.64C348.89 54.8412 353.995 59.9465 353.995 66.1962V221.117C353.995 227.367 348.89 232.472 342.64 232.472Z" fill="#7850A0"/>
<path d="M337.271 208.794H115.188C111.579 208.794 108.586 205.889 108.586 202.192V71.3016C108.586 67.6926 111.491 64.6998 115.188 64.6998H337.271C340.88 64.6998 343.872 67.6046 343.872 71.3016V202.192C343.872 205.801 340.88 208.794 337.271 208.794Z" fill="#461E5F"/>
<path d="M226.273 226.663C228.996 226.663 231.203 224.456 231.203 221.734C231.203 219.011 228.996 216.804 226.273 216.804C223.551 216.804 221.344 219.011 221.344 221.734C221.344 224.456 223.551 226.663 226.273 226.663Z" fill="#461E5F"/>
<path d="M342.64 55.7214C348.45 55.7214 353.115 60.3867 353.115 66.1962V221.117C353.115 226.927 348.45 231.592 342.64 231.592H109.818C104.009 231.592 99.3436 226.927 99.3436 221.117V66.1962C99.3436 60.3867 104.009 55.7214 109.818 55.7214H342.64V55.7214ZM342.64 54.8412H109.818C103.569 54.8412 98.4633 59.9465 98.4633 66.1962V221.117C98.4633 227.367 103.569 232.472 109.818 232.472H342.64C348.89 232.472 353.995 227.367 353.995 221.117V66.1962C353.995 59.8585 348.89 54.8412 342.64 54.8412Z" fill="#A178B5"/>
<path d="M283.576 129.309L261.395 101.494C259.634 99.293 256.289 99.293 254.617 101.582L232.875 129.837C231.643 131.51 232.787 133.798 234.811 133.798L246.607 133.71C247.927 133.71 249.071 134.766 249.071 136.175L249.247 170.24C249.247 175.345 253.472 179.394 258.49 179.394C263.595 179.394 267.644 175.169 267.644 170.152L267.468 136.087C267.468 134.766 268.524 133.622 269.933 133.622L281.728 133.534C283.752 133.358 284.897 130.981 283.576 129.309V129.309Z" fill="#CD1E5A"/>
<path d="M232.244 125.374L237.085 125.337L237.131 131.234L232.29 131.272L232.244 125.374Z" fill="#CD1E5A"/>
<path d="M279.249 125.023L284.091 124.985L284.136 130.883L279.295 130.92L279.249 125.023Z" fill="#CD1E5A"/>
<path d="M283.576 123.411L261.395 95.5079C259.634 93.3074 256.289 93.3074 254.617 95.596L232.875 123.851C231.643 125.524 232.787 127.813 234.811 127.813L246.607 127.724C247.927 127.724 249.071 128.781 249.071 130.189L249.247 164.254C249.247 169.36 253.472 173.409 258.49 173.409C263.595 173.409 267.644 169.184 267.644 164.166L267.468 130.101C267.468 128.781 268.524 127.636 269.933 127.636L281.728 127.548C283.664 127.372 284.809 124.996 283.576 123.411V123.411Z" fill="#F06496"/>
<path d="M172.755 149.906L194.937 177.81C196.697 180.01 200.042 180.01 201.715 177.722L223.456 149.466C224.777 147.618 223.544 145.505 221.52 145.505L209.725 145.593C208.404 145.593 207.26 144.537 207.26 143.129L207.084 109.064C207.084 103.958 202.859 99.9092 197.842 99.9092C192.736 99.9092 188.687 104.134 188.687 109.152L188.863 143.217C188.863 144.537 187.807 145.681 186.399 145.681L174.603 145.769C172.579 145.857 171.435 148.234 172.755 149.906Z" fill="#FA6423"/>
<path d="M224.063 147.857L219.222 147.894L219.174 141.733L224.015 141.695L224.063 147.857Z" fill="#FA6423"/>
<path d="M177.064 148.408L172.223 148.445L172.172 141.931L177.013 141.894L177.064 148.408Z" fill="#FA6423"/>
<path d="M172.756 143.481L194.938 171.384C196.698 173.585 200.043 173.585 201.715 171.296L223.457 143.041C224.69 141.368 223.545 139.08 221.521 139.08L209.726 139.168C208.405 139.168 207.261 138.111 207.261 136.703L207.085 102.638C207.085 97.5325 202.86 93.4835 197.842 93.4835C192.737 93.4835 188.688 97.7086 188.688 102.726L188.864 136.791C188.864 138.111 187.808 139.256 186.399 139.256L174.604 139.344C172.58 139.52 171.435 141.896 172.756 143.481Z" fill="#FAB437"/>
<path d="M227.476 3C207.276 3 188.976 11.1 175.476 24.1C173.576 26 173.476 29 175.376 30.9C177.176 32.7 180.176 32.8 181.976 31C193.676 19.6 209.776 12.5 227.376 12.5C244.976 12.5 261.076 19.6 272.776 31C274.576 32.8 277.576 32.7 279.376 30.9C281.276 29 281.176 25.9 279.276 24.1C265.976 11.1 247.676 3 227.476 3V3Z" fill="url(#paint0_linear)"/>
<path d="M227.476 25.2C213.376 25.2 200.576 30.8 191.176 39.9C189.276 41.7 189.276 44.8 191.176 46.7C192.976 48.5 195.976 48.6 197.876 46.8C205.576 39.4 216.076 34.8 227.576 34.8C239.076 34.8 249.576 39.4 257.276 46.8C259.176 48.6 262.076 48.6 263.976 46.7C265.876 44.8 265.876 41.8 263.976 39.9C254.376 30.8 241.576 25.2 227.476 25.2V25.2Z" fill="url(#paint1_linear)"/>
<path d="M227.476 47.9C219.676 47.9 212.676 50.9 207.376 55.8C205.376 57.6 205.276 60.8 207.276 62.7C209.076 64.5 212.076 64.5 213.976 62.8C217.576 59.5 222.376 57.5 227.576 57.5C232.776 57.5 237.576 59.5 241.176 62.8C243.076 64.6 245.976 64.6 247.876 62.7C249.776 60.8 249.676 57.7 247.776 55.8C242.276 50.9 235.276 47.9 227.476 47.9V47.9Z" fill="url(#paint2_linear)"/>
<path d="M227.476 86.7C231.508 86.7 234.776 83.4317 234.776 79.4C234.776 75.3683 231.508 72.1 227.476 72.1C223.444 72.1 220.176 75.3683 220.176 79.4C220.176 83.4317 223.444 86.7 227.476 86.7Z" fill="url(#paint3_linear)"/>
</g>
<defs>
<linearGradient id="paint0_linear" x1="239.07" y1="-1.257" x2="187.194" y2="127.769" gradientUnits="userSpaceOnUse">
<stop offset="0.008" stop-color="#F596B5"/>
<stop offset="0.993" stop-color="#F596B5" stop-opacity="0"/>
</linearGradient>
<linearGradient id="paint1_linear" x1="244.49" y1="0.922014" x2="192.614" y2="129.948" gradientUnits="userSpaceOnUse">
<stop offset="0.008" stop-color="#F596B5"/>
<stop offset="0.993" stop-color="#F596B5" stop-opacity="0"/>
</linearGradient>
<linearGradient id="paint2_linear" x1="250.066" y1="3.16404" x2="198.189" y2="132.19" gradientUnits="userSpaceOnUse">
<stop offset="0.008" stop-color="#F596B5"/>
<stop offset="0.993" stop-color="#F596B5" stop-opacity="0"/>
</linearGradient>
<linearGradient id="paint3_linear" x1="257.01" y1="5.95594" x2="205.134" y2="134.982" gradientUnits="userSpaceOnUse">
<stop offset="0.008" stop-color="#F596B5"/>
<stop offset="0.993" stop-color="#F596B5" stop-opacity="0"/>
</linearGradient>
<clipPath id="clip0">
<rect width="470" height="320" fill="white"/>
</clipPath>
</defs>
</svg>
