<svg version="1.1" id="Camada_1" xmlns="http://www.w3.org/2000/svg" x="0" y="0" viewBox="0 0 320 320" xml:space="preserve"><style>.st0{fill:#fa6324}.st1{fill:#fab538}.st2{fill:#fadb4f}.st3{fill:#f18b0e}.st4{fill:#fff}.st5{fill:#eb3d7d}</style><circle class="st0" cx="65.4" cy="105.8" r="36.6"/><circle class="st1" cx="60.6" cy="104.5" r="35"/><circle class="st2" cx="60.6" cy="104.5" r="26.4"/><path class="st3" d="M80 121.3c-9.6 9.6-25.4 9.6-35.2 0-9.6-9.6-9.6-25.4 0-35.2 8.3-8.3 21-9.4 30.6-3.7-10.2-6.9-24.2-5.8-33.3 3.3-10.4 10.4-10.4 26.9 0 37.3s26.9 10.4 37.3 0c4.8-4.8 7.3-10.8 7.7-16.9-.6 5.6-2.9 10.9-7.1 15.2z"/><path class="st4" d="M66.2 133.7c-.6 0-1.2-.6-1.2-1.2s.6-1.2 1.2-1.2c1.3 0 7.9-.4 15-7.9.4-.4 1.2-.4 1.5 0 .4.4.4 1.2 0 1.5-5.9 6.7-12.4 8.8-16.5 8.8zM41.6 83.1c-.2 0-.6-.2-.8-.4-.4-.4-.4-1.2 0-1.5 3.7-3.7 8.1-5.8 14-6.7.6-.2 1.2.4 1.3 1 .2.6-.4 1.2-1 1.3-5.4 1-9.6 2.9-12.9 6.2 0-.1-.4.1-.6.1zM54.1 113c-.9-.4-1.1-1.2-.7-2l.6-1.2c.3-.8 1-1 2-.5 1.4.6 3 1 4.6 1 1.3 0 2.6-.4 2.6-1.4 0-.6-.4-.9-1-1.2-.6-.3-1.6-.5-2.9-.9-2.9-.7-5.5-2.1-5.5-5.6 0-3.2 2.3-4.8 5.2-5.4V94c0-.7.7-1.3 1.4-1.3h1.4c.8 0 1.5.6 1.5 1.3v1.8c1.2.2 2.4.5 3.4.9.9.3 1.2.9 1 1.9l-.3 1.2c-.3.9-1 1.2-2 .8-1.4-.6-2.9-1-4.4-1-1.6 0-2.5.3-2.5 1.3 0 1.3 1.4 1.6 4.3 2.3 3 .7 5.5 1.8 5.5 5.2 0 3.4-2.2 5-5.2 5.6v1.7c0 .8-.7 1.3-1.5 1.3H60c-.8 0-1.5-.6-1.5-1.3v-1.6c-1.6 0-3.1-.4-4.4-1.1z"/><path class="st3" d="M54.1 112.1c-.9-.4-1.1-1.2-.7-2l.6-1.1c.3-.8 1-1 2-.5 1.4.6 3 1 4.6 1 1.3 0 2.6-.4 2.6-1.4 0-.6-.4-.9-1-1.2-.6-.3-1.6-.5-2.9-.9-2.9-.7-5.5-2.1-5.5-5.6 0-3.2 2.3-4.8 5.2-5.4v-1.8c0-.7.7-1.3 1.4-1.3h1.4c.8 0 1.5.6 1.5 1.3V95c1.2.2 2.4.5 3.4.9.9.3 1.2.9 1 1.9l-.4 1.2c-.3.9-1 1.2-2 .8-1.4-.6-2.9-1-4.4-1-1.6 0-2.5.3-2.5 1.3 0 1.3 1.4 1.6 4.3 2.3 3 .7 5.5 1.8 5.5 5.2 0 3.4-2.2 5-5.2 5.6v1.7c0 .8-.7 1.3-1.5 1.3H60c-.8 0-1.5-.6-1.5-1.3v-1.6c-1.6-.1-3.1-.5-4.4-1.2z"/><path class="st5" d="M113 315.8l16.8-25.3c1.4-1.4 3.5-1.4 4.9 0l24.8 25.3c1.4 1.4 11.5 1.4 12.9 0l16.8-25.3c1.4-1.4 3.5-1.4 4.9 0l24.8 25.3c1.4 1.4 11.5 1.4 12.9 0l16.8-25.3c1.4-1.4 3.5-1.4 4.9 0l24.8 25.3c1.4 1.4 11.5 1.4 12.9 0l17.2-25.7c.7-.7 1-1.6 1-2.5V17.9c0-2-1.6-3.6-3.5-3.6H77.5c-1.9 0-3.5 1.6-3.5 3.6v270c0 .9.4 1.9 1 2.5l25 25.5c1.4 1.3 11.6 1.3 13-.1z"/><path class="st1" d="M114 315.8l24.8-25.3c1.4-1.4 3.5-1.4 4.9 0l24.8 25.3c1.4 1.4 3.5 1.4 4.9 0l24.8-25.3c1.4-1.4 3.5-1.4 4.9 0l24.8 25.3c1.4 1.4 3.5 1.4 4.9 0l24.8-25.3c1.4-1.4 3.5-1.4 4.9 0l24.8 25.3c1.4 1.4 3.5 1.4 4.9 0l25.2-25.7c.7-.7 1-1.6 1-2.5V17.9c0-2-1.6-3.6-3.5-3.6H86.5c-1.9 0-3.5 1.6-3.5 3.6v270c0 .9.4 1.9 1 2.5l25 25.5c1.4 1.3 3.6 1.3 5-.1z"/><g><path class="st3" d="M269.7 56.3H124.2c-.8 0-1.4-.7-1.4-1.7s.6-1.7 1.4-1.7h145.5c.8 0 1.4.7 1.4 1.7s-.6 1.7-1.4 1.7zM248.1 75.2H124.2c-.8 0-1.4-.7-1.4-1.7 0-.9.6-1.7 1.4-1.7h123.9c.8 0 1.4.7 1.4 1.7s-.6 1.7-1.4 1.7zM229.1 94.2H124.2c-.8 0-1.4-.7-1.4-1.7 0-.9.6-1.7 1.4-1.7h104.9c.8 0 1.4.7 1.4 1.7 0 .9-.6 1.7-1.4 1.7zM263.2 113.1h-139c-.8 0-1.4-.7-1.4-1.7 0-.9.6-1.7 1.4-1.7h138.9c.8 0 1.4.7 1.4 1.7.1 1-.6 1.7-1.3 1.7zM263.8 132.1H124.2c-.8 0-1.4-.7-1.4-1.7s.6-1.7 1.4-1.7h139.6c.8 0 1.4.7 1.4 1.7s-.6 1.7-1.4 1.7zM255.9 151H124.2c-.8 0-1.4-.7-1.4-1.7s.6-1.7 1.4-1.7h131.7c.8 0 1.4.7 1.4 1.7s-.6 1.7-1.4 1.7z"/></g><g><path d="M226.5 244.3c-1.9 0-3.8-.8-5.2-2.1L199 219.9c-2.9-2.9-2.9-7.5 0-10.4 2.9-2.9 7.5-2.9 10.4 0l17.1 17.1 39.5-39.5c2.9-2.9 7.5-2.9 10.4 0 2.9 2.9 2.9 7.5 0 10.4l-44.6 44.6c-1.5 1.4-3.4 2.2-5.3 2.2z" fill="#06c"/><path d="M226.5 239.5c-1.9 0-3.8-.8-5.2-2.1L199 215.1c-2.9-2.9-2.9-7.5 0-10.4 2.9-2.9 7.5-2.9 10.4 0l17.1 17.1 39.5-39.5c2.9-2.9 7.5-2.9 10.4 0 2.9 2.9 2.9 7.5 0 10.4l-44.6 44.6c-1.5 1.4-3.4 2.2-5.3 2.2z" fill="#00abdb"/></g><g><path class="st5" d="M130.6 227.3c-2.2-1.1-2.8-3-1.8-5l1.5-3c.9-2 2.6-2.5 5.2-1.2 3.7 1.4 7.8 2.6 11.8 2.6 3.3 0 6.6-.9 6.6-3.7 0-1.6-.9-2.4-2.6-3.1-1.5-.8-4.2-1.3-7.5-2.2-7.4-1.8-14-5.4-14-14.2 0-8.1 5.9-12.3 13.2-13.8V179c0-1.9 1.7-3.3 3.7-3.3h3.5c2 0 3.8 1.4 3.8 3.3v4.5c3 .5 6.1 1.2 8.6 2.3 2.2.8 3.1 2.3 2.5 4.8l-.9 3c-.7 2.2-2.6 3.1-5.1 2.1-3.7-1.4-7.5-2.5-11.2-2.5-4.1 0-6.4.9-6.4 3.4 0 3.3 3.7 4.2 10.9 6 7.6 1.8 13.9 4.6 13.9 13.2 0 8.7-5.5 12.9-13.4 14.3v4.4c0 2-1.8 3.4-3.8 3.4h-3.5c-2 0-3.8-1.4-3.8-3.4v-4.1c-3.9-.3-7.8-1.2-11.2-3.1z"/></g><g><circle class="st0" cx="26.2" cy="173.6" r="22.8"/><circle class="st1" cx="23.2" cy="172.8" r="21.8"/><circle class="st2" cx="23.2" cy="172.8" r="16.4"/><path class="st3" d="M35.3 183.3c-6 6-15.8 6-21.9 0-6-6-6-15.8 0-21.9 5.2-5.2 13.1-5.9 19.1-2.3-6.4-4.3-15.1-3.6-20.7 2-6.5 6.5-6.5 16.8 0 23.3s16.8 6.5 23.3 0c3-3 4.6-6.7 4.8-10.6-.6 3.5-2 6.8-4.6 9.5z"/><path class="st4" d="M26.7 191c-.4 0-.7-.4-.7-.7s.4-.7.7-.7c.8 0 4.9-.2 9.4-4.9.2-.2.7-.2 1 0 .2.2.2.7 0 1-3.8 4-7.9 5.3-10.4 5.3zm-15.4-31.5c-.1 0-.4-.1-.5-.2-.2-.2-.2-.7 0-1 2.3-2.3 5-3.6 8.8-4.2.4-.1.7.2.8.6.1.4-.2.7-.6.8-3.4.6-6 1.8-8 3.8-.1.1-.4.2-.5.2z"/><g><path class="st4" d="M19.1 178.1c-.5-.3-.7-.7-.4-1.2l.4-.7c.2-.5.6-.6 1.3-.3.9.3 1.9.6 2.9.6.8 0 1.6-.2 1.6-.9 0-.4-.2-.6-.6-.8-.4-.2-1-.3-1.8-.5-1.8-.4-3.4-1.3-3.4-3.5 0-2 1.4-3 3.2-3.4v-1.1c0-.5.4-.8.9-.8h.9c.5 0 .9.3.9.8v1.1c.7.1 1.5.3 2.1.6.5.2.8.6.6 1.2l-.2.7c-.2.5-.6.8-1.2.5-.9-.3-1.8-.6-2.7-.6-1 0-1.6.2-1.6.8 0 .8.9 1 2.7 1.5 1.8.4 3.4 1.1 3.4 3.2s-1.3 3.1-3.3 3.5v1.1c0 .5-.4.8-.9.8H23c-.5 0-.9-.3-.9-.8v-1c-1.2-.1-2.2-.3-3-.8z"/></g><g><path class="st3" d="M19.1 177.6c-.5-.3-.7-.7-.4-1.2l.4-.7c.2-.5.6-.6 1.3-.3.9.3 1.9.6 2.9.6.8 0 1.6-.2 1.6-.9 0-.4-.2-.6-.6-.8-.4-.2-1-.3-1.8-.5-1.8-.4-3.4-1.3-3.4-3.5 0-2 1.4-3 3.2-3.4v-1.1c0-.5.4-.8.9-.8h.9c.5 0 .9.3.9.8v1.1c.7.1 1.5.3 2.1.6.5.2.8.6.6 1.2l-.2.7c-.2.5-.6.8-1.2.5-.9-.3-1.8-.6-2.7-.6-1 0-1.6.2-1.6.8 0 .8.9 1 2.7 1.5 1.8.4 3.4 1.1 3.4 3.2s-1.3 3.1-3.3 3.5v1.1c0 .5-.4.8-.9.8H23c-.5 0-.9-.3-.9-.8v-1c-1.2-.2-2.2-.4-3-.8z"/></g></g><g><circle class="st0" cx="76.9" cy="232.3" r="28.8"/><circle class="st1" cx="73.1" cy="231.2" r="27.6"/><circle class="st2" cx="73.1" cy="231.2" r="20.7"/><path class="st3" d="M88.3 244.5c-7.6 7.6-20 7.6-27.7 0-7.6-7.6-7.6-20 0-27.7 6.5-6.5 16.5-7.4 24.1-2.9-8-5.5-19.1-4.5-26.2 2.6-8.2 8.2-8.2 21.2 0 29.4s21.2 8.2 29.4 0c3.8-3.8 5.8-8.5 6.1-13.3-.5 4.3-2.3 8.5-5.7 11.9z"/><path class="st4" d="M77.5 254.3c-.5 0-.9-.5-.9-.9s.5-.9.9-.9c1.1 0 6.2-.3 11.8-6.2.3-.3.9-.3 1.2 0 .3.3.3.9 0 1.2-4.7 5.1-9.8 6.8-13 6.8zm-19.4-39.9c-.2 0-.5-.2-.6-.3-.3-.3-.3-.9 0-1.2 2.9-2.9 6.4-4.5 11.1-5.3.5-.2.9.3 1.1.8.2.5-.3.9-.8 1.1-4.2.8-7.6 2.3-10.1 4.8-.2 0-.5.1-.7.1z"/><g><path class="st4" d="M67.9 238c-.7-.3-.9-.9-.6-1.5l.5-.9c.3-.6.8-.8 1.6-.4 1.1.4 2.4.8 3.6.8 1 0 2-.3 2-1.1 0-.5-.3-.7-.8-1-.5-.2-1.3-.4-2.3-.7-2.3-.6-4.3-1.7-4.3-4.4 0-2.5 1.8-3.8 4.1-4.3v-1.4c0-.6.5-1 1.1-1H74c.6 0 1.2.4 1.2 1v1.4c.9.1 1.9.4 2.7.7.7.2 1 .7.8 1.5l-.3.9c-.2.7-.8 1-1.6.6-1.1-.4-2.3-.8-3.4-.8-1.3 0-2 .3-2 1.1 0 1 1.1 1.3 3.4 1.8 2.3.6 4.3 1.4 4.3 4.1 0 2.7-1.7 4-4.1 4.4v1.3c0 .6-.6 1.1-1.2 1.1h-1.1c-.6 0-1.2-.4-1.2-1.1v-1.3c-1.3 0-2.5-.3-3.6-.8z"/></g><g><path class="st3" d="M67.9 237.3c-.7-.3-.9-.9-.6-1.5l.5-.9c.3-.6.8-.8 1.6-.4 1.1.4 2.4.8 3.6.8 1 0 2-.3 2-1.1 0-.5-.3-.7-.8-1-.5-.2-1.3-.4-2.3-.7-2.3-.6-4.3-1.7-4.3-4.4 0-2.5 1.8-3.8 4.1-4.3v-1.4c0-.6.5-1 1.1-1H74c.6 0 1.2.4 1.2 1v1.4c.9.1 1.9.4 2.7.7.7.2 1 .7.8 1.5l-.3.9c-.2.7-.8 1-1.6.6-1.1-.4-2.3-.8-3.4-.8-1.3 0-2 .3-2 1.1 0 1 1.1 1.3 3.4 1.8 2.3.6 4.3 1.4 4.3 4.1 0 2.7-1.7 4-4.1 4.4v1.3c0 .6-.6 1.1-1.2 1.1h-1.1c-.6 0-1.2-.4-1.2-1.1v-1.3c-1.3 0-2.5-.3-3.6-.8z"/></g></g></svg>