<?xml version="1.0" encoding="utf-8"?>
<!-- Generator: Adobe Illustrator 23.0.2, SVG Export Plug-In . SVG Version: 6.00 Build 0)  -->
<svg version="1.1" id="Camada_1" xmlns="http://www.w3.org/2000/svg" xmlns:xlink="http://www.w3.org/1999/xlink" x="0px" y="0px"
	 viewBox="0 0 320 320" style="enable-background:new 0 0 320 320;" xml:space="preserve">
<style type="text/css">
	.st0{fill:#FFAD33;}
	.st1{fill:#FADB4F;}
	.st2{fill:#FF9900;}
	.st3{fill:#F18B0E;}
	.st4{fill:#00ABDB;}
	.st5{fill:#EB3D7D;}
	.st6{fill:#CC1F59;}
	.st7{fill:#8533AD;}
	.st8{fill:#461E5F;}
</style>
<g>
	<path class="st0" d="M319.2,308.3H1.6l30.7-50.4c1.8-3,5-4.8,8.5-4.8H280c3.5,0,6.7,1.8,8.5,4.8L319.2,308.3z"/>
	<polygon class="st1" points="2.9,306.2 1.6,308.3 319.2,308.3 317.9,306.2 	"/>
	<g>
		<path class="st2" d="M282.2,253.1H38.6c-1.8,0-3.3-1.5-3.3-3.3V96.7c0-1.8,1.5-3.3,3.3-3.3h243.7c1.8,0,3.3,1.5,3.3,3.3v153.1
			C285.5,251.6,284.1,253.1,282.2,253.1z"/>
	</g>
	<path class="st1" d="M274.1,243.1H46.7c-0.7,0-1.2-0.5-1.2-1.2V106c0-0.7,0.5-1.2,1.2-1.2h227.3c0.7,0,1.2,0.5,1.2,1.2v135.9
		C275.3,242.6,274.7,243.1,274.1,243.1z"/>
	<path class="st3" d="M316.4,318H4.5c-1.6,0-2.8-1.3-2.8-2.8l0-6.9h317.5v7C319.2,316.8,317.9,318,316.4,318z"/>
	<polygon class="st2" points="292.2,281.3 277.3,256.8 42,256.8 27.1,281.3 	"/>
	<polygon class="st2" points="187.4,302.7 180.7,285.3 138.6,285.3 131.9,302.7 	"/>
</g>
<g>
	<path class="st4" d="M150.3,209.5c1.1,6.2,0.5,12.7-1.5,18.7c-0.5,1.6-1.2,3.2-2.4,4.3c-2.5,2.4-7-0.3-10.5-0.4s-8.8,1.2-10,4.2
		c-3.1,7.6,3.6,13.2,0.3,17.5c-2.6,3.4-11.3,5.8-13.2,13.5c-2,8.4,6.2,15.4,14.2,13.2c2.4-0.7,5.9-2.7,8.2-3.8c2.3-1.1,5-1.9,7.3-1
		c3.8,1.4,5.1,6,7.5,9.3c2.5,3.4,6.7,5.4,10.9,5.3c4.2-0.1,8.3-2.3,10.7-5.8c1.1-1.7,2-3.7,3.7-4.7c3.4-2.1,7.7,0.6,11.7,1.1
		c3.6,0.4,7.3-1.4,9.3-4.5c2.7-4.3,1.8-9.9-0.2-14.6c-0.4-0.9-0.8-1.9-0.6-3c0.3-1.9,2.6-2.7,4.4-3.6c5.3-2.7,7.7-10,5-15.4
		c-1.1-2.2-2.9-4-4.9-5.4c-3.9-2.8-8.9-4.1-13.7-3.7c-3.2,0.3-6.4,1.3-9.6,1.6s-6.8-0.3-9-2.6c-1.6-1.7-2.3-4.2-2.7-6.5
		c-0.9-5.5-0.3-11.2,1.6-16.4"/>
	<g>
		<path class="st5" d="M193,123.9c-1.8-34.8-19.8-63.2-29.3-75.8c-2.8-3.8-8.5-3.8-11.4,0c-9.4,12.5-27.5,40.7-29.2,75.9
			c-2.3,44.7,9.9,74.9,14.7,84.9c1.1,2.2,3.3,3.6,5.8,3.6h28.9c2.5,0,4.8-1.4,5.8-3.6C183.1,198.8,195.3,168.6,193,123.9z"/>
		<g>
			<path class="st6" d="M158,136.5c-12.1,0-21.9-9.8-21.9-21.9S146,92.6,158,92.6c12.1,0,21.9,9.8,21.9,21.9S170.1,136.5,158,136.5z
				 M158,99.5c-8.3,0-15,6.7-15,15s6.7,15,15,15c8.3,0,15-6.7,15-15S166.3,99.5,158,99.5z"/>
		</g>
		<circle class="st4" cx="158" cy="111.6" r="18"/>
		<g>
			<path class="st7" d="M158,133c-11.8,0-21.3-9.6-21.3-21.3s9.6-21.3,21.3-21.3c11.8,0,21.3,9.6,21.3,21.3S169.8,133,158,133z
				 M158,97c-8.1,0-14.6,6.6-14.6,14.6s6.6,14.6,14.6,14.6c8.1,0,14.6-6.6,14.6-14.6S166.1,97,158,97z"/>
		</g>
		<path class="st8" d="M151.8,194.1l5.1,39.9c0.2,1.5,2.1,1.5,2.3,0l5.1-39.9c0.6-4.5-2.4-8.5-6.2-8.5h0
			C154.2,185.6,151.2,189.6,151.8,194.1z"/>
		<g>
			<path class="st2" d="M158.1,69.4c7.7,0,14.8,0.8,20.3,2.2c-5.1-10.1-10.6-18.2-14.5-23.4c-2.9-3.8-8.6-3.8-11.5,0
				c-4,5.3-9.5,13.3-14.6,23.5C143.2,70.2,150.3,69.4,158.1,69.4z"/>
		</g>
		<g>
			<path class="st8" d="M188.7,188l6.2,6.4c5.4,5.6,9,12.7,10.5,20.3l1.9,9.8c0.5,2.3-2.2,4-4.1,2.7l-25.4-18.1
				c-1.3-0.9-1.8-2.6-1.2-4.1l6.5-15.8C183.9,186.8,186.9,186.2,188.7,188z"/>
			<path class="st8" d="M127.4,188l-6.2,6.4c-5.4,5.6-9,12.7-10.5,20.3l-1.9,9.8c-0.5,2.3,2.2,4,4.1,2.7l25.4-18.1
				c1.3-0.9,1.8-2.6,1.2-4.1l-6.5-15.8C132.2,186.8,129.2,186.2,127.4,188z"/>
		</g>
	</g>
	<circle class="st4" cx="114.3" cy="249.7" r="4.8"/>
	<circle class="st4" cx="206.7" cy="263.5" r="4.8"/>
	<circle class="st4" cx="136.4" cy="289.7" r="3.3"/>
</g>
</svg>
