<svg width="20" height="20" viewBox="0 0 20 20" fill="none" xmlns="http://www.w3.org/2000/svg">
<path d="M17.44 11.3398C17.66 10.8998 17.8001 10.4198 17.8001 9.8998C17.8001 8.5798 16.9601 7.4398 15.8001 6.9998C15.8001 4.6798 13.92 2.7998 11.6 2.7998C9.64005 2.7998 8.00005 4.1398 7.54005 5.9598C7.24005 5.8598 6.94005 5.7998 6.60005 5.7998C5.06005 5.7998 3.80005 6.9598 3.62005 8.4598C2.58005 8.6798 1.80005 9.5998 1.80005 10.6998C1.80005 11.9798 2.82005 12.9998 4.10005 12.9998C4.14005 12.9998 4.18005 12.9998 4.20005 12.9998C4.20005 13.0398 4.20005 13.0598 4.20005 13.0998C4.20005 15.3598 6.04005 17.1998 8.30005 17.1998C9.58005 17.1998 10.74 16.5998 11.48 15.6798C11.9201 16.1198 12.52 16.3998 13.2 16.3998C14.14 16.3998 14.94 15.8598 15.34 15.0998C15.56 15.1598 15.7801 15.1998 16.0001 15.1998C17.2201 15.1998 18.2001 14.2198 18.2001 12.9998C18.2001 12.3398 17.9 11.7398 17.44 11.3398Z" fill="#C7EDE6"/>
<path d="M15.3 14.1002V14.2002H15.9V14.1002C15.9 14.1002 16.74 14.1002 17 14.1002C17.5 14.1002 17.9 13.7002 17.9 13.2002C17.9 12.7402 17.54 12.3602 17.08 12.3002C17.08 12.2602 17.1 12.2202 17.1 12.2002C17.1 11.7002 16.7 11.3002 16.2 11.3002C15.92 11.3002 15.66 11.4402 15.5 11.6402C15.48 11.1202 15.04 10.7002 14.5 10.7002C13.94 10.7002 13.5 11.1402 13.5 11.7002C13.5 11.7802 13.52 11.8802 13.54 11.9602C13.4 11.8002 13.22 11.7002 13 11.7002C12.64 11.7002 12.36 11.9602 12.3 12.3202C12.26 12.3202 12.22 12.3002 12.2 12.3002C11.7 12.3002 11.3 12.7002 11.3 13.2002C11.3 13.7002 11.7 14.1002 12.2 14.1002C12.7 14.1002 14.1 14.1002 14.1 14.1002H15.3Z" fill="#FDFCEF"/>
<path d="M14.5 10.5996C13.9 10.5996 13.4 11.0996 13.4 11.6996C13.28 11.6196 13.14 11.5996 13 11.5996C12.64 11.5996 12.32 11.8596 12.22 12.1996H12.2C11.64 12.1996 11.2 12.6396 11.2 13.1996C11.2 13.7596 11.64 14.1996 12.2 14.1996H15.3C15.36 14.1996 15.4 14.1596 15.4 14.0996C15.4 14.0396 15.36 13.9996 15.3 13.9996H12.2C11.76 13.9996 11.4 13.6396 11.4 13.1996C11.4 12.7596 11.76 12.3996 12.2 12.3996C12.22 12.3996 12.24 12.3996 12.26 12.3996H12.28C12.28 12.3996 12.28 12.3996 12.3 12.3996C12.34 12.3996 12.4 12.3596 12.4 12.3196C12.44 12.0196 12.7 11.7996 13 11.7996C13.18 11.7996 13.34 11.8796 13.46 12.0196C13.48 12.0396 13.5 12.0596 13.54 12.0596C13.56 12.0596 13.58 12.0596 13.58 12.0396C13.62 12.0196 13.64 11.9796 13.64 11.9196C13.62 11.8396 13.6 11.7596 13.6 11.6796C13.6 11.1796 14 10.7796 14.5 10.7796C14.98 10.7796 15.36 11.1596 15.4 11.6396C15.4 11.6796 15.44 11.7196 15.46 11.7396C15.48 11.7396 15.48 11.7396 15.5 11.7396C15.54 11.7396 15.56 11.7196 15.58 11.6996C15.74 11.4996 15.96 11.3996 16.2 11.3996C16.64 11.3996 17 11.7596 17 12.1996C17 12.2196 17 12.2396 17 12.2596V12.2796C17 12.2996 17 12.3396 17.02 12.3596C17.04 12.3796 17.06 12.3996 17.08 12.3996C17.5 12.4396 17.8 12.7796 17.8 13.1996C17.8 13.6396 17.44 13.9996 17 13.9996H15.9C15.84 13.9996 15.8 14.0396 15.8 14.0996C15.8 14.1596 15.84 14.1996 15.9 14.1996H17C17.56 14.1996 18 13.7596 18 13.1996C18 12.7196 17.66 12.3196 17.2 12.2196V12.1996C17.2 11.6396 16.76 11.1996 16.2 11.1996C15.96 11.1996 15.74 11.2796 15.56 11.4396C15.44 10.9596 15.02 10.5996 14.5 10.5996Z" fill="#472B29"/>
<path d="M14.2 12C13.92 12 13.68 12.2 13.62 12.46C13.54 12.42 13.46 12.4 13.38 12.4C13.14 12.4 12.94 12.58 12.9 12.82C12.86 12.82 12.82 12.8 12.78 12.8C12.48 12.8 12.22 13.04 12.2 13.34C12.2 13.36 12.22 13.4 12.24 13.4C12.26 13.4 12.28 13.38 12.28 13.36C12.3 13.1 12.52 12.9 12.76 12.9C12.8 12.9 12.86 12.9 12.9 12.92C12.9 12.92 12.9 12.92 12.92 12.92C12.94 12.92 12.94 12.92 12.96 12.9C12.98 12.9 12.98 12.88 12.98 12.86C12.98 12.66 13.14 12.48 13.36 12.48C13.44 12.48 13.54 12.52 13.6 12.58C13.6 12.58 13.62 12.6 13.64 12.6H13.66C13.68 12.6 13.68 12.58 13.7 12.56C13.72 12.3 13.94 12.1 14.2 12.1C14.24 12.1 14.28 12.1 14.34 12.12C14.34 12.12 14.34 12.12 14.36 12.12C14.38 12.12 14.4 12.1 14.4 12.08C14.4 12.06 14.4 12.02 14.36 12.02C14.3 12 14.26 12 14.2 12ZM16.98 12.3C16.72 12.3 16.48 12.48 16.4 12.74C16.4 12.76 16.3999 12.8 16.4399 12.8C16.4399 12.8 16.44 12.8 16.46 12.8C16.48 12.8 16.5 12.78 16.5 12.76C16.56 12.54 16.76 12.4 16.98 12.4C17 12.4 17.0199 12.4 17.0399 12.4C17.0599 12.4 17.08 12.38 17.08 12.36C17.08 12.34 17.0599 12.3 17.0399 12.3C17.0399 12.3 17 12.3 16.98 12.3Z" fill="#472B29"/>
<path d="M6.69998 16H4.69998C4.63998 16 4.59998 15.96 4.59998 15.9C4.59998 15.84 4.63998 15.8 4.69998 15.8H6.69998C6.75998 15.8 6.79998 15.84 6.79998 15.9C6.79998 15.96 6.75998 16 6.69998 16ZM7.29998 16H7.09998C7.03998 16 6.99998 15.96 6.99998 15.9C6.99998 15.84 7.03998 15.8 7.09998 15.8H7.29998C7.35998 15.8 7.39998 15.84 7.39998 15.9C7.39998 15.96 7.35998 16 7.29998 16ZM8.29998 16.4H6.49998C6.43998 16.4 6.39998 16.36 6.39998 16.3C6.39998 16.24 6.43998 16.2 6.49998 16.2H8.29998C8.35998 16.2 8.39998 16.24 8.39998 16.3C8.39998 16.36 8.35998 16.4 8.29998 16.4ZM6.09998 16.4H5.89998C5.83998 16.4 5.79998 16.36 5.79998 16.3C5.79998 16.24 5.83998 16.2 5.89998 16.2H6.09998C6.15998 16.2 6.19998 16.24 6.19998 16.3C6.19998 16.36 6.15998 16.4 6.09998 16.4ZM5.49998 16.4H5.09998C5.03998 16.4 4.99998 16.36 4.99998 16.3C4.99998 16.24 5.03998 16.2 5.09998 16.2H5.49998C5.55998 16.2 5.59998 16.24 5.59998 16.3C5.59998 16.36 5.55998 16.4 5.49998 16.4ZM6.69998 16.8H6.29998C6.23998 16.8 6.19998 16.76 6.19998 16.7C6.19998 16.64 6.23998 16.6 6.29998 16.6H6.69998C6.75998 16.6 6.79998 16.64 6.79998 16.7C6.79998 16.76 6.75998 16.8 6.69998 16.8ZM7.29998 15C7.25998 15 7.13998 15 7.09998 15C7.03998 15 6.99998 15.04 6.99998 15.1C6.99998 15.16 7.03998 15.2 7.09998 15.2C7.13998 15.2 7.25998 15.2 7.29998 15.2C7.35998 15.2 7.39998 15.16 7.39998 15.1C7.39998 15.04 7.35998 15 7.29998 15ZM7.29998 15.4C7.25998 15.4 6.33998 15.4 6.29998 15.4C6.23998 15.4 6.19998 15.44 6.19998 15.5C6.19998 15.56 6.23998 15.6 6.29998 15.6C6.33998 15.6 7.25998 15.6 7.29998 15.6C7.35998 15.6 7.39998 15.56 7.39998 15.5C7.39998 15.44 7.35998 15.4 7.29998 15.4ZM8.29998 15.8C8.25998 15.8 7.73998 15.8 7.69998 15.8C7.63998 15.8 7.59998 15.84 7.59998 15.9C7.59998 15.96 7.63998 16 7.69998 16C7.73998 16 8.25998 16 8.29998 16C8.35998 16 8.39998 15.96 8.39998 15.9C8.39998 15.84 8.35998 15.8 8.29998 15.8Z" fill="white"/>
<path d="M14.4999 4.8002H12.4999C12.4399 4.8002 12.3999 4.7602 12.3999 4.7002C12.3999 4.6402 12.4399 4.6002 12.4999 4.6002H14.4999C14.5599 4.6002 14.5999 4.6402 14.5999 4.7002C14.5999 4.7602 14.5599 4.8002 14.4999 4.8002ZM15.2999 4.8002H14.8999C14.8399 4.8002 14.7999 4.7602 14.7999 4.7002C14.7999 4.6402 14.8399 4.6002 14.8999 4.6002H15.2999C15.3599 4.6002 15.3999 4.6402 15.3999 4.7002C15.3999 4.7602 15.3599 4.8002 15.2999 4.8002ZM16.2999 5.2002H14.2999C14.2399 5.2002 14.1999 5.1602 14.1999 5.1002C14.1999 5.0402 14.2399 5.0002 14.2999 5.0002H16.2999C16.3599 5.0002 16.3999 5.0402 16.3999 5.1002C16.3999 5.1602 16.3599 5.2002 16.2999 5.2002ZM13.8999 5.2002H13.6999C13.6399 5.2002 13.5999 5.1602 13.5999 5.1002C13.5999 5.0402 13.6399 5.0002 13.6999 5.0002H13.8999C13.9599 5.0002 13.9999 5.0402 13.9999 5.1002C13.9999 5.1602 13.9599 5.2002 13.8999 5.2002ZM13.2999 5.2002H12.8999C12.8399 5.2002 12.7999 5.1602 12.7999 5.1002C12.7999 5.0402 12.8399 5.0002 12.8999 5.0002H13.2999C13.3599 5.0002 13.3999 5.0402 13.3999 5.1002C13.3999 5.1602 13.3399 5.2002 13.2999 5.2002ZM15.0999 4.4002H14.0999C14.0399 4.4002 13.9999 4.3602 13.9999 4.3002C13.9999 4.2402 14.0399 4.2002 14.0999 4.2002H15.0999C15.1599 4.2002 15.1999 4.2402 15.1999 4.3002C15.1999 4.3602 15.1599 4.4002 15.0999 4.4002ZM14.4999 5.6002H14.0999C14.0399 5.6002 13.9999 5.5602 13.9999 5.5002C13.9999 5.4402 14.0399 5.4002 14.0999 5.4002H14.4999C14.5599 5.4002 14.5999 5.4402 14.5999 5.5002C14.5999 5.5602 14.5599 5.6002 14.4999 5.6002Z" fill="white"/>
<path d="M10.4999 5.19922C7.89993 5.19922 5.79993 7.29922 5.79993 9.89922C5.79993 10.7992 6.03993 11.6192 6.47993 12.3392L5.79993 14.4192L7.81993 13.7592C8.57993 14.2992 9.49993 14.5992 10.4999 14.5992C13.0999 14.5992 15.1999 12.4992 15.1999 9.89922C15.1999 7.29922 13.0999 5.19922 10.4999 5.19922Z" fill="#ADD4A1"/>
<path d="M10.5 14.7396C9.51997 14.7396 8.59997 14.4596 7.79997 13.9196L5.85997 14.5596C5.79997 14.5796 5.75997 14.5596 5.71997 14.5196C5.67997 14.4796 5.65997 14.4196 5.67997 14.3796L6.33997 12.3596C5.89997 11.6196 5.67997 10.7796 5.67997 9.89957C5.67997 7.23957 7.85997 5.05957 10.52 5.05957C13.18 5.05957 15.36 7.23957 15.36 9.89957C15.36 12.5596 13.16 14.7396 10.5 14.7396ZM7.81997 13.6196C7.83997 13.6196 7.87997 13.6196 7.89997 13.6396C8.65997 14.1796 9.55997 14.4596 10.5 14.4596C13.02 14.4596 15.06 12.4196 15.06 9.89957C15.06 7.37957 13.02 5.33957 10.5 5.33957C7.97997 5.33957 5.93997 7.37957 5.93997 9.89957C5.93997 10.7396 6.15997 11.5596 6.59997 12.2596C6.61997 12.2996 6.61997 12.3396 6.61997 12.3796L6.01997 14.1996L7.75997 13.6196C7.77997 13.6196 7.79997 13.6196 7.81997 13.6196Z" fill="#472B29"/>
<path d="M13.52 7.62012C12.82 6.72012 11.74 6.12012 10.5 6.12012C8.41997 6.12012 6.71997 7.82012 6.71997 9.90012C6.71997 10.6801 6.95997 11.4201 7.37997 12.0201L6.97997 13.2601L8.17997 12.8801C8.81997 13.3801 9.63997 13.7001 10.52 13.7001C12.6 13.7001 14.3 12.0001 14.3 9.92012C14.3 9.70012 14.28 9.50012 14.24 9.28012" fill="#5ABA9E"/>
<path d="M10.5 13.7795C9.64 13.7795 8.82 13.4995 8.14 12.9795L7 13.3595C6.96 13.3795 6.92 13.3595 6.9 13.3395C6.88 13.3195 6.86 13.2795 6.88 13.2395L7.26 12.0395C6.84 11.3995 6.62 10.6595 6.62 9.89953C6.62 7.75953 8.36 6.01953 10.5 6.01953C11.72 6.01953 12.86 6.57953 13.6 7.55953C13.64 7.59953 13.62 7.65953 13.58 7.69953C13.54 7.73953 13.48 7.71953 13.44 7.67953C12.74 6.75953 11.66 6.21953 10.5 6.21953C8.48 6.21953 6.82 7.87953 6.82 9.89953C6.82 10.6395 7.04 11.3595 7.46 11.9595C7.48 11.9795 7.48 12.0195 7.48 12.0395L7.14 13.0995L8.14 12.7795C8.18 12.7595 8.2 12.7795 8.24 12.7995C8.9 13.3195 9.68 13.5995 10.52 13.5995C12.54 13.5995 14.2 11.9395 14.2 9.91953C14.2 9.71953 14.18 9.49953 14.14 9.29953C14.14 9.23953 14.16 9.19953 14.22 9.17953C14.28 9.17953 14.32 9.19953 14.34 9.25953C14.38 9.47953 14.4 9.69953 14.4 9.89953C14.38 12.0395 12.64 13.7795 10.5 13.7795Z" fill="#472B29"/>
<path d="M14.1001 8.71957C14.0201 8.49957 13.9201 8.27957 13.8201 8.05957Z" fill="#5ABA9E"/>
<path d="M14.1 8.81953C14.06 8.81953 14.02 8.79953 14 8.75953C13.92 8.53953 13.84 8.31953 13.72 8.11953C13.7 8.07953 13.72 8.01953 13.76 7.97953C13.8 7.95953 13.86 7.97953 13.9 8.01953C14.02 8.23953 14.12 8.45953 14.2 8.67953C14.22 8.73953 14.18 8.77953 14.14 8.79953C14.12 8.81953 14.1 8.81953 14.1 8.81953Z" fill="#472B29"/>
<path d="M12.0199 11.92C11.7399 11.92 11.3399 11.82 10.7599 11.58C9.99992 11.28 9.23992 10.66 8.61992 9.82L8.57992 9.78C8.39992 9.54 8.07992 9.06 8.07992 8.58C8.05992 8.22 8.21992 7.86 8.51992 7.62C8.61992 7.54 8.75992 7.5 8.87992 7.5H8.91992H9.05992C9.05992 7.5 9.07992 7.5 9.09992 7.5C9.11992 7.5 9.11992 7.5 9.13992 7.5C9.15992 7.5 9.17992 7.52 9.19992 7.54C9.23992 7.58 9.25992 7.62 9.27992 7.68L9.43992 8.02C9.55992 8.3 9.65992 8.52 9.67992 8.56C9.69992 8.58 9.73992 8.66 9.69992 8.74C9.65992 8.8 9.61992 8.86 9.57992 8.9C9.55992 8.94 9.53992 8.96 9.49992 8.98L9.47992 9C9.45992 9.02 9.39992 9.08 9.35992 9.12C9.25992 9.22 9.23992 9.34 9.29992 9.44C9.49992 9.76 9.73992 10.04 10.0399 10.28C10.3399 10.54 10.6799 10.74 11.0599 10.88L11.0999 10.9C11.1399 10.92 11.1999 10.94 11.2599 10.94C11.3599 10.94 11.4399 10.9 11.4999 10.84C11.5999 10.74 11.6999 10.6 11.7999 10.48L11.8599 10.4C11.8799 10.38 11.9199 10.32 11.9999 10.32C12.0199 10.32 12.0599 10.32 12.0799 10.34C12.1799 10.38 12.7399 10.62 12.9399 10.72L13.0199 10.76L13.1199 10.8C13.1599 10.82 13.1799 10.84 13.1799 10.88C13.1799 11.06 13.1599 11.22 13.0999 11.38C12.9999 11.62 12.5999 11.86 12.2799 11.92C12.1999 11.9 12.1199 11.92 12.0199 11.92Z" fill="#FDFCEE"/>
<path d="M9.07998 7.59988C9.09998 7.59988 9.09998 7.59988 9.11998 7.59988C9.13998 7.61988 9.15998 7.65988 9.17998 7.69988L9.29998 7.95988C9.45998 8.29988 9.55998 8.55988 9.57998 8.59988C9.59998 8.63988 9.59998 8.65988 9.59998 8.67988C9.57998 8.73988 9.53998 8.77988 9.49998 8.81988L9.47998 8.83988C9.45998 8.85988 9.41998 8.89988 9.39998 8.91988C9.37998 8.93988 9.31998 8.99988 9.27998 9.03988C9.13998 9.15988 9.11998 9.33988 9.21998 9.47988C9.41998 9.79988 9.67998 10.0999 9.97998 10.3399C10.28 10.5999 10.64 10.7999 11.02 10.9399L11.06 10.9599C11.12 10.9799 11.18 10.9999 11.24 10.9999C11.36 10.9999 11.48 10.9599 11.56 10.8799C11.66 10.7599 11.78 10.6399 11.86 10.5199L11.92 10.4399C11.94 10.4199 11.96 10.3999 11.98 10.3999C12 10.3999 12.02 10.3999 12.04 10.4199C12.14 10.4599 12.68 10.6999 12.9 10.7999L12.98 10.8399L13.08 10.8799C13.08 11.0399 13.06 11.1999 13 11.3399C12.92 11.5599 12.56 11.7599 12.26 11.8199C12.2 11.8399 12.14 11.8399 12.04 11.8399C11.84 11.8399 11.5 11.7799 10.8 11.5199C10.06 11.2399 9.29998 10.6199 8.69998 9.79988L8.65998 9.75988C8.47998 9.51988 8.17998 9.07988 8.17998 8.61988C8.15998 8.27988 8.31998 7.95988 8.57998 7.71988C8.65998 7.65988 8.77998 7.61988 8.87998 7.61988H8.89998C8.95998 7.61988 8.99998 7.61988 9.03998 7.61988C9.03998 7.59988 9.05998 7.59988 9.07998 7.59988ZM9.07998 7.39988C9.05998 7.39988 9.05998 7.39988 9.03998 7.39988H8.91998C8.89998 7.39988 8.89998 7.39988 8.87998 7.39988C8.71998 7.39988 8.57998 7.45988 8.45998 7.53988C8.13998 7.79988 7.97998 8.19988 7.97998 8.57988C7.97998 9.07988 8.31998 9.57988 8.51998 9.83988L8.55998 9.87988C9.17998 10.7199 9.95998 11.3599 10.74 11.6599C11.34 11.8999 11.76 11.9999 12.04 11.9999C12.16 11.9999 12.24 11.9799 12.3 11.9799C12.64 11.9199 13.08 11.6799 13.18 11.3799C13.24 11.2199 13.28 11.0199 13.28 10.8399C13.28 10.7599 13.22 10.6999 13.16 10.6599L13.06 10.6199L12.96 10.5999C12.78 10.5199 12.2 10.2399 12.08 10.1999C12.06 10.1999 12.02 10.1799 11.96 10.1799C11.82 10.1799 11.76 10.2799 11.74 10.2999L11.68 10.3799C11.58 10.4999 11.5 10.6199 11.4 10.7199C11.36 10.7599 11.3 10.7799 11.22 10.7799C11.18 10.7799 11.14 10.7799 11.12 10.7599L11.08 10.7399C10.72 10.5999 10.38 10.4199 10.1 10.1599C9.81998 9.91988 9.57998 9.63988 9.37998 9.33988C9.33998 9.27988 9.35998 9.19988 9.39998 9.15988L9.41998 9.13988C9.45998 9.09988 9.49998 9.05988 9.51998 9.01988L9.53998 8.99988C9.55998 8.97988 9.57998 8.95988 9.59998 8.93988C9.65998 8.87988 9.69998 8.81988 9.73998 8.75988C9.77998 8.69988 9.79998 8.59988 9.71998 8.47988C9.69998 8.43988 9.59998 8.21988 9.47998 7.95988L9.43998 7.85988L9.31998 7.59988C9.29998 7.53988 9.25998 7.47988 9.21998 7.43988C9.17998 7.39988 9.13998 7.37988 9.09998 7.37988C9.09998 7.39988 9.07998 7.39988 9.07998 7.39988Z" fill="#472B29"/>
<path d="M6.50002 11.2992C6.50002 11.2992 6.82002 11.2992 7.20002 11.2992C7.58002 11.2992 7.90002 10.9792 7.90002 10.5992C7.90002 10.2392 7.64002 9.95922 7.28002 9.89922C7.28002 9.85922 7.30002 9.81922 7.30002 9.79922C7.30002 9.41922 6.98002 9.09922 6.60002 9.09922C6.40002 9.09922 6.20002 9.19922 6.08002 9.33922C6.00002 8.97922 5.68002 8.69922 5.30002 8.69922C4.86002 8.69922 4.50002 9.05922 4.50002 9.49922C4.50002 9.53922 4.50002 9.57922 4.52002 9.61922C4.44002 9.55922 4.32002 9.49922 4.20002 9.49922C3.96002 9.49922 3.76002 9.67922 3.70002 9.91922C3.66002 9.91922 3.62002 9.89922 3.60002 9.89922C3.22002 9.89922 2.90002 10.2192 2.90002 10.5992C2.90002 10.9792 3.22002 11.2992 3.60002 11.2992C3.98002 11.2992 5.10002 11.2992 5.10002 11.2992V11.3992H6.50002V11.2992Z" fill="#FDFCEF"/>
<path d="M6.86003 10.3994C6.84003 10.3994 6.80003 10.3794 6.80003 10.3394C6.80003 10.0994 7.00003 9.89941 7.24003 9.89941C7.24003 9.89941 7.38003 9.89941 7.48003 9.91941C7.50003 9.91941 7.52003 9.95941 7.52003 9.97941C7.52003 9.99941 7.48003 10.0194 7.46003 10.0194C7.38003 9.99941 7.24003 9.99941 7.24003 9.99941C7.06003 9.99941 6.90003 10.1594 6.90003 10.3394C6.90003 10.3794 6.88003 10.3994 6.86003 10.3994ZM5.50002 11.1994C5.4735 11.1994 5.44807 11.2099 5.42931 11.2287C5.41056 11.2475 5.40002 11.2729 5.40002 11.2994C5.40002 11.3259 5.41056 11.3514 5.42931 11.3701C5.44807 11.3889 5.4735 11.3994 5.50002 11.3994C5.52655 11.3994 5.55198 11.3889 5.57074 11.3701C5.58949 11.3514 5.60002 11.3259 5.60002 11.2994C5.60002 11.2729 5.58949 11.2475 5.57074 11.2287C5.55198 11.2099 5.52655 11.1994 5.50002 11.1994Z" fill="#472B29"/>
<path d="M7.20005 11.3996H6.50005C6.44005 11.3996 6.40005 11.3596 6.40005 11.2996C6.40005 11.2396 6.44005 11.1996 6.50005 11.1996H7.20005C7.54005 11.1996 7.80005 10.9396 7.80005 10.5996C7.80005 10.2996 7.58005 10.0396 7.28005 9.99961C7.26005 9.99961 7.22005 9.97961 7.22005 9.95961C7.22005 9.93961 7.20005 9.91961 7.20005 9.87961C7.20005 9.83961 7.20005 9.81961 7.20005 9.77961C7.20005 9.43961 6.94005 9.17961 6.60005 9.17961C6.44005 9.17961 6.28005 9.25961 6.16005 9.37961C6.14005 9.39961 6.10005 9.41961 6.06005 9.39961C6.02005 9.39961 6.00005 9.35961 5.98005 9.31961C5.92005 8.99961 5.62005 8.75961 5.30005 8.75961C4.92005 8.75961 4.60005 9.07961 4.60005 9.45961C4.60005 9.47961 4.60005 9.51961 4.60005 9.53961C4.60005 9.57961 4.58005 9.61961 4.56005 9.63961C4.54005 9.65961 4.48005 9.65961 4.44005 9.63961C4.38005 9.63961 4.28005 9.59961 4.20005 9.59961C4.00005 9.59961 3.84005 9.73961 3.80005 9.91961C3.80005 9.97961 3.74005 9.99961 3.68005 9.99961C3.64005 9.99961 3.62005 9.99961 3.58005 9.99961C3.24005 9.99961 2.98005 10.2596 2.98005 10.5996C2.98005 10.9396 3.24005 11.1996 3.58005 11.1996H5.08005C5.14005 11.1996 5.18005 11.2396 5.18005 11.2996C5.18005 11.3596 5.16005 11.3996 5.10005 11.3996H3.60005C3.16005 11.3996 2.80005 11.0396 2.80005 10.5996C2.80005 10.1596 3.16005 9.79961 3.60005 9.79961C3.62005 9.79961 3.62005 9.79961 3.64005 9.79961C3.72005 9.55961 3.94005 9.39961 4.20005 9.39961C4.26005 9.39961 4.34005 9.41961 4.40005 9.43961C4.44005 8.97961 4.82005 8.59961 5.30005 8.59961C5.66005 8.59961 6.00005 8.81961 6.14005 9.15961C6.28005 9.05961 6.44005 8.99961 6.60005 8.99961C7.04005 8.99961 7.40005 9.35961 7.40005 9.79961V9.81961C7.74005 9.89961 8.00005 10.2196 8.00005 10.5996C8.00005 11.0396 7.64005 11.3996 7.20005 11.3996Z" fill="#472B29"/>
<path d="M6.10005 11.1992C6.06005 11.1992 5.94005 11.1992 5.90005 11.1992C5.84005 11.1992 5.80005 11.2392 5.80005 11.2992C5.80005 11.3592 5.84005 11.3992 5.90005 11.3992C5.94005 11.3992 6.06005 11.3992 6.10005 11.3992C6.16005 11.3992 6.20005 11.3592 6.20005 11.2992C6.20005 11.2392 6.16005 11.1992 6.10005 11.1992Z" fill="#472B29"/>
</svg>
