<svg width="20" height="20" viewBox="0 0 20 20" fill="none" xmlns="http://www.w3.org/2000/svg">
<path d="M17.443 11.3418C17.67 10.9108 17.8001 10.4208 17.8001 9.8998C17.8001 8.5756 16.9683 7.4484 15.7999 7.0042C15.7999 7.0028 15.8001 7.0014 15.8001 6.9998C15.8001 4.6802 13.9196 2.7998 11.6 2.7998C9.64325 2.7998 8.00385 4.14 7.53745 5.9512C7.24225 5.8542 6.92765 5.7998 6.60005 5.7998C5.06165 5.7998 3.79545 6.9584 3.62205 8.4502C2.58125 8.6704 1.80005 9.5936 1.80005 10.6998C1.80005 11.97 2.82985 12.9998 4.10005 12.9998C4.13545 12.9998 4.17045 12.9974 4.20525 12.9954C4.20445 13.0304 4.20005 13.0646 4.20005 13.0998C4.20005 15.3642 6.03565 17.1998 8.30005 17.1998C9.58745 17.1998 10.735 16.6054 11.4868 15.677C11.9224 16.122 12.528 16.3998 13.2 16.3998C14.13 16.3998 14.9349 15.8698 15.3333 15.0962C15.5437 15.1632 15.7675 15.1998 16.0001 15.1998C17.2151 15.1998 18.2001 14.2148 18.2001 12.9998C18.2001 12.3376 17.906 11.7452 17.443 11.3418Z" fill="#C7EDE6"/>
<path d="M15.975 12.1002C15.975 12.1002 16.703 12.1002 17.2 12.1002C17.697 12.1002 18.1 11.6972 18.1 11.2002C18.1 10.7336 17.7436 10.3544 17.289 10.3092C17.2934 10.273 17.3 10.2376 17.3 10.2002C17.3 9.7032 16.897 9.3002 16.4 9.3002C16.1124 9.3002 15.8594 9.4374 15.6946 9.6474C15.6666 9.1202 15.2342 8.7002 14.7 8.7002C14.1478 8.7002 13.7 9.148 13.7 9.7002C13.7 9.7894 13.7154 9.8742 13.7374 9.9566C13.609 9.8012 13.4172 9.7002 13.2 9.7002C12.8438 9.7002 12.5532 9.9672 12.509 10.3112C12.4728 10.3068 12.4374 10.3002 12.4 10.3002C11.903 10.3002 11.5 10.7032 11.5 11.2002C11.5 11.6972 11.903 12.1002 12.4 12.1002C12.897 12.1002 14.3 12.1002 14.3 12.1002H15.375V12.2002H15.975V12.1002Z" fill="#FDFCEF"/>
<path d="M14.7 8.59961C14.0934 8.59961 13.6 9.09301 13.6 9.69961C13.6 9.70281 13.6 9.70581 13.6 9.70901C13.4796 9.63801 13.342 9.59961 13.2 9.59961C12.8338 9.59961 12.5178 9.85181 12.4284 10.2006C12.419 10.2 12.4096 10.1996 12.4 10.1996C11.8486 10.1996 11.4 10.6482 11.4 11.1996C11.4 11.751 11.8486 12.1996 12.4 12.1996H15.375C15.4302 12.1996 15.475 12.1548 15.475 12.0996C15.475 12.0444 15.4302 11.9996 15.375 11.9996H12.4C11.9588 11.9996 11.6 11.6408 11.6 11.1996C11.6 10.7584 11.9588 10.3996 12.4 10.3996C12.4234 10.3996 12.446 10.403 12.4686 10.406L12.4968 10.4098C12.501 10.4104 12.505 10.4106 12.5092 10.4106C12.5584 10.4106 12.6016 10.3736 12.6082 10.3232C12.6464 10.0246 12.9008 9.79961 13.2 9.79961C13.377 9.79961 13.5446 9.87981 13.6602 10.0196C13.6798 10.0432 13.7084 10.056 13.7374 10.056C13.753 10.056 13.7686 10.0524 13.783 10.0448C13.8248 10.0234 13.8458 9.97561 13.8338 9.93021C13.8108 9.84321 13.8 9.77001 13.8 9.69961C13.8 9.20341 14.2038 8.79961 14.7 8.79961C15.1762 8.79961 15.5694 9.17401 15.5948 9.65221C15.597 9.69381 15.6248 9.72961 15.6646 9.74221C15.6746 9.74541 15.6848 9.74701 15.695 9.74701C15.725 9.74701 15.7542 9.73321 15.7734 9.70861C15.9276 9.51221 16.1558 9.39961 16.4 9.39961C16.8412 9.39961 17.2 9.75841 17.2 10.1996C17.2 10.223 17.1966 10.2456 17.1936 10.2682L17.1898 10.2964C17.1866 10.3232 17.1942 10.35 17.211 10.371C17.2278 10.392 17.2524 10.4054 17.279 10.408C17.6902 10.449 18 10.7894 18 11.1996C18 11.6408 17.6412 11.9996 17.2 11.9996H15.975C15.9198 11.9996 15.875 12.0444 15.875 12.0996C15.875 12.1548 15.9198 12.1996 15.975 12.1996H17.2C17.7514 12.1996 18.2 11.751 18.2 11.1996C18.2 10.7202 17.8622 10.317 17.3994 10.2242C17.3998 10.216 17.4 10.2078 17.4 10.1996C17.4 9.64821 16.9514 9.19961 16.4 9.19961C16.1648 9.19961 15.9414 9.28281 15.7634 9.43241C15.6438 8.95161 15.211 8.59961 14.7 8.59961Z" fill="#472B29"/>
<path d="M14.3999 10C14.1193 10 13.8781 10.1998 13.8173 10.4682C13.7439 10.4238 13.6601 10.4 13.5749 10.4C13.3345 10.4 13.1353 10.5794 13.1043 10.8136C13.0637 10.8044 13.0251 10.8 12.9875 10.8C12.6817 10.8 12.4253 11.04 12.4039 11.3464C12.4019 11.374 12.4227 11.398 12.4501 11.4C12.4513 11.4 12.4525 11.4 12.4537 11.4C12.4797 11.4 12.5017 11.3798 12.5035 11.3536C12.5213 11.0994 12.7337 10.9 12.9873 10.9C13.0331 10.9 13.0813 10.9084 13.1349 10.9254C13.1393 10.9268 13.1439 10.9274 13.1483 10.9274C13.1593 10.9274 13.1703 10.9234 13.1795 10.9166C13.1923 10.9074 13.1999 10.891 13.1999 10.875C13.1999 10.6682 13.3681 10.5 13.5749 10.5C13.6643 10.5 13.7519 10.5336 13.8211 10.5946C13.8305 10.6028 13.8423 10.6072 13.8541 10.6072C13.8605 10.6072 13.8667 10.606 13.8727 10.6034C13.8903 10.5964 13.9023 10.58 13.9037 10.561C13.9245 10.3024 14.1423 10.1 14.3999 10.1C14.4415 10.1 14.4849 10.1068 14.5363 10.1214C14.5409 10.1228 14.5457 10.1234 14.5503 10.1234C14.5721 10.1234 14.5917 10.1088 14.5981 10.087C14.6057 10.0604 14.5903 10.0328 14.5637 10.0252C14.5033 10.008 14.4511 10 14.3999 10ZM17.1765 10.3C16.9113 10.3 16.6749 10.4794 16.6017 10.7364C16.5941 10.763 16.6095 10.7906 16.6361 10.7982C16.6409 10.7994 16.6455 10.8 16.6499 10.8C16.6717 10.8 16.6917 10.7856 16.6979 10.7636C16.7589 10.5496 16.9557 10.4 17.1765 10.4C17.1999 10.4 17.2225 10.4028 17.2449 10.4058C17.2473 10.4062 17.2495 10.4064 17.2519 10.4064C17.2761 10.4064 17.2977 10.388 17.3011 10.363C17.3049 10.3356 17.2857 10.3104 17.2583 10.3068C17.2315 10.3032 17.2043 10.3 17.1765 10.3Z" fill="#472B29"/>
<path d="M3.081 10.2002H1.1C1.0448 10.2002 1 10.1554 1 10.1002C1 10.045 1.0448 10.0002 1.1 10.0002H3.081C3.1362 10.0002 3.181 10.045 3.181 10.1002C3.181 10.1554 3.1364 10.2002 3.081 10.2002ZM3.7 10.2002H3.5C3.4448 10.2002 3.4 10.1554 3.4 10.1002C3.4 10.045 3.4448 10.0002 3.5 10.0002H3.7C3.7552 10.0002 3.8 10.045 3.8 10.1002C3.8 10.1554 3.7554 10.2002 3.7 10.2002ZM4.6982 10.6002H2.9C2.8448 10.6002 2.8 10.5554 2.8 10.5002C2.8 10.445 2.8448 10.4002 2.9 10.4002H4.6982C4.7534 10.4002 4.7982 10.445 4.7982 10.5002C4.7982 10.5554 4.7534 10.6002 4.6982 10.6002ZM2.5 10.6002H2.3C2.2448 10.6002 2.2 10.5554 2.2 10.5002C2.2 10.445 2.2448 10.4002 2.3 10.4002H2.5C2.5552 10.4002 2.6 10.445 2.6 10.5002C2.6 10.5554 2.5554 10.6002 2.5 10.6002ZM1.9 10.6002H1.5C1.4448 10.6002 1.4 10.5554 1.4 10.5002C1.4 10.445 1.4448 10.4002 1.5 10.4002H1.9C1.9552 10.4002 2 10.445 2 10.5002C2 10.5554 1.9554 10.6002 1.9 10.6002ZM3.1 11.0002H2.7C2.6448 11.0002 2.6 10.9554 2.6 10.9002C2.6 10.845 2.6448 10.8002 2.7 10.8002H3.1C3.1552 10.8002 3.2 10.845 3.2 10.9002C3.2 10.9554 3.1552 11.0002 3.1 11.0002ZM3.7 9.2002C3.6646 9.2002 3.5354 9.2002 3.5 9.2002C3.4448 9.2002 3.4 9.245 3.4 9.3002C3.4 9.3554 3.4448 9.4002 3.5 9.4002C3.5354 9.4002 3.6646 9.4002 3.7 9.4002C3.7552 9.4002 3.8 9.3554 3.8 9.3002C3.8 9.245 3.7552 9.2002 3.7 9.2002ZM3.7 9.6002C3.6646 9.6002 2.7354 9.6002 2.7 9.6002C2.6448 9.6002 2.6 9.645 2.6 9.7002C2.6 9.7554 2.6448 9.8002 2.7 9.8002C2.7354 9.8002 3.6646 9.8002 3.7 9.8002C3.7552 9.8002 3.8 9.7554 3.8 9.7002C3.8 9.645 3.7552 9.6002 3.7 9.6002ZM4.7 10.0002C4.6646 10.0002 4.1354 10.0002 4.1 10.0002C4.0448 10.0002 4 10.045 4 10.1002C4 10.1554 4.0448 10.2002 4.1 10.2002C4.1354 10.2002 4.6646 10.2002 4.7 10.2002C4.7552 10.2002 4.8 10.1554 4.8 10.1002C4.8 10.045 4.7552 10.0002 4.7 10.0002Z" fill="white"/>
<path d="M14.5 4.8002H12.5C12.4448 4.8002 12.4 4.7554 12.4 4.7002C12.4 4.645 12.4448 4.6002 12.5 4.6002H14.5C14.5552 4.6002 14.6 4.645 14.6 4.7002C14.6 4.7554 14.5552 4.8002 14.5 4.8002ZM15.3 4.8002H14.9C14.8448 4.8002 14.8 4.7554 14.8 4.7002C14.8 4.645 14.8448 4.6002 14.9 4.6002H15.3C15.3552 4.6002 15.4 4.645 15.4 4.7002C15.4 4.7554 15.3552 4.8002 15.3 4.8002ZM16.3 5.2002H14.3C14.2448 5.2002 14.2 5.1554 14.2 5.1002C14.2 5.045 14.2448 5.0002 14.3 5.0002H16.3C16.3552 5.0002 16.4 5.045 16.4 5.1002C16.4 5.1554 16.3554 5.2002 16.3 5.2002ZM13.9 5.2002H13.7C13.6448 5.2002 13.6 5.1554 13.6 5.1002C13.6 5.045 13.6448 5.0002 13.7 5.0002H13.9C13.9552 5.0002 14 5.045 14 5.1002C14 5.1554 13.9552 5.2002 13.9 5.2002ZM13.275 5.2002H12.9C12.8448 5.2002 12.8 5.1554 12.8 5.1002C12.8 5.045 12.8448 5.0002 12.9 5.0002H13.275C13.3302 5.0002 13.375 5.045 13.375 5.1002C13.375 5.1554 13.3302 5.2002 13.275 5.2002ZM15.1 4.4002H14.1C14.0448 4.4002 14 4.3554 14 4.3002C14 4.245 14.0448 4.2002 14.1 4.2002H15.1C15.1552 4.2002 15.2 4.245 15.2 4.3002C15.2 4.3554 15.1554 4.4002 15.1 4.4002ZM14.5 5.6002H14.1C14.0448 5.6002 14 5.5554 14 5.5002C14 5.445 14.0448 5.4002 14.1 5.4002H14.5C14.5552 5.4002 14.6 5.445 14.6 5.5002C14.6 5.5554 14.5552 5.6002 14.5 5.6002Z" fill="white"/>
<path d="M7.40006 14.2593C6.59506 14.2593 5.94006 13.6045 5.94006 12.7993V7.19926C5.94006 6.39426 6.59486 5.73926 7.40006 5.73926H13.0001C13.8051 5.73926 14.4601 6.39406 14.4601 7.19926V12.7993C14.4601 13.6043 13.8053 14.2593 13.0001 14.2593H7.40006Z" fill="#EA5167"/>
<path d="M13.0001 5.87961C13.7279 5.87961 14.32 6.47181 14.32 7.19961V12.7996C14.32 13.5274 13.7279 14.1196 13.0001 14.1196H7.40005C6.67225 14.1196 6.08005 13.5274 6.08005 12.7996V7.19961C6.08005 6.47181 6.67225 5.87961 7.40005 5.87961H13.0001ZM13.0001 5.59961H7.40005C6.51645 5.59961 5.80005 6.31601 5.80005 7.19961V12.7996C5.80005 13.6832 6.51645 14.3996 7.40005 14.3996H13.0001C13.8837 14.3996 14.6001 13.6832 14.6001 12.7996V7.19961C14.6001 6.31601 13.8837 5.59961 13.0001 5.59961Z" fill="#472B29"/>
<path d="M13.6892 9.50175C13.634 9.50175 13.5892 9.45695 13.5892 9.40175V8.66055C13.5892 8.60535 13.634 8.56055 13.6892 8.56055C13.7444 8.56055 13.7892 8.60535 13.7892 8.66055V9.40175C13.7892 9.45695 13.7444 9.50175 13.6892 9.50175Z" fill="#472B29"/>
<path d="M13.7016 8.21248C13.6464 8.21248 13.6016 8.16768 13.6016 8.11248V7.72988C13.6016 7.67468 13.6464 7.62988 13.7016 7.62988C13.7568 7.62988 13.8016 7.67468 13.8016 7.72988V8.11248C13.8016 8.16768 13.757 8.21248 13.7016 8.21248Z" fill="#472B29"/>
<path d="M12.8501 13.588H7.56235C7.03855 13.588 6.61255 13.1618 6.61255 12.6382V7.35019C6.61255 6.82659 7.03855 6.40039 7.56235 6.40039H12.3543C12.4095 6.40039 12.4543 6.44519 12.4543 6.50039C12.4543 6.55559 12.4095 6.60039 12.3543 6.60039H7.56235C7.14895 6.60039 6.81255 6.93679 6.81255 7.35019V12.638C6.81255 13.0514 7.14895 13.3878 7.56235 13.3878H12.8501C13.2635 13.3878 13.5999 13.0514 13.5999 12.638V9.92319C13.5999 9.86799 13.6447 9.82319 13.6999 9.82319C13.7551 9.82319 13.7999 9.86799 13.7999 9.92319V12.638C13.7999 13.1618 13.3739 13.588 12.8501 13.588Z" fill="#472B29"/>
<path d="M11.7272 9.63081C11.783 9.63201 11.8182 9.63261 11.8334 9.63261C11.917 9.63681 12.0024 9.63941 12.0836 9.64161C12.6266 9.65701 12.926 9.66561 13.0568 10.1664C13.124 10.4938 13.1666 10.9422 13.1666 11.3324C13.1626 11.4138 13.1598 11.5008 13.157 11.5884C13.1348 12.2956 13.1138 12.9638 12.4446 13.017C12.0354 13.0488 10.9656 13.066 10.1664 13.0662C9.36738 13.066 8.29758 13.0488 7.88818 13.0172C7.21938 12.964 7.19818 12.2958 7.17598 11.5886C7.17298 11.501 7.17058 11.4142 7.16638 11.329C7.16638 10.9422 7.20878 10.494 7.27698 10.1626C7.40698 9.66541 7.70598 9.65701 8.24938 9.64161C8.33058 9.63941 8.41598 9.63681 8.50438 9.63241C8.50518 9.63241 8.55398 9.63181 8.60558 9.63081C8.81858 9.62641 9.31698 9.61621 10.1478 9.61621C10.1478 9.61621 10.18 9.61641 10.1862 9.61641C10.4032 9.61641 10.597 9.61701 10.7686 9.61821C10.865 9.61881 10.9546 9.61961 11.0374 9.62041" fill="white"/>
<path d="M9.25784 6.86816L8.92104 7.81136L8.58424 6.86816H8.24744L8.75264 8.28296V9.22596H9.08944V8.28296L9.59484 6.86816H9.25784ZM11.4474 7.45756V8.76276C11.4474 8.76276 11.3738 8.92976 11.2368 8.93116C11.1136 8.93236 11.1104 8.86456 11.1104 8.82596V7.45756H10.7736V8.88916C10.7736 9.14176 10.963 9.22596 11.0752 9.22596C11.2998 9.22596 11.4052 9.05756 11.4472 8.99436V9.20496H11.784V7.45756H11.4474ZM10.0578 9.22596C9.77924 9.22596 9.55264 8.99456 9.55264 8.71016V7.95236C9.55264 7.66816 9.77924 7.43656 10.0578 7.43656C10.3364 7.43656 10.563 7.66796 10.563 7.95236V8.71016C10.5632 8.99456 10.3364 9.22596 10.0578 9.22596ZM10.0578 7.75236C9.96484 7.75236 9.88944 7.83576 9.88944 7.93836V8.72436C9.88944 8.82696 9.96484 8.91036 10.0578 8.91036C10.1508 8.91036 10.2262 8.82696 10.2262 8.72436V7.93836C10.2264 7.83576 10.1508 7.75236 10.0578 7.75236Z" fill="white"/>
<path d="M9.96655 12.4947H9.61795V12.2631C9.57435 12.3263 9.46555 12.4945 9.23295 12.4947C9.11695 12.4947 8.92075 12.4105 8.92075 12.1579V10.6421H9.26935V12.0947C9.26935 12.1335 9.27255 12.2011 9.40015 12.1999C9.54175 12.1985 9.61795 12.0315 9.61795 12.0315V10.6421H9.96655V12.4947V12.4947ZM8.76655 10.4735H8.41115V12.4947H8.05555V10.4735H7.69995V10.1367H8.76655V10.4735ZM11.3476 11.0731C11.3476 10.9277 11.3 10.8293 11.2392 10.7549C11.179 10.6807 11.09 10.6419 10.977 10.6419C10.9204 10.6419 10.8638 10.6571 10.8074 10.6849C10.7508 10.7121 10.6906 10.7599 10.6506 10.8205V10.1367H10.302V12.4945H10.6506V12.2629C10.7178 12.3389 10.816 12.4963 10.9992 12.4945C11.2606 12.4945 11.3478 12.2629 11.3478 12.0735V11.0731H11.3476ZM10.9992 11.9933C10.9992 12.0863 10.9212 12.1579 10.825 12.1579C10.7288 12.1579 10.6522 12.1221 10.6508 12.0737V11.0733C10.6524 10.9885 10.7288 10.9049 10.825 10.9049C10.9212 10.9049 10.9992 10.9789 10.9992 11.1475V11.9933ZM12.7 11.6525V11.1277C12.7 10.9597 12.6122 10.6419 12.1736 10.6419C11.757 10.6419 11.6478 10.9753 11.6478 11.1277V11.9207C11.6478 12.0929 11.6966 12.2261 11.7896 12.3235C11.8834 12.4211 12.0134 12.4681 12.1804 12.4681C12.3626 12.4681 12.5014 12.4247 12.5906 12.3309C12.6846 12.2411 12.7 12.1049 12.7 11.9207V11.8209H12.3492V11.9051C12.3492 12.0067 12.3388 12.0847 12.3142 12.1125C12.29 12.1435 12.245 12.1571 12.1736 12.1579C12.1092 12.1585 12.0602 12.1413 12.036 12.1027C12.0112 12.0675 11.9982 12.0069 11.9982 11.9131V11.6527H12.7V11.6525ZM11.9982 11.1473C11.9998 11.0569 12.0768 10.9789 12.1736 10.9789C12.2704 10.9789 12.349 11.0437 12.349 11.1473V11.3157H11.9982V11.1473V11.1473Z" fill="#EA5167"/>
<path d="M11.7273 9.68127C11.7271 9.68127 11.7267 9.68127 11.7263 9.68127L11.7127 9.68107C11.6037 9.67867 11.4267 9.67527 11.1746 9.67227C11.147 9.67187 11.1248 9.64927 11.1252 9.62167C11.1254 9.59427 11.1478 9.57227 11.1752 9.57227C11.1754 9.57227 11.1757 9.57227 11.1759 9.57227C11.4283 9.57527 11.6055 9.57867 11.7147 9.58107L11.7283 9.58127C11.7559 9.58187 11.7779 9.60467 11.7773 9.63227C11.7767 9.65967 11.7545 9.68127 11.7273 9.68127Z" fill="#472B29"/>
<path d="M10.1666 13.1166C9.36682 13.1164 8.29542 13.0992 7.88462 13.0676C7.17082 13.0108 7.14802 12.2888 7.12622 11.5906L7.12542 11.5634C7.12302 11.4854 7.12042 11.408 7.11682 11.332C7.11682 10.9378 7.15942 10.487 7.22842 10.153C7.36842 9.61701 7.69962 9.60761 8.24822 9.59201C8.32922 9.58961 8.41422 9.58721 8.50242 9.58281L8.60522 9.58101C8.79522 9.57701 9.29982 9.56641 10.1484 9.56641L10.1868 9.56661C10.4414 9.56661 10.6644 9.56761 10.8572 9.56901C10.8848 9.56921 10.907 9.59161 10.9068 9.61941C10.9066 9.64701 10.8882 9.67261 10.8564 9.66901C10.6638 9.66761 10.4412 9.66661 10.1868 9.66661L10.1482 9.66641C9.30102 9.66641 8.79722 9.67701 8.60742 9.68101C8.55522 9.68201 8.50582 9.68281 8.50502 9.68281C8.41862 9.68701 8.33302 9.68961 8.25142 9.69201C7.71562 9.70721 7.44662 9.71481 7.32602 10.1758C7.25922 10.501 7.21722 10.9442 7.21722 11.3296C7.22082 11.4036 7.22342 11.4816 7.22582 11.5602L7.22662 11.5874C7.24902 12.3014 7.26822 12.918 7.89282 12.9678C8.30082 12.999 9.36902 13.0162 10.167 13.0164C10.9656 13.0162 12.034 12.999 12.4414 12.9676C13.0658 12.9178 13.0852 12.3012 13.1076 11.5874L13.108 11.56C13.1106 11.4812 13.1132 11.4038 13.1168 11.3306C13.1168 10.9468 13.075 10.5038 13.0078 10.1772C12.887 9.71501 12.618 9.70741 12.0822 9.69221C12.0546 9.69141 12.0328 9.66841 12.0336 9.64081C12.0344 9.61321 12.06 9.59421 12.085 9.59221C12.6336 9.60781 12.9648 9.61721 13.1052 10.1544C13.1742 10.4898 13.2168 10.9404 13.2168 11.3332C13.2132 11.4084 13.2106 11.4854 13.208 11.5634L13.2072 11.591C13.1854 12.2888 13.1626 13.0108 12.4488 13.0676C12.0388 13.099 10.967 13.1164 10.1666 13.1166Z" fill="#472B29"/>
<path d="M7.29995 14.6996C7.29995 14.6996 7.61335 14.6996 7.99995 14.6996C8.38655 14.6996 8.69995 14.3862 8.69995 13.9996C8.69995 13.6434 8.43295 13.3528 8.08895 13.3086C8.09455 13.2728 8.09995 13.237 8.09995 13.1996C8.09995 12.813 7.78655 12.4996 7.39995 12.4996C7.19355 12.4996 7.00995 12.5906 6.88195 12.7326C6.80515 12.371 6.48455 12.0996 6.09995 12.0996C5.65815 12.0996 5.29995 12.4578 5.29995 12.8996C5.29995 12.9378 5.30595 12.9744 5.31115 13.0112C5.22555 12.9424 5.11835 12.8996 4.99995 12.8996C4.75435 12.8996 4.55095 13.077 4.50895 13.3106C4.47315 13.305 4.43735 13.2996 4.39995 13.2996C4.01335 13.2996 3.69995 13.613 3.69995 13.9996C3.69995 14.3862 4.01335 14.6996 4.39995 14.6996C4.78655 14.6996 5.89995 14.6996 5.89995 14.6996V14.7996H7.29995V14.6996Z" fill="#FDFCEF"/>
<path d="M7.64995 13.8002C7.62235 13.8002 7.59995 13.7778 7.59995 13.7502C7.59995 13.5056 7.79895 13.3066 8.04355 13.3066C8.05035 13.3084 8.19095 13.3064 8.29235 13.3338C8.31895 13.341 8.33475 13.3684 8.32755 13.395C8.32035 13.4218 8.29295 13.4376 8.26635 13.4302C8.17755 13.4062 8.04635 13.4062 8.04375 13.4066C7.85415 13.4066 7.69995 13.5608 7.69995 13.7502C7.69995 13.7778 7.67755 13.8002 7.64995 13.8002ZM6.29995 14.6002C6.27343 14.6002 6.24799 14.6108 6.22924 14.6295C6.21049 14.6483 6.19995 14.6737 6.19995 14.7002C6.19995 14.7268 6.21049 14.7522 6.22924 14.771C6.24799 14.7897 6.27343 14.8002 6.29995 14.8002C6.32647 14.8002 6.35191 14.7897 6.37066 14.771C6.38942 14.7522 6.39995 14.7268 6.39995 14.7002C6.39995 14.6737 6.38942 14.6483 6.37066 14.6295C6.35191 14.6108 6.32647 14.6002 6.29995 14.6002Z" fill="#472B29"/>
<path d="M7.99998 14.8H7.29998C7.24478 14.8 7.19998 14.7552 7.19998 14.7C7.19998 14.6448 7.24478 14.6 7.29998 14.6H7.99998C8.33078 14.6 8.59998 14.3308 8.59998 14C8.59998 13.7008 8.37498 13.4464 8.07638 13.4082C8.04958 13.4046 8.02538 13.3906 8.00918 13.369C7.99298 13.3474 7.98618 13.3202 7.99038 13.2936C7.99498 13.2628 7.99998 13.232 7.99998 13.2C7.99998 12.8692 7.73078 12.6 7.39998 12.6C7.22998 12.6 7.07238 12.671 6.95618 12.8C6.93118 12.8278 6.89198 12.8396 6.85618 12.8296C6.81978 12.8198 6.79198 12.7906 6.78418 12.7538C6.71598 12.433 6.42818 12.2 6.09998 12.2C5.71398 12.2 5.39998 12.514 5.39998 12.9C5.39998 12.9286 5.40418 12.956 5.40818 12.9836C5.41398 13.0242 5.39558 13.0712 5.35978 13.0916C5.32398 13.112 5.28058 13.1152 5.24858 13.0896C5.17558 13.031 5.08978 13 4.99998 13C4.80678 13 4.64158 13.1382 4.60738 13.3288C4.59778 13.3822 4.54818 13.418 4.49358 13.4098C4.46278 13.405 4.43198 13.4 4.39998 13.4C4.06918 13.4 3.79998 13.6692 3.79998 14C3.79998 14.3308 4.06918 14.6 4.39998 14.6H5.89998C5.95518 14.6 5.99998 14.6448 5.99998 14.7C5.99998 14.7552 5.95518 14.8 5.89998 14.8H4.39998C3.95878 14.8 3.59998 14.4412 3.59998 14C3.59998 13.5588 3.95878 13.2 4.39998 13.2C4.41178 13.2 4.42318 13.2004 4.43478 13.2012C4.51758 12.964 4.74218 12.8 4.99998 12.8C5.06978 12.8 5.13778 12.8122 5.20218 12.836C5.23518 12.3694 5.62518 12 6.09998 12C6.46618 12 6.79318 12.2254 6.93058 12.5548C7.06658 12.4552 7.23098 12.4 7.39998 12.4C7.84118 12.4 8.19998 12.7588 8.19998 13.2C8.19998 13.2096 8.19977 13.219 8.19917 13.2284C8.54777 13.318 8.79998 13.6338 8.79998 14C8.79998 14.4412 8.44118 14.8 7.99998 14.8Z" fill="#472B29"/>
<path d="M6.89998 14.5996C6.86818 14.5996 6.73178 14.5996 6.69998 14.5996C6.64478 14.5996 6.59998 14.6444 6.59998 14.6996C6.59998 14.7548 6.64478 14.7996 6.69998 14.7996C6.73178 14.7996 6.86818 14.7996 6.89998 14.7996C6.95518 14.7996 6.99998 14.7548 6.99998 14.6996C6.99998 14.6444 6.95518 14.5996 6.89998 14.5996Z" fill="#472B29"/>
</svg>
